M48
; DRILL file KiCad 10.0.3 date 2026-08-13T09:05:14
; FORMAT={-:-/ absolute / metric / decimal}
; #@! TF.CreationDate,2026-08-13T09:05:14+02:00
; #@! TF.GenerationSoftware,Kicad,Pcbnew,10.0.3
; #@! TF.FileFunction,Plated,1,2,PTH
FMAT,2
METRIC
; #@! TA.AperFunction,Plated,PTH,ComponentDrill
T1C1.000
%
G90
G05
T1
X28.87Y-25.4
X28.87Y-27.94
X28.87Y-30.48
X28.87Y-33.02
X28.87Y-35.56
X28.87Y-38.1
X28.87Y-40.64
X28.87Y-43.18
X28.87Y-45.72
X28.87Y-48.26
X28.87Y-50.8
X28.87Y-53.34
X28.87Y-55.88
X28.87Y-58.42
X28.87Y-60.96
X28.87Y-63.5
X28.87Y-66.04
X28.87Y-68.58
X28.87Y-71.12
X28.87Y-73.66
X31.41Y-25.4
X31.41Y-27.94
X31.41Y-30.48
X31.41Y-33.02
X31.41Y-35.56
X31.41Y-38.1
X31.41Y-40.64
X31.41Y-43.18
X31.41Y-45.72
X31.41Y-48.26
X31.41Y-50.8
X31.41Y-53.34
X31.41Y-55.88
X31.41Y-58.42
X31.41Y-60.96
X31.41Y-63.5
X31.41Y-66.04
X31.41Y-68.58
X31.41Y-71.12
X31.41Y-73.66
X43.942Y-25.4
X43.942Y-27.94
X43.942Y-30.48
X43.942Y-33.02
X43.942Y-35.56
X43.942Y-38.1
X43.942Y-40.64
X43.942Y-43.18
X43.942Y-45.72
X43.942Y-48.26
X43.942Y-50.8
X43.942Y-53.34
X43.942Y-55.88
X43.942Y-58.42
X43.942Y-60.96
X43.942Y-63.5
X43.942Y-66.04
X43.942Y-68.58
X43.942Y-71.12
X43.942Y-73.66
X46.482Y-25.4
X46.482Y-27.94
X46.482Y-30.48
X46.482Y-33.02
X46.482Y-35.56
X46.482Y-38.1
X46.482Y-40.64
X46.482Y-43.18
X46.482Y-45.72
X46.482Y-48.26
X46.482Y-50.8
X46.482Y-53.34
X46.482Y-55.88
X46.482Y-58.42
X46.482Y-60.96
X46.482Y-63.5
X46.482Y-66.04
X46.482Y-68.58
X46.482Y-71.12
X46.482Y-73.66
M30
