%TF.GenerationSoftware,KiCad,Pcbnew,10.0.3*%
%TF.CreationDate,2026-08-13T09:05:12+02:00*%
%TF.ProjectId,connector,636f6e6e-6563-4746-9f72-2e6b69636164,rev?*%
%TF.SameCoordinates,Original*%
%TF.FileFunction,Legend,Top*%
%TF.FilePolarity,Positive*%
%FSLAX46Y46*%
G04 Gerber Fmt 4.6, Leading zero omitted, Abs format (unit mm)*
G04 Created by KiCad (PCBNEW 10.0.3) date 2026-08-13 09:05:12*
%MOMM*%
%LPD*%
G01*
G04 APERTURE LIST*
%ADD10C,0.100000*%
%ADD11C,0.150000*%
%ADD12C,0.120000*%
G04 APERTURE END LIST*
D10*
X38734419Y-25114285D02*
X38734419Y-25685713D01*
X38734419Y-25399999D02*
X37734419Y-25399999D01*
X37734419Y-25399999D02*
X37877276Y-25495237D01*
X37877276Y-25495237D02*
X37972514Y-25590475D01*
X37972514Y-25590475D02*
X38020133Y-25685713D01*
X50767752Y-73945714D02*
X51434419Y-73945714D01*
X50386800Y-74183809D02*
X51101085Y-74421904D01*
X51101085Y-74421904D02*
X51101085Y-73802857D01*
X50434419Y-73231428D02*
X50434419Y-73136190D01*
X50434419Y-73136190D02*
X50482038Y-73040952D01*
X50482038Y-73040952D02*
X50529657Y-72993333D01*
X50529657Y-72993333D02*
X50624895Y-72945714D01*
X50624895Y-72945714D02*
X50815371Y-72898095D01*
X50815371Y-72898095D02*
X51053466Y-72898095D01*
X51053466Y-72898095D02*
X51243942Y-72945714D01*
X51243942Y-72945714D02*
X51339180Y-72993333D01*
X51339180Y-72993333D02*
X51386800Y-73040952D01*
X51386800Y-73040952D02*
X51434419Y-73136190D01*
X51434419Y-73136190D02*
X51434419Y-73231428D01*
X51434419Y-73231428D02*
X51386800Y-73326666D01*
X51386800Y-73326666D02*
X51339180Y-73374285D01*
X51339180Y-73374285D02*
X51243942Y-73421904D01*
X51243942Y-73421904D02*
X51053466Y-73469523D01*
X51053466Y-73469523D02*
X50815371Y-73469523D01*
X50815371Y-73469523D02*
X50624895Y-73421904D01*
X50624895Y-73421904D02*
X50529657Y-73374285D01*
X50529657Y-73374285D02*
X50482038Y-73326666D01*
X50482038Y-73326666D02*
X50434419Y-73231428D01*
X50529657Y-25685713D02*
X50482038Y-25638094D01*
X50482038Y-25638094D02*
X50434419Y-25542856D01*
X50434419Y-25542856D02*
X50434419Y-25304761D01*
X50434419Y-25304761D02*
X50482038Y-25209523D01*
X50482038Y-25209523D02*
X50529657Y-25161904D01*
X50529657Y-25161904D02*
X50624895Y-25114285D01*
X50624895Y-25114285D02*
X50720133Y-25114285D01*
X50720133Y-25114285D02*
X50862990Y-25161904D01*
X50862990Y-25161904D02*
X51434419Y-25733332D01*
X51434419Y-25733332D02*
X51434419Y-25114285D01*
X39004419Y-74469523D02*
X39004419Y-73850476D01*
X39004419Y-73850476D02*
X39385371Y-74183809D01*
X39385371Y-74183809D02*
X39385371Y-74040952D01*
X39385371Y-74040952D02*
X39432990Y-73945714D01*
X39432990Y-73945714D02*
X39480609Y-73898095D01*
X39480609Y-73898095D02*
X39575847Y-73850476D01*
X39575847Y-73850476D02*
X39813942Y-73850476D01*
X39813942Y-73850476D02*
X39909180Y-73898095D01*
X39909180Y-73898095D02*
X39956800Y-73945714D01*
X39956800Y-73945714D02*
X40004419Y-74040952D01*
X40004419Y-74040952D02*
X40004419Y-74326666D01*
X40004419Y-74326666D02*
X39956800Y-74421904D01*
X39956800Y-74421904D02*
X39909180Y-74469523D01*
X40004419Y-73374285D02*
X40004419Y-73183809D01*
X40004419Y-73183809D02*
X39956800Y-73088571D01*
X39956800Y-73088571D02*
X39909180Y-73040952D01*
X39909180Y-73040952D02*
X39766323Y-72945714D01*
X39766323Y-72945714D02*
X39575847Y-72898095D01*
X39575847Y-72898095D02*
X39194895Y-72898095D01*
X39194895Y-72898095D02*
X39099657Y-72945714D01*
X39099657Y-72945714D02*
X39052038Y-72993333D01*
X39052038Y-72993333D02*
X39004419Y-73088571D01*
X39004419Y-73088571D02*
X39004419Y-73279047D01*
X39004419Y-73279047D02*
X39052038Y-73374285D01*
X39052038Y-73374285D02*
X39099657Y-73421904D01*
X39099657Y-73421904D02*
X39194895Y-73469523D01*
X39194895Y-73469523D02*
X39432990Y-73469523D01*
X39432990Y-73469523D02*
X39528228Y-73421904D01*
X39528228Y-73421904D02*
X39575847Y-73374285D01*
X39575847Y-73374285D02*
X39623466Y-73279047D01*
X39623466Y-73279047D02*
X39623466Y-73088571D01*
X39623466Y-73088571D02*
X39575847Y-72993333D01*
X39575847Y-72993333D02*
X39528228Y-72945714D01*
X39528228Y-72945714D02*
X39432990Y-72898095D01*
X23748419Y-25114285D02*
X23748419Y-25685713D01*
X23748419Y-25399999D02*
X22748419Y-25399999D01*
X22748419Y-25399999D02*
X22891276Y-25495237D01*
X22891276Y-25495237D02*
X22986514Y-25590475D01*
X22986514Y-25590475D02*
X23034133Y-25685713D01*
X35781752Y-73945714D02*
X36448419Y-73945714D01*
X35400800Y-74183809D02*
X36115085Y-74421904D01*
X36115085Y-74421904D02*
X36115085Y-73802857D01*
X35448419Y-73231428D02*
X35448419Y-73136190D01*
X35448419Y-73136190D02*
X35496038Y-73040952D01*
X35496038Y-73040952D02*
X35543657Y-72993333D01*
X35543657Y-72993333D02*
X35638895Y-72945714D01*
X35638895Y-72945714D02*
X35829371Y-72898095D01*
X35829371Y-72898095D02*
X36067466Y-72898095D01*
X36067466Y-72898095D02*
X36257942Y-72945714D01*
X36257942Y-72945714D02*
X36353180Y-72993333D01*
X36353180Y-72993333D02*
X36400800Y-73040952D01*
X36400800Y-73040952D02*
X36448419Y-73136190D01*
X36448419Y-73136190D02*
X36448419Y-73231428D01*
X36448419Y-73231428D02*
X36400800Y-73326666D01*
X36400800Y-73326666D02*
X36353180Y-73374285D01*
X36353180Y-73374285D02*
X36257942Y-73421904D01*
X36257942Y-73421904D02*
X36067466Y-73469523D01*
X36067466Y-73469523D02*
X35829371Y-73469523D01*
X35829371Y-73469523D02*
X35638895Y-73421904D01*
X35638895Y-73421904D02*
X35543657Y-73374285D01*
X35543657Y-73374285D02*
X35496038Y-73326666D01*
X35496038Y-73326666D02*
X35448419Y-73231428D01*
X35543657Y-25685713D02*
X35496038Y-25638094D01*
X35496038Y-25638094D02*
X35448419Y-25542856D01*
X35448419Y-25542856D02*
X35448419Y-25304761D01*
X35448419Y-25304761D02*
X35496038Y-25209523D01*
X35496038Y-25209523D02*
X35543657Y-25161904D01*
X35543657Y-25161904D02*
X35638895Y-25114285D01*
X35638895Y-25114285D02*
X35734133Y-25114285D01*
X35734133Y-25114285D02*
X35876990Y-25161904D01*
X35876990Y-25161904D02*
X36448419Y-25733332D01*
X36448419Y-25733332D02*
X36448419Y-25114285D01*
X24018419Y-74469523D02*
X24018419Y-73850476D01*
X24018419Y-73850476D02*
X24399371Y-74183809D01*
X24399371Y-74183809D02*
X24399371Y-74040952D01*
X24399371Y-74040952D02*
X24446990Y-73945714D01*
X24446990Y-73945714D02*
X24494609Y-73898095D01*
X24494609Y-73898095D02*
X24589847Y-73850476D01*
X24589847Y-73850476D02*
X24827942Y-73850476D01*
X24827942Y-73850476D02*
X24923180Y-73898095D01*
X24923180Y-73898095D02*
X24970800Y-73945714D01*
X24970800Y-73945714D02*
X25018419Y-74040952D01*
X25018419Y-74040952D02*
X25018419Y-74326666D01*
X25018419Y-74326666D02*
X24970800Y-74421904D01*
X24970800Y-74421904D02*
X24923180Y-74469523D01*
X25018419Y-73374285D02*
X25018419Y-73183809D01*
X25018419Y-73183809D02*
X24970800Y-73088571D01*
X24970800Y-73088571D02*
X24923180Y-73040952D01*
X24923180Y-73040952D02*
X24780323Y-72945714D01*
X24780323Y-72945714D02*
X24589847Y-72898095D01*
X24589847Y-72898095D02*
X24208895Y-72898095D01*
X24208895Y-72898095D02*
X24113657Y-72945714D01*
X24113657Y-72945714D02*
X24066038Y-72993333D01*
X24066038Y-72993333D02*
X24018419Y-73088571D01*
X24018419Y-73088571D02*
X24018419Y-73279047D01*
X24018419Y-73279047D02*
X24066038Y-73374285D01*
X24066038Y-73374285D02*
X24113657Y-73421904D01*
X24113657Y-73421904D02*
X24208895Y-73469523D01*
X24208895Y-73469523D02*
X24446990Y-73469523D01*
X24446990Y-73469523D02*
X24542228Y-73421904D01*
X24542228Y-73421904D02*
X24589847Y-73374285D01*
X24589847Y-73374285D02*
X24637466Y-73279047D01*
X24637466Y-73279047D02*
X24637466Y-73088571D01*
X24637466Y-73088571D02*
X24589847Y-72993333D01*
X24589847Y-72993333D02*
X24542228Y-72945714D01*
X24542228Y-72945714D02*
X24446990Y-72898095D01*
D11*
X44878666Y-18754819D02*
X44878666Y-19469104D01*
X44878666Y-19469104D02*
X44831047Y-19611961D01*
X44831047Y-19611961D02*
X44735809Y-19707200D01*
X44735809Y-19707200D02*
X44592952Y-19754819D01*
X44592952Y-19754819D02*
X44497714Y-19754819D01*
X45307238Y-18850057D02*
X45354857Y-18802438D01*
X45354857Y-18802438D02*
X45450095Y-18754819D01*
X45450095Y-18754819D02*
X45688190Y-18754819D01*
X45688190Y-18754819D02*
X45783428Y-18802438D01*
X45783428Y-18802438D02*
X45831047Y-18850057D01*
X45831047Y-18850057D02*
X45878666Y-18945295D01*
X45878666Y-18945295D02*
X45878666Y-19040533D01*
X45878666Y-19040533D02*
X45831047Y-19183390D01*
X45831047Y-19183390D02*
X45259619Y-19754819D01*
X45259619Y-19754819D02*
X45878666Y-19754819D01*
X29806666Y-18754819D02*
X29806666Y-19469104D01*
X29806666Y-19469104D02*
X29759047Y-19611961D01*
X29759047Y-19611961D02*
X29663809Y-19707200D01*
X29663809Y-19707200D02*
X29520952Y-19754819D01*
X29520952Y-19754819D02*
X29425714Y-19754819D01*
X30806666Y-19754819D02*
X30235238Y-19754819D01*
X30520952Y-19754819D02*
X30520952Y-18754819D01*
X30520952Y-18754819D02*
X30425714Y-18897676D01*
X30425714Y-18897676D02*
X30330476Y-18992914D01*
X30330476Y-18992914D02*
X30235238Y-19040533D01*
%TO.C,J2*%
D12*
X49772000Y-78870000D02*
X40652000Y-78870000D01*
X49772000Y-20190000D02*
X49772000Y-78870000D01*
X48462000Y-77570000D02*
X41962000Y-77570000D01*
X48462000Y-21490000D02*
X48462000Y-77570000D01*
X41962000Y-77570000D02*
X41962000Y-51580000D01*
X41962000Y-51580000D02*
X40652000Y-51580000D01*
X41962000Y-47480000D02*
X41962000Y-21490000D01*
X41962000Y-21490000D02*
X48462000Y-21490000D01*
X40652000Y-78870000D02*
X40652000Y-20190000D01*
X40652000Y-47480000D02*
X41962000Y-47480000D01*
X40652000Y-20190000D02*
X49772000Y-20190000D01*
X40262000Y-25400000D02*
X39262000Y-24900000D01*
X39262000Y-25900000D02*
X40262000Y-25400000D01*
X39262000Y-24900000D02*
X39262000Y-25900000D01*
%TO.C,J1*%
X34700000Y-78870000D02*
X25580000Y-78870000D01*
X34700000Y-20190000D02*
X34700000Y-78870000D01*
X33390000Y-77570000D02*
X26890000Y-77570000D01*
X33390000Y-21490000D02*
X33390000Y-77570000D01*
X26890000Y-77570000D02*
X26890000Y-51580000D01*
X26890000Y-51580000D02*
X25580000Y-51580000D01*
X26890000Y-47480000D02*
X26890000Y-21490000D01*
X26890000Y-21490000D02*
X33390000Y-21490000D01*
X25580000Y-78870000D02*
X25580000Y-20190000D01*
X25580000Y-47480000D02*
X26890000Y-47480000D01*
X25580000Y-20190000D02*
X34700000Y-20190000D01*
X25190000Y-25400000D02*
X24190000Y-24900000D01*
X24190000Y-25900000D02*
X25190000Y-25400000D01*
X24190000Y-24900000D02*
X24190000Y-25900000D01*
%TD*%
M02*
