M48
; DRILL file KiCad 10.0.3 date 2026-08-22T09:11:20
; FORMAT={-:-/ absolute / metric / decimal}
; #@! TF.CreationDate,2026-08-22T09:11:20+02:00
; #@! TF.GenerationSoftware,Kicad,Pcbnew,10.0.3
; #@! TF.FileFunction,Plated,1,2,PTH
FMAT,2
METRIC
; #@! TA.AperFunction,Plated,PTH,ViaDrill
T1C0.300
; #@! TA.AperFunction,Plated,PTH,ComponentDrill
T2C0.500
; #@! TA.AperFunction,Plated,PTH,ComponentDrill
T3C0.800
; #@! TA.AperFunction,Plated,PTH,ComponentDrill
T4C1.000
; #@! TA.AperFunction,Plated,PTH,ComponentDrill
T5C1.100
; #@! TA.AperFunction,Plated,PTH,ComponentDrill
T6C3.200
%
G90
G05
T1
X17.78Y-37.465
X22.86Y-54.61
X24.13Y-24.765
X24.765Y-37.465
X33.077Y-35.56
X33.386Y-39.37
X33.43Y-42.389
X33.448Y-38.1
X33.655Y-29.21
X33.788Y-40.64
X34.29Y-33.02
X34.555Y-39.873
X36.83Y-22.86
X36.83Y-25.4
X36.83Y-26.67
X36.83Y-43.18
X36.839Y-52.948
X37.433Y-32.419
X38.112Y-36.595
X39.883Y-22.097
X40.005Y-24.13
X40.005Y-26.67
X41.91Y-20.955
X42.089Y-41.875
X42.294Y-38.139
X42.53Y-40.586
X43.109Y-35.56
X43.119Y-39.37
X44.65Y-43.997
X45.368Y-46.008
X45.682Y-22.886
X47.625Y-20.32
X47.625Y-36.83
X47.823Y-47.795
X48.26Y-34.925
X48.376Y-48.657
X48.379Y-30.72
X48.384Y-29.21
X48.386Y-32.42
X48.567Y-40.946
X48.661Y-41.957
X49.188Y-48.73
X50.145Y-50.706
X50.726Y-39.042
X51.078Y-33.689
X51.712Y-27.271
X52.185Y-35.329
X52.379Y-22.097
X52.852Y-48.694
X53.572Y-49.121
X54.248Y-49.757
X54.327Y-24.895
X55.021Y-41.75
X55.424Y-28.196
X55.483Y-48.52
X58.379Y-23.895
X58.628Y-46.008
X58.665Y-21.126
X59.081Y-50.673
X59.645Y-36.83
X59.69Y-19.05
X60.148Y-43.146
X60.57Y-34.571
X60.75Y-43.891
X61.243Y-48.53
X61.544Y-45.325
X61.91Y-21.782
X62.484Y-45.72
X64.135Y-20.32
X64.516Y-45.847
X65.837Y-45.201
X66.9Y-36.204
X67.603Y-50.073
X72.807Y-33.02
X74.328Y-49.774
X74.93Y-53.708
X76.428Y-48.72
X77.47Y-29.845
X77.47Y-34.925
X77.47Y-39.37
X78.74Y-20.32
X78.867Y-33.782
X83.875Y-20.416
T2
X16.65Y-20.828
X16.65Y-68.407
X17.353Y-19.131
X17.353Y-22.525
X17.353Y-66.71
X17.353Y-70.104
X19.05Y-18.428
X19.05Y-23.228
X19.05Y-66.007
X19.05Y-70.807
X20.747Y-19.131
X20.747Y-22.525
X20.747Y-66.71
X20.747Y-70.104
X21.45Y-20.828
X21.45Y-68.407
X97.93Y-20.968
X97.93Y-68.834
X98.633Y-19.271
X98.633Y-22.665
X98.633Y-67.137
X98.633Y-70.531
X100.33Y-18.568
X100.33Y-23.368
X100.33Y-66.434
X100.33Y-71.234
X102.027Y-19.271
X102.027Y-22.665
X102.027Y-67.137
X102.027Y-70.531
X102.73Y-20.968
X102.73Y-68.834
T3
X54.61Y-26.67
X54.61Y-29.21
X54.61Y-31.75
X54.61Y-34.29
X54.61Y-36.83
X54.61Y-39.37
X57.15Y-24.13
X57.15Y-26.67
X57.15Y-29.21
X57.15Y-31.75
X57.15Y-34.29
X57.15Y-36.83
X57.15Y-39.37
X57.15Y-41.91
X59.69Y-24.13
X59.69Y-26.67
X59.69Y-39.37
X59.69Y-41.91
X62.23Y-24.13
X62.23Y-26.67
X62.23Y-39.37
X62.23Y-41.91
X64.77Y-24.13
X64.77Y-26.67
X64.77Y-39.37
X64.77Y-41.91
X67.31Y-24.13
X67.31Y-26.67
X67.31Y-39.37
X67.31Y-41.91
X69.85Y-24.13
X69.85Y-26.67
X69.85Y-29.21
X69.85Y-31.75
X69.85Y-34.29
X69.85Y-36.83
X69.85Y-39.37
X69.85Y-41.91
X72.39Y-26.67
X72.39Y-29.21
X72.39Y-31.75
X72.39Y-34.29
X72.39Y-36.83
X72.39Y-39.37
X82.55Y-21.59
X82.55Y-24.13
X82.55Y-26.67
X82.55Y-29.21
X82.55Y-31.75
X82.55Y-34.29
X82.55Y-36.83
X82.55Y-39.37
X90.17Y-21.59
X90.17Y-24.13
X90.17Y-26.67
X90.17Y-29.21
X90.17Y-31.75
X90.17Y-34.29
X90.17Y-36.83
X90.17Y-39.37
X95.973Y-59.055
X98.473Y-59.055
T4
X19.05Y-30.988
X20.32Y-39.878
X20.32Y-42.418
X20.32Y-44.958
X20.32Y-47.498
X20.32Y-50.038
X21.59Y-30.988
X22.86Y-39.878
X22.86Y-42.418
X22.86Y-44.958
X22.86Y-47.498
X22.86Y-50.038
X24.13Y-30.988
X35.56Y-52.07
X35.56Y-54.61
X35.56Y-65.024
X35.56Y-67.564
X38.1Y-52.07
X38.1Y-54.61
X38.1Y-65.024
X38.1Y-67.564
X40.64Y-52.07
X40.64Y-54.61
X40.64Y-65.024
X40.64Y-67.564
X43.18Y-52.07
X43.18Y-54.61
X43.18Y-65.024
X43.18Y-67.564
X45.72Y-52.07
X45.72Y-54.61
X45.72Y-65.024
X45.72Y-67.564
X48.26Y-52.07
X48.26Y-54.61
X48.26Y-65.024
X48.26Y-67.564
X50.8Y-52.07
X50.8Y-54.61
X50.8Y-65.024
X50.8Y-67.564
X53.34Y-52.07
X53.34Y-54.61
X53.34Y-65.024
X53.34Y-67.564
X55.88Y-52.07
X55.88Y-54.61
X55.88Y-65.024
X55.88Y-67.564
X58.42Y-52.07
X58.42Y-54.61
X58.42Y-65.024
X58.42Y-67.564
X60.96Y-52.07
X60.96Y-54.61
X60.96Y-65.024
X60.96Y-67.564
X63.5Y-52.07
X63.5Y-54.61
X63.5Y-65.024
X63.5Y-67.564
X66.04Y-52.07
X66.04Y-54.61
X66.04Y-65.024
X66.04Y-67.564
X68.58Y-52.07
X68.58Y-54.61
X68.58Y-65.024
X68.58Y-67.564
X71.12Y-52.07
X71.12Y-54.61
X71.12Y-65.024
X71.12Y-67.564
X73.66Y-52.07
X73.66Y-54.61
X73.66Y-65.024
X73.66Y-67.564
X76.2Y-52.07
X76.2Y-54.61
X76.2Y-65.024
X76.2Y-67.564
X78.74Y-52.07
X78.74Y-54.61
X78.74Y-65.024
X78.74Y-67.564
X81.28Y-52.07
X81.28Y-54.61
X81.28Y-65.024
X81.28Y-67.564
X83.82Y-52.07
X83.82Y-54.61
X83.82Y-65.024
X83.82Y-67.564
T5
X98.425Y-45.715
X98.425Y-50.795
T6
X19.05Y-20.828
X19.05Y-68.407
X100.33Y-20.968
X100.33Y-68.834
M30
