%TF.GenerationSoftware,KiCad,Pcbnew,10.0.3*%
%TF.CreationDate,2026-09-11T15:18:45+02:00*%
%TF.ProjectId,p2000m-cpm-coboard,70323030-306d-42d6-9370-6d2d636f626f,rev?*%
%TF.SameCoordinates,Original*%
%TF.FileFunction,Paste,Top*%
%TF.FilePolarity,Positive*%
%FSLAX46Y46*%
G04 Gerber Fmt 4.6, Leading zero omitted, Abs format (unit mm)*
G04 Created by KiCad (PCBNEW 10.0.3) date 2026-09-11 15:18:45*
%MOMM*%
%LPD*%
G01*
G04 APERTURE LIST*
G04 Aperture macros list*
%AMRoundRect*
0 Rectangle with rounded corners*
0 $1 Rounding radius*
0 $2 $3 $4 $5 $6 $7 $8 $9 X,Y pos of 4 corners*
0 Add a 4 corners polygon primitive as box body*
4,1,4,$2,$3,$4,$5,$6,$7,$8,$9,$2,$3,0*
0 Add four circle primitives for the rounded corners*
1,1,$1+$1,$2,$3*
1,1,$1+$1,$4,$5*
1,1,$1+$1,$6,$7*
1,1,$1+$1,$8,$9*
0 Add four rect primitives between the rounded corners*
20,1,$1+$1,$2,$3,$4,$5,0*
20,1,$1+$1,$4,$5,$6,$7,0*
20,1,$1+$1,$6,$7,$8,$9,0*
20,1,$1+$1,$8,$9,$2,$3,0*%
G04 Aperture macros list end*
%ADD10RoundRect,0.250000X-0.475000X0.337500X-0.475000X-0.337500X0.475000X-0.337500X0.475000X0.337500X0*%
%ADD11RoundRect,0.150000X-0.875000X-0.150000X0.875000X-0.150000X0.875000X0.150000X-0.875000X0.150000X0*%
%ADD12RoundRect,0.250000X0.337500X0.475000X-0.337500X0.475000X-0.337500X-0.475000X0.337500X-0.475000X0*%
%ADD13RoundRect,0.250000X0.475000X-0.337500X0.475000X0.337500X-0.475000X0.337500X-0.475000X-0.337500X0*%
%ADD14RoundRect,0.250000X-0.337500X-0.475000X0.337500X-0.475000X0.337500X0.475000X-0.337500X0.475000X0*%
G04 APERTURE END LIST*
D10*
%TO.C,C4*%
X76200000Y-43092500D03*
X76200000Y-45167500D03*
%TD*%
D11*
%TO.C,U2*%
X33655000Y-66040000D03*
X33655000Y-67310000D03*
X33655000Y-68580000D03*
X33655000Y-69850000D03*
X33655000Y-71120000D03*
X33655000Y-72390000D03*
X33655000Y-73660000D03*
X33655000Y-74930000D03*
X33655000Y-76200000D03*
X33655000Y-77470000D03*
X33655000Y-78740000D03*
X33655000Y-80010000D03*
X33655000Y-81280000D03*
X33655000Y-82550000D03*
X33655000Y-83820000D03*
X33655000Y-85090000D03*
X46755000Y-85090000D03*
X46755000Y-83820000D03*
X46755000Y-82550000D03*
X46755000Y-81280000D03*
X46755000Y-80010000D03*
X46755000Y-78740000D03*
X46755000Y-77470000D03*
X46755000Y-76200000D03*
X46755000Y-74930000D03*
X46755000Y-73660000D03*
X46755000Y-72390000D03*
X46755000Y-71120000D03*
X46755000Y-69850000D03*
X46755000Y-68580000D03*
X46755000Y-67310000D03*
X46755000Y-66040000D03*
%TD*%
D12*
%TO.C,C3*%
X41275000Y-62865000D03*
X39200000Y-62865000D03*
%TD*%
%TO.C,C1*%
X63267500Y-58420000D03*
X61192500Y-58420000D03*
%TD*%
D13*
%TO.C,C5*%
X48260000Y-48347500D03*
X48260000Y-46272500D03*
%TD*%
D14*
%TO.C,C2*%
X61192500Y-30480000D03*
X63267500Y-30480000D03*
%TD*%
M02*
