M48
; DRILL file KiCad 10.0.3 date 2026-09-11T15:18:47
; FORMAT={-:-/ absolute / metric / decimal}
; #@! TF.CreationDate,2026-09-11T15:18:47+02:00
; #@! TF.GenerationSoftware,Kicad,Pcbnew,10.0.3
; #@! TF.FileFunction,Plated,1,2,PTH
FMAT,2
METRIC
; #@! TA.AperFunction,Plated,PTH,ViaDrill
T1C0.300
; #@! TA.AperFunction,Plated,PTH,ComponentDrill
T2C0.500
; #@! TA.AperFunction,Plated,PTH,ComponentDrill
T3C0.800
; #@! TA.AperFunction,Plated,PTH,ComponentDrill
T4C1.000
; #@! TA.AperFunction,Plated,PTH,ComponentDrill
T5C1.100
; #@! TA.AperFunction,Plated,PTH,ComponentDrill
T6C3.200
%
G90
G05
T1
X35.56Y-48.26
X35.56Y-67.31
X35.56Y-83.82
X35.56Y-90.17
X36.195Y-82.55
X36.195Y-89.535
X36.83Y-68.58
X36.83Y-81.28
X36.83Y-88.9
X37.465Y-80.01
X37.465Y-88.265
X38.1Y-78.74
X38.1Y-87.63
X38.735Y-77.47
X39.37Y-64.135
X39.37Y-85.09
X39.37Y-86.995
X40.005Y-76.2
X40.005Y-90.805
X40.64Y-74.93
X40.64Y-86.36
X41.275Y-59.69
X41.275Y-64.135
X41.275Y-66.04
X41.275Y-68.58
X41.275Y-73.66
X41.275Y-85.725
X41.91Y-64.77
X41.91Y-71.12
X41.91Y-72.39
X42.545Y-60.96
X43.18Y-69.215
X43.18Y-71.12
X43.18Y-73.025
X43.18Y-74.295
X43.18Y-85.09
X43.815Y-69.85
X43.815Y-71.755
X43.815Y-75.565
X43.815Y-83.82
X44.45Y-76.835
X44.45Y-82.55
X45.085Y-63.5
X45.085Y-78.74
X47.625Y-100.85
X48.26Y-50.165
X49.53Y-67.31
X50.8Y-69.85
X52.07Y-58.42
X52.07Y-69.85
X52.82Y-71.12
X55.88Y-63.5
X56.515Y-89.535
X57.785Y-88.9
X58.42Y-55.245
X60.325Y-52.07
X60.325Y-74.295
X60.325Y-90.17
X60.96Y-28.575
X60.96Y-31.75
X60.96Y-56.515
X62.865Y-33.655
X62.865Y-56.515
X62.865Y-76.835
X63.5Y-31.75
X63.5Y-55.245
X64.015Y-75.565
X65.405Y-78.105
X66.555Y-78.74
X66.675Y-87.63
X67.945Y-88.265
X69.215Y-90.64
X70.485Y-86.995
X71.755Y-60.96
X71.755Y-66.04
X71.755Y-85.725
X73.025Y-86.36
X74.295Y-59.69
X75.565Y-60.96
X75.565Y-64.77
X78.105Y-42.545
X78.105Y-73.66
X79.255Y-72.39
X80.645Y-74.93
X81.795Y-77.47
X81.915Y-41.275
X82.55Y-40.64
X83.185Y-73.025
X83.185Y-78.74
X83.82Y-54.61
X83.82Y-64.77
X84.455Y-53.975
X85.725Y-34.29
X86.36Y-39.89
X86.36Y-50.8
X86.995Y-36.83
X86.995Y-50.165
X86.995Y-78.14
X87.63Y-36.195
X88.239Y-50.2
X88.265Y-35.56
X88.265Y-76.2
X88.711Y-49.554
X88.9Y-34.29
X89.535Y-49.53
X90.17Y-48.895
X90.805Y-64.135
X90.805Y-65.405
X90.805Y-71.476
X96.52Y-45.72
X109.22Y-54.61
X109.22Y-73.66
X109.855Y-53.975
X109.855Y-71.12
X111.76Y-50.37
X111.76Y-94.615
X113.03Y-50.8
X113.665Y-51.435
X114.3Y-52.07
X114.935Y-52.705
X115.57Y-64.77
X116.84Y-52.705
X120.65Y-53.86
T2
X28.923Y-29.21
X28.923Y-98.633
X29.626Y-27.513
X29.626Y-30.907
X29.626Y-96.936
X29.626Y-100.33
X31.323Y-26.81
X31.323Y-31.61
X31.323Y-96.233
X31.323Y-101.033
X33.02Y-27.513
X33.02Y-30.907
X33.02Y-96.936
X33.02Y-100.33
X33.723Y-29.21
X33.723Y-98.633
X92.215Y-29.35
X92.918Y-27.653
X92.918Y-31.047
X94.615Y-26.95
X94.615Y-31.75
X96.312Y-27.653
X96.312Y-31.047
X97.015Y-29.35
X118.885Y-99.06
X119.588Y-97.363
X119.588Y-100.757
X121.285Y-96.66
X121.285Y-101.46
X122.982Y-97.363
X122.982Y-100.757
X123.685Y-99.06
T3
X53.34Y-38.1
X53.34Y-40.64
X53.34Y-43.18
X53.34Y-45.72
X53.34Y-48.26
X53.34Y-50.8
X55.88Y-35.56
X55.88Y-38.1
X55.88Y-40.64
X55.88Y-43.18
X55.88Y-45.72
X55.88Y-48.26
X55.88Y-50.8
X55.88Y-53.34
X58.42Y-35.56
X58.42Y-38.1
X58.42Y-50.8
X58.42Y-53.34
X60.96Y-35.56
X60.96Y-38.1
X60.96Y-50.8
X60.96Y-53.34
X63.5Y-35.56
X63.5Y-38.1
X63.5Y-50.8
X63.5Y-53.34
X66.04Y-35.56
X66.04Y-38.1
X66.04Y-50.8
X66.04Y-53.34
X68.58Y-35.56
X68.58Y-38.1
X68.58Y-40.64
X68.58Y-43.18
X68.58Y-45.72
X68.58Y-48.26
X68.58Y-50.8
X68.58Y-53.34
X71.12Y-38.1
X71.12Y-40.64
X71.12Y-43.18
X71.12Y-45.72
X71.12Y-48.26
X71.12Y-50.8
X90.21Y-56.515
X92.71Y-56.515
X111.76Y-58.42
X111.76Y-60.96
X111.76Y-63.5
X111.76Y-66.04
X111.76Y-68.58
X111.76Y-71.12
X111.76Y-73.66
X111.76Y-76.2
X119.38Y-58.42
X119.38Y-60.96
X119.38Y-63.5
X119.38Y-66.04
X119.38Y-68.58
X119.38Y-71.12
X119.38Y-73.66
X119.38Y-76.2
T4
X55.245Y-67.31
X55.245Y-69.85
X55.245Y-80.645
X55.245Y-83.185
X57.785Y-67.31
X57.785Y-69.85
X57.785Y-80.645
X57.785Y-83.185
X60.325Y-67.31
X60.325Y-69.85
X60.325Y-80.645
X60.325Y-83.185
X62.865Y-67.31
X62.865Y-69.85
X62.865Y-80.645
X62.865Y-83.185
X65.405Y-67.31
X65.405Y-69.85
X65.405Y-80.645
X65.405Y-83.185
X67.945Y-67.31
X67.945Y-69.85
X67.945Y-80.645
X67.945Y-83.185
X70.485Y-67.31
X70.485Y-69.85
X70.485Y-80.645
X70.485Y-83.185
X73.025Y-67.31
X73.025Y-69.85
X73.025Y-80.645
X73.025Y-83.185
X75.565Y-67.31
X75.565Y-69.85
X75.565Y-80.645
X75.565Y-83.185
X78.105Y-67.31
X78.105Y-69.85
X78.105Y-80.645
X78.105Y-83.185
X80.645Y-67.31
X80.645Y-69.85
X80.645Y-80.645
X80.645Y-83.185
X83.185Y-67.31
X83.185Y-69.85
X83.185Y-80.645
X83.185Y-83.185
X85.725Y-67.31
X85.725Y-69.85
X85.725Y-80.645
X85.725Y-83.185
X88.265Y-67.31
X88.265Y-69.85
X88.265Y-80.645
X88.265Y-83.185
X90.805Y-67.31
X90.805Y-69.85
X90.805Y-80.645
X90.805Y-83.185
X93.345Y-67.31
X93.345Y-69.85
X93.345Y-80.645
X93.345Y-83.185
X95.885Y-67.31
X95.885Y-69.85
X95.885Y-80.645
X95.885Y-83.185
X98.425Y-67.31
X98.425Y-69.85
X98.425Y-80.645
X98.425Y-83.185
X100.965Y-67.31
X100.965Y-69.85
X100.965Y-80.645
X100.965Y-83.185
X103.505Y-67.31
X103.505Y-69.85
X103.505Y-80.645
X103.505Y-83.185
T5
X91.44Y-40.64
X91.44Y-45.72
T6
X31.323Y-29.21
X31.323Y-98.633
X94.615Y-29.35
X121.285Y-99.06
M30
