%TF.GenerationSoftware,KiCad,Pcbnew,10.0.3*%
%TF.CreationDate,2026-09-11T15:18:45+02:00*%
%TF.ProjectId,p2000m-cpm-coboard,70323030-306d-42d6-9370-6d2d636f626f,rev?*%
%TF.SameCoordinates,Original*%
%TF.FileFunction,Legend,Bot*%
%TF.FilePolarity,Positive*%
%FSLAX46Y46*%
G04 Gerber Fmt 4.6, Leading zero omitted, Abs format (unit mm)*
G04 Created by KiCad (PCBNEW 10.0.3) date 2026-09-11 15:18:45*
%MOMM*%
%LPD*%
G01*
G04 APERTURE LIST*
%ADD10C,0.100000*%
G04 APERTURE END LIST*
D10*
X109805115Y-72770419D02*
X109805115Y-71770419D01*
X109376544Y-72770419D02*
X109376544Y-72246609D01*
X109376544Y-72246609D02*
X109424163Y-72151371D01*
X109424163Y-72151371D02*
X109519401Y-72103752D01*
X109519401Y-72103752D02*
X109662258Y-72103752D01*
X109662258Y-72103752D02*
X109757496Y-72151371D01*
X109757496Y-72151371D02*
X109805115Y-72198990D01*
X109043210Y-72103752D02*
X108662258Y-72103752D01*
X108900353Y-71770419D02*
X108900353Y-72627561D01*
X108900353Y-72627561D02*
X108852734Y-72722800D01*
X108852734Y-72722800D02*
X108757496Y-72770419D01*
X108757496Y-72770419D02*
X108662258Y-72770419D01*
X108471781Y-72103752D02*
X108090829Y-72103752D01*
X108328924Y-71770419D02*
X108328924Y-72627561D01*
X108328924Y-72627561D02*
X108281305Y-72722800D01*
X108281305Y-72722800D02*
X108186067Y-72770419D01*
X108186067Y-72770419D02*
X108090829Y-72770419D01*
X107757495Y-72103752D02*
X107757495Y-73103752D01*
X107757495Y-72151371D02*
X107662257Y-72103752D01*
X107662257Y-72103752D02*
X107471781Y-72103752D01*
X107471781Y-72103752D02*
X107376543Y-72151371D01*
X107376543Y-72151371D02*
X107328924Y-72198990D01*
X107328924Y-72198990D02*
X107281305Y-72294228D01*
X107281305Y-72294228D02*
X107281305Y-72579942D01*
X107281305Y-72579942D02*
X107328924Y-72675180D01*
X107328924Y-72675180D02*
X107376543Y-72722800D01*
X107376543Y-72722800D02*
X107471781Y-72770419D01*
X107471781Y-72770419D02*
X107662257Y-72770419D01*
X107662257Y-72770419D02*
X107757495Y-72722800D01*
X106900352Y-72722800D02*
X106805114Y-72770419D01*
X106805114Y-72770419D02*
X106614638Y-72770419D01*
X106614638Y-72770419D02*
X106519400Y-72722800D01*
X106519400Y-72722800D02*
X106471781Y-72627561D01*
X106471781Y-72627561D02*
X106471781Y-72579942D01*
X106471781Y-72579942D02*
X106519400Y-72484704D01*
X106519400Y-72484704D02*
X106614638Y-72437085D01*
X106614638Y-72437085D02*
X106757495Y-72437085D01*
X106757495Y-72437085D02*
X106852733Y-72389466D01*
X106852733Y-72389466D02*
X106900352Y-72294228D01*
X106900352Y-72294228D02*
X106900352Y-72246609D01*
X106900352Y-72246609D02*
X106852733Y-72151371D01*
X106852733Y-72151371D02*
X106757495Y-72103752D01*
X106757495Y-72103752D02*
X106614638Y-72103752D01*
X106614638Y-72103752D02*
X106519400Y-72151371D01*
X106043209Y-72675180D02*
X105995590Y-72722800D01*
X105995590Y-72722800D02*
X106043209Y-72770419D01*
X106043209Y-72770419D02*
X106090828Y-72722800D01*
X106090828Y-72722800D02*
X106043209Y-72675180D01*
X106043209Y-72675180D02*
X106043209Y-72770419D01*
X106043209Y-72151371D02*
X105995590Y-72198990D01*
X105995590Y-72198990D02*
X106043209Y-72246609D01*
X106043209Y-72246609D02*
X106090828Y-72198990D01*
X106090828Y-72198990D02*
X106043209Y-72151371D01*
X106043209Y-72151371D02*
X106043209Y-72246609D01*
X104852734Y-71722800D02*
X105709876Y-73008514D01*
X103805115Y-71722800D02*
X104662257Y-73008514D01*
X103043210Y-72103752D02*
X103043210Y-72913276D01*
X103043210Y-72913276D02*
X103090829Y-73008514D01*
X103090829Y-73008514D02*
X103138448Y-73056133D01*
X103138448Y-73056133D02*
X103233686Y-73103752D01*
X103233686Y-73103752D02*
X103376543Y-73103752D01*
X103376543Y-73103752D02*
X103471781Y-73056133D01*
X103043210Y-72722800D02*
X103138448Y-72770419D01*
X103138448Y-72770419D02*
X103328924Y-72770419D01*
X103328924Y-72770419D02*
X103424162Y-72722800D01*
X103424162Y-72722800D02*
X103471781Y-72675180D01*
X103471781Y-72675180D02*
X103519400Y-72579942D01*
X103519400Y-72579942D02*
X103519400Y-72294228D01*
X103519400Y-72294228D02*
X103471781Y-72198990D01*
X103471781Y-72198990D02*
X103424162Y-72151371D01*
X103424162Y-72151371D02*
X103328924Y-72103752D01*
X103328924Y-72103752D02*
X103138448Y-72103752D01*
X103138448Y-72103752D02*
X103043210Y-72151371D01*
X102567019Y-72770419D02*
X102567019Y-72103752D01*
X102567019Y-71770419D02*
X102614638Y-71818038D01*
X102614638Y-71818038D02*
X102567019Y-71865657D01*
X102567019Y-71865657D02*
X102519400Y-71818038D01*
X102519400Y-71818038D02*
X102567019Y-71770419D01*
X102567019Y-71770419D02*
X102567019Y-71865657D01*
X102233686Y-72103752D02*
X101852734Y-72103752D01*
X102090829Y-71770419D02*
X102090829Y-72627561D01*
X102090829Y-72627561D02*
X102043210Y-72722800D01*
X102043210Y-72722800D02*
X101947972Y-72770419D01*
X101947972Y-72770419D02*
X101852734Y-72770419D01*
X101519400Y-72770419D02*
X101519400Y-71770419D01*
X101090829Y-72770419D02*
X101090829Y-72246609D01*
X101090829Y-72246609D02*
X101138448Y-72151371D01*
X101138448Y-72151371D02*
X101233686Y-72103752D01*
X101233686Y-72103752D02*
X101376543Y-72103752D01*
X101376543Y-72103752D02*
X101471781Y-72151371D01*
X101471781Y-72151371D02*
X101519400Y-72198990D01*
X100186067Y-72103752D02*
X100186067Y-72770419D01*
X100614638Y-72103752D02*
X100614638Y-72627561D01*
X100614638Y-72627561D02*
X100567019Y-72722800D01*
X100567019Y-72722800D02*
X100471781Y-72770419D01*
X100471781Y-72770419D02*
X100328924Y-72770419D01*
X100328924Y-72770419D02*
X100233686Y-72722800D01*
X100233686Y-72722800D02*
X100186067Y-72675180D01*
X99709876Y-72770419D02*
X99709876Y-71770419D01*
X99709876Y-72151371D02*
X99614638Y-72103752D01*
X99614638Y-72103752D02*
X99424162Y-72103752D01*
X99424162Y-72103752D02*
X99328924Y-72151371D01*
X99328924Y-72151371D02*
X99281305Y-72198990D01*
X99281305Y-72198990D02*
X99233686Y-72294228D01*
X99233686Y-72294228D02*
X99233686Y-72579942D01*
X99233686Y-72579942D02*
X99281305Y-72675180D01*
X99281305Y-72675180D02*
X99328924Y-72722800D01*
X99328924Y-72722800D02*
X99424162Y-72770419D01*
X99424162Y-72770419D02*
X99614638Y-72770419D01*
X99614638Y-72770419D02*
X99709876Y-72722800D01*
X98805114Y-72675180D02*
X98757495Y-72722800D01*
X98757495Y-72722800D02*
X98805114Y-72770419D01*
X98805114Y-72770419D02*
X98852733Y-72722800D01*
X98852733Y-72722800D02*
X98805114Y-72675180D01*
X98805114Y-72675180D02*
X98805114Y-72770419D01*
X97900353Y-72722800D02*
X97995591Y-72770419D01*
X97995591Y-72770419D02*
X98186067Y-72770419D01*
X98186067Y-72770419D02*
X98281305Y-72722800D01*
X98281305Y-72722800D02*
X98328924Y-72675180D01*
X98328924Y-72675180D02*
X98376543Y-72579942D01*
X98376543Y-72579942D02*
X98376543Y-72294228D01*
X98376543Y-72294228D02*
X98328924Y-72198990D01*
X98328924Y-72198990D02*
X98281305Y-72151371D01*
X98281305Y-72151371D02*
X98186067Y-72103752D01*
X98186067Y-72103752D02*
X97995591Y-72103752D01*
X97995591Y-72103752D02*
X97900353Y-72151371D01*
X97328924Y-72770419D02*
X97424162Y-72722800D01*
X97424162Y-72722800D02*
X97471781Y-72675180D01*
X97471781Y-72675180D02*
X97519400Y-72579942D01*
X97519400Y-72579942D02*
X97519400Y-72294228D01*
X97519400Y-72294228D02*
X97471781Y-72198990D01*
X97471781Y-72198990D02*
X97424162Y-72151371D01*
X97424162Y-72151371D02*
X97328924Y-72103752D01*
X97328924Y-72103752D02*
X97186067Y-72103752D01*
X97186067Y-72103752D02*
X97090829Y-72151371D01*
X97090829Y-72151371D02*
X97043210Y-72198990D01*
X97043210Y-72198990D02*
X96995591Y-72294228D01*
X96995591Y-72294228D02*
X96995591Y-72579942D01*
X96995591Y-72579942D02*
X97043210Y-72675180D01*
X97043210Y-72675180D02*
X97090829Y-72722800D01*
X97090829Y-72722800D02*
X97186067Y-72770419D01*
X97186067Y-72770419D02*
X97328924Y-72770419D01*
X96567019Y-72770419D02*
X96567019Y-72103752D01*
X96567019Y-72198990D02*
X96519400Y-72151371D01*
X96519400Y-72151371D02*
X96424162Y-72103752D01*
X96424162Y-72103752D02*
X96281305Y-72103752D01*
X96281305Y-72103752D02*
X96186067Y-72151371D01*
X96186067Y-72151371D02*
X96138448Y-72246609D01*
X96138448Y-72246609D02*
X96138448Y-72770419D01*
X96138448Y-72246609D02*
X96090829Y-72151371D01*
X96090829Y-72151371D02*
X95995591Y-72103752D01*
X95995591Y-72103752D02*
X95852734Y-72103752D01*
X95852734Y-72103752D02*
X95757495Y-72151371D01*
X95757495Y-72151371D02*
X95709876Y-72246609D01*
X95709876Y-72246609D02*
X95709876Y-72770419D01*
X94519401Y-71722800D02*
X95376543Y-73008514D01*
X94186067Y-72770419D02*
X94186067Y-72103752D01*
X94186067Y-71770419D02*
X94233686Y-71818038D01*
X94233686Y-71818038D02*
X94186067Y-71865657D01*
X94186067Y-71865657D02*
X94138448Y-71818038D01*
X94138448Y-71818038D02*
X94186067Y-71770419D01*
X94186067Y-71770419D02*
X94186067Y-71865657D01*
X93852734Y-72103752D02*
X93471782Y-72103752D01*
X93709877Y-72770419D02*
X93709877Y-71913276D01*
X93709877Y-71913276D02*
X93662258Y-71818038D01*
X93662258Y-71818038D02*
X93567020Y-71770419D01*
X93567020Y-71770419D02*
X93471782Y-71770419D01*
X93138448Y-72770419D02*
X93138448Y-72103752D01*
X93138448Y-71770419D02*
X93186067Y-71818038D01*
X93186067Y-71818038D02*
X93138448Y-71865657D01*
X93138448Y-71865657D02*
X93090829Y-71818038D01*
X93090829Y-71818038D02*
X93138448Y-71770419D01*
X93138448Y-71770419D02*
X93138448Y-71865657D01*
X92519401Y-72770419D02*
X92614639Y-72722800D01*
X92614639Y-72722800D02*
X92662258Y-72627561D01*
X92662258Y-72627561D02*
X92662258Y-71770419D01*
X91995591Y-72770419D02*
X92090829Y-72722800D01*
X92090829Y-72722800D02*
X92138448Y-72675180D01*
X92138448Y-72675180D02*
X92186067Y-72579942D01*
X92186067Y-72579942D02*
X92186067Y-72294228D01*
X92186067Y-72294228D02*
X92138448Y-72198990D01*
X92138448Y-72198990D02*
X92090829Y-72151371D01*
X92090829Y-72151371D02*
X91995591Y-72103752D01*
X91995591Y-72103752D02*
X91852734Y-72103752D01*
X91852734Y-72103752D02*
X91757496Y-72151371D01*
X91757496Y-72151371D02*
X91709877Y-72198990D01*
X91709877Y-72198990D02*
X91662258Y-72294228D01*
X91662258Y-72294228D02*
X91662258Y-72579942D01*
X91662258Y-72579942D02*
X91709877Y-72675180D01*
X91709877Y-72675180D02*
X91757496Y-72722800D01*
X91757496Y-72722800D02*
X91852734Y-72770419D01*
X91852734Y-72770419D02*
X91995591Y-72770419D01*
X91376543Y-72103752D02*
X90995591Y-72103752D01*
X91233686Y-71770419D02*
X91233686Y-72627561D01*
X91233686Y-72627561D02*
X91186067Y-72722800D01*
X91186067Y-72722800D02*
X91090829Y-72770419D01*
X91090829Y-72770419D02*
X90995591Y-72770419D01*
X89947972Y-71722800D02*
X90805114Y-73008514D01*
X89614638Y-72103752D02*
X89614638Y-73103752D01*
X89614638Y-72151371D02*
X89519400Y-72103752D01*
X89519400Y-72103752D02*
X89328924Y-72103752D01*
X89328924Y-72103752D02*
X89233686Y-72151371D01*
X89233686Y-72151371D02*
X89186067Y-72198990D01*
X89186067Y-72198990D02*
X89138448Y-72294228D01*
X89138448Y-72294228D02*
X89138448Y-72579942D01*
X89138448Y-72579942D02*
X89186067Y-72675180D01*
X89186067Y-72675180D02*
X89233686Y-72722800D01*
X89233686Y-72722800D02*
X89328924Y-72770419D01*
X89328924Y-72770419D02*
X89519400Y-72770419D01*
X89519400Y-72770419D02*
X89614638Y-72722800D01*
X88757495Y-71865657D02*
X88709876Y-71818038D01*
X88709876Y-71818038D02*
X88614638Y-71770419D01*
X88614638Y-71770419D02*
X88376543Y-71770419D01*
X88376543Y-71770419D02*
X88281305Y-71818038D01*
X88281305Y-71818038D02*
X88233686Y-71865657D01*
X88233686Y-71865657D02*
X88186067Y-71960895D01*
X88186067Y-71960895D02*
X88186067Y-72056133D01*
X88186067Y-72056133D02*
X88233686Y-72198990D01*
X88233686Y-72198990D02*
X88805114Y-72770419D01*
X88805114Y-72770419D02*
X88186067Y-72770419D01*
X87567019Y-71770419D02*
X87471781Y-71770419D01*
X87471781Y-71770419D02*
X87376543Y-71818038D01*
X87376543Y-71818038D02*
X87328924Y-71865657D01*
X87328924Y-71865657D02*
X87281305Y-71960895D01*
X87281305Y-71960895D02*
X87233686Y-72151371D01*
X87233686Y-72151371D02*
X87233686Y-72389466D01*
X87233686Y-72389466D02*
X87281305Y-72579942D01*
X87281305Y-72579942D02*
X87328924Y-72675180D01*
X87328924Y-72675180D02*
X87376543Y-72722800D01*
X87376543Y-72722800D02*
X87471781Y-72770419D01*
X87471781Y-72770419D02*
X87567019Y-72770419D01*
X87567019Y-72770419D02*
X87662257Y-72722800D01*
X87662257Y-72722800D02*
X87709876Y-72675180D01*
X87709876Y-72675180D02*
X87757495Y-72579942D01*
X87757495Y-72579942D02*
X87805114Y-72389466D01*
X87805114Y-72389466D02*
X87805114Y-72151371D01*
X87805114Y-72151371D02*
X87757495Y-71960895D01*
X87757495Y-71960895D02*
X87709876Y-71865657D01*
X87709876Y-71865657D02*
X87662257Y-71818038D01*
X87662257Y-71818038D02*
X87567019Y-71770419D01*
X86614638Y-71770419D02*
X86519400Y-71770419D01*
X86519400Y-71770419D02*
X86424162Y-71818038D01*
X86424162Y-71818038D02*
X86376543Y-71865657D01*
X86376543Y-71865657D02*
X86328924Y-71960895D01*
X86328924Y-71960895D02*
X86281305Y-72151371D01*
X86281305Y-72151371D02*
X86281305Y-72389466D01*
X86281305Y-72389466D02*
X86328924Y-72579942D01*
X86328924Y-72579942D02*
X86376543Y-72675180D01*
X86376543Y-72675180D02*
X86424162Y-72722800D01*
X86424162Y-72722800D02*
X86519400Y-72770419D01*
X86519400Y-72770419D02*
X86614638Y-72770419D01*
X86614638Y-72770419D02*
X86709876Y-72722800D01*
X86709876Y-72722800D02*
X86757495Y-72675180D01*
X86757495Y-72675180D02*
X86805114Y-72579942D01*
X86805114Y-72579942D02*
X86852733Y-72389466D01*
X86852733Y-72389466D02*
X86852733Y-72151371D01*
X86852733Y-72151371D02*
X86805114Y-71960895D01*
X86805114Y-71960895D02*
X86757495Y-71865657D01*
X86757495Y-71865657D02*
X86709876Y-71818038D01*
X86709876Y-71818038D02*
X86614638Y-71770419D01*
X85662257Y-71770419D02*
X85567019Y-71770419D01*
X85567019Y-71770419D02*
X85471781Y-71818038D01*
X85471781Y-71818038D02*
X85424162Y-71865657D01*
X85424162Y-71865657D02*
X85376543Y-71960895D01*
X85376543Y-71960895D02*
X85328924Y-72151371D01*
X85328924Y-72151371D02*
X85328924Y-72389466D01*
X85328924Y-72389466D02*
X85376543Y-72579942D01*
X85376543Y-72579942D02*
X85424162Y-72675180D01*
X85424162Y-72675180D02*
X85471781Y-72722800D01*
X85471781Y-72722800D02*
X85567019Y-72770419D01*
X85567019Y-72770419D02*
X85662257Y-72770419D01*
X85662257Y-72770419D02*
X85757495Y-72722800D01*
X85757495Y-72722800D02*
X85805114Y-72675180D01*
X85805114Y-72675180D02*
X85852733Y-72579942D01*
X85852733Y-72579942D02*
X85900352Y-72389466D01*
X85900352Y-72389466D02*
X85900352Y-72151371D01*
X85900352Y-72151371D02*
X85852733Y-71960895D01*
X85852733Y-71960895D02*
X85805114Y-71865657D01*
X85805114Y-71865657D02*
X85757495Y-71818038D01*
X85757495Y-71818038D02*
X85662257Y-71770419D01*
X84900352Y-72770419D02*
X84900352Y-72103752D01*
X84900352Y-72198990D02*
X84852733Y-72151371D01*
X84852733Y-72151371D02*
X84757495Y-72103752D01*
X84757495Y-72103752D02*
X84614638Y-72103752D01*
X84614638Y-72103752D02*
X84519400Y-72151371D01*
X84519400Y-72151371D02*
X84471781Y-72246609D01*
X84471781Y-72246609D02*
X84471781Y-72770419D01*
X84471781Y-72246609D02*
X84424162Y-72151371D01*
X84424162Y-72151371D02*
X84328924Y-72103752D01*
X84328924Y-72103752D02*
X84186067Y-72103752D01*
X84186067Y-72103752D02*
X84090828Y-72151371D01*
X84090828Y-72151371D02*
X84043209Y-72246609D01*
X84043209Y-72246609D02*
X84043209Y-72770419D01*
X83567019Y-72389466D02*
X82805115Y-72389466D01*
X81900353Y-72722800D02*
X81995591Y-72770419D01*
X81995591Y-72770419D02*
X82186067Y-72770419D01*
X82186067Y-72770419D02*
X82281305Y-72722800D01*
X82281305Y-72722800D02*
X82328924Y-72675180D01*
X82328924Y-72675180D02*
X82376543Y-72579942D01*
X82376543Y-72579942D02*
X82376543Y-72294228D01*
X82376543Y-72294228D02*
X82328924Y-72198990D01*
X82328924Y-72198990D02*
X82281305Y-72151371D01*
X82281305Y-72151371D02*
X82186067Y-72103752D01*
X82186067Y-72103752D02*
X81995591Y-72103752D01*
X81995591Y-72103752D02*
X81900353Y-72151371D01*
X81471781Y-72103752D02*
X81471781Y-73103752D01*
X81471781Y-72151371D02*
X81376543Y-72103752D01*
X81376543Y-72103752D02*
X81186067Y-72103752D01*
X81186067Y-72103752D02*
X81090829Y-72151371D01*
X81090829Y-72151371D02*
X81043210Y-72198990D01*
X81043210Y-72198990D02*
X80995591Y-72294228D01*
X80995591Y-72294228D02*
X80995591Y-72579942D01*
X80995591Y-72579942D02*
X81043210Y-72675180D01*
X81043210Y-72675180D02*
X81090829Y-72722800D01*
X81090829Y-72722800D02*
X81186067Y-72770419D01*
X81186067Y-72770419D02*
X81376543Y-72770419D01*
X81376543Y-72770419D02*
X81471781Y-72722800D01*
X80567019Y-72770419D02*
X80567019Y-72103752D01*
X80567019Y-72198990D02*
X80519400Y-72151371D01*
X80519400Y-72151371D02*
X80424162Y-72103752D01*
X80424162Y-72103752D02*
X80281305Y-72103752D01*
X80281305Y-72103752D02*
X80186067Y-72151371D01*
X80186067Y-72151371D02*
X80138448Y-72246609D01*
X80138448Y-72246609D02*
X80138448Y-72770419D01*
X80138448Y-72246609D02*
X80090829Y-72151371D01*
X80090829Y-72151371D02*
X79995591Y-72103752D01*
X79995591Y-72103752D02*
X79852734Y-72103752D01*
X79852734Y-72103752D02*
X79757495Y-72151371D01*
X79757495Y-72151371D02*
X79709876Y-72246609D01*
X79709876Y-72246609D02*
X79709876Y-72770419D01*
X79233686Y-72389466D02*
X78471782Y-72389466D01*
X77567020Y-72722800D02*
X77662258Y-72770419D01*
X77662258Y-72770419D02*
X77852734Y-72770419D01*
X77852734Y-72770419D02*
X77947972Y-72722800D01*
X77947972Y-72722800D02*
X77995591Y-72675180D01*
X77995591Y-72675180D02*
X78043210Y-72579942D01*
X78043210Y-72579942D02*
X78043210Y-72294228D01*
X78043210Y-72294228D02*
X77995591Y-72198990D01*
X77995591Y-72198990D02*
X77947972Y-72151371D01*
X77947972Y-72151371D02*
X77852734Y-72103752D01*
X77852734Y-72103752D02*
X77662258Y-72103752D01*
X77662258Y-72103752D02*
X77567020Y-72151371D01*
X76995591Y-72770419D02*
X77090829Y-72722800D01*
X77090829Y-72722800D02*
X77138448Y-72675180D01*
X77138448Y-72675180D02*
X77186067Y-72579942D01*
X77186067Y-72579942D02*
X77186067Y-72294228D01*
X77186067Y-72294228D02*
X77138448Y-72198990D01*
X77138448Y-72198990D02*
X77090829Y-72151371D01*
X77090829Y-72151371D02*
X76995591Y-72103752D01*
X76995591Y-72103752D02*
X76852734Y-72103752D01*
X76852734Y-72103752D02*
X76757496Y-72151371D01*
X76757496Y-72151371D02*
X76709877Y-72198990D01*
X76709877Y-72198990D02*
X76662258Y-72294228D01*
X76662258Y-72294228D02*
X76662258Y-72579942D01*
X76662258Y-72579942D02*
X76709877Y-72675180D01*
X76709877Y-72675180D02*
X76757496Y-72722800D01*
X76757496Y-72722800D02*
X76852734Y-72770419D01*
X76852734Y-72770419D02*
X76995591Y-72770419D01*
X76233686Y-72770419D02*
X76233686Y-71770419D01*
X76233686Y-72151371D02*
X76138448Y-72103752D01*
X76138448Y-72103752D02*
X75947972Y-72103752D01*
X75947972Y-72103752D02*
X75852734Y-72151371D01*
X75852734Y-72151371D02*
X75805115Y-72198990D01*
X75805115Y-72198990D02*
X75757496Y-72294228D01*
X75757496Y-72294228D02*
X75757496Y-72579942D01*
X75757496Y-72579942D02*
X75805115Y-72675180D01*
X75805115Y-72675180D02*
X75852734Y-72722800D01*
X75852734Y-72722800D02*
X75947972Y-72770419D01*
X75947972Y-72770419D02*
X76138448Y-72770419D01*
X76138448Y-72770419D02*
X76233686Y-72722800D01*
X75186067Y-72770419D02*
X75281305Y-72722800D01*
X75281305Y-72722800D02*
X75328924Y-72675180D01*
X75328924Y-72675180D02*
X75376543Y-72579942D01*
X75376543Y-72579942D02*
X75376543Y-72294228D01*
X75376543Y-72294228D02*
X75328924Y-72198990D01*
X75328924Y-72198990D02*
X75281305Y-72151371D01*
X75281305Y-72151371D02*
X75186067Y-72103752D01*
X75186067Y-72103752D02*
X75043210Y-72103752D01*
X75043210Y-72103752D02*
X74947972Y-72151371D01*
X74947972Y-72151371D02*
X74900353Y-72198990D01*
X74900353Y-72198990D02*
X74852734Y-72294228D01*
X74852734Y-72294228D02*
X74852734Y-72579942D01*
X74852734Y-72579942D02*
X74900353Y-72675180D01*
X74900353Y-72675180D02*
X74947972Y-72722800D01*
X74947972Y-72722800D02*
X75043210Y-72770419D01*
X75043210Y-72770419D02*
X75186067Y-72770419D01*
X73995591Y-72770419D02*
X73995591Y-72246609D01*
X73995591Y-72246609D02*
X74043210Y-72151371D01*
X74043210Y-72151371D02*
X74138448Y-72103752D01*
X74138448Y-72103752D02*
X74328924Y-72103752D01*
X74328924Y-72103752D02*
X74424162Y-72151371D01*
X73995591Y-72722800D02*
X74090829Y-72770419D01*
X74090829Y-72770419D02*
X74328924Y-72770419D01*
X74328924Y-72770419D02*
X74424162Y-72722800D01*
X74424162Y-72722800D02*
X74471781Y-72627561D01*
X74471781Y-72627561D02*
X74471781Y-72532323D01*
X74471781Y-72532323D02*
X74424162Y-72437085D01*
X74424162Y-72437085D02*
X74328924Y-72389466D01*
X74328924Y-72389466D02*
X74090829Y-72389466D01*
X74090829Y-72389466D02*
X73995591Y-72341847D01*
X73519400Y-72770419D02*
X73519400Y-72103752D01*
X73519400Y-72294228D02*
X73471781Y-72198990D01*
X73471781Y-72198990D02*
X73424162Y-72151371D01*
X73424162Y-72151371D02*
X73328924Y-72103752D01*
X73328924Y-72103752D02*
X73233686Y-72103752D01*
X72471781Y-72770419D02*
X72471781Y-71770419D01*
X72471781Y-72722800D02*
X72567019Y-72770419D01*
X72567019Y-72770419D02*
X72757495Y-72770419D01*
X72757495Y-72770419D02*
X72852733Y-72722800D01*
X72852733Y-72722800D02*
X72900352Y-72675180D01*
X72900352Y-72675180D02*
X72947971Y-72579942D01*
X72947971Y-72579942D02*
X72947971Y-72294228D01*
X72947971Y-72294228D02*
X72900352Y-72198990D01*
X72900352Y-72198990D02*
X72852733Y-72151371D01*
X72852733Y-72151371D02*
X72757495Y-72103752D01*
X72757495Y-72103752D02*
X72567019Y-72103752D01*
X72567019Y-72103752D02*
X72471781Y-72151371D01*
M02*
