%TF.GenerationSoftware,KiCad,Pcbnew,10.0.3*%
%TF.CreationDate,2026-09-11T15:18:45+02:00*%
%TF.ProjectId,p2000m-cpm-coboard,70323030-306d-42d6-9370-6d2d636f626f,rev?*%
%TF.SameCoordinates,Original*%
%TF.FileFunction,Legend,Top*%
%TF.FilePolarity,Positive*%
%FSLAX46Y46*%
G04 Gerber Fmt 4.6, Leading zero omitted, Abs format (unit mm)*
G04 Created by KiCad (PCBNEW 10.0.3) date 2026-09-11 15:18:45*
%MOMM*%
%LPD*%
G01*
G04 APERTURE LIST*
%ADD10C,0.100000*%
%ADD11C,0.200000*%
%ADD12C,0.250000*%
%ADD13C,0.150000*%
%ADD14C,0.120000*%
G04 APERTURE END LIST*
D10*
X84695312Y-90582180D02*
X84647693Y-90629800D01*
X84647693Y-90629800D02*
X84504836Y-90677419D01*
X84504836Y-90677419D02*
X84409598Y-90677419D01*
X84409598Y-90677419D02*
X84266741Y-90629800D01*
X84266741Y-90629800D02*
X84171503Y-90534561D01*
X84171503Y-90534561D02*
X84123884Y-90439323D01*
X84123884Y-90439323D02*
X84076265Y-90248847D01*
X84076265Y-90248847D02*
X84076265Y-90105990D01*
X84076265Y-90105990D02*
X84123884Y-89915514D01*
X84123884Y-89915514D02*
X84171503Y-89820276D01*
X84171503Y-89820276D02*
X84266741Y-89725038D01*
X84266741Y-89725038D02*
X84409598Y-89677419D01*
X84409598Y-89677419D02*
X84504836Y-89677419D01*
X84504836Y-89677419D02*
X84647693Y-89725038D01*
X84647693Y-89725038D02*
X84695312Y-89772657D01*
X85123884Y-90677419D02*
X85123884Y-89677419D01*
X85123884Y-89677419D02*
X85504836Y-89677419D01*
X85504836Y-89677419D02*
X85600074Y-89725038D01*
X85600074Y-89725038D02*
X85647693Y-89772657D01*
X85647693Y-89772657D02*
X85695312Y-89867895D01*
X85695312Y-89867895D02*
X85695312Y-90010752D01*
X85695312Y-90010752D02*
X85647693Y-90105990D01*
X85647693Y-90105990D02*
X85600074Y-90153609D01*
X85600074Y-90153609D02*
X85504836Y-90201228D01*
X85504836Y-90201228D02*
X85123884Y-90201228D01*
X86123884Y-89677419D02*
X86123884Y-90486942D01*
X86123884Y-90486942D02*
X86171503Y-90582180D01*
X86171503Y-90582180D02*
X86219122Y-90629800D01*
X86219122Y-90629800D02*
X86314360Y-90677419D01*
X86314360Y-90677419D02*
X86504836Y-90677419D01*
X86504836Y-90677419D02*
X86600074Y-90629800D01*
X86600074Y-90629800D02*
X86647693Y-90582180D01*
X86647693Y-90582180D02*
X86695312Y-90486942D01*
X86695312Y-90486942D02*
X86695312Y-89677419D01*
X88266741Y-90153609D02*
X88409598Y-90201228D01*
X88409598Y-90201228D02*
X88457217Y-90248847D01*
X88457217Y-90248847D02*
X88504836Y-90344085D01*
X88504836Y-90344085D02*
X88504836Y-90486942D01*
X88504836Y-90486942D02*
X88457217Y-90582180D01*
X88457217Y-90582180D02*
X88409598Y-90629800D01*
X88409598Y-90629800D02*
X88314360Y-90677419D01*
X88314360Y-90677419D02*
X87933408Y-90677419D01*
X87933408Y-90677419D02*
X87933408Y-89677419D01*
X87933408Y-89677419D02*
X88266741Y-89677419D01*
X88266741Y-89677419D02*
X88361979Y-89725038D01*
X88361979Y-89725038D02*
X88409598Y-89772657D01*
X88409598Y-89772657D02*
X88457217Y-89867895D01*
X88457217Y-89867895D02*
X88457217Y-89963133D01*
X88457217Y-89963133D02*
X88409598Y-90058371D01*
X88409598Y-90058371D02*
X88361979Y-90105990D01*
X88361979Y-90105990D02*
X88266741Y-90153609D01*
X88266741Y-90153609D02*
X87933408Y-90153609D01*
X89123884Y-89677419D02*
X89314360Y-89677419D01*
X89314360Y-89677419D02*
X89409598Y-89725038D01*
X89409598Y-89725038D02*
X89504836Y-89820276D01*
X89504836Y-89820276D02*
X89552455Y-90010752D01*
X89552455Y-90010752D02*
X89552455Y-90344085D01*
X89552455Y-90344085D02*
X89504836Y-90534561D01*
X89504836Y-90534561D02*
X89409598Y-90629800D01*
X89409598Y-90629800D02*
X89314360Y-90677419D01*
X89314360Y-90677419D02*
X89123884Y-90677419D01*
X89123884Y-90677419D02*
X89028646Y-90629800D01*
X89028646Y-90629800D02*
X88933408Y-90534561D01*
X88933408Y-90534561D02*
X88885789Y-90344085D01*
X88885789Y-90344085D02*
X88885789Y-90010752D01*
X88885789Y-90010752D02*
X88933408Y-89820276D01*
X88933408Y-89820276D02*
X89028646Y-89725038D01*
X89028646Y-89725038D02*
X89123884Y-89677419D01*
X89933408Y-90391704D02*
X90409598Y-90391704D01*
X89838170Y-90677419D02*
X90171503Y-89677419D01*
X90171503Y-89677419D02*
X90504836Y-90677419D01*
X91409598Y-90677419D02*
X91076265Y-90201228D01*
X90838170Y-90677419D02*
X90838170Y-89677419D01*
X90838170Y-89677419D02*
X91219122Y-89677419D01*
X91219122Y-89677419D02*
X91314360Y-89725038D01*
X91314360Y-89725038D02*
X91361979Y-89772657D01*
X91361979Y-89772657D02*
X91409598Y-89867895D01*
X91409598Y-89867895D02*
X91409598Y-90010752D01*
X91409598Y-90010752D02*
X91361979Y-90105990D01*
X91361979Y-90105990D02*
X91314360Y-90153609D01*
X91314360Y-90153609D02*
X91219122Y-90201228D01*
X91219122Y-90201228D02*
X90838170Y-90201228D01*
X91838170Y-90677419D02*
X91838170Y-89677419D01*
X91838170Y-89677419D02*
X92076265Y-89677419D01*
X92076265Y-89677419D02*
X92219122Y-89725038D01*
X92219122Y-89725038D02*
X92314360Y-89820276D01*
X92314360Y-89820276D02*
X92361979Y-89915514D01*
X92361979Y-89915514D02*
X92409598Y-90105990D01*
X92409598Y-90105990D02*
X92409598Y-90248847D01*
X92409598Y-90248847D02*
X92361979Y-90439323D01*
X92361979Y-90439323D02*
X92314360Y-90534561D01*
X92314360Y-90534561D02*
X92219122Y-90629800D01*
X92219122Y-90629800D02*
X92076265Y-90677419D01*
X92076265Y-90677419D02*
X91838170Y-90677419D01*
X94171503Y-90582180D02*
X94123884Y-90629800D01*
X94123884Y-90629800D02*
X93981027Y-90677419D01*
X93981027Y-90677419D02*
X93885789Y-90677419D01*
X93885789Y-90677419D02*
X93742932Y-90629800D01*
X93742932Y-90629800D02*
X93647694Y-90534561D01*
X93647694Y-90534561D02*
X93600075Y-90439323D01*
X93600075Y-90439323D02*
X93552456Y-90248847D01*
X93552456Y-90248847D02*
X93552456Y-90105990D01*
X93552456Y-90105990D02*
X93600075Y-89915514D01*
X93600075Y-89915514D02*
X93647694Y-89820276D01*
X93647694Y-89820276D02*
X93742932Y-89725038D01*
X93742932Y-89725038D02*
X93885789Y-89677419D01*
X93885789Y-89677419D02*
X93981027Y-89677419D01*
X93981027Y-89677419D02*
X94123884Y-89725038D01*
X94123884Y-89725038D02*
X94171503Y-89772657D01*
X94790551Y-89677419D02*
X94981027Y-89677419D01*
X94981027Y-89677419D02*
X95076265Y-89725038D01*
X95076265Y-89725038D02*
X95171503Y-89820276D01*
X95171503Y-89820276D02*
X95219122Y-90010752D01*
X95219122Y-90010752D02*
X95219122Y-90344085D01*
X95219122Y-90344085D02*
X95171503Y-90534561D01*
X95171503Y-90534561D02*
X95076265Y-90629800D01*
X95076265Y-90629800D02*
X94981027Y-90677419D01*
X94981027Y-90677419D02*
X94790551Y-90677419D01*
X94790551Y-90677419D02*
X94695313Y-90629800D01*
X94695313Y-90629800D02*
X94600075Y-90534561D01*
X94600075Y-90534561D02*
X94552456Y-90344085D01*
X94552456Y-90344085D02*
X94552456Y-90010752D01*
X94552456Y-90010752D02*
X94600075Y-89820276D01*
X94600075Y-89820276D02*
X94695313Y-89725038D01*
X94695313Y-89725038D02*
X94790551Y-89677419D01*
X95647694Y-90677419D02*
X95647694Y-89677419D01*
X95647694Y-89677419D02*
X96219122Y-90677419D01*
X96219122Y-90677419D02*
X96219122Y-89677419D01*
X96695313Y-90677419D02*
X96695313Y-89677419D01*
X96695313Y-89677419D02*
X97266741Y-90677419D01*
X97266741Y-90677419D02*
X97266741Y-89677419D01*
X97742932Y-90153609D02*
X98076265Y-90153609D01*
X98219122Y-90677419D02*
X97742932Y-90677419D01*
X97742932Y-90677419D02*
X97742932Y-89677419D01*
X97742932Y-89677419D02*
X98219122Y-89677419D01*
X99219122Y-90582180D02*
X99171503Y-90629800D01*
X99171503Y-90629800D02*
X99028646Y-90677419D01*
X99028646Y-90677419D02*
X98933408Y-90677419D01*
X98933408Y-90677419D02*
X98790551Y-90629800D01*
X98790551Y-90629800D02*
X98695313Y-90534561D01*
X98695313Y-90534561D02*
X98647694Y-90439323D01*
X98647694Y-90439323D02*
X98600075Y-90248847D01*
X98600075Y-90248847D02*
X98600075Y-90105990D01*
X98600075Y-90105990D02*
X98647694Y-89915514D01*
X98647694Y-89915514D02*
X98695313Y-89820276D01*
X98695313Y-89820276D02*
X98790551Y-89725038D01*
X98790551Y-89725038D02*
X98933408Y-89677419D01*
X98933408Y-89677419D02*
X99028646Y-89677419D01*
X99028646Y-89677419D02*
X99171503Y-89725038D01*
X99171503Y-89725038D02*
X99219122Y-89772657D01*
X99504837Y-89677419D02*
X100076265Y-89677419D01*
X99790551Y-90677419D02*
X99790551Y-89677419D01*
X100600075Y-89677419D02*
X100790551Y-89677419D01*
X100790551Y-89677419D02*
X100885789Y-89725038D01*
X100885789Y-89725038D02*
X100981027Y-89820276D01*
X100981027Y-89820276D02*
X101028646Y-90010752D01*
X101028646Y-90010752D02*
X101028646Y-90344085D01*
X101028646Y-90344085D02*
X100981027Y-90534561D01*
X100981027Y-90534561D02*
X100885789Y-90629800D01*
X100885789Y-90629800D02*
X100790551Y-90677419D01*
X100790551Y-90677419D02*
X100600075Y-90677419D01*
X100600075Y-90677419D02*
X100504837Y-90629800D01*
X100504837Y-90629800D02*
X100409599Y-90534561D01*
X100409599Y-90534561D02*
X100361980Y-90344085D01*
X100361980Y-90344085D02*
X100361980Y-90010752D01*
X100361980Y-90010752D02*
X100409599Y-89820276D01*
X100409599Y-89820276D02*
X100504837Y-89725038D01*
X100504837Y-89725038D02*
X100600075Y-89677419D01*
X102028646Y-90677419D02*
X101695313Y-90201228D01*
X101457218Y-90677419D02*
X101457218Y-89677419D01*
X101457218Y-89677419D02*
X101838170Y-89677419D01*
X101838170Y-89677419D02*
X101933408Y-89725038D01*
X101933408Y-89725038D02*
X101981027Y-89772657D01*
X101981027Y-89772657D02*
X102028646Y-89867895D01*
X102028646Y-89867895D02*
X102028646Y-90010752D01*
X102028646Y-90010752D02*
X101981027Y-90105990D01*
X101981027Y-90105990D02*
X101933408Y-90153609D01*
X101933408Y-90153609D02*
X101838170Y-90201228D01*
X101838170Y-90201228D02*
X101457218Y-90201228D01*
X103790551Y-90582180D02*
X103742932Y-90629800D01*
X103742932Y-90629800D02*
X103600075Y-90677419D01*
X103600075Y-90677419D02*
X103504837Y-90677419D01*
X103504837Y-90677419D02*
X103361980Y-90629800D01*
X103361980Y-90629800D02*
X103266742Y-90534561D01*
X103266742Y-90534561D02*
X103219123Y-90439323D01*
X103219123Y-90439323D02*
X103171504Y-90248847D01*
X103171504Y-90248847D02*
X103171504Y-90105990D01*
X103171504Y-90105990D02*
X103219123Y-89915514D01*
X103219123Y-89915514D02*
X103266742Y-89820276D01*
X103266742Y-89820276D02*
X103361980Y-89725038D01*
X103361980Y-89725038D02*
X103504837Y-89677419D01*
X103504837Y-89677419D02*
X103600075Y-89677419D01*
X103600075Y-89677419D02*
X103742932Y-89725038D01*
X103742932Y-89725038D02*
X103790551Y-89772657D01*
X104219123Y-89677419D02*
X104219123Y-90486942D01*
X104219123Y-90486942D02*
X104266742Y-90582180D01*
X104266742Y-90582180D02*
X104314361Y-90629800D01*
X104314361Y-90629800D02*
X104409599Y-90677419D01*
X104409599Y-90677419D02*
X104600075Y-90677419D01*
X104600075Y-90677419D02*
X104695313Y-90629800D01*
X104695313Y-90629800D02*
X104742932Y-90582180D01*
X104742932Y-90582180D02*
X104790551Y-90486942D01*
X104790551Y-90486942D02*
X104790551Y-89677419D01*
X105123885Y-89677419D02*
X105695313Y-89677419D01*
X105409599Y-90677419D02*
X105409599Y-89677419D01*
X106219123Y-89677419D02*
X106409599Y-89677419D01*
X106409599Y-89677419D02*
X106504837Y-89725038D01*
X106504837Y-89725038D02*
X106600075Y-89820276D01*
X106600075Y-89820276D02*
X106647694Y-90010752D01*
X106647694Y-90010752D02*
X106647694Y-90344085D01*
X106647694Y-90344085D02*
X106600075Y-90534561D01*
X106600075Y-90534561D02*
X106504837Y-90629800D01*
X106504837Y-90629800D02*
X106409599Y-90677419D01*
X106409599Y-90677419D02*
X106219123Y-90677419D01*
X106219123Y-90677419D02*
X106123885Y-90629800D01*
X106123885Y-90629800D02*
X106028647Y-90534561D01*
X106028647Y-90534561D02*
X105981028Y-90344085D01*
X105981028Y-90344085D02*
X105981028Y-90010752D01*
X105981028Y-90010752D02*
X106028647Y-89820276D01*
X106028647Y-89820276D02*
X106123885Y-89725038D01*
X106123885Y-89725038D02*
X106219123Y-89677419D01*
X107076266Y-89677419D02*
X107076266Y-90486942D01*
X107076266Y-90486942D02*
X107123885Y-90582180D01*
X107123885Y-90582180D02*
X107171504Y-90629800D01*
X107171504Y-90629800D02*
X107266742Y-90677419D01*
X107266742Y-90677419D02*
X107457218Y-90677419D01*
X107457218Y-90677419D02*
X107552456Y-90629800D01*
X107552456Y-90629800D02*
X107600075Y-90582180D01*
X107600075Y-90582180D02*
X107647694Y-90486942D01*
X107647694Y-90486942D02*
X107647694Y-89677419D01*
X107981028Y-89677419D02*
X108552456Y-89677419D01*
X108266742Y-90677419D02*
X108266742Y-89677419D01*
X29285000Y-36830000D02*
X33655000Y-36830000D01*
X33655000Y-49530000D01*
X29285000Y-49530000D01*
X29285000Y-36830000D01*
X121920000Y-56515000D02*
X124460000Y-56515000D01*
X124460000Y-78105000D01*
X121920000Y-78105000D01*
X121920000Y-56515000D01*
G36*
X124506194Y-76520866D02*
G01*
X124506194Y-76559134D01*
X124495355Y-76575355D01*
X122930355Y-78140355D01*
X122914134Y-78151194D01*
X122875866Y-78151194D01*
X122848806Y-78124134D01*
X122848806Y-78085866D01*
X122859645Y-78069645D01*
X124424645Y-76504645D01*
X124440866Y-76493806D01*
X124479134Y-76493806D01*
X124506194Y-76520866D01*
G37*
G36*
X124506194Y-77520865D02*
G01*
X124506194Y-77559134D01*
X124495356Y-77575355D01*
X123930355Y-78140355D01*
X123914134Y-78151194D01*
X123875866Y-78151194D01*
X123848806Y-78124134D01*
X123848806Y-78085866D01*
X123859645Y-78069645D01*
X124424645Y-77504644D01*
X124440866Y-77493806D01*
X124479135Y-77493806D01*
X124506194Y-77520865D01*
G37*
G36*
X124506194Y-75520866D02*
G01*
X124506194Y-75559135D01*
X124495355Y-75575356D01*
X121955355Y-78115355D01*
X121939134Y-78126194D01*
X121900866Y-78126194D01*
X121873806Y-78099134D01*
X121873806Y-78060866D01*
X121884645Y-78044645D01*
X124424644Y-75504645D01*
X124440865Y-75493806D01*
X124479134Y-75493806D01*
X124506194Y-75520866D01*
G37*
G36*
X124506194Y-74520866D02*
G01*
X124506194Y-74559135D01*
X124495355Y-74575356D01*
X121955355Y-77115355D01*
X121939134Y-77126194D01*
X121900866Y-77126194D01*
X121873806Y-77099134D01*
X121873806Y-77060866D01*
X121884645Y-77044645D01*
X124424644Y-74504645D01*
X124440865Y-74493806D01*
X124479134Y-74493806D01*
X124506194Y-74520866D01*
G37*
G36*
X124506194Y-73520866D02*
G01*
X124506194Y-73559135D01*
X124495355Y-73575356D01*
X121955355Y-76115355D01*
X121939134Y-76126194D01*
X121900866Y-76126194D01*
X121873806Y-76099134D01*
X121873806Y-76060866D01*
X121884645Y-76044645D01*
X124424644Y-73504645D01*
X124440865Y-73493806D01*
X124479134Y-73493806D01*
X124506194Y-73520866D01*
G37*
G36*
X124506194Y-72520866D02*
G01*
X124506194Y-72559135D01*
X124495355Y-72575356D01*
X121955355Y-75115355D01*
X121939134Y-75126194D01*
X121900866Y-75126194D01*
X121873806Y-75099134D01*
X121873806Y-75060866D01*
X121884645Y-75044645D01*
X124424644Y-72504645D01*
X124440865Y-72493806D01*
X124479134Y-72493806D01*
X124506194Y-72520866D01*
G37*
G36*
X124506194Y-71520866D02*
G01*
X124506194Y-71559135D01*
X124495355Y-71575356D01*
X121955355Y-74115355D01*
X121939134Y-74126194D01*
X121900866Y-74126194D01*
X121873806Y-74099134D01*
X121873806Y-74060866D01*
X121884645Y-74044645D01*
X124424644Y-71504645D01*
X124440865Y-71493806D01*
X124479134Y-71493806D01*
X124506194Y-71520866D01*
G37*
G36*
X124506194Y-70520866D02*
G01*
X124506194Y-70559135D01*
X124495355Y-70575356D01*
X121955355Y-73115355D01*
X121939134Y-73126194D01*
X121900866Y-73126194D01*
X121873806Y-73099134D01*
X121873806Y-73060866D01*
X121884645Y-73044645D01*
X124424644Y-70504645D01*
X124440865Y-70493806D01*
X124479134Y-70493806D01*
X124506194Y-70520866D01*
G37*
G36*
X124506194Y-69520866D02*
G01*
X124506194Y-69559135D01*
X124495355Y-69575356D01*
X121955355Y-72115355D01*
X121939134Y-72126194D01*
X121900866Y-72126194D01*
X121873806Y-72099134D01*
X121873806Y-72060866D01*
X121884645Y-72044645D01*
X124424644Y-69504645D01*
X124440865Y-69493806D01*
X124479134Y-69493806D01*
X124506194Y-69520866D01*
G37*
G36*
X124506194Y-68520866D02*
G01*
X124506194Y-68559135D01*
X124495355Y-68575356D01*
X121955355Y-71115355D01*
X121939134Y-71126194D01*
X121900866Y-71126194D01*
X121873806Y-71099134D01*
X121873806Y-71060866D01*
X121884645Y-71044645D01*
X124424644Y-68504645D01*
X124440865Y-68493806D01*
X124479134Y-68493806D01*
X124506194Y-68520866D01*
G37*
G36*
X124506194Y-67520866D02*
G01*
X124506194Y-67559135D01*
X124495355Y-67575356D01*
X121955355Y-70115355D01*
X121939134Y-70126194D01*
X121900866Y-70126194D01*
X121873806Y-70099134D01*
X121873806Y-70060866D01*
X121884645Y-70044645D01*
X124424644Y-67504645D01*
X124440865Y-67493806D01*
X124479134Y-67493806D01*
X124506194Y-67520866D01*
G37*
G36*
X124506194Y-66520866D02*
G01*
X124506194Y-66559135D01*
X124495355Y-66575356D01*
X121955355Y-69115355D01*
X121939134Y-69126194D01*
X121900866Y-69126194D01*
X121873806Y-69099134D01*
X121873806Y-69060866D01*
X121884645Y-69044645D01*
X124424644Y-66504645D01*
X124440865Y-66493806D01*
X124479134Y-66493806D01*
X124506194Y-66520866D01*
G37*
G36*
X124506194Y-65520866D02*
G01*
X124506194Y-65559135D01*
X124495355Y-65575356D01*
X121955355Y-68115355D01*
X121939134Y-68126194D01*
X121900866Y-68126194D01*
X121873806Y-68099134D01*
X121873806Y-68060866D01*
X121884645Y-68044645D01*
X124424644Y-65504645D01*
X124440865Y-65493806D01*
X124479134Y-65493806D01*
X124506194Y-65520866D01*
G37*
G36*
X124506194Y-64520866D02*
G01*
X124506194Y-64559135D01*
X124495355Y-64575356D01*
X121955355Y-67115355D01*
X121939134Y-67126194D01*
X121900866Y-67126194D01*
X121873806Y-67099134D01*
X121873806Y-67060866D01*
X121884645Y-67044645D01*
X124424644Y-64504645D01*
X124440865Y-64493806D01*
X124479134Y-64493806D01*
X124506194Y-64520866D01*
G37*
G36*
X124506194Y-63520866D02*
G01*
X124506194Y-63559135D01*
X124495355Y-63575356D01*
X121955355Y-66115355D01*
X121939134Y-66126194D01*
X121900866Y-66126194D01*
X121873806Y-66099134D01*
X121873806Y-66060866D01*
X121884645Y-66044645D01*
X124424644Y-63504645D01*
X124440865Y-63493806D01*
X124479134Y-63493806D01*
X124506194Y-63520866D01*
G37*
G36*
X124506194Y-62520866D02*
G01*
X124506194Y-62559135D01*
X124495355Y-62575356D01*
X121955355Y-65115355D01*
X121939134Y-65126194D01*
X121900866Y-65126194D01*
X121873806Y-65099134D01*
X121873806Y-65060866D01*
X121884645Y-65044645D01*
X124424644Y-62504645D01*
X124440865Y-62493806D01*
X124479134Y-62493806D01*
X124506194Y-62520866D01*
G37*
G36*
X124506194Y-61520866D02*
G01*
X124506194Y-61559135D01*
X124495355Y-61575356D01*
X121955355Y-64115355D01*
X121939134Y-64126194D01*
X121900866Y-64126194D01*
X121873806Y-64099134D01*
X121873806Y-64060866D01*
X121884645Y-64044645D01*
X124424644Y-61504645D01*
X124440865Y-61493806D01*
X124479134Y-61493806D01*
X124506194Y-61520866D01*
G37*
G36*
X124506194Y-60520866D02*
G01*
X124506194Y-60559135D01*
X124495355Y-60575356D01*
X121955355Y-63115355D01*
X121939134Y-63126194D01*
X121900866Y-63126194D01*
X121873806Y-63099134D01*
X121873806Y-63060866D01*
X121884645Y-63044645D01*
X124424644Y-60504645D01*
X124440865Y-60493806D01*
X124479134Y-60493806D01*
X124506194Y-60520866D01*
G37*
G36*
X124506194Y-59520866D02*
G01*
X124506194Y-59559135D01*
X124495355Y-59575356D01*
X121955355Y-62115355D01*
X121939134Y-62126194D01*
X121900866Y-62126194D01*
X121873806Y-62099134D01*
X121873806Y-62060866D01*
X121884645Y-62044645D01*
X124424644Y-59504645D01*
X124440865Y-59493806D01*
X124479134Y-59493806D01*
X124506194Y-59520866D01*
G37*
G36*
X124506194Y-58520866D02*
G01*
X124506194Y-58559135D01*
X124495355Y-58575356D01*
X121955355Y-61115355D01*
X121939134Y-61126194D01*
X121900866Y-61126194D01*
X121873806Y-61099134D01*
X121873806Y-61060866D01*
X121884645Y-61044645D01*
X124424644Y-58504645D01*
X124440865Y-58493806D01*
X124479134Y-58493806D01*
X124506194Y-58520866D01*
G37*
G36*
X124506194Y-57520866D02*
G01*
X124506194Y-57559135D01*
X124495355Y-57575356D01*
X121955355Y-60115355D01*
X121939134Y-60126194D01*
X121900866Y-60126194D01*
X121873806Y-60099134D01*
X121873806Y-60060866D01*
X121884645Y-60044645D01*
X124424644Y-57504645D01*
X124440865Y-57493806D01*
X124479134Y-57493806D01*
X124506194Y-57520866D01*
G37*
G36*
X124506194Y-56520866D02*
G01*
X124506194Y-56559135D01*
X124495355Y-56575356D01*
X121955355Y-59115355D01*
X121939134Y-59126194D01*
X121900866Y-59126194D01*
X121873806Y-59099134D01*
X121873806Y-59060866D01*
X121884645Y-59044645D01*
X124424644Y-56504645D01*
X124440865Y-56493806D01*
X124479134Y-56493806D01*
X124506194Y-56520866D01*
G37*
G36*
X123531194Y-56495866D02*
G01*
X123531194Y-56534134D01*
X123520355Y-56550355D01*
X121955355Y-58115355D01*
X121939134Y-58126194D01*
X121900866Y-58126194D01*
X121873806Y-58099134D01*
X121873806Y-58060866D01*
X121884645Y-58044645D01*
X123449645Y-56479645D01*
X123465866Y-56468806D01*
X123504134Y-56468806D01*
X123531194Y-56495866D01*
G37*
G36*
X122531194Y-56495865D02*
G01*
X122531194Y-56534134D01*
X122520356Y-56550355D01*
X121955355Y-57115355D01*
X121939134Y-57126194D01*
X121900866Y-57126194D01*
X121873806Y-57099134D01*
X121873806Y-57060866D01*
X121884645Y-57044645D01*
X122449645Y-56479644D01*
X122465866Y-56468806D01*
X122504135Y-56468806D01*
X122531194Y-56495865D01*
G37*
X106777455Y-67150752D02*
X106777455Y-67817419D01*
X106539360Y-66769800D02*
X106301265Y-67484085D01*
X106301265Y-67484085D02*
X106920312Y-67484085D01*
X107491741Y-66817419D02*
X107586979Y-66817419D01*
X107586979Y-66817419D02*
X107682217Y-66865038D01*
X107682217Y-66865038D02*
X107729836Y-66912657D01*
X107729836Y-66912657D02*
X107777455Y-67007895D01*
X107777455Y-67007895D02*
X107825074Y-67198371D01*
X107825074Y-67198371D02*
X107825074Y-67436466D01*
X107825074Y-67436466D02*
X107777455Y-67626942D01*
X107777455Y-67626942D02*
X107729836Y-67722180D01*
X107729836Y-67722180D02*
X107682217Y-67769800D01*
X107682217Y-67769800D02*
X107586979Y-67817419D01*
X107586979Y-67817419D02*
X107491741Y-67817419D01*
X107491741Y-67817419D02*
X107396503Y-67769800D01*
X107396503Y-67769800D02*
X107348884Y-67722180D01*
X107348884Y-67722180D02*
X107301265Y-67626942D01*
X107301265Y-67626942D02*
X107253646Y-67436466D01*
X107253646Y-67436466D02*
X107253646Y-67198371D01*
X107253646Y-67198371D02*
X107301265Y-67007895D01*
X107301265Y-67007895D02*
X107348884Y-66912657D01*
X107348884Y-66912657D02*
X107396503Y-66865038D01*
X107396503Y-66865038D02*
X107491741Y-66817419D01*
X106253646Y-69357419D02*
X106872693Y-69357419D01*
X106872693Y-69357419D02*
X106539360Y-69738371D01*
X106539360Y-69738371D02*
X106682217Y-69738371D01*
X106682217Y-69738371D02*
X106777455Y-69785990D01*
X106777455Y-69785990D02*
X106825074Y-69833609D01*
X106825074Y-69833609D02*
X106872693Y-69928847D01*
X106872693Y-69928847D02*
X106872693Y-70166942D01*
X106872693Y-70166942D02*
X106825074Y-70262180D01*
X106825074Y-70262180D02*
X106777455Y-70309800D01*
X106777455Y-70309800D02*
X106682217Y-70357419D01*
X106682217Y-70357419D02*
X106396503Y-70357419D01*
X106396503Y-70357419D02*
X106301265Y-70309800D01*
X106301265Y-70309800D02*
X106253646Y-70262180D01*
X107348884Y-70357419D02*
X107539360Y-70357419D01*
X107539360Y-70357419D02*
X107634598Y-70309800D01*
X107634598Y-70309800D02*
X107682217Y-70262180D01*
X107682217Y-70262180D02*
X107777455Y-70119323D01*
X107777455Y-70119323D02*
X107825074Y-69928847D01*
X107825074Y-69928847D02*
X107825074Y-69547895D01*
X107825074Y-69547895D02*
X107777455Y-69452657D01*
X107777455Y-69452657D02*
X107729836Y-69405038D01*
X107729836Y-69405038D02*
X107634598Y-69357419D01*
X107634598Y-69357419D02*
X107444122Y-69357419D01*
X107444122Y-69357419D02*
X107348884Y-69405038D01*
X107348884Y-69405038D02*
X107301265Y-69452657D01*
X107301265Y-69452657D02*
X107253646Y-69547895D01*
X107253646Y-69547895D02*
X107253646Y-69785990D01*
X107253646Y-69785990D02*
X107301265Y-69881228D01*
X107301265Y-69881228D02*
X107348884Y-69928847D01*
X107348884Y-69928847D02*
X107444122Y-69976466D01*
X107444122Y-69976466D02*
X107634598Y-69976466D01*
X107634598Y-69976466D02*
X107729836Y-69928847D01*
X107729836Y-69928847D02*
X107777455Y-69881228D01*
X107777455Y-69881228D02*
X107825074Y-69785990D01*
X106777455Y-80485752D02*
X106777455Y-81152419D01*
X106539360Y-80104800D02*
X106301265Y-80819085D01*
X106301265Y-80819085D02*
X106920312Y-80819085D01*
X107491741Y-80152419D02*
X107586979Y-80152419D01*
X107586979Y-80152419D02*
X107682217Y-80200038D01*
X107682217Y-80200038D02*
X107729836Y-80247657D01*
X107729836Y-80247657D02*
X107777455Y-80342895D01*
X107777455Y-80342895D02*
X107825074Y-80533371D01*
X107825074Y-80533371D02*
X107825074Y-80771466D01*
X107825074Y-80771466D02*
X107777455Y-80961942D01*
X107777455Y-80961942D02*
X107729836Y-81057180D01*
X107729836Y-81057180D02*
X107682217Y-81104800D01*
X107682217Y-81104800D02*
X107586979Y-81152419D01*
X107586979Y-81152419D02*
X107491741Y-81152419D01*
X107491741Y-81152419D02*
X107396503Y-81104800D01*
X107396503Y-81104800D02*
X107348884Y-81057180D01*
X107348884Y-81057180D02*
X107301265Y-80961942D01*
X107301265Y-80961942D02*
X107253646Y-80771466D01*
X107253646Y-80771466D02*
X107253646Y-80533371D01*
X107253646Y-80533371D02*
X107301265Y-80342895D01*
X107301265Y-80342895D02*
X107348884Y-80247657D01*
X107348884Y-80247657D02*
X107396503Y-80200038D01*
X107396503Y-80200038D02*
X107491741Y-80152419D01*
X106253646Y-82692419D02*
X106872693Y-82692419D01*
X106872693Y-82692419D02*
X106539360Y-83073371D01*
X106539360Y-83073371D02*
X106682217Y-83073371D01*
X106682217Y-83073371D02*
X106777455Y-83120990D01*
X106777455Y-83120990D02*
X106825074Y-83168609D01*
X106825074Y-83168609D02*
X106872693Y-83263847D01*
X106872693Y-83263847D02*
X106872693Y-83501942D01*
X106872693Y-83501942D02*
X106825074Y-83597180D01*
X106825074Y-83597180D02*
X106777455Y-83644800D01*
X106777455Y-83644800D02*
X106682217Y-83692419D01*
X106682217Y-83692419D02*
X106396503Y-83692419D01*
X106396503Y-83692419D02*
X106301265Y-83644800D01*
X106301265Y-83644800D02*
X106253646Y-83597180D01*
X107348884Y-83692419D02*
X107539360Y-83692419D01*
X107539360Y-83692419D02*
X107634598Y-83644800D01*
X107634598Y-83644800D02*
X107682217Y-83597180D01*
X107682217Y-83597180D02*
X107777455Y-83454323D01*
X107777455Y-83454323D02*
X107825074Y-83263847D01*
X107825074Y-83263847D02*
X107825074Y-82882895D01*
X107825074Y-82882895D02*
X107777455Y-82787657D01*
X107777455Y-82787657D02*
X107729836Y-82740038D01*
X107729836Y-82740038D02*
X107634598Y-82692419D01*
X107634598Y-82692419D02*
X107444122Y-82692419D01*
X107444122Y-82692419D02*
X107348884Y-82740038D01*
X107348884Y-82740038D02*
X107301265Y-82787657D01*
X107301265Y-82787657D02*
X107253646Y-82882895D01*
X107253646Y-82882895D02*
X107253646Y-83120990D01*
X107253646Y-83120990D02*
X107301265Y-83216228D01*
X107301265Y-83216228D02*
X107348884Y-83263847D01*
X107348884Y-83263847D02*
X107444122Y-83311466D01*
X107444122Y-83311466D02*
X107634598Y-83311466D01*
X107634598Y-83311466D02*
X107729836Y-83263847D01*
X107729836Y-83263847D02*
X107777455Y-83216228D01*
X107777455Y-83216228D02*
X107825074Y-83120990D01*
X51877306Y-66912657D02*
X51924925Y-66865038D01*
X51924925Y-66865038D02*
X52020163Y-66817419D01*
X52020163Y-66817419D02*
X52258258Y-66817419D01*
X52258258Y-66817419D02*
X52353496Y-66865038D01*
X52353496Y-66865038D02*
X52401115Y-66912657D01*
X52401115Y-66912657D02*
X52448734Y-67007895D01*
X52448734Y-67007895D02*
X52448734Y-67103133D01*
X52448734Y-67103133D02*
X52401115Y-67245990D01*
X52401115Y-67245990D02*
X51829687Y-67817419D01*
X51829687Y-67817419D02*
X52448734Y-67817419D01*
X52448734Y-70357419D02*
X51877306Y-70357419D01*
X52163020Y-70357419D02*
X52163020Y-69357419D01*
X52163020Y-69357419D02*
X52067782Y-69500276D01*
X52067782Y-69500276D02*
X51972544Y-69595514D01*
X51972544Y-69595514D02*
X51877306Y-69643133D01*
X51877306Y-80247657D02*
X51924925Y-80200038D01*
X51924925Y-80200038D02*
X52020163Y-80152419D01*
X52020163Y-80152419D02*
X52258258Y-80152419D01*
X52258258Y-80152419D02*
X52353496Y-80200038D01*
X52353496Y-80200038D02*
X52401115Y-80247657D01*
X52401115Y-80247657D02*
X52448734Y-80342895D01*
X52448734Y-80342895D02*
X52448734Y-80438133D01*
X52448734Y-80438133D02*
X52401115Y-80580990D01*
X52401115Y-80580990D02*
X51829687Y-81152419D01*
X51829687Y-81152419D02*
X52448734Y-81152419D01*
X52448734Y-83692419D02*
X51877306Y-83692419D01*
X52163020Y-83692419D02*
X52163020Y-82692419D01*
X52163020Y-82692419D02*
X52067782Y-82835276D01*
X52067782Y-82835276D02*
X51972544Y-82930514D01*
X51972544Y-82930514D02*
X51877306Y-82978133D01*
X32300752Y-39796353D02*
X32967419Y-39558258D01*
X32967419Y-39558258D02*
X32300752Y-39320163D01*
X32062657Y-38986829D02*
X32015038Y-38939210D01*
X32015038Y-38939210D02*
X31967419Y-38843972D01*
X31967419Y-38843972D02*
X31967419Y-38605877D01*
X31967419Y-38605877D02*
X32015038Y-38510639D01*
X32015038Y-38510639D02*
X32062657Y-38463020D01*
X32062657Y-38463020D02*
X32157895Y-38415401D01*
X32157895Y-38415401D02*
X32253133Y-38415401D01*
X32253133Y-38415401D02*
X32395990Y-38463020D01*
X32395990Y-38463020D02*
X32967419Y-39034448D01*
X32967419Y-39034448D02*
X32967419Y-38415401D01*
D11*
X31352275Y-48525326D02*
X30352275Y-48525326D01*
X30352275Y-48525326D02*
X30352275Y-48144374D01*
X30352275Y-48144374D02*
X30399894Y-48049136D01*
X30399894Y-48049136D02*
X30447513Y-48001517D01*
X30447513Y-48001517D02*
X30542751Y-47953898D01*
X30542751Y-47953898D02*
X30685608Y-47953898D01*
X30685608Y-47953898D02*
X30780846Y-48001517D01*
X30780846Y-48001517D02*
X30828465Y-48049136D01*
X30828465Y-48049136D02*
X30876084Y-48144374D01*
X30876084Y-48144374D02*
X30876084Y-48525326D01*
X30447513Y-47572945D02*
X30399894Y-47525326D01*
X30399894Y-47525326D02*
X30352275Y-47430088D01*
X30352275Y-47430088D02*
X30352275Y-47191993D01*
X30352275Y-47191993D02*
X30399894Y-47096755D01*
X30399894Y-47096755D02*
X30447513Y-47049136D01*
X30447513Y-47049136D02*
X30542751Y-47001517D01*
X30542751Y-47001517D02*
X30637989Y-47001517D01*
X30637989Y-47001517D02*
X30780846Y-47049136D01*
X30780846Y-47049136D02*
X31352275Y-47620564D01*
X31352275Y-47620564D02*
X31352275Y-47001517D01*
X30352275Y-46382469D02*
X30352275Y-46287231D01*
X30352275Y-46287231D02*
X30399894Y-46191993D01*
X30399894Y-46191993D02*
X30447513Y-46144374D01*
X30447513Y-46144374D02*
X30542751Y-46096755D01*
X30542751Y-46096755D02*
X30733227Y-46049136D01*
X30733227Y-46049136D02*
X30971322Y-46049136D01*
X30971322Y-46049136D02*
X31161798Y-46096755D01*
X31161798Y-46096755D02*
X31257036Y-46144374D01*
X31257036Y-46144374D02*
X31304656Y-46191993D01*
X31304656Y-46191993D02*
X31352275Y-46287231D01*
X31352275Y-46287231D02*
X31352275Y-46382469D01*
X31352275Y-46382469D02*
X31304656Y-46477707D01*
X31304656Y-46477707D02*
X31257036Y-46525326D01*
X31257036Y-46525326D02*
X31161798Y-46572945D01*
X31161798Y-46572945D02*
X30971322Y-46620564D01*
X30971322Y-46620564D02*
X30733227Y-46620564D01*
X30733227Y-46620564D02*
X30542751Y-46572945D01*
X30542751Y-46572945D02*
X30447513Y-46525326D01*
X30447513Y-46525326D02*
X30399894Y-46477707D01*
X30399894Y-46477707D02*
X30352275Y-46382469D01*
X30352275Y-45430088D02*
X30352275Y-45334850D01*
X30352275Y-45334850D02*
X30399894Y-45239612D01*
X30399894Y-45239612D02*
X30447513Y-45191993D01*
X30447513Y-45191993D02*
X30542751Y-45144374D01*
X30542751Y-45144374D02*
X30733227Y-45096755D01*
X30733227Y-45096755D02*
X30971322Y-45096755D01*
X30971322Y-45096755D02*
X31161798Y-45144374D01*
X31161798Y-45144374D02*
X31257036Y-45191993D01*
X31257036Y-45191993D02*
X31304656Y-45239612D01*
X31304656Y-45239612D02*
X31352275Y-45334850D01*
X31352275Y-45334850D02*
X31352275Y-45430088D01*
X31352275Y-45430088D02*
X31304656Y-45525326D01*
X31304656Y-45525326D02*
X31257036Y-45572945D01*
X31257036Y-45572945D02*
X31161798Y-45620564D01*
X31161798Y-45620564D02*
X30971322Y-45668183D01*
X30971322Y-45668183D02*
X30733227Y-45668183D01*
X30733227Y-45668183D02*
X30542751Y-45620564D01*
X30542751Y-45620564D02*
X30447513Y-45572945D01*
X30447513Y-45572945D02*
X30399894Y-45525326D01*
X30399894Y-45525326D02*
X30352275Y-45430088D01*
X30352275Y-44477707D02*
X30352275Y-44382469D01*
X30352275Y-44382469D02*
X30399894Y-44287231D01*
X30399894Y-44287231D02*
X30447513Y-44239612D01*
X30447513Y-44239612D02*
X30542751Y-44191993D01*
X30542751Y-44191993D02*
X30733227Y-44144374D01*
X30733227Y-44144374D02*
X30971322Y-44144374D01*
X30971322Y-44144374D02*
X31161798Y-44191993D01*
X31161798Y-44191993D02*
X31257036Y-44239612D01*
X31257036Y-44239612D02*
X31304656Y-44287231D01*
X31304656Y-44287231D02*
X31352275Y-44382469D01*
X31352275Y-44382469D02*
X31352275Y-44477707D01*
X31352275Y-44477707D02*
X31304656Y-44572945D01*
X31304656Y-44572945D02*
X31257036Y-44620564D01*
X31257036Y-44620564D02*
X31161798Y-44668183D01*
X31161798Y-44668183D02*
X30971322Y-44715802D01*
X30971322Y-44715802D02*
X30733227Y-44715802D01*
X30733227Y-44715802D02*
X30542751Y-44668183D01*
X30542751Y-44668183D02*
X30447513Y-44620564D01*
X30447513Y-44620564D02*
X30399894Y-44572945D01*
X30399894Y-44572945D02*
X30352275Y-44477707D01*
X31352275Y-43715802D02*
X30352275Y-43715802D01*
X30352275Y-43715802D02*
X31066560Y-43382469D01*
X31066560Y-43382469D02*
X30352275Y-43049136D01*
X30352275Y-43049136D02*
X31352275Y-43049136D01*
X31257036Y-41239612D02*
X31304656Y-41287231D01*
X31304656Y-41287231D02*
X31352275Y-41430088D01*
X31352275Y-41430088D02*
X31352275Y-41525326D01*
X31352275Y-41525326D02*
X31304656Y-41668183D01*
X31304656Y-41668183D02*
X31209417Y-41763421D01*
X31209417Y-41763421D02*
X31114179Y-41811040D01*
X31114179Y-41811040D02*
X30923703Y-41858659D01*
X30923703Y-41858659D02*
X30780846Y-41858659D01*
X30780846Y-41858659D02*
X30590370Y-41811040D01*
X30590370Y-41811040D02*
X30495132Y-41763421D01*
X30495132Y-41763421D02*
X30399894Y-41668183D01*
X30399894Y-41668183D02*
X30352275Y-41525326D01*
X30352275Y-41525326D02*
X30352275Y-41430088D01*
X30352275Y-41430088D02*
X30399894Y-41287231D01*
X30399894Y-41287231D02*
X30447513Y-41239612D01*
X31352275Y-40811040D02*
X30352275Y-40811040D01*
X30352275Y-40811040D02*
X30352275Y-40430088D01*
X30352275Y-40430088D02*
X30399894Y-40334850D01*
X30399894Y-40334850D02*
X30447513Y-40287231D01*
X30447513Y-40287231D02*
X30542751Y-40239612D01*
X30542751Y-40239612D02*
X30685608Y-40239612D01*
X30685608Y-40239612D02*
X30780846Y-40287231D01*
X30780846Y-40287231D02*
X30828465Y-40334850D01*
X30828465Y-40334850D02*
X30876084Y-40430088D01*
X30876084Y-40430088D02*
X30876084Y-40811040D01*
X30304656Y-39096755D02*
X31590370Y-39953897D01*
X31352275Y-38763421D02*
X30352275Y-38763421D01*
X30352275Y-38763421D02*
X31066560Y-38430088D01*
X31066560Y-38430088D02*
X30352275Y-38096755D01*
X30352275Y-38096755D02*
X31352275Y-38096755D01*
X32866980Y-47953898D02*
X32914600Y-48001517D01*
X32914600Y-48001517D02*
X32962219Y-48144374D01*
X32962219Y-48144374D02*
X32962219Y-48239612D01*
X32962219Y-48239612D02*
X32914600Y-48382469D01*
X32914600Y-48382469D02*
X32819361Y-48477707D01*
X32819361Y-48477707D02*
X32724123Y-48525326D01*
X32724123Y-48525326D02*
X32533647Y-48572945D01*
X32533647Y-48572945D02*
X32390790Y-48572945D01*
X32390790Y-48572945D02*
X32200314Y-48525326D01*
X32200314Y-48525326D02*
X32105076Y-48477707D01*
X32105076Y-48477707D02*
X32009838Y-48382469D01*
X32009838Y-48382469D02*
X31962219Y-48239612D01*
X31962219Y-48239612D02*
X31962219Y-48144374D01*
X31962219Y-48144374D02*
X32009838Y-48001517D01*
X32009838Y-48001517D02*
X32057457Y-47953898D01*
X31962219Y-47334850D02*
X31962219Y-47144374D01*
X31962219Y-47144374D02*
X32009838Y-47049136D01*
X32009838Y-47049136D02*
X32105076Y-46953898D01*
X32105076Y-46953898D02*
X32295552Y-46906279D01*
X32295552Y-46906279D02*
X32628885Y-46906279D01*
X32628885Y-46906279D02*
X32819361Y-46953898D01*
X32819361Y-46953898D02*
X32914600Y-47049136D01*
X32914600Y-47049136D02*
X32962219Y-47144374D01*
X32962219Y-47144374D02*
X32962219Y-47334850D01*
X32962219Y-47334850D02*
X32914600Y-47430088D01*
X32914600Y-47430088D02*
X32819361Y-47525326D01*
X32819361Y-47525326D02*
X32628885Y-47572945D01*
X32628885Y-47572945D02*
X32295552Y-47572945D01*
X32295552Y-47572945D02*
X32105076Y-47525326D01*
X32105076Y-47525326D02*
X32009838Y-47430088D01*
X32009838Y-47430088D02*
X31962219Y-47334850D01*
X32438409Y-46144374D02*
X32486028Y-46001517D01*
X32486028Y-46001517D02*
X32533647Y-45953898D01*
X32533647Y-45953898D02*
X32628885Y-45906279D01*
X32628885Y-45906279D02*
X32771742Y-45906279D01*
X32771742Y-45906279D02*
X32866980Y-45953898D01*
X32866980Y-45953898D02*
X32914600Y-46001517D01*
X32914600Y-46001517D02*
X32962219Y-46096755D01*
X32962219Y-46096755D02*
X32962219Y-46477707D01*
X32962219Y-46477707D02*
X31962219Y-46477707D01*
X31962219Y-46477707D02*
X31962219Y-46144374D01*
X31962219Y-46144374D02*
X32009838Y-46049136D01*
X32009838Y-46049136D02*
X32057457Y-46001517D01*
X32057457Y-46001517D02*
X32152695Y-45953898D01*
X32152695Y-45953898D02*
X32247933Y-45953898D01*
X32247933Y-45953898D02*
X32343171Y-46001517D01*
X32343171Y-46001517D02*
X32390790Y-46049136D01*
X32390790Y-46049136D02*
X32438409Y-46144374D01*
X32438409Y-46144374D02*
X32438409Y-46477707D01*
X31962219Y-45287231D02*
X31962219Y-45096755D01*
X31962219Y-45096755D02*
X32009838Y-45001517D01*
X32009838Y-45001517D02*
X32105076Y-44906279D01*
X32105076Y-44906279D02*
X32295552Y-44858660D01*
X32295552Y-44858660D02*
X32628885Y-44858660D01*
X32628885Y-44858660D02*
X32819361Y-44906279D01*
X32819361Y-44906279D02*
X32914600Y-45001517D01*
X32914600Y-45001517D02*
X32962219Y-45096755D01*
X32962219Y-45096755D02*
X32962219Y-45287231D01*
X32962219Y-45287231D02*
X32914600Y-45382469D01*
X32914600Y-45382469D02*
X32819361Y-45477707D01*
X32819361Y-45477707D02*
X32628885Y-45525326D01*
X32628885Y-45525326D02*
X32295552Y-45525326D01*
X32295552Y-45525326D02*
X32105076Y-45477707D01*
X32105076Y-45477707D02*
X32009838Y-45382469D01*
X32009838Y-45382469D02*
X31962219Y-45287231D01*
X32676504Y-44477707D02*
X32676504Y-44001517D01*
X32962219Y-44572945D02*
X31962219Y-44239612D01*
X31962219Y-44239612D02*
X32962219Y-43906279D01*
X32962219Y-43001517D02*
X32486028Y-43334850D01*
X32962219Y-43572945D02*
X31962219Y-43572945D01*
X31962219Y-43572945D02*
X31962219Y-43191993D01*
X31962219Y-43191993D02*
X32009838Y-43096755D01*
X32009838Y-43096755D02*
X32057457Y-43049136D01*
X32057457Y-43049136D02*
X32152695Y-43001517D01*
X32152695Y-43001517D02*
X32295552Y-43001517D01*
X32295552Y-43001517D02*
X32390790Y-43049136D01*
X32390790Y-43049136D02*
X32438409Y-43096755D01*
X32438409Y-43096755D02*
X32486028Y-43191993D01*
X32486028Y-43191993D02*
X32486028Y-43572945D01*
X32962219Y-42572945D02*
X31962219Y-42572945D01*
X31962219Y-42572945D02*
X31962219Y-42334850D01*
X31962219Y-42334850D02*
X32009838Y-42191993D01*
X32009838Y-42191993D02*
X32105076Y-42096755D01*
X32105076Y-42096755D02*
X32200314Y-42049136D01*
X32200314Y-42049136D02*
X32390790Y-42001517D01*
X32390790Y-42001517D02*
X32533647Y-42001517D01*
X32533647Y-42001517D02*
X32724123Y-42049136D01*
X32724123Y-42049136D02*
X32819361Y-42096755D01*
X32819361Y-42096755D02*
X32914600Y-42191993D01*
X32914600Y-42191993D02*
X32962219Y-42334850D01*
X32962219Y-42334850D02*
X32962219Y-42572945D01*
D12*
G36*
X85942896Y-39477225D02*
G01*
X86007715Y-39509635D01*
X86067746Y-39569666D01*
X86099619Y-39665284D01*
X86099619Y-39758094D01*
X85349619Y-39758094D01*
X85349619Y-39665282D01*
X85381491Y-39569664D01*
X85441519Y-39509636D01*
X85506342Y-39477225D01*
X85668579Y-39436666D01*
X85780658Y-39436666D01*
X85942896Y-39477225D01*
G37*
G36*
X86474619Y-42228332D02*
G01*
X84974619Y-42228332D01*
X84974619Y-41502142D01*
X85099619Y-41502142D01*
X85099619Y-41644999D01*
X85100834Y-41657342D01*
X85100601Y-41660633D01*
X85101585Y-41664962D01*
X85102021Y-41669385D01*
X85103284Y-41672436D01*
X85106034Y-41684527D01*
X85153652Y-41827384D01*
X85163643Y-41849759D01*
X85166586Y-41853152D01*
X85168305Y-41857302D01*
X85183850Y-41876244D01*
X85279088Y-41971482D01*
X85288673Y-41979348D01*
X85290837Y-41981843D01*
X85294598Y-41984210D01*
X85298030Y-41987027D01*
X85301077Y-41988289D01*
X85311574Y-41994897D01*
X85406812Y-42042516D01*
X85408597Y-42043199D01*
X85409322Y-42043736D01*
X85419551Y-42047391D01*
X85429698Y-42051274D01*
X85430597Y-42051337D01*
X85432397Y-42051981D01*
X85622873Y-42099600D01*
X85627102Y-42100225D01*
X85628804Y-42100930D01*
X85637983Y-42101834D01*
X85647113Y-42103184D01*
X85648935Y-42102912D01*
X85653190Y-42103332D01*
X85796047Y-42103332D01*
X85800301Y-42102912D01*
X85802123Y-42103184D01*
X85811251Y-42101834D01*
X85820433Y-42100930D01*
X85822134Y-42100225D01*
X85826364Y-42099600D01*
X86016840Y-42051981D01*
X86018639Y-42051337D01*
X86019539Y-42051274D01*
X86029685Y-42047391D01*
X86039915Y-42043736D01*
X86040639Y-42043199D01*
X86042425Y-42042516D01*
X86137662Y-41994898D01*
X86148156Y-41988291D01*
X86151207Y-41987028D01*
X86154643Y-41984207D01*
X86158400Y-41981843D01*
X86160560Y-41979351D01*
X86170149Y-41971483D01*
X86265388Y-41876245D01*
X86280933Y-41857303D01*
X86282652Y-41853151D01*
X86285595Y-41849759D01*
X86295585Y-41827384D01*
X86343204Y-41684528D01*
X86345953Y-41672434D01*
X86347217Y-41669385D01*
X86347652Y-41664963D01*
X86348637Y-41660634D01*
X86348403Y-41657342D01*
X86349619Y-41644999D01*
X86349619Y-41549761D01*
X86348403Y-41537417D01*
X86348637Y-41534126D01*
X86347652Y-41529796D01*
X86347217Y-41525375D01*
X86345953Y-41522325D01*
X86343204Y-41510232D01*
X86295585Y-41367376D01*
X86285595Y-41345001D01*
X86282653Y-41341609D01*
X86280933Y-41337456D01*
X86265387Y-41318515D01*
X86217767Y-41270896D01*
X86198830Y-41255355D01*
X86198826Y-41255351D01*
X86153766Y-41236687D01*
X86129380Y-41234285D01*
X85796047Y-41234285D01*
X85771661Y-41236687D01*
X85726601Y-41255351D01*
X85692113Y-41289839D01*
X85673449Y-41334899D01*
X85671047Y-41359285D01*
X85671047Y-41549761D01*
X85673449Y-41574147D01*
X85692113Y-41619207D01*
X85726601Y-41653695D01*
X85771661Y-41672359D01*
X85820433Y-41672359D01*
X85865493Y-41653695D01*
X85899981Y-41619207D01*
X85918645Y-41574147D01*
X85921047Y-41549761D01*
X85921047Y-41484285D01*
X86071032Y-41484285D01*
X86099619Y-41570046D01*
X86099619Y-41624713D01*
X86067746Y-41720331D01*
X86007715Y-41780362D01*
X85942896Y-41812772D01*
X85780658Y-41853332D01*
X85668579Y-41853332D01*
X85506342Y-41812772D01*
X85441519Y-41780361D01*
X85381491Y-41720333D01*
X85349619Y-41624715D01*
X85349619Y-41531650D01*
X85384041Y-41462806D01*
X85392799Y-41439920D01*
X85396256Y-41391271D01*
X85380833Y-41345000D01*
X85348877Y-41308155D01*
X85305254Y-41286344D01*
X85256604Y-41282886D01*
X85210334Y-41298309D01*
X85173489Y-41330265D01*
X85160434Y-41351003D01*
X85112816Y-41446240D01*
X85104058Y-41469126D01*
X85103739Y-41473607D01*
X85102021Y-41477756D01*
X85099619Y-41502142D01*
X84974619Y-41502142D01*
X84974619Y-40921983D01*
X85099924Y-40921983D01*
X85102021Y-40938477D01*
X85102021Y-40955099D01*
X85105069Y-40962459D01*
X85106075Y-40970366D01*
X85114323Y-40984800D01*
X85120685Y-41000159D01*
X85126319Y-41005793D01*
X85130273Y-41012712D01*
X85143417Y-41022891D01*
X85155173Y-41034647D01*
X85162533Y-41037695D01*
X85168834Y-41042575D01*
X85184875Y-41046949D01*
X85200233Y-41053311D01*
X85212704Y-41054539D01*
X85215889Y-41055408D01*
X85218348Y-41055095D01*
X85224619Y-41055713D01*
X86224619Y-41055713D01*
X86249005Y-41053311D01*
X86294065Y-41034647D01*
X86328553Y-41000159D01*
X86347217Y-40955099D01*
X86347217Y-40906327D01*
X86328553Y-40861267D01*
X86294065Y-40826779D01*
X86249005Y-40808115D01*
X86224619Y-40805713D01*
X85695314Y-40805713D01*
X86286636Y-40467815D01*
X86291773Y-40464168D01*
X86294065Y-40463219D01*
X86296399Y-40460884D01*
X86306618Y-40453631D01*
X86316797Y-40440486D01*
X86328553Y-40428731D01*
X86331601Y-40421370D01*
X86336481Y-40415070D01*
X86340855Y-40399028D01*
X86347217Y-40383671D01*
X86347217Y-40375704D01*
X86349314Y-40368015D01*
X86347217Y-40351520D01*
X86347217Y-40334899D01*
X86344168Y-40327538D01*
X86343163Y-40319632D01*
X86334914Y-40305197D01*
X86328553Y-40289839D01*
X86322918Y-40284204D01*
X86318965Y-40277286D01*
X86305820Y-40267106D01*
X86294065Y-40255351D01*
X86286704Y-40252302D01*
X86280404Y-40247423D01*
X86264361Y-40243047D01*
X86249005Y-40236687D01*
X86236535Y-40235458D01*
X86233350Y-40234590D01*
X86230890Y-40234902D01*
X86224619Y-40234285D01*
X85224619Y-40234285D01*
X85200233Y-40236687D01*
X85155173Y-40255351D01*
X85120685Y-40289839D01*
X85102021Y-40334899D01*
X85102021Y-40383671D01*
X85120685Y-40428731D01*
X85155173Y-40463219D01*
X85200233Y-40481883D01*
X85224619Y-40484285D01*
X85753923Y-40484285D01*
X85162602Y-40822183D01*
X85157464Y-40825829D01*
X85155173Y-40826779D01*
X85152838Y-40829113D01*
X85142620Y-40836367D01*
X85132440Y-40849511D01*
X85120685Y-40861267D01*
X85117636Y-40868627D01*
X85112757Y-40874928D01*
X85108382Y-40890969D01*
X85102021Y-40906327D01*
X85102021Y-40914293D01*
X85099924Y-40921983D01*
X84974619Y-40921983D01*
X84974619Y-39644999D01*
X85099619Y-39644999D01*
X85099619Y-39883094D01*
X85102021Y-39907480D01*
X85120685Y-39952540D01*
X85155173Y-39987028D01*
X85200233Y-40005692D01*
X85224619Y-40008094D01*
X86224619Y-40008094D01*
X86249005Y-40005692D01*
X86294065Y-39987028D01*
X86328553Y-39952540D01*
X86347217Y-39907480D01*
X86349619Y-39883094D01*
X86349619Y-39644999D01*
X86348403Y-39632655D01*
X86348637Y-39629364D01*
X86347652Y-39625034D01*
X86347217Y-39620613D01*
X86345953Y-39617563D01*
X86343204Y-39605470D01*
X86295585Y-39462614D01*
X86285595Y-39440239D01*
X86282652Y-39436846D01*
X86280933Y-39432695D01*
X86265388Y-39413753D01*
X86170149Y-39318515D01*
X86160560Y-39310646D01*
X86158400Y-39308155D01*
X86154643Y-39305790D01*
X86151207Y-39302970D01*
X86148156Y-39301706D01*
X86137662Y-39295100D01*
X86042425Y-39247482D01*
X86040639Y-39246798D01*
X86039915Y-39246262D01*
X86029685Y-39242606D01*
X86019539Y-39238724D01*
X86018639Y-39238660D01*
X86016840Y-39238017D01*
X85826364Y-39190398D01*
X85822134Y-39189772D01*
X85820433Y-39189068D01*
X85811251Y-39188163D01*
X85802123Y-39186814D01*
X85800301Y-39187085D01*
X85796047Y-39186666D01*
X85653190Y-39186666D01*
X85648935Y-39187085D01*
X85647113Y-39186814D01*
X85637983Y-39188163D01*
X85628804Y-39189068D01*
X85627102Y-39189772D01*
X85622873Y-39190398D01*
X85432397Y-39238017D01*
X85430597Y-39238660D01*
X85429698Y-39238724D01*
X85419551Y-39242606D01*
X85409322Y-39246262D01*
X85408597Y-39246798D01*
X85406812Y-39247482D01*
X85311574Y-39295101D01*
X85301077Y-39301708D01*
X85298030Y-39302971D01*
X85294598Y-39305787D01*
X85290837Y-39308155D01*
X85288673Y-39310649D01*
X85279088Y-39318516D01*
X85183850Y-39413754D01*
X85168305Y-39432696D01*
X85166586Y-39436845D01*
X85163643Y-39440239D01*
X85153652Y-39462614D01*
X85106034Y-39605471D01*
X85103284Y-39617561D01*
X85102021Y-39620613D01*
X85101585Y-39625035D01*
X85100601Y-39629365D01*
X85100834Y-39632655D01*
X85099619Y-39644999D01*
X84974619Y-39644999D01*
X84974619Y-39061666D01*
X86474619Y-39061666D01*
X86474619Y-42228332D01*
G37*
G36*
X86474619Y-47307350D02*
G01*
X84974619Y-47307350D01*
X84974619Y-46376032D01*
X85100601Y-46376032D01*
X85104058Y-46424681D01*
X85125870Y-46468306D01*
X85162716Y-46500261D01*
X85185091Y-46510251D01*
X85829335Y-46724999D01*
X85185091Y-46939747D01*
X85162716Y-46949737D01*
X85125870Y-46981692D01*
X85104058Y-47025317D01*
X85100601Y-47073966D01*
X85116024Y-47120235D01*
X85147979Y-47157081D01*
X85191604Y-47178893D01*
X85240253Y-47182350D01*
X85264147Y-47176917D01*
X86264147Y-46843585D01*
X86286522Y-46833594D01*
X86293269Y-46827742D01*
X86301258Y-46823748D01*
X86311524Y-46811910D01*
X86323368Y-46801639D01*
X86327363Y-46793647D01*
X86333214Y-46786902D01*
X86338169Y-46772037D01*
X86345180Y-46758015D01*
X86345813Y-46749104D01*
X86348637Y-46740633D01*
X86347526Y-46724999D01*
X86348637Y-46709365D01*
X86345813Y-46700893D01*
X86345180Y-46691983D01*
X86338169Y-46677961D01*
X86333214Y-46663096D01*
X86327363Y-46656350D01*
X86323368Y-46648359D01*
X86311524Y-46638087D01*
X86301258Y-46626250D01*
X86293269Y-46622255D01*
X86286522Y-46616404D01*
X86264147Y-46606413D01*
X85264147Y-46273081D01*
X85240253Y-46267648D01*
X85191604Y-46271105D01*
X85147979Y-46292917D01*
X85116024Y-46329763D01*
X85100601Y-46376032D01*
X84974619Y-46376032D01*
X84974619Y-45677380D01*
X85099619Y-45677380D01*
X85099619Y-45772618D01*
X85100834Y-45784961D01*
X85100601Y-45788252D01*
X85101585Y-45792581D01*
X85102021Y-45797004D01*
X85103284Y-45800055D01*
X85106034Y-45812146D01*
X85153652Y-45955003D01*
X85163643Y-45977378D01*
X85166586Y-45980771D01*
X85168305Y-45984921D01*
X85183850Y-46003863D01*
X85279088Y-46099101D01*
X85288673Y-46106967D01*
X85290837Y-46109462D01*
X85294598Y-46111829D01*
X85298030Y-46114646D01*
X85301077Y-46115908D01*
X85311574Y-46122516D01*
X85406812Y-46170135D01*
X85408597Y-46170818D01*
X85409322Y-46171355D01*
X85419551Y-46175010D01*
X85429698Y-46178893D01*
X85430597Y-46178956D01*
X85432397Y-46179600D01*
X85622873Y-46227219D01*
X85627102Y-46227844D01*
X85628804Y-46228549D01*
X85637983Y-46229453D01*
X85647113Y-46230803D01*
X85648935Y-46230531D01*
X85653190Y-46230951D01*
X85796047Y-46230951D01*
X85800301Y-46230531D01*
X85802123Y-46230803D01*
X85811251Y-46229453D01*
X85820433Y-46228549D01*
X85822134Y-46227844D01*
X85826364Y-46227219D01*
X86016840Y-46179600D01*
X86018639Y-46178956D01*
X86019539Y-46178893D01*
X86029685Y-46175010D01*
X86039915Y-46171355D01*
X86040639Y-46170818D01*
X86042425Y-46170135D01*
X86137662Y-46122517D01*
X86148156Y-46115910D01*
X86151207Y-46114647D01*
X86154643Y-46111826D01*
X86158400Y-46109462D01*
X86160560Y-46106970D01*
X86170149Y-46099102D01*
X86265388Y-46003864D01*
X86280933Y-45984922D01*
X86282652Y-45980770D01*
X86285595Y-45977378D01*
X86295585Y-45955003D01*
X86343204Y-45812147D01*
X86345953Y-45800053D01*
X86347217Y-45797004D01*
X86347652Y-45792582D01*
X86348637Y-45788253D01*
X86348403Y-45784961D01*
X86349619Y-45772618D01*
X86349619Y-45677380D01*
X86348403Y-45665036D01*
X86348637Y-45661745D01*
X86347652Y-45657415D01*
X86347217Y-45652994D01*
X86345953Y-45649944D01*
X86343204Y-45637851D01*
X86295585Y-45494995D01*
X86285595Y-45472620D01*
X86282653Y-45469228D01*
X86280933Y-45465075D01*
X86265387Y-45446134D01*
X86217767Y-45398515D01*
X86198825Y-45382970D01*
X86153765Y-45364306D01*
X86104992Y-45364306D01*
X86059933Y-45382971D01*
X86025446Y-45417459D01*
X86006782Y-45462519D01*
X86006782Y-45511292D01*
X86025447Y-45556351D01*
X86040993Y-45575293D01*
X86067746Y-45602046D01*
X86099619Y-45697665D01*
X86099619Y-45752332D01*
X86067746Y-45847950D01*
X86007715Y-45907981D01*
X85942896Y-45940391D01*
X85780658Y-45980951D01*
X85668579Y-45980951D01*
X85506342Y-45940391D01*
X85441519Y-45907980D01*
X85381491Y-45847952D01*
X85349619Y-45752334D01*
X85349619Y-45697663D01*
X85381491Y-45602045D01*
X85408245Y-45575293D01*
X85423790Y-45556351D01*
X85442455Y-45511291D01*
X85442455Y-45462518D01*
X85423790Y-45417458D01*
X85389303Y-45382971D01*
X85344243Y-45364306D01*
X85295470Y-45364306D01*
X85250410Y-45382971D01*
X85231468Y-45398516D01*
X85183850Y-45446135D01*
X85168305Y-45465077D01*
X85166586Y-45469226D01*
X85163643Y-45472620D01*
X85153652Y-45494995D01*
X85106034Y-45637852D01*
X85103284Y-45649942D01*
X85102021Y-45652994D01*
X85101585Y-45657416D01*
X85100601Y-45661746D01*
X85100834Y-45665036D01*
X85099619Y-45677380D01*
X84974619Y-45677380D01*
X84974619Y-44677380D01*
X85099619Y-44677380D01*
X85099619Y-44772618D01*
X85100834Y-44784961D01*
X85100601Y-44788252D01*
X85101585Y-44792581D01*
X85102021Y-44797004D01*
X85103284Y-44800055D01*
X85106034Y-44812146D01*
X85153652Y-44955003D01*
X85163643Y-44977378D01*
X85166586Y-44980771D01*
X85168305Y-44984921D01*
X85183850Y-45003863D01*
X85279088Y-45099101D01*
X85288673Y-45106967D01*
X85290837Y-45109462D01*
X85294598Y-45111829D01*
X85298030Y-45114646D01*
X85301077Y-45115908D01*
X85311574Y-45122516D01*
X85406812Y-45170135D01*
X85408597Y-45170818D01*
X85409322Y-45171355D01*
X85419551Y-45175010D01*
X85429698Y-45178893D01*
X85430597Y-45178956D01*
X85432397Y-45179600D01*
X85622873Y-45227219D01*
X85627102Y-45227844D01*
X85628804Y-45228549D01*
X85637983Y-45229453D01*
X85647113Y-45230803D01*
X85648935Y-45230531D01*
X85653190Y-45230951D01*
X85796047Y-45230951D01*
X85800301Y-45230531D01*
X85802123Y-45230803D01*
X85811251Y-45229453D01*
X85820433Y-45228549D01*
X85822134Y-45227844D01*
X85826364Y-45227219D01*
X86016840Y-45179600D01*
X86018639Y-45178956D01*
X86019539Y-45178893D01*
X86029685Y-45175010D01*
X86039915Y-45171355D01*
X86040639Y-45170818D01*
X86042425Y-45170135D01*
X86137662Y-45122517D01*
X86148156Y-45115910D01*
X86151207Y-45114647D01*
X86154643Y-45111826D01*
X86158400Y-45109462D01*
X86160560Y-45106970D01*
X86170149Y-45099102D01*
X86265388Y-45003864D01*
X86280933Y-44984922D01*
X86282652Y-44980770D01*
X86285595Y-44977378D01*
X86295585Y-44955003D01*
X86343204Y-44812147D01*
X86345953Y-44800053D01*
X86347217Y-44797004D01*
X86347652Y-44792582D01*
X86348637Y-44788253D01*
X86348403Y-44784961D01*
X86349619Y-44772618D01*
X86349619Y-44677380D01*
X86348403Y-44665036D01*
X86348637Y-44661745D01*
X86347652Y-44657415D01*
X86347217Y-44652994D01*
X86345953Y-44649944D01*
X86343204Y-44637851D01*
X86295585Y-44494995D01*
X86285595Y-44472620D01*
X86282653Y-44469228D01*
X86280933Y-44465075D01*
X86265387Y-44446134D01*
X86217767Y-44398515D01*
X86198825Y-44382970D01*
X86153765Y-44364306D01*
X86104992Y-44364306D01*
X86059933Y-44382971D01*
X86025446Y-44417459D01*
X86006782Y-44462519D01*
X86006782Y-44511292D01*
X86025447Y-44556351D01*
X86040993Y-44575293D01*
X86067746Y-44602046D01*
X86099619Y-44697665D01*
X86099619Y-44752332D01*
X86067746Y-44847950D01*
X86007715Y-44907981D01*
X85942896Y-44940391D01*
X85780658Y-44980951D01*
X85668579Y-44980951D01*
X85506342Y-44940391D01*
X85441519Y-44907980D01*
X85381491Y-44847952D01*
X85349619Y-44752334D01*
X85349619Y-44697663D01*
X85381491Y-44602045D01*
X85408245Y-44575293D01*
X85423790Y-44556351D01*
X85442455Y-44511291D01*
X85442455Y-44462518D01*
X85423790Y-44417458D01*
X85389303Y-44382971D01*
X85344243Y-44364306D01*
X85295470Y-44364306D01*
X85250410Y-44382971D01*
X85231468Y-44398516D01*
X85183850Y-44446135D01*
X85168305Y-44465077D01*
X85166586Y-44469226D01*
X85163643Y-44472620D01*
X85153652Y-44494995D01*
X85106034Y-44637852D01*
X85103284Y-44649942D01*
X85102021Y-44652994D01*
X85101585Y-44657416D01*
X85100601Y-44661746D01*
X85100834Y-44665036D01*
X85099619Y-44677380D01*
X84974619Y-44677380D01*
X84974619Y-44239306D01*
X86474619Y-44239306D01*
X86474619Y-47307350D01*
G37*
D13*
X86719580Y-56681666D02*
X86767200Y-56729285D01*
X86767200Y-56729285D02*
X86814819Y-56872142D01*
X86814819Y-56872142D02*
X86814819Y-56967380D01*
X86814819Y-56967380D02*
X86767200Y-57110237D01*
X86767200Y-57110237D02*
X86671961Y-57205475D01*
X86671961Y-57205475D02*
X86576723Y-57253094D01*
X86576723Y-57253094D02*
X86386247Y-57300713D01*
X86386247Y-57300713D02*
X86243390Y-57300713D01*
X86243390Y-57300713D02*
X86052914Y-57253094D01*
X86052914Y-57253094D02*
X85957676Y-57205475D01*
X85957676Y-57205475D02*
X85862438Y-57110237D01*
X85862438Y-57110237D02*
X85814819Y-56967380D01*
X85814819Y-56967380D02*
X85814819Y-56872142D01*
X85814819Y-56872142D02*
X85862438Y-56729285D01*
X85862438Y-56729285D02*
X85910057Y-56681666D01*
X85814819Y-56348332D02*
X85814819Y-55681666D01*
X85814819Y-55681666D02*
X86814819Y-56110237D01*
X89912380Y-61369819D02*
X89340952Y-61369819D01*
X89626666Y-61369819D02*
X89626666Y-60369819D01*
X89626666Y-60369819D02*
X89531428Y-60512676D01*
X89531428Y-60512676D02*
X89436190Y-60607914D01*
X89436190Y-60607914D02*
X89340952Y-60655533D01*
X90531428Y-60369819D02*
X90626666Y-60369819D01*
X90626666Y-60369819D02*
X90721904Y-60417438D01*
X90721904Y-60417438D02*
X90769523Y-60465057D01*
X90769523Y-60465057D02*
X90817142Y-60560295D01*
X90817142Y-60560295D02*
X90864761Y-60750771D01*
X90864761Y-60750771D02*
X90864761Y-60988866D01*
X90864761Y-60988866D02*
X90817142Y-61179342D01*
X90817142Y-61179342D02*
X90769523Y-61274580D01*
X90769523Y-61274580D02*
X90721904Y-61322200D01*
X90721904Y-61322200D02*
X90626666Y-61369819D01*
X90626666Y-61369819D02*
X90531428Y-61369819D01*
X90531428Y-61369819D02*
X90436190Y-61322200D01*
X90436190Y-61322200D02*
X90388571Y-61274580D01*
X90388571Y-61274580D02*
X90340952Y-61179342D01*
X90340952Y-61179342D02*
X90293333Y-60988866D01*
X90293333Y-60988866D02*
X90293333Y-60750771D01*
X90293333Y-60750771D02*
X90340952Y-60560295D01*
X90340952Y-60560295D02*
X90388571Y-60465057D01*
X90388571Y-60465057D02*
X90436190Y-60417438D01*
X90436190Y-60417438D02*
X90531428Y-60369819D01*
X91483809Y-60369819D02*
X91579047Y-60369819D01*
X91579047Y-60369819D02*
X91674285Y-60417438D01*
X91674285Y-60417438D02*
X91721904Y-60465057D01*
X91721904Y-60465057D02*
X91769523Y-60560295D01*
X91769523Y-60560295D02*
X91817142Y-60750771D01*
X91817142Y-60750771D02*
X91817142Y-60988866D01*
X91817142Y-60988866D02*
X91769523Y-61179342D01*
X91769523Y-61179342D02*
X91721904Y-61274580D01*
X91721904Y-61274580D02*
X91674285Y-61322200D01*
X91674285Y-61322200D02*
X91579047Y-61369819D01*
X91579047Y-61369819D02*
X91483809Y-61369819D01*
X91483809Y-61369819D02*
X91388571Y-61322200D01*
X91388571Y-61322200D02*
X91340952Y-61274580D01*
X91340952Y-61274580D02*
X91293333Y-61179342D01*
X91293333Y-61179342D02*
X91245714Y-60988866D01*
X91245714Y-60988866D02*
X91245714Y-60750771D01*
X91245714Y-60750771D02*
X91293333Y-60560295D01*
X91293333Y-60560295D02*
X91340952Y-60465057D01*
X91340952Y-60465057D02*
X91388571Y-60417438D01*
X91388571Y-60417438D02*
X91483809Y-60369819D01*
X92674285Y-60703152D02*
X92674285Y-61369819D01*
X92245714Y-60703152D02*
X92245714Y-61226961D01*
X92245714Y-61226961D02*
X92293333Y-61322200D01*
X92293333Y-61322200D02*
X92388571Y-61369819D01*
X92388571Y-61369819D02*
X92531428Y-61369819D01*
X92531428Y-61369819D02*
X92626666Y-61322200D01*
X92626666Y-61322200D02*
X92674285Y-61274580D01*
X93483809Y-60846009D02*
X93150476Y-60846009D01*
X93150476Y-61369819D02*
X93150476Y-60369819D01*
X93150476Y-60369819D02*
X93626666Y-60369819D01*
X94916666Y-48989819D02*
X94916666Y-49704104D01*
X94916666Y-49704104D02*
X94869047Y-49846961D01*
X94869047Y-49846961D02*
X94773809Y-49942200D01*
X94773809Y-49942200D02*
X94630952Y-49989819D01*
X94630952Y-49989819D02*
X94535714Y-49989819D01*
X95869047Y-48989819D02*
X95392857Y-48989819D01*
X95392857Y-48989819D02*
X95345238Y-49466009D01*
X95345238Y-49466009D02*
X95392857Y-49418390D01*
X95392857Y-49418390D02*
X95488095Y-49370771D01*
X95488095Y-49370771D02*
X95726190Y-49370771D01*
X95726190Y-49370771D02*
X95821428Y-49418390D01*
X95821428Y-49418390D02*
X95869047Y-49466009D01*
X95869047Y-49466009D02*
X95916666Y-49561247D01*
X95916666Y-49561247D02*
X95916666Y-49799342D01*
X95916666Y-49799342D02*
X95869047Y-49894580D01*
X95869047Y-49894580D02*
X95821428Y-49942200D01*
X95821428Y-49942200D02*
X95726190Y-49989819D01*
X95726190Y-49989819D02*
X95488095Y-49989819D01*
X95488095Y-49989819D02*
X95392857Y-49942200D01*
X95392857Y-49942200D02*
X95345238Y-49894580D01*
X89305238Y-36289819D02*
X89876666Y-36289819D01*
X89590952Y-37289819D02*
X89590952Y-36289819D01*
X90210000Y-36766009D02*
X90543333Y-36766009D01*
X90686190Y-37289819D02*
X90210000Y-37289819D01*
X90210000Y-37289819D02*
X90210000Y-36289819D01*
X90210000Y-36289819D02*
X90686190Y-36289819D01*
X91686190Y-37289819D02*
X91352857Y-36813628D01*
X91114762Y-37289819D02*
X91114762Y-36289819D01*
X91114762Y-36289819D02*
X91495714Y-36289819D01*
X91495714Y-36289819D02*
X91590952Y-36337438D01*
X91590952Y-36337438D02*
X91638571Y-36385057D01*
X91638571Y-36385057D02*
X91686190Y-36480295D01*
X91686190Y-36480295D02*
X91686190Y-36623152D01*
X91686190Y-36623152D02*
X91638571Y-36718390D01*
X91638571Y-36718390D02*
X91590952Y-36766009D01*
X91590952Y-36766009D02*
X91495714Y-36813628D01*
X91495714Y-36813628D02*
X91114762Y-36813628D01*
X92114762Y-37289819D02*
X92114762Y-36289819D01*
X92114762Y-36289819D02*
X92448095Y-37004104D01*
X92448095Y-37004104D02*
X92781428Y-36289819D01*
X92781428Y-36289819D02*
X92781428Y-37289819D01*
X93257619Y-37289819D02*
X93257619Y-36289819D01*
X93733809Y-37289819D02*
X93733809Y-36289819D01*
X93733809Y-36289819D02*
X94305237Y-37289819D01*
X94305237Y-37289819D02*
X94305237Y-36289819D01*
X94733809Y-37004104D02*
X95209999Y-37004104D01*
X94638571Y-37289819D02*
X94971904Y-36289819D01*
X94971904Y-36289819D02*
X95305237Y-37289819D01*
X96114761Y-37289819D02*
X95638571Y-37289819D01*
X95638571Y-37289819D02*
X95638571Y-36289819D01*
X54911666Y-85179819D02*
X54911666Y-85894104D01*
X54911666Y-85894104D02*
X54864047Y-86036961D01*
X54864047Y-86036961D02*
X54768809Y-86132200D01*
X54768809Y-86132200D02*
X54625952Y-86179819D01*
X54625952Y-86179819D02*
X54530714Y-86179819D01*
X55911666Y-86179819D02*
X55340238Y-86179819D01*
X55625952Y-86179819D02*
X55625952Y-85179819D01*
X55625952Y-85179819D02*
X55530714Y-85322676D01*
X55530714Y-85322676D02*
X55435476Y-85417914D01*
X55435476Y-85417914D02*
X55340238Y-85465533D01*
X97417380Y-86084580D02*
X97369761Y-86132200D01*
X97369761Y-86132200D02*
X97226904Y-86179819D01*
X97226904Y-86179819D02*
X97131666Y-86179819D01*
X97131666Y-86179819D02*
X96988809Y-86132200D01*
X96988809Y-86132200D02*
X96893571Y-86036961D01*
X96893571Y-86036961D02*
X96845952Y-85941723D01*
X96845952Y-85941723D02*
X96798333Y-85751247D01*
X96798333Y-85751247D02*
X96798333Y-85608390D01*
X96798333Y-85608390D02*
X96845952Y-85417914D01*
X96845952Y-85417914D02*
X96893571Y-85322676D01*
X96893571Y-85322676D02*
X96988809Y-85227438D01*
X96988809Y-85227438D02*
X97131666Y-85179819D01*
X97131666Y-85179819D02*
X97226904Y-85179819D01*
X97226904Y-85179819D02*
X97369761Y-85227438D01*
X97369761Y-85227438D02*
X97417380Y-85275057D01*
X97845952Y-86179819D02*
X97845952Y-85179819D01*
X97845952Y-85179819D02*
X98226904Y-85179819D01*
X98226904Y-85179819D02*
X98322142Y-85227438D01*
X98322142Y-85227438D02*
X98369761Y-85275057D01*
X98369761Y-85275057D02*
X98417380Y-85370295D01*
X98417380Y-85370295D02*
X98417380Y-85513152D01*
X98417380Y-85513152D02*
X98369761Y-85608390D01*
X98369761Y-85608390D02*
X98322142Y-85656009D01*
X98322142Y-85656009D02*
X98226904Y-85703628D01*
X98226904Y-85703628D02*
X97845952Y-85703628D01*
X98845952Y-85179819D02*
X98845952Y-85989342D01*
X98845952Y-85989342D02*
X98893571Y-86084580D01*
X98893571Y-86084580D02*
X98941190Y-86132200D01*
X98941190Y-86132200D02*
X99036428Y-86179819D01*
X99036428Y-86179819D02*
X99226904Y-86179819D01*
X99226904Y-86179819D02*
X99322142Y-86132200D01*
X99322142Y-86132200D02*
X99369761Y-86084580D01*
X99369761Y-86084580D02*
X99417380Y-85989342D01*
X99417380Y-85989342D02*
X99417380Y-85179819D01*
X100988809Y-85656009D02*
X101131666Y-85703628D01*
X101131666Y-85703628D02*
X101179285Y-85751247D01*
X101179285Y-85751247D02*
X101226904Y-85846485D01*
X101226904Y-85846485D02*
X101226904Y-85989342D01*
X101226904Y-85989342D02*
X101179285Y-86084580D01*
X101179285Y-86084580D02*
X101131666Y-86132200D01*
X101131666Y-86132200D02*
X101036428Y-86179819D01*
X101036428Y-86179819D02*
X100655476Y-86179819D01*
X100655476Y-86179819D02*
X100655476Y-85179819D01*
X100655476Y-85179819D02*
X100988809Y-85179819D01*
X100988809Y-85179819D02*
X101084047Y-85227438D01*
X101084047Y-85227438D02*
X101131666Y-85275057D01*
X101131666Y-85275057D02*
X101179285Y-85370295D01*
X101179285Y-85370295D02*
X101179285Y-85465533D01*
X101179285Y-85465533D02*
X101131666Y-85560771D01*
X101131666Y-85560771D02*
X101084047Y-85608390D01*
X101084047Y-85608390D02*
X100988809Y-85656009D01*
X100988809Y-85656009D02*
X100655476Y-85656009D01*
X101845952Y-85179819D02*
X102036428Y-85179819D01*
X102036428Y-85179819D02*
X102131666Y-85227438D01*
X102131666Y-85227438D02*
X102226904Y-85322676D01*
X102226904Y-85322676D02*
X102274523Y-85513152D01*
X102274523Y-85513152D02*
X102274523Y-85846485D01*
X102274523Y-85846485D02*
X102226904Y-86036961D01*
X102226904Y-86036961D02*
X102131666Y-86132200D01*
X102131666Y-86132200D02*
X102036428Y-86179819D01*
X102036428Y-86179819D02*
X101845952Y-86179819D01*
X101845952Y-86179819D02*
X101750714Y-86132200D01*
X101750714Y-86132200D02*
X101655476Y-86036961D01*
X101655476Y-86036961D02*
X101607857Y-85846485D01*
X101607857Y-85846485D02*
X101607857Y-85513152D01*
X101607857Y-85513152D02*
X101655476Y-85322676D01*
X101655476Y-85322676D02*
X101750714Y-85227438D01*
X101750714Y-85227438D02*
X101845952Y-85179819D01*
X102655476Y-85894104D02*
X103131666Y-85894104D01*
X102560238Y-86179819D02*
X102893571Y-85179819D01*
X102893571Y-85179819D02*
X103226904Y-86179819D01*
X104131666Y-86179819D02*
X103798333Y-85703628D01*
X103560238Y-86179819D02*
X103560238Y-85179819D01*
X103560238Y-85179819D02*
X103941190Y-85179819D01*
X103941190Y-85179819D02*
X104036428Y-85227438D01*
X104036428Y-85227438D02*
X104084047Y-85275057D01*
X104084047Y-85275057D02*
X104131666Y-85370295D01*
X104131666Y-85370295D02*
X104131666Y-85513152D01*
X104131666Y-85513152D02*
X104084047Y-85608390D01*
X104084047Y-85608390D02*
X104036428Y-85656009D01*
X104036428Y-85656009D02*
X103941190Y-85703628D01*
X103941190Y-85703628D02*
X103560238Y-85703628D01*
X104560238Y-86179819D02*
X104560238Y-85179819D01*
X104560238Y-85179819D02*
X104798333Y-85179819D01*
X104798333Y-85179819D02*
X104941190Y-85227438D01*
X104941190Y-85227438D02*
X105036428Y-85322676D01*
X105036428Y-85322676D02*
X105084047Y-85417914D01*
X105084047Y-85417914D02*
X105131666Y-85608390D01*
X105131666Y-85608390D02*
X105131666Y-85751247D01*
X105131666Y-85751247D02*
X105084047Y-85941723D01*
X105084047Y-85941723D02*
X105036428Y-86036961D01*
X105036428Y-86036961D02*
X104941190Y-86132200D01*
X104941190Y-86132200D02*
X104798333Y-86179819D01*
X104798333Y-86179819D02*
X104560238Y-86179819D01*
X76033333Y-41761580D02*
X75985714Y-41809200D01*
X75985714Y-41809200D02*
X75842857Y-41856819D01*
X75842857Y-41856819D02*
X75747619Y-41856819D01*
X75747619Y-41856819D02*
X75604762Y-41809200D01*
X75604762Y-41809200D02*
X75509524Y-41713961D01*
X75509524Y-41713961D02*
X75461905Y-41618723D01*
X75461905Y-41618723D02*
X75414286Y-41428247D01*
X75414286Y-41428247D02*
X75414286Y-41285390D01*
X75414286Y-41285390D02*
X75461905Y-41094914D01*
X75461905Y-41094914D02*
X75509524Y-40999676D01*
X75509524Y-40999676D02*
X75604762Y-40904438D01*
X75604762Y-40904438D02*
X75747619Y-40856819D01*
X75747619Y-40856819D02*
X75842857Y-40856819D01*
X75842857Y-40856819D02*
X75985714Y-40904438D01*
X75985714Y-40904438D02*
X76033333Y-40952057D01*
X76890476Y-41190152D02*
X76890476Y-41856819D01*
X76652381Y-40809200D02*
X76414286Y-41523485D01*
X76414286Y-41523485D02*
X77033333Y-41523485D01*
X54911666Y-71844819D02*
X54911666Y-72559104D01*
X54911666Y-72559104D02*
X54864047Y-72701961D01*
X54864047Y-72701961D02*
X54768809Y-72797200D01*
X54768809Y-72797200D02*
X54625952Y-72844819D01*
X54625952Y-72844819D02*
X54530714Y-72844819D01*
X55340238Y-71940057D02*
X55387857Y-71892438D01*
X55387857Y-71892438D02*
X55483095Y-71844819D01*
X55483095Y-71844819D02*
X55721190Y-71844819D01*
X55721190Y-71844819D02*
X55816428Y-71892438D01*
X55816428Y-71892438D02*
X55864047Y-71940057D01*
X55864047Y-71940057D02*
X55911666Y-72035295D01*
X55911666Y-72035295D02*
X55911666Y-72130533D01*
X55911666Y-72130533D02*
X55864047Y-72273390D01*
X55864047Y-72273390D02*
X55292619Y-72844819D01*
X55292619Y-72844819D02*
X55911666Y-72844819D01*
X91686905Y-72321009D02*
X92020238Y-72321009D01*
X92163095Y-72844819D02*
X91686905Y-72844819D01*
X91686905Y-72844819D02*
X91686905Y-71844819D01*
X91686905Y-71844819D02*
X92163095Y-71844819D01*
X92496429Y-71844819D02*
X93163095Y-72844819D01*
X93163095Y-71844819D02*
X92496429Y-72844819D01*
X93544048Y-72844819D02*
X93544048Y-71844819D01*
X93544048Y-71844819D02*
X93925000Y-71844819D01*
X93925000Y-71844819D02*
X94020238Y-71892438D01*
X94020238Y-71892438D02*
X94067857Y-71940057D01*
X94067857Y-71940057D02*
X94115476Y-72035295D01*
X94115476Y-72035295D02*
X94115476Y-72178152D01*
X94115476Y-72178152D02*
X94067857Y-72273390D01*
X94067857Y-72273390D02*
X94020238Y-72321009D01*
X94020238Y-72321009D02*
X93925000Y-72368628D01*
X93925000Y-72368628D02*
X93544048Y-72368628D01*
X94496429Y-72559104D02*
X94972619Y-72559104D01*
X94401191Y-72844819D02*
X94734524Y-71844819D01*
X94734524Y-71844819D02*
X95067857Y-72844819D01*
X95401191Y-72844819D02*
X95401191Y-71844819D01*
X95401191Y-71844819D02*
X95972619Y-72844819D01*
X95972619Y-72844819D02*
X95972619Y-71844819D01*
X96401191Y-72797200D02*
X96544048Y-72844819D01*
X96544048Y-72844819D02*
X96782143Y-72844819D01*
X96782143Y-72844819D02*
X96877381Y-72797200D01*
X96877381Y-72797200D02*
X96925000Y-72749580D01*
X96925000Y-72749580D02*
X96972619Y-72654342D01*
X96972619Y-72654342D02*
X96972619Y-72559104D01*
X96972619Y-72559104D02*
X96925000Y-72463866D01*
X96925000Y-72463866D02*
X96877381Y-72416247D01*
X96877381Y-72416247D02*
X96782143Y-72368628D01*
X96782143Y-72368628D02*
X96591667Y-72321009D01*
X96591667Y-72321009D02*
X96496429Y-72273390D01*
X96496429Y-72273390D02*
X96448810Y-72225771D01*
X96448810Y-72225771D02*
X96401191Y-72130533D01*
X96401191Y-72130533D02*
X96401191Y-72035295D01*
X96401191Y-72035295D02*
X96448810Y-71940057D01*
X96448810Y-71940057D02*
X96496429Y-71892438D01*
X96496429Y-71892438D02*
X96591667Y-71844819D01*
X96591667Y-71844819D02*
X96829762Y-71844819D01*
X96829762Y-71844819D02*
X96972619Y-71892438D01*
X97401191Y-72844819D02*
X97401191Y-71844819D01*
X98067857Y-71844819D02*
X98258333Y-71844819D01*
X98258333Y-71844819D02*
X98353571Y-71892438D01*
X98353571Y-71892438D02*
X98448809Y-71987676D01*
X98448809Y-71987676D02*
X98496428Y-72178152D01*
X98496428Y-72178152D02*
X98496428Y-72511485D01*
X98496428Y-72511485D02*
X98448809Y-72701961D01*
X98448809Y-72701961D02*
X98353571Y-72797200D01*
X98353571Y-72797200D02*
X98258333Y-72844819D01*
X98258333Y-72844819D02*
X98067857Y-72844819D01*
X98067857Y-72844819D02*
X97972619Y-72797200D01*
X97972619Y-72797200D02*
X97877381Y-72701961D01*
X97877381Y-72701961D02*
X97829762Y-72511485D01*
X97829762Y-72511485D02*
X97829762Y-72178152D01*
X97829762Y-72178152D02*
X97877381Y-71987676D01*
X97877381Y-71987676D02*
X97972619Y-71892438D01*
X97972619Y-71892438D02*
X98067857Y-71844819D01*
X98925000Y-72844819D02*
X98925000Y-71844819D01*
X98925000Y-71844819D02*
X99496428Y-72844819D01*
X99496428Y-72844819D02*
X99496428Y-71844819D01*
X101067857Y-72321009D02*
X101210714Y-72368628D01*
X101210714Y-72368628D02*
X101258333Y-72416247D01*
X101258333Y-72416247D02*
X101305952Y-72511485D01*
X101305952Y-72511485D02*
X101305952Y-72654342D01*
X101305952Y-72654342D02*
X101258333Y-72749580D01*
X101258333Y-72749580D02*
X101210714Y-72797200D01*
X101210714Y-72797200D02*
X101115476Y-72844819D01*
X101115476Y-72844819D02*
X100734524Y-72844819D01*
X100734524Y-72844819D02*
X100734524Y-71844819D01*
X100734524Y-71844819D02*
X101067857Y-71844819D01*
X101067857Y-71844819D02*
X101163095Y-71892438D01*
X101163095Y-71892438D02*
X101210714Y-71940057D01*
X101210714Y-71940057D02*
X101258333Y-72035295D01*
X101258333Y-72035295D02*
X101258333Y-72130533D01*
X101258333Y-72130533D02*
X101210714Y-72225771D01*
X101210714Y-72225771D02*
X101163095Y-72273390D01*
X101163095Y-72273390D02*
X101067857Y-72321009D01*
X101067857Y-72321009D02*
X100734524Y-72321009D01*
X101925000Y-71844819D02*
X102115476Y-71844819D01*
X102115476Y-71844819D02*
X102210714Y-71892438D01*
X102210714Y-71892438D02*
X102305952Y-71987676D01*
X102305952Y-71987676D02*
X102353571Y-72178152D01*
X102353571Y-72178152D02*
X102353571Y-72511485D01*
X102353571Y-72511485D02*
X102305952Y-72701961D01*
X102305952Y-72701961D02*
X102210714Y-72797200D01*
X102210714Y-72797200D02*
X102115476Y-72844819D01*
X102115476Y-72844819D02*
X101925000Y-72844819D01*
X101925000Y-72844819D02*
X101829762Y-72797200D01*
X101829762Y-72797200D02*
X101734524Y-72701961D01*
X101734524Y-72701961D02*
X101686905Y-72511485D01*
X101686905Y-72511485D02*
X101686905Y-72178152D01*
X101686905Y-72178152D02*
X101734524Y-71987676D01*
X101734524Y-71987676D02*
X101829762Y-71892438D01*
X101829762Y-71892438D02*
X101925000Y-71844819D01*
X102734524Y-72559104D02*
X103210714Y-72559104D01*
X102639286Y-72844819D02*
X102972619Y-71844819D01*
X102972619Y-71844819D02*
X103305952Y-72844819D01*
X104210714Y-72844819D02*
X103877381Y-72368628D01*
X103639286Y-72844819D02*
X103639286Y-71844819D01*
X103639286Y-71844819D02*
X104020238Y-71844819D01*
X104020238Y-71844819D02*
X104115476Y-71892438D01*
X104115476Y-71892438D02*
X104163095Y-71940057D01*
X104163095Y-71940057D02*
X104210714Y-72035295D01*
X104210714Y-72035295D02*
X104210714Y-72178152D01*
X104210714Y-72178152D02*
X104163095Y-72273390D01*
X104163095Y-72273390D02*
X104115476Y-72321009D01*
X104115476Y-72321009D02*
X104020238Y-72368628D01*
X104020238Y-72368628D02*
X103639286Y-72368628D01*
X104639286Y-72844819D02*
X104639286Y-71844819D01*
X104639286Y-71844819D02*
X104877381Y-71844819D01*
X104877381Y-71844819D02*
X105020238Y-71892438D01*
X105020238Y-71892438D02*
X105115476Y-71987676D01*
X105115476Y-71987676D02*
X105163095Y-72082914D01*
X105163095Y-72082914D02*
X105210714Y-72273390D01*
X105210714Y-72273390D02*
X105210714Y-72416247D01*
X105210714Y-72416247D02*
X105163095Y-72606723D01*
X105163095Y-72606723D02*
X105115476Y-72701961D01*
X105115476Y-72701961D02*
X105020238Y-72797200D01*
X105020238Y-72797200D02*
X104877381Y-72844819D01*
X104877381Y-72844819D02*
X104639286Y-72844819D01*
X39443095Y-63819819D02*
X39443095Y-64629342D01*
X39443095Y-64629342D02*
X39490714Y-64724580D01*
X39490714Y-64724580D02*
X39538333Y-64772200D01*
X39538333Y-64772200D02*
X39633571Y-64819819D01*
X39633571Y-64819819D02*
X39824047Y-64819819D01*
X39824047Y-64819819D02*
X39919285Y-64772200D01*
X39919285Y-64772200D02*
X39966904Y-64724580D01*
X39966904Y-64724580D02*
X40014523Y-64629342D01*
X40014523Y-64629342D02*
X40014523Y-63819819D01*
X40443095Y-63915057D02*
X40490714Y-63867438D01*
X40490714Y-63867438D02*
X40585952Y-63819819D01*
X40585952Y-63819819D02*
X40824047Y-63819819D01*
X40824047Y-63819819D02*
X40919285Y-63867438D01*
X40919285Y-63867438D02*
X40966904Y-63915057D01*
X40966904Y-63915057D02*
X41014523Y-64010295D01*
X41014523Y-64010295D02*
X41014523Y-64105533D01*
X41014523Y-64105533D02*
X40966904Y-64248390D01*
X40966904Y-64248390D02*
X40395476Y-64819819D01*
X40395476Y-64819819D02*
X41014523Y-64819819D01*
X37704999Y-87124580D02*
X37657380Y-87172200D01*
X37657380Y-87172200D02*
X37514523Y-87219819D01*
X37514523Y-87219819D02*
X37419285Y-87219819D01*
X37419285Y-87219819D02*
X37276428Y-87172200D01*
X37276428Y-87172200D02*
X37181190Y-87076961D01*
X37181190Y-87076961D02*
X37133571Y-86981723D01*
X37133571Y-86981723D02*
X37085952Y-86791247D01*
X37085952Y-86791247D02*
X37085952Y-86648390D01*
X37085952Y-86648390D02*
X37133571Y-86457914D01*
X37133571Y-86457914D02*
X37181190Y-86362676D01*
X37181190Y-86362676D02*
X37276428Y-86267438D01*
X37276428Y-86267438D02*
X37419285Y-86219819D01*
X37419285Y-86219819D02*
X37514523Y-86219819D01*
X37514523Y-86219819D02*
X37657380Y-86267438D01*
X37657380Y-86267438D02*
X37704999Y-86315057D01*
X38324047Y-86743628D02*
X38324047Y-87219819D01*
X37990714Y-86219819D02*
X38324047Y-86743628D01*
X38324047Y-86743628D02*
X38657380Y-86219819D01*
X39419285Y-86219819D02*
X39228809Y-86219819D01*
X39228809Y-86219819D02*
X39133571Y-86267438D01*
X39133571Y-86267438D02*
X39085952Y-86315057D01*
X39085952Y-86315057D02*
X38990714Y-86457914D01*
X38990714Y-86457914D02*
X38943095Y-86648390D01*
X38943095Y-86648390D02*
X38943095Y-87029342D01*
X38943095Y-87029342D02*
X38990714Y-87124580D01*
X38990714Y-87124580D02*
X39038333Y-87172200D01*
X39038333Y-87172200D02*
X39133571Y-87219819D01*
X39133571Y-87219819D02*
X39324047Y-87219819D01*
X39324047Y-87219819D02*
X39419285Y-87172200D01*
X39419285Y-87172200D02*
X39466904Y-87124580D01*
X39466904Y-87124580D02*
X39514523Y-87029342D01*
X39514523Y-87029342D02*
X39514523Y-86791247D01*
X39514523Y-86791247D02*
X39466904Y-86696009D01*
X39466904Y-86696009D02*
X39419285Y-86648390D01*
X39419285Y-86648390D02*
X39324047Y-86600771D01*
X39324047Y-86600771D02*
X39133571Y-86600771D01*
X39133571Y-86600771D02*
X39038333Y-86648390D01*
X39038333Y-86648390D02*
X38990714Y-86696009D01*
X38990714Y-86696009D02*
X38943095Y-86791247D01*
X39895476Y-86315057D02*
X39943095Y-86267438D01*
X39943095Y-86267438D02*
X40038333Y-86219819D01*
X40038333Y-86219819D02*
X40276428Y-86219819D01*
X40276428Y-86219819D02*
X40371666Y-86267438D01*
X40371666Y-86267438D02*
X40419285Y-86315057D01*
X40419285Y-86315057D02*
X40466904Y-86410295D01*
X40466904Y-86410295D02*
X40466904Y-86505533D01*
X40466904Y-86505533D02*
X40419285Y-86648390D01*
X40419285Y-86648390D02*
X39847857Y-87219819D01*
X39847857Y-87219819D02*
X40466904Y-87219819D01*
X41419285Y-87219819D02*
X40847857Y-87219819D01*
X41133571Y-87219819D02*
X41133571Y-86219819D01*
X41133571Y-86219819D02*
X41038333Y-86362676D01*
X41038333Y-86362676D02*
X40943095Y-86457914D01*
X40943095Y-86457914D02*
X40847857Y-86505533D01*
X41800238Y-86315057D02*
X41847857Y-86267438D01*
X41847857Y-86267438D02*
X41943095Y-86219819D01*
X41943095Y-86219819D02*
X42181190Y-86219819D01*
X42181190Y-86219819D02*
X42276428Y-86267438D01*
X42276428Y-86267438D02*
X42324047Y-86315057D01*
X42324047Y-86315057D02*
X42371666Y-86410295D01*
X42371666Y-86410295D02*
X42371666Y-86505533D01*
X42371666Y-86505533D02*
X42324047Y-86648390D01*
X42324047Y-86648390D02*
X41752619Y-87219819D01*
X41752619Y-87219819D02*
X42371666Y-87219819D01*
X42943095Y-86648390D02*
X42847857Y-86600771D01*
X42847857Y-86600771D02*
X42800238Y-86553152D01*
X42800238Y-86553152D02*
X42752619Y-86457914D01*
X42752619Y-86457914D02*
X42752619Y-86410295D01*
X42752619Y-86410295D02*
X42800238Y-86315057D01*
X42800238Y-86315057D02*
X42847857Y-86267438D01*
X42847857Y-86267438D02*
X42943095Y-86219819D01*
X42943095Y-86219819D02*
X43133571Y-86219819D01*
X43133571Y-86219819D02*
X43228809Y-86267438D01*
X43228809Y-86267438D02*
X43276428Y-86315057D01*
X43276428Y-86315057D02*
X43324047Y-86410295D01*
X43324047Y-86410295D02*
X43324047Y-86457914D01*
X43324047Y-86457914D02*
X43276428Y-86553152D01*
X43276428Y-86553152D02*
X43228809Y-86600771D01*
X43228809Y-86600771D02*
X43133571Y-86648390D01*
X43133571Y-86648390D02*
X42943095Y-86648390D01*
X42943095Y-86648390D02*
X42847857Y-86696009D01*
X42847857Y-86696009D02*
X42800238Y-86743628D01*
X42800238Y-86743628D02*
X42752619Y-86838866D01*
X42752619Y-86838866D02*
X42752619Y-87029342D01*
X42752619Y-87029342D02*
X42800238Y-87124580D01*
X42800238Y-87124580D02*
X42847857Y-87172200D01*
X42847857Y-87172200D02*
X42943095Y-87219819D01*
X42943095Y-87219819D02*
X43133571Y-87219819D01*
X43133571Y-87219819D02*
X43228809Y-87172200D01*
X43228809Y-87172200D02*
X43276428Y-87124580D01*
X43276428Y-87124580D02*
X43324047Y-87029342D01*
X43324047Y-87029342D02*
X43324047Y-86838866D01*
X43324047Y-86838866D02*
X43276428Y-86743628D01*
X43276428Y-86743628D02*
X43228809Y-86696009D01*
X43228809Y-86696009D02*
X43133571Y-86648390D01*
X114808095Y-55544819D02*
X114808095Y-56354342D01*
X114808095Y-56354342D02*
X114855714Y-56449580D01*
X114855714Y-56449580D02*
X114903333Y-56497200D01*
X114903333Y-56497200D02*
X114998571Y-56544819D01*
X114998571Y-56544819D02*
X115189047Y-56544819D01*
X115189047Y-56544819D02*
X115284285Y-56497200D01*
X115284285Y-56497200D02*
X115331904Y-56449580D01*
X115331904Y-56449580D02*
X115379523Y-56354342D01*
X115379523Y-56354342D02*
X115379523Y-55544819D01*
X115760476Y-55544819D02*
X116379523Y-55544819D01*
X116379523Y-55544819D02*
X116046190Y-55925771D01*
X116046190Y-55925771D02*
X116189047Y-55925771D01*
X116189047Y-55925771D02*
X116284285Y-55973390D01*
X116284285Y-55973390D02*
X116331904Y-56021009D01*
X116331904Y-56021009D02*
X116379523Y-56116247D01*
X116379523Y-56116247D02*
X116379523Y-56354342D01*
X116379523Y-56354342D02*
X116331904Y-56449580D01*
X116331904Y-56449580D02*
X116284285Y-56497200D01*
X116284285Y-56497200D02*
X116189047Y-56544819D01*
X116189047Y-56544819D02*
X115903333Y-56544819D01*
X115903333Y-56544819D02*
X115808095Y-56497200D01*
X115808095Y-56497200D02*
X115760476Y-56449580D01*
X113712857Y-78984819D02*
X113712857Y-77984819D01*
X113712857Y-77984819D02*
X113950952Y-77984819D01*
X113950952Y-77984819D02*
X114093809Y-78032438D01*
X114093809Y-78032438D02*
X114189047Y-78127676D01*
X114189047Y-78127676D02*
X114236666Y-78222914D01*
X114236666Y-78222914D02*
X114284285Y-78413390D01*
X114284285Y-78413390D02*
X114284285Y-78556247D01*
X114284285Y-78556247D02*
X114236666Y-78746723D01*
X114236666Y-78746723D02*
X114189047Y-78841961D01*
X114189047Y-78841961D02*
X114093809Y-78937200D01*
X114093809Y-78937200D02*
X113950952Y-78984819D01*
X113950952Y-78984819D02*
X113712857Y-78984819D01*
X114712857Y-78984819D02*
X114712857Y-77984819D01*
X115665237Y-78984819D02*
X115189047Y-78984819D01*
X115189047Y-78984819D02*
X115189047Y-77984819D01*
X116522380Y-78984819D02*
X115950952Y-78984819D01*
X116236666Y-78984819D02*
X116236666Y-77984819D01*
X116236666Y-77984819D02*
X116141428Y-78127676D01*
X116141428Y-78127676D02*
X116046190Y-78222914D01*
X116046190Y-78222914D02*
X115950952Y-78270533D01*
X117379523Y-77984819D02*
X117189047Y-77984819D01*
X117189047Y-77984819D02*
X117093809Y-78032438D01*
X117093809Y-78032438D02*
X117046190Y-78080057D01*
X117046190Y-78080057D02*
X116950952Y-78222914D01*
X116950952Y-78222914D02*
X116903333Y-78413390D01*
X116903333Y-78413390D02*
X116903333Y-78794342D01*
X116903333Y-78794342D02*
X116950952Y-78889580D01*
X116950952Y-78889580D02*
X116998571Y-78937200D01*
X116998571Y-78937200D02*
X117093809Y-78984819D01*
X117093809Y-78984819D02*
X117284285Y-78984819D01*
X117284285Y-78984819D02*
X117379523Y-78937200D01*
X117379523Y-78937200D02*
X117427142Y-78889580D01*
X117427142Y-78889580D02*
X117474761Y-78794342D01*
X117474761Y-78794342D02*
X117474761Y-78556247D01*
X117474761Y-78556247D02*
X117427142Y-78461009D01*
X117427142Y-78461009D02*
X117379523Y-78413390D01*
X117379523Y-78413390D02*
X117284285Y-78365771D01*
X117284285Y-78365771D02*
X117093809Y-78365771D01*
X117093809Y-78365771D02*
X116998571Y-78413390D01*
X116998571Y-78413390D02*
X116950952Y-78461009D01*
X116950952Y-78461009D02*
X116903333Y-78556247D01*
X43137080Y-63031666D02*
X43184700Y-63079285D01*
X43184700Y-63079285D02*
X43232319Y-63222142D01*
X43232319Y-63222142D02*
X43232319Y-63317380D01*
X43232319Y-63317380D02*
X43184700Y-63460237D01*
X43184700Y-63460237D02*
X43089461Y-63555475D01*
X43089461Y-63555475D02*
X42994223Y-63603094D01*
X42994223Y-63603094D02*
X42803747Y-63650713D01*
X42803747Y-63650713D02*
X42660890Y-63650713D01*
X42660890Y-63650713D02*
X42470414Y-63603094D01*
X42470414Y-63603094D02*
X42375176Y-63555475D01*
X42375176Y-63555475D02*
X42279938Y-63460237D01*
X42279938Y-63460237D02*
X42232319Y-63317380D01*
X42232319Y-63317380D02*
X42232319Y-63222142D01*
X42232319Y-63222142D02*
X42279938Y-63079285D01*
X42279938Y-63079285D02*
X42327557Y-63031666D01*
X42232319Y-62698332D02*
X42232319Y-62079285D01*
X42232319Y-62079285D02*
X42613271Y-62412618D01*
X42613271Y-62412618D02*
X42613271Y-62269761D01*
X42613271Y-62269761D02*
X42660890Y-62174523D01*
X42660890Y-62174523D02*
X42708509Y-62126904D01*
X42708509Y-62126904D02*
X42803747Y-62079285D01*
X42803747Y-62079285D02*
X43041842Y-62079285D01*
X43041842Y-62079285D02*
X43137080Y-62126904D01*
X43137080Y-62126904D02*
X43184700Y-62174523D01*
X43184700Y-62174523D02*
X43232319Y-62269761D01*
X43232319Y-62269761D02*
X43232319Y-62555475D01*
X43232319Y-62555475D02*
X43184700Y-62650713D01*
X43184700Y-62650713D02*
X43137080Y-62698332D01*
X60049580Y-58586666D02*
X60097200Y-58634285D01*
X60097200Y-58634285D02*
X60144819Y-58777142D01*
X60144819Y-58777142D02*
X60144819Y-58872380D01*
X60144819Y-58872380D02*
X60097200Y-59015237D01*
X60097200Y-59015237D02*
X60001961Y-59110475D01*
X60001961Y-59110475D02*
X59906723Y-59158094D01*
X59906723Y-59158094D02*
X59716247Y-59205713D01*
X59716247Y-59205713D02*
X59573390Y-59205713D01*
X59573390Y-59205713D02*
X59382914Y-59158094D01*
X59382914Y-59158094D02*
X59287676Y-59110475D01*
X59287676Y-59110475D02*
X59192438Y-59015237D01*
X59192438Y-59015237D02*
X59144819Y-58872380D01*
X59144819Y-58872380D02*
X59144819Y-58777142D01*
X59144819Y-58777142D02*
X59192438Y-58634285D01*
X59192438Y-58634285D02*
X59240057Y-58586666D01*
X60144819Y-57634285D02*
X60144819Y-58205713D01*
X60144819Y-57919999D02*
X59144819Y-57919999D01*
X59144819Y-57919999D02*
X59287676Y-58015237D01*
X59287676Y-58015237D02*
X59382914Y-58110475D01*
X59382914Y-58110475D02*
X59430533Y-58205713D01*
X48093333Y-44809580D02*
X48045714Y-44857200D01*
X48045714Y-44857200D02*
X47902857Y-44904819D01*
X47902857Y-44904819D02*
X47807619Y-44904819D01*
X47807619Y-44904819D02*
X47664762Y-44857200D01*
X47664762Y-44857200D02*
X47569524Y-44761961D01*
X47569524Y-44761961D02*
X47521905Y-44666723D01*
X47521905Y-44666723D02*
X47474286Y-44476247D01*
X47474286Y-44476247D02*
X47474286Y-44333390D01*
X47474286Y-44333390D02*
X47521905Y-44142914D01*
X47521905Y-44142914D02*
X47569524Y-44047676D01*
X47569524Y-44047676D02*
X47664762Y-43952438D01*
X47664762Y-43952438D02*
X47807619Y-43904819D01*
X47807619Y-43904819D02*
X47902857Y-43904819D01*
X47902857Y-43904819D02*
X48045714Y-43952438D01*
X48045714Y-43952438D02*
X48093333Y-44000057D01*
X48998095Y-43904819D02*
X48521905Y-43904819D01*
X48521905Y-43904819D02*
X48474286Y-44381009D01*
X48474286Y-44381009D02*
X48521905Y-44333390D01*
X48521905Y-44333390D02*
X48617143Y-44285771D01*
X48617143Y-44285771D02*
X48855238Y-44285771D01*
X48855238Y-44285771D02*
X48950476Y-44333390D01*
X48950476Y-44333390D02*
X48998095Y-44381009D01*
X48998095Y-44381009D02*
X49045714Y-44476247D01*
X49045714Y-44476247D02*
X49045714Y-44714342D01*
X49045714Y-44714342D02*
X48998095Y-44809580D01*
X48998095Y-44809580D02*
X48950476Y-44857200D01*
X48950476Y-44857200D02*
X48855238Y-44904819D01*
X48855238Y-44904819D02*
X48617143Y-44904819D01*
X48617143Y-44904819D02*
X48521905Y-44857200D01*
X48521905Y-44857200D02*
X48474286Y-44809580D01*
X60049580Y-30646666D02*
X60097200Y-30694285D01*
X60097200Y-30694285D02*
X60144819Y-30837142D01*
X60144819Y-30837142D02*
X60144819Y-30932380D01*
X60144819Y-30932380D02*
X60097200Y-31075237D01*
X60097200Y-31075237D02*
X60001961Y-31170475D01*
X60001961Y-31170475D02*
X59906723Y-31218094D01*
X59906723Y-31218094D02*
X59716247Y-31265713D01*
X59716247Y-31265713D02*
X59573390Y-31265713D01*
X59573390Y-31265713D02*
X59382914Y-31218094D01*
X59382914Y-31218094D02*
X59287676Y-31170475D01*
X59287676Y-31170475D02*
X59192438Y-31075237D01*
X59192438Y-31075237D02*
X59144819Y-30932380D01*
X59144819Y-30932380D02*
X59144819Y-30837142D01*
X59144819Y-30837142D02*
X59192438Y-30694285D01*
X59192438Y-30694285D02*
X59240057Y-30646666D01*
X59240057Y-30265713D02*
X59192438Y-30218094D01*
X59192438Y-30218094D02*
X59144819Y-30122856D01*
X59144819Y-30122856D02*
X59144819Y-29884761D01*
X59144819Y-29884761D02*
X59192438Y-29789523D01*
X59192438Y-29789523D02*
X59240057Y-29741904D01*
X59240057Y-29741904D02*
X59335295Y-29694285D01*
X59335295Y-29694285D02*
X59430533Y-29694285D01*
X59430533Y-29694285D02*
X59573390Y-29741904D01*
X59573390Y-29741904D02*
X60144819Y-30313332D01*
X60144819Y-30313332D02*
X60144819Y-29694285D01*
X72390095Y-31154819D02*
X72390095Y-31964342D01*
X72390095Y-31964342D02*
X72437714Y-32059580D01*
X72437714Y-32059580D02*
X72485333Y-32107200D01*
X72485333Y-32107200D02*
X72580571Y-32154819D01*
X72580571Y-32154819D02*
X72771047Y-32154819D01*
X72771047Y-32154819D02*
X72866285Y-32107200D01*
X72866285Y-32107200D02*
X72913904Y-32059580D01*
X72913904Y-32059580D02*
X72961523Y-31964342D01*
X72961523Y-31964342D02*
X72961523Y-31154819D01*
X73866285Y-31488152D02*
X73866285Y-32154819D01*
X73628190Y-31107200D02*
X73390095Y-31821485D01*
X73390095Y-31821485D02*
X74009142Y-31821485D01*
X65992857Y-57369104D02*
X66469047Y-57369104D01*
X65897619Y-57654819D02*
X66230952Y-56654819D01*
X66230952Y-56654819D02*
X66564285Y-57654819D01*
X66754762Y-56654819D02*
X67326190Y-56654819D01*
X67040476Y-57654819D02*
X67040476Y-56654819D01*
X67992857Y-57131009D02*
X67659524Y-57131009D01*
X67659524Y-57654819D02*
X67659524Y-56654819D01*
X67659524Y-56654819D02*
X68135714Y-56654819D01*
X69040476Y-57654819D02*
X68469048Y-57654819D01*
X68754762Y-57654819D02*
X68754762Y-56654819D01*
X68754762Y-56654819D02*
X68659524Y-56797676D01*
X68659524Y-56797676D02*
X68564286Y-56892914D01*
X68564286Y-56892914D02*
X68469048Y-56940533D01*
X69945238Y-56654819D02*
X69469048Y-56654819D01*
X69469048Y-56654819D02*
X69421429Y-57131009D01*
X69421429Y-57131009D02*
X69469048Y-57083390D01*
X69469048Y-57083390D02*
X69564286Y-57035771D01*
X69564286Y-57035771D02*
X69802381Y-57035771D01*
X69802381Y-57035771D02*
X69897619Y-57083390D01*
X69897619Y-57083390D02*
X69945238Y-57131009D01*
X69945238Y-57131009D02*
X69992857Y-57226247D01*
X69992857Y-57226247D02*
X69992857Y-57464342D01*
X69992857Y-57464342D02*
X69945238Y-57559580D01*
X69945238Y-57559580D02*
X69897619Y-57607200D01*
X69897619Y-57607200D02*
X69802381Y-57654819D01*
X69802381Y-57654819D02*
X69564286Y-57654819D01*
X69564286Y-57654819D02*
X69469048Y-57607200D01*
X69469048Y-57607200D02*
X69421429Y-57559580D01*
X70611905Y-56654819D02*
X70707143Y-56654819D01*
X70707143Y-56654819D02*
X70802381Y-56702438D01*
X70802381Y-56702438D02*
X70850000Y-56750057D01*
X70850000Y-56750057D02*
X70897619Y-56845295D01*
X70897619Y-56845295D02*
X70945238Y-57035771D01*
X70945238Y-57035771D02*
X70945238Y-57273866D01*
X70945238Y-57273866D02*
X70897619Y-57464342D01*
X70897619Y-57464342D02*
X70850000Y-57559580D01*
X70850000Y-57559580D02*
X70802381Y-57607200D01*
X70802381Y-57607200D02*
X70707143Y-57654819D01*
X70707143Y-57654819D02*
X70611905Y-57654819D01*
X70611905Y-57654819D02*
X70516667Y-57607200D01*
X70516667Y-57607200D02*
X70469048Y-57559580D01*
X70469048Y-57559580D02*
X70421429Y-57464342D01*
X70421429Y-57464342D02*
X70373810Y-57273866D01*
X70373810Y-57273866D02*
X70373810Y-57035771D01*
X70373810Y-57035771D02*
X70421429Y-56845295D01*
X70421429Y-56845295D02*
X70469048Y-56750057D01*
X70469048Y-56750057D02*
X70516667Y-56702438D01*
X70516667Y-56702438D02*
X70611905Y-56654819D01*
X71326191Y-56750057D02*
X71373810Y-56702438D01*
X71373810Y-56702438D02*
X71469048Y-56654819D01*
X71469048Y-56654819D02*
X71707143Y-56654819D01*
X71707143Y-56654819D02*
X71802381Y-56702438D01*
X71802381Y-56702438D02*
X71850000Y-56750057D01*
X71850000Y-56750057D02*
X71897619Y-56845295D01*
X71897619Y-56845295D02*
X71897619Y-56940533D01*
X71897619Y-56940533D02*
X71850000Y-57083390D01*
X71850000Y-57083390D02*
X71278572Y-57654819D01*
X71278572Y-57654819D02*
X71897619Y-57654819D01*
X72278572Y-57369104D02*
X72754762Y-57369104D01*
X72183334Y-57654819D02*
X72516667Y-56654819D01*
X72516667Y-56654819D02*
X72850000Y-57654819D01*
X73135715Y-57607200D02*
X73278572Y-57654819D01*
X73278572Y-57654819D02*
X73516667Y-57654819D01*
X73516667Y-57654819D02*
X73611905Y-57607200D01*
X73611905Y-57607200D02*
X73659524Y-57559580D01*
X73659524Y-57559580D02*
X73707143Y-57464342D01*
X73707143Y-57464342D02*
X73707143Y-57369104D01*
X73707143Y-57369104D02*
X73659524Y-57273866D01*
X73659524Y-57273866D02*
X73611905Y-57226247D01*
X73611905Y-57226247D02*
X73516667Y-57178628D01*
X73516667Y-57178628D02*
X73326191Y-57131009D01*
X73326191Y-57131009D02*
X73230953Y-57083390D01*
X73230953Y-57083390D02*
X73183334Y-57035771D01*
X73183334Y-57035771D02*
X73135715Y-56940533D01*
X73135715Y-56940533D02*
X73135715Y-56845295D01*
X73135715Y-56845295D02*
X73183334Y-56750057D01*
X73183334Y-56750057D02*
X73230953Y-56702438D01*
X73230953Y-56702438D02*
X73326191Y-56654819D01*
X73326191Y-56654819D02*
X73564286Y-56654819D01*
X73564286Y-56654819D02*
X73707143Y-56702438D01*
%TO.C,C7*%
D14*
X87959759Y-54676000D02*
X88589759Y-54676000D01*
X88274759Y-54361000D02*
X88274759Y-54991000D01*
X91460000Y-53285000D02*
X91460000Y-59745000D01*
X91500000Y-53285000D02*
X91500000Y-59745000D01*
X91540000Y-53286000D02*
X91540000Y-59744000D01*
X91580000Y-53287000D02*
X91580000Y-59743000D01*
X91620000Y-53289000D02*
X91620000Y-59741000D01*
X91660000Y-53291000D02*
X91660000Y-59739000D01*
X91700000Y-53294000D02*
X91700000Y-55475000D01*
X91700000Y-57555000D02*
X91700000Y-59736000D01*
X91740000Y-53297000D02*
X91740000Y-55475000D01*
X91740000Y-57555000D02*
X91740000Y-59733000D01*
X91780000Y-53301000D02*
X91780000Y-55475000D01*
X91780000Y-57555000D02*
X91780000Y-59729000D01*
X91820000Y-53305000D02*
X91820000Y-55475000D01*
X91820000Y-57555000D02*
X91820000Y-59725000D01*
X91860000Y-53310000D02*
X91860000Y-55475000D01*
X91860000Y-57555000D02*
X91860000Y-59720000D01*
X91900000Y-53315000D02*
X91900000Y-55475000D01*
X91900000Y-57555000D02*
X91900000Y-59715000D01*
X91940000Y-53320000D02*
X91940000Y-55475000D01*
X91940000Y-57555000D02*
X91940000Y-59710000D01*
X91980000Y-53327000D02*
X91980000Y-55475000D01*
X91980000Y-57555000D02*
X91980000Y-59703000D01*
X92020000Y-53333000D02*
X92020000Y-55475000D01*
X92020000Y-57555000D02*
X92020000Y-59697000D01*
X92060000Y-53341000D02*
X92060000Y-55475000D01*
X92060000Y-57555000D02*
X92060000Y-59689000D01*
X92100000Y-53348000D02*
X92100000Y-55475000D01*
X92100000Y-57555000D02*
X92100000Y-59682000D01*
X92140000Y-53356000D02*
X92140000Y-55475000D01*
X92140000Y-57555000D02*
X92140000Y-59674000D01*
X92180000Y-53365000D02*
X92180000Y-55475000D01*
X92180000Y-57555000D02*
X92180000Y-59665000D01*
X92220000Y-53375000D02*
X92220000Y-55475000D01*
X92220000Y-57555000D02*
X92220000Y-59655000D01*
X92260000Y-53384000D02*
X92260000Y-55475000D01*
X92260000Y-57555000D02*
X92260000Y-59646000D01*
X92300000Y-53395000D02*
X92300000Y-55475000D01*
X92300000Y-57555000D02*
X92300000Y-59635000D01*
X92340000Y-53406000D02*
X92340000Y-55475000D01*
X92340000Y-57555000D02*
X92340000Y-59624000D01*
X92380000Y-53417000D02*
X92380000Y-55475000D01*
X92380000Y-57555000D02*
X92380000Y-59613000D01*
X92420000Y-53429000D02*
X92420000Y-55475000D01*
X92420000Y-57555000D02*
X92420000Y-59601000D01*
X92460000Y-53442000D02*
X92460000Y-55475000D01*
X92460000Y-57555000D02*
X92460000Y-59588000D01*
X92500000Y-53455000D02*
X92500000Y-55475000D01*
X92500000Y-57555000D02*
X92500000Y-59575000D01*
X92540000Y-53468000D02*
X92540000Y-55475000D01*
X92540000Y-57555000D02*
X92540000Y-59562000D01*
X92580000Y-53483000D02*
X92580000Y-55475000D01*
X92580000Y-57555000D02*
X92580000Y-59547000D01*
X92620000Y-53498000D02*
X92620000Y-55475000D01*
X92620000Y-57555000D02*
X92620000Y-59532000D01*
X92660000Y-53513000D02*
X92660000Y-55475000D01*
X92660000Y-57555000D02*
X92660000Y-59517000D01*
X92700000Y-53529000D02*
X92700000Y-55475000D01*
X92700000Y-57555000D02*
X92700000Y-59501000D01*
X92740000Y-53546000D02*
X92740000Y-55475000D01*
X92740000Y-57555000D02*
X92740000Y-59484000D01*
X92780000Y-53563000D02*
X92780000Y-55475000D01*
X92780000Y-57555000D02*
X92780000Y-59467000D01*
X92820000Y-53581000D02*
X92820000Y-55475000D01*
X92820000Y-57555000D02*
X92820000Y-59449000D01*
X92860000Y-53600000D02*
X92860000Y-55475000D01*
X92860000Y-57555000D02*
X92860000Y-59430000D01*
X92900000Y-53619000D02*
X92900000Y-55475000D01*
X92900000Y-57555000D02*
X92900000Y-59411000D01*
X92940000Y-53639000D02*
X92940000Y-55475000D01*
X92940000Y-57555000D02*
X92940000Y-59391000D01*
X92980000Y-53660000D02*
X92980000Y-55475000D01*
X92980000Y-57555000D02*
X92980000Y-59370000D01*
X93020000Y-53681000D02*
X93020000Y-55475000D01*
X93020000Y-57555000D02*
X93020000Y-59349000D01*
X93060000Y-53703000D02*
X93060000Y-55475000D01*
X93060000Y-57555000D02*
X93060000Y-59327000D01*
X93100000Y-53726000D02*
X93100000Y-55475000D01*
X93100000Y-57555000D02*
X93100000Y-59304000D01*
X93140000Y-53750000D02*
X93140000Y-55475000D01*
X93140000Y-57555000D02*
X93140000Y-59280000D01*
X93180000Y-53774000D02*
X93180000Y-55475000D01*
X93180000Y-57555000D02*
X93180000Y-59256000D01*
X93220000Y-53799000D02*
X93220000Y-55475000D01*
X93220000Y-57555000D02*
X93220000Y-59231000D01*
X93260000Y-53825000D02*
X93260000Y-55475000D01*
X93260000Y-57555000D02*
X93260000Y-59205000D01*
X93300000Y-53852000D02*
X93300000Y-55475000D01*
X93300000Y-57555000D02*
X93300000Y-59178000D01*
X93340000Y-53879000D02*
X93340000Y-55475000D01*
X93340000Y-57555000D02*
X93340000Y-59151000D01*
X93380000Y-53908000D02*
X93380000Y-55475000D01*
X93380000Y-57555000D02*
X93380000Y-59122000D01*
X93420000Y-53938000D02*
X93420000Y-55475000D01*
X93420000Y-57555000D02*
X93420000Y-59092000D01*
X93460000Y-53968000D02*
X93460000Y-55475000D01*
X93460000Y-57555000D02*
X93460000Y-59062000D01*
X93500000Y-53999000D02*
X93500000Y-55475000D01*
X93500000Y-57555000D02*
X93500000Y-59031000D01*
X93540000Y-54032000D02*
X93540000Y-55475000D01*
X93540000Y-57555000D02*
X93540000Y-58998000D01*
X93580000Y-54065000D02*
X93580000Y-55475000D01*
X93580000Y-57555000D02*
X93580000Y-58965000D01*
X93620000Y-54100000D02*
X93620000Y-55475000D01*
X93620000Y-57555000D02*
X93620000Y-58930000D01*
X93660000Y-54136000D02*
X93660000Y-55475000D01*
X93660000Y-57555000D02*
X93660000Y-58894000D01*
X93700000Y-54173000D02*
X93700000Y-55475000D01*
X93700000Y-57555000D02*
X93700000Y-58857000D01*
X93740000Y-54211000D02*
X93740000Y-55475000D01*
X93740000Y-57555000D02*
X93740000Y-58819000D01*
X93780000Y-54251000D02*
X93780000Y-58779000D01*
X93820000Y-54292000D02*
X93820000Y-58738000D01*
X93860000Y-54334000D02*
X93860000Y-58696000D01*
X93900000Y-54378000D02*
X93900000Y-58652000D01*
X93940000Y-54424000D02*
X93940000Y-58606000D01*
X93980000Y-54471000D02*
X93980000Y-58559000D01*
X94020000Y-54520000D02*
X94020000Y-58510000D01*
X94060000Y-54572000D02*
X94060000Y-58458000D01*
X94100000Y-54625000D02*
X94100000Y-58405000D01*
X94140000Y-54681000D02*
X94140000Y-58349000D01*
X94180000Y-54740000D02*
X94180000Y-58290000D01*
X94220000Y-54801000D02*
X94220000Y-58229000D01*
X94260000Y-54866000D02*
X94260000Y-58164000D01*
X94300000Y-54934000D02*
X94300000Y-58096000D01*
X94340000Y-55006000D02*
X94340000Y-58024000D01*
X94380000Y-55083000D02*
X94380000Y-57947000D01*
X94420000Y-55165000D02*
X94420000Y-57865000D01*
X94460000Y-55254000D02*
X94460000Y-57776000D01*
X94500000Y-55350000D02*
X94500000Y-57680000D01*
X94540000Y-55457000D02*
X94540000Y-57573000D01*
X94580000Y-55576000D02*
X94580000Y-57454000D01*
X94620000Y-55714000D02*
X94620000Y-57316000D01*
X94660000Y-55882000D02*
X94660000Y-57148000D01*
X94700000Y-56113000D02*
X94700000Y-56917000D01*
X94730000Y-56515000D02*
G75*
G02*
X88190000Y-56515000I-3270000J0D01*
G01*
X88190000Y-56515000D02*
G75*
G02*
X94730000Y-56515000I3270000J0D01*
G01*
%TO.C,J5*%
X87270000Y-37980000D02*
X95960000Y-37980000D01*
X87270000Y-40340000D02*
X87270000Y-37980000D01*
X87270000Y-48380000D02*
X87270000Y-40940000D01*
X87890000Y-37980000D02*
X87890000Y-48380000D01*
X88990000Y-37980000D02*
X88990000Y-48380000D01*
X93990000Y-37980000D02*
X93990000Y-48380000D01*
X94840000Y-39390000D02*
X95840000Y-39390000D01*
X94840000Y-41890000D02*
X94840000Y-39390000D01*
X94840000Y-44470000D02*
X95840000Y-44470000D01*
X94840000Y-46970000D02*
X94840000Y-44470000D01*
X95840000Y-39390000D02*
X95840000Y-41890000D01*
X95840000Y-41890000D02*
X94840000Y-41890000D01*
X95840000Y-44470000D02*
X95840000Y-46970000D01*
X95840000Y-46970000D02*
X94840000Y-46970000D01*
X95960000Y-37980000D02*
X95960000Y-48380000D01*
X95960000Y-48380000D02*
X87270000Y-48380000D01*
X87270000Y-40640000D02*
X86660000Y-41080000D01*
X86660000Y-40200000D01*
X87270000Y-40640000D01*
G36*
X87270000Y-40640000D02*
G01*
X86660000Y-41080000D01*
X86660000Y-40200000D01*
X87270000Y-40640000D01*
G37*
%TO.C,J1*%
X53865000Y-79265000D02*
X104885000Y-79265000D01*
X53865000Y-81915000D02*
X53865000Y-79265000D01*
X53865000Y-84565000D02*
X53865000Y-83185000D01*
X55245000Y-84565000D02*
X53865000Y-84565000D01*
X56515000Y-81915000D02*
X53865000Y-81915000D01*
X56515000Y-84565000D02*
X56515000Y-81915000D01*
X56515000Y-84565000D02*
X104885000Y-84565000D01*
X104885000Y-84565000D02*
X104885000Y-79265000D01*
%TO.C,C4*%
X75465000Y-43868748D02*
X75465000Y-44391252D01*
X76935000Y-43868748D02*
X76935000Y-44391252D01*
%TO.C,J2*%
X104885000Y-71230000D02*
X104885000Y-65930000D01*
X56515000Y-71230000D02*
X104885000Y-71230000D01*
X56515000Y-71230000D02*
X56515000Y-68580000D01*
X56515000Y-68580000D02*
X53865000Y-68580000D01*
X55245000Y-71230000D02*
X53865000Y-71230000D01*
X53865000Y-71230000D02*
X53865000Y-69850000D01*
X53865000Y-68580000D02*
X53865000Y-65930000D01*
X53865000Y-65930000D02*
X104885000Y-65930000D01*
%TO.C,U2*%
X34442500Y-65207500D02*
X45967500Y-65207500D01*
X34442500Y-65480000D02*
X34442500Y-65207500D01*
X34442500Y-85922500D02*
X34442500Y-85650000D01*
X45967500Y-65207500D02*
X45967500Y-65480000D01*
X45967500Y-85650000D02*
X45967500Y-85922500D01*
X45967500Y-85922500D02*
X34442500Y-85922500D01*
X33645000Y-65475000D02*
X33305000Y-65005000D01*
X33985000Y-65005000D01*
X33645000Y-65475000D01*
G36*
X33645000Y-65475000D02*
G01*
X33305000Y-65005000D01*
X33985000Y-65005000D01*
X33645000Y-65475000D01*
G37*
%TO.C,U3*%
X112920000Y-57090000D02*
X112920000Y-77530000D01*
X112920000Y-77530000D02*
X118220000Y-77530000D01*
X114570000Y-57090000D02*
X112920000Y-57090000D01*
X118220000Y-57090000D02*
X116570000Y-57090000D01*
X118220000Y-77530000D02*
X118220000Y-57090000D01*
X110430000Y-57030000D02*
X120710000Y-57030000D01*
X120710000Y-77590000D01*
X110430000Y-77590000D01*
X110430000Y-57030000D01*
X116570000Y-57090000D02*
G75*
G02*
X114570000Y-57090000I-1000000J0D01*
G01*
%TO.C,C3*%
X40498752Y-62130000D02*
X39976248Y-62130000D01*
X40498752Y-63600000D02*
X39976248Y-63600000D01*
%TO.C,C1*%
X62491252Y-57685000D02*
X61968748Y-57685000D01*
X62491252Y-59155000D02*
X61968748Y-59155000D01*
%TO.C,C5*%
X47525000Y-47571252D02*
X47525000Y-47048748D01*
X48995000Y-47571252D02*
X48995000Y-47048748D01*
%TO.C,C2*%
X61968748Y-29745000D02*
X62491252Y-29745000D01*
X61968748Y-31215000D02*
X62491252Y-31215000D01*
%TO.C,U4*%
X50380000Y-33600000D02*
X50380000Y-56300000D01*
X50380000Y-56300000D02*
X74080000Y-56300000D01*
X51380000Y-32600000D02*
X50380000Y-33600000D01*
X61230000Y-32600000D02*
X51380000Y-32600000D01*
X74080000Y-32600000D02*
X63230000Y-32600000D01*
X74080000Y-56300000D02*
X74080000Y-32600000D01*
%TD*%
M02*
