%TF.GenerationSoftware,KiCad,Pcbnew,10.0.3*%
%TF.CreationDate,2026-08-19T22:02:25+02:00*%
%TF.ProjectId,p2000m-cpm-coboard,70323030-306d-42d6-9370-6d2d636f626f,rev?*%
%TF.SameCoordinates,Original*%
%TF.FileFunction,Copper,L2,Bot*%
%TF.FilePolarity,Positive*%
%FSLAX46Y46*%
G04 Gerber Fmt 4.6, Leading zero omitted, Abs format (unit mm)*
G04 Created by KiCad (PCBNEW 10.0.3) date 2026-08-19 22:02:25*
%MOMM*%
%LPD*%
G01*
G04 APERTURE LIST*
G04 Aperture macros list*
%AMRoundRect*
0 Rectangle with rounded corners*
0 $1 Rounding radius*
0 $2 $3 $4 $5 $6 $7 $8 $9 X,Y pos of 4 corners*
0 Add a 4 corners polygon primitive as box body*
4,1,4,$2,$3,$4,$5,$6,$7,$8,$9,$2,$3,0*
0 Add four circle primitives for the rounded corners*
1,1,$1+$1,$2,$3*
1,1,$1+$1,$4,$5*
1,1,$1+$1,$6,$7*
1,1,$1+$1,$8,$9*
0 Add four rect primitives between the rounded corners*
20,1,$1+$1,$2,$3,$4,$5,0*
20,1,$1+$1,$4,$5,$6,$7,0*
20,1,$1+$1,$6,$7,$8,$9,0*
20,1,$1+$1,$8,$9,$2,$3,0*%
G04 Aperture macros list end*
%TA.AperFunction,ComponentPad*%
%ADD10C,1.600000*%
%TD*%
%TA.AperFunction,ComponentPad*%
%ADD11RoundRect,0.250000X0.550000X-0.550000X0.550000X0.550000X-0.550000X0.550000X-0.550000X-0.550000X0*%
%TD*%
%TA.AperFunction,ComponentPad*%
%ADD12RoundRect,0.250000X-0.550000X-0.550000X0.550000X-0.550000X0.550000X0.550000X-0.550000X0.550000X0*%
%TD*%
%TA.AperFunction,ComponentPad*%
%ADD13RoundRect,0.250001X-0.799999X0.799999X-0.799999X-0.799999X0.799999X-0.799999X0.799999X0.799999X0*%
%TD*%
%TA.AperFunction,ComponentPad*%
%ADD14C,2.100000*%
%TD*%
%TA.AperFunction,ComponentPad*%
%ADD15R,1.700000X1.700000*%
%TD*%
%TA.AperFunction,ComponentPad*%
%ADD16C,1.700000*%
%TD*%
%TA.AperFunction,ComponentPad*%
%ADD17RoundRect,0.250000X-0.600000X-0.600000X0.600000X-0.600000X0.600000X0.600000X-0.600000X0.600000X0*%
%TD*%
%TA.AperFunction,ComponentPad*%
%ADD18R,1.422400X1.422400*%
%TD*%
%TA.AperFunction,ComponentPad*%
%ADD19C,1.422400*%
%TD*%
%TA.AperFunction,ViaPad*%
%ADD20C,0.600000*%
%TD*%
%TA.AperFunction,Conductor*%
%ADD21C,0.200000*%
%TD*%
%TA.AperFunction,Conductor*%
%ADD22C,0.500000*%
%TD*%
G04 APERTURE END LIST*
D10*
%TO.P,U8,14,VCC_14*%
%TO.N,VCC*%
X78740000Y-81280000D03*
%TO.P,U8,13*%
%TO.N,unconnected-(U8-Pad13)*%
X81280000Y-81280000D03*
%TO.P,U8,12*%
%TO.N,VCC*%
X83820000Y-81280000D03*
%TO.P,U8,11*%
X86360000Y-81280000D03*
%TO.P,U8,10*%
%TO.N,Net-(U1-~{CS})*%
X88900000Y-81280000D03*
%TO.P,U8,9*%
%TO.N,Net-(U8-Pad4)*%
X91440000Y-81280000D03*
%TO.P,U8,8*%
X93980000Y-81280000D03*
%TO.P,U8,7,GND_7*%
%TO.N,GND*%
X93980000Y-88900000D03*
%TO.P,U8,6*%
%TO.N,~{RAMS3}*%
X91440000Y-88900000D03*
%TO.P,U8,5*%
%TO.N,~{MRQ}*%
X88900000Y-88900000D03*
%TO.P,U8,4*%
%TO.N,Net-(U8-Pad4)*%
X86360000Y-88900000D03*
%TO.P,U8,3*%
%TO.N,/OUT_$2x*%
X83820000Y-88900000D03*
%TO.P,U8,2*%
X81280000Y-88900000D03*
D11*
%TO.P,U8,1*%
%TO.N,Net-(U4A-C)*%
X78740000Y-88900000D03*
%TD*%
D12*
%TO.P,U7,1,O1_1*%
%TO.N,P0*%
X101600000Y-76200000D03*
D10*
%TO.P,U7,2,O2_2*%
%TO.N,P1*%
X101600000Y-78740000D03*
%TO.P,U7,3,O3_3*%
%TO.N,P2*%
X101600000Y-81280000D03*
%TO.P,U7,4,O4_4*%
%TO.N,P3*%
X101600000Y-83820000D03*
%TO.P,U7,5,O5_5*%
%TO.N,P4*%
X101600000Y-86360000D03*
%TO.P,U7,6,O6_6*%
%TO.N,P5*%
X101600000Y-88900000D03*
%TO.P,U7,7,O7_7*%
%TO.N,P6*%
X101600000Y-91440000D03*
%TO.P,U7,8,GND_8*%
%TO.N,GND*%
X101600000Y-93980000D03*
%TO.P,U7,9,O8_9*%
%TO.N,P7*%
X109220000Y-93980000D03*
%TO.P,U7,10,A0_10*%
%TO.N,A11*%
X109220000Y-91440000D03*
%TO.P,U7,11,A1_11*%
%TO.N,A12*%
X109220000Y-88900000D03*
%TO.P,U7,12,A2_12*%
%TO.N,A13*%
X109220000Y-86360000D03*
%TO.P,U7,13,A3_13*%
%TO.N,A14*%
X109220000Y-83820000D03*
%TO.P,U7,14,A4_14*%
%TO.N,A15*%
X109220000Y-81280000D03*
%TO.P,U7,15,~{CE}_15*%
%TO.N,/~{T_SEL}*%
X109220000Y-78740000D03*
%TO.P,U7,16,VCC_16*%
%TO.N,VCC*%
X109220000Y-76200000D03*
%TD*%
D13*
%TO.P,J5,1,Pin_1_1*%
%TO.N,GND*%
X149860000Y-40640000D03*
D14*
%TO.P,J5,2,Pin_2_2*%
%TO.N,VCC*%
X149860000Y-45720000D03*
%TD*%
D10*
%TO.P,R2,1*%
%TO.N,VCC*%
X86360000Y-93980000D03*
%TO.P,R2,2*%
%TO.N,P3*%
X93980000Y-93980000D03*
%TD*%
%TO.P,R1,1*%
%TO.N,VCC*%
X74930000Y-93980000D03*
%TO.P,R1,2*%
%TO.N,P4*%
X82550000Y-93980000D03*
%TD*%
D15*
%TO.P,J3,1,Pin_1_1*%
%TO.N,GND*%
X150812500Y-87312500D03*
D16*
%TO.P,J3,2,Pin_2_2*%
%TO.N,Net-(J3-Pin_2)*%
X150812500Y-84772500D03*
%TO.P,J3,3,Pin_3_3*%
%TO.N,VCC*%
X150812500Y-82232500D03*
%TD*%
D10*
%TO.P,C5,1*%
%TO.N,VCC*%
X71120000Y-44490000D03*
%TO.P,C5,2*%
%TO.N,GND*%
X71120000Y-49490000D03*
%TD*%
%TO.P,C4,1*%
%TO.N,VCC*%
X73660000Y-69890000D03*
%TO.P,C4,2*%
%TO.N,GND*%
X73660000Y-74890000D03*
%TD*%
D11*
%TO.P,U5,1,A0_1*%
%TO.N,A7*%
X76200000Y-63500000D03*
D10*
%TO.P,U5,2,A1_2*%
%TO.N,A6*%
X78740000Y-63500000D03*
%TO.P,U5,3,A2_3*%
%TO.N,A4*%
X81280000Y-63500000D03*
%TO.P,U5,4,E1_4*%
%TO.N,~{IORQ}*%
X83820000Y-63500000D03*
%TO.P,U5,5,E2_5*%
%TO.N,~{WR}*%
X86360000Y-63500000D03*
%TO.P,U5,6,E3_6*%
%TO.N,A5*%
X88900000Y-63500000D03*
%TO.P,U5,7,O7_7*%
%TO.N,unconnected-(U5-O7-Pad7)*%
X91440000Y-63500000D03*
%TO.P,U5,8,GND_8*%
%TO.N,GND*%
X93980000Y-63500000D03*
%TO.P,U5,9,O6_9*%
%TO.N,unconnected-(U5-O6-Pad9)*%
X93980000Y-55880000D03*
%TO.P,U5,10,O5_10*%
%TO.N,unconnected-(U5-O5-Pad10)*%
X91440000Y-55880000D03*
%TO.P,U5,11,O4_11*%
%TO.N,unconnected-(U5-O4-Pad11)*%
X88900000Y-55880000D03*
%TO.P,U5,12,O3_12*%
%TO.N,unconnected-(U5-O3-Pad12)*%
X86360000Y-55880000D03*
%TO.P,U5,13,O2_13*%
%TO.N,unconnected-(U5-O2-Pad13)*%
X83820000Y-55880000D03*
%TO.P,U5,14,O1_14*%
%TO.N,unconnected-(U5-O1-Pad14)*%
X81280000Y-55880000D03*
%TO.P,U5,15,O0_15*%
%TO.N,/OUT_$2x*%
X78740000Y-55880000D03*
%TO.P,U5,16,VCC_16*%
%TO.N,VCC*%
X76200000Y-55880000D03*
%TD*%
%TO.P,C1,1*%
%TO.N,VCC*%
X104372200Y-55880000D03*
%TO.P,C1,2*%
%TO.N,GND*%
X104372200Y-60880000D03*
%TD*%
%TO.P,C2,1*%
%TO.N,VCC*%
X138350000Y-71120000D03*
%TO.P,C2,2*%
%TO.N,GND*%
X133350000Y-71120000D03*
%TD*%
%TO.P,R3,1*%
%TO.N,~{RAMS3}*%
X149500000Y-54690000D03*
%TO.P,R3,2*%
%TO.N,VCC*%
X149500000Y-62310000D03*
%TD*%
D11*
%TO.P,U4,1,~{R}_1*%
%TO.N,~{RES}*%
X78740000Y-76200000D03*
D10*
%TO.P,U4,2,D_2*%
%TO.N,D7*%
X81280000Y-76200000D03*
%TO.P,U4,3,C_3*%
%TO.N,Net-(U4A-C)*%
X83820000Y-76200000D03*
%TO.P,U4,4,~{S}_4*%
%TO.N,VCC*%
X86360000Y-76200000D03*
%TO.P,U4,5,Q_5*%
%TO.N,/~{T_SEL}*%
X88900000Y-76200000D03*
%TO.P,U4,6,~{Q}_6*%
%TO.N,/~{CPM_SEL}*%
X91440000Y-76200000D03*
%TO.P,U4,7,GND_7*%
%TO.N,GND*%
X93980000Y-76200000D03*
%TO.P,U4,8,~{Q}_8*%
%TO.N,unconnected-(U4B-~{Q}-Pad8)*%
X93980000Y-68580000D03*
%TO.P,U4,9,Q_9*%
%TO.N,unconnected-(U4B-Q-Pad9)*%
X91440000Y-68580000D03*
%TO.P,U4,10,~{S}_10*%
%TO.N,VCC*%
X88900000Y-68580000D03*
%TO.P,U4,11,C_11*%
X86360000Y-68580000D03*
%TO.P,U4,12,D_12*%
X83820000Y-68580000D03*
%TO.P,U4,13,~{R}_13*%
X81280000Y-68580000D03*
%TO.P,U4,14,VCC_14*%
X78740000Y-68580000D03*
%TD*%
%TO.P,C3,1*%
%TO.N,VCC*%
X107910000Y-71120000D03*
%TO.P,C3,2*%
%TO.N,GND*%
X102910000Y-71120000D03*
%TD*%
D15*
%TO.P,J4,1,Pin_1_1*%
%TO.N,VCC*%
X141605000Y-44450000D03*
D16*
%TO.P,J4,2,Pin_2_2*%
%TO.N,GND*%
X141605000Y-41910000D03*
%TD*%
D12*
%TO.P,C7,1*%
%TO.N,VCC*%
X134660000Y-43180000D03*
D10*
%TO.P,C7,2*%
%TO.N,GND*%
X137160000Y-43180000D03*
%TD*%
D11*
%TO.P,U1,1,A14_1*%
%TO.N,GND*%
X109452200Y-66040000D03*
D10*
%TO.P,U1,2,A12_2*%
%TO.N,A12*%
X111992200Y-66040000D03*
%TO.P,U1,3,A7_3*%
%TO.N,A7*%
X114532200Y-66040000D03*
%TO.P,U1,4,A6_4*%
%TO.N,A6*%
X117072200Y-66040000D03*
%TO.P,U1,5,A5_5*%
%TO.N,A5*%
X119612200Y-66040000D03*
%TO.P,U1,6,A4_6*%
%TO.N,A4*%
X122152200Y-66040000D03*
%TO.P,U1,7,A3_7*%
%TO.N,A3*%
X124692200Y-66040000D03*
%TO.P,U1,8,A2_8*%
%TO.N,A2*%
X127232200Y-66040000D03*
%TO.P,U1,9,A1_9*%
%TO.N,A1*%
X129772200Y-66040000D03*
%TO.P,U1,10,A0_10*%
%TO.N,A0*%
X132312200Y-66040000D03*
%TO.P,U1,11,Q0_11*%
%TO.N,D0*%
X134852200Y-66040000D03*
%TO.P,U1,12,Q1_12*%
%TO.N,D1*%
X137392200Y-66040000D03*
%TO.P,U1,13,Q2_13*%
%TO.N,D2*%
X139932200Y-66040000D03*
%TO.P,U1,14,GND_14*%
%TO.N,GND*%
X142472200Y-66040000D03*
%TO.P,U1,15,Q3_15*%
%TO.N,D3*%
X142472200Y-50800000D03*
%TO.P,U1,16,Q4_16*%
%TO.N,D4*%
X139932200Y-50800000D03*
%TO.P,U1,17,Q5_17*%
%TO.N,D5*%
X137392200Y-50800000D03*
%TO.P,U1,18,Q6_18*%
%TO.N,D6*%
X134852200Y-50800000D03*
%TO.P,U1,19,Q7_19*%
%TO.N,D7*%
X132312200Y-50800000D03*
%TO.P,U1,20,~{CS}_20*%
%TO.N,Net-(U1-~{CS})*%
X129772200Y-50800000D03*
%TO.P,U1,21,A10_21*%
%TO.N,A10*%
X127232200Y-50800000D03*
%TO.P,U1,22,~{OE}_22*%
%TO.N,~{RD}*%
X124692200Y-50800000D03*
%TO.P,U1,23,A11_23*%
%TO.N,A11*%
X122152200Y-50800000D03*
%TO.P,U1,24,A9_24*%
%TO.N,A9*%
X119612200Y-50800000D03*
%TO.P,U1,25,A8_25*%
%TO.N,A8*%
X117072200Y-50800000D03*
%TO.P,U1,26,A13_26*%
%TO.N,A13*%
X114532200Y-50800000D03*
%TO.P,U1,27,~{WE}_27*%
%TO.N,~{WR}*%
X111992200Y-50800000D03*
%TO.P,U1,28,VCC_28*%
%TO.N,VCC*%
X109452200Y-50800000D03*
%TD*%
%TO.P,C8,1*%
%TO.N,VCC*%
X73660000Y-82590000D03*
%TO.P,C8,2*%
%TO.N,GND*%
X73660000Y-87590000D03*
%TD*%
D17*
%TO.P,J2,1,Pin_1_1*%
%TO.N,GND*%
X40640000Y-43180000D03*
D16*
%TO.P,J2,2,Pin_2_2*%
%TO.N,D*%
X43180000Y-43180000D03*
%TO.P,J2,3,Pin_3_3*%
%TO.N,D0*%
X40640000Y-45720000D03*
%TO.P,J2,4,Pin_4_4*%
%TO.N,D1*%
X43180000Y-45720000D03*
%TO.P,J2,5,Pin_5_5*%
%TO.N,D2*%
X40640000Y-48260000D03*
%TO.P,J2,6,Pin_6_6*%
%TO.N,D3*%
X43180000Y-48260000D03*
%TO.P,J2,7,Pin_7_7*%
%TO.N,D4*%
X40640000Y-50800000D03*
%TO.P,J2,8,Pin_8_8*%
%TO.N,D5*%
X43180000Y-50800000D03*
%TO.P,J2,9,Pin_9_9*%
%TO.N,D6*%
X40640000Y-53340000D03*
%TO.P,J2,10,Pin_10_10*%
%TO.N,D7*%
X43180000Y-53340000D03*
%TO.P,J2,11,Pin_11_11*%
%TO.N,A0*%
X40640000Y-55880000D03*
%TO.P,J2,12,Pin_12_12*%
%TO.N,A1*%
X43180000Y-55880000D03*
%TO.P,J2,13,Pin_13_13*%
%TO.N,A2*%
X40640000Y-58420000D03*
%TO.P,J2,14,Pin_14_14*%
%TO.N,A3*%
X43180000Y-58420000D03*
%TO.P,J2,15,Pin_15_15*%
%TO.N,A4*%
X40640000Y-60960000D03*
%TO.P,J2,16,Pin_16_16*%
%TO.N,A5*%
X43180000Y-60960000D03*
%TO.P,J2,17,Pin_17_17*%
%TO.N,A6*%
X40640000Y-63500000D03*
%TO.P,J2,18,Pin_18_18*%
%TO.N,A7*%
X43180000Y-63500000D03*
%TO.P,J2,19,Pin_19_19*%
%TO.N,A8*%
X40640000Y-66040000D03*
%TO.P,J2,20,Pin_20_20*%
%TO.N,A9*%
X43180000Y-66040000D03*
%TO.P,J2,21,Pin_21_21*%
%TO.N,A10*%
X40640000Y-68580000D03*
%TO.P,J2,22,Pin_22_22*%
%TO.N,A11*%
X43180000Y-68580000D03*
%TO.P,J2,23,Pin_23_23*%
%TO.N,RA12*%
X40640000Y-71120000D03*
%TO.P,J2,24,Pin_24_24*%
%TO.N,RA13*%
X43180000Y-71120000D03*
%TO.P,J2,25,Pin_25_25*%
%TO.N,RA14*%
X40640000Y-73660000D03*
%TO.P,J2,26,Pin_26_26*%
%TO.N,RA15*%
X43180000Y-73660000D03*
%TO.P,J2,27,Pin_27_27*%
%TO.N,~{MRQ}*%
X40640000Y-76200000D03*
%TO.P,J2,28,Pin_28_28*%
%TO.N,~{RD}*%
X43180000Y-76200000D03*
%TO.P,J2,29,Pin_29_29*%
%TO.N,~{INT}*%
X40640000Y-78740000D03*
%TO.P,J2,30,Pin_30_30*%
%TO.N,~{WR}*%
X43180000Y-78740000D03*
%TO.P,J2,31,Pin_31_31*%
%TO.N,~{IORQ}*%
X40640000Y-81280000D03*
%TO.P,J2,32,Pin_32_32*%
%TO.N,~{WAIT}*%
X43180000Y-81280000D03*
%TO.P,J2,33,Pin_33_33*%
%TO.N,~{M1}*%
X40640000Y-83820000D03*
%TO.P,J2,34,Pin_34_34*%
%TO.N,~{RES}*%
X43180000Y-83820000D03*
%TO.P,J2,35,Pin_35_35*%
%TO.N,~{LOCK}*%
X40640000Y-86360000D03*
%TO.P,J2,36,Pin_36_36*%
%TO.N,~{RFSH}*%
X43180000Y-86360000D03*
%TO.P,J2,37,Pin_37_37*%
%TO.N,KBI20*%
X40640000Y-88900000D03*
%TO.P,J2,38,Pin_38_38*%
%TO.N,~{PHI}*%
X43180000Y-88900000D03*
%TO.P,J2,39,Pin_39_39*%
%TO.N,~{PHI2}*%
X40640000Y-91440000D03*
%TO.P,J2,40,Pin_40_40*%
%TO.N,4MHz*%
X43180000Y-91440000D03*
%TD*%
D11*
%TO.P,U6,1,S2_1*%
%TO.N,RA13*%
X76200000Y-50800000D03*
D10*
%TO.P,U6,2,B2_2*%
%TO.N,/~{T_SEL}*%
X78740000Y-50800000D03*
%TO.P,U6,3,A2_3*%
%TO.N,A13*%
X81280000Y-50800000D03*
%TO.P,U6,4,S1_4*%
%TO.N,RA12*%
X83820000Y-50800000D03*
%TO.P,U6,5,A1_5*%
%TO.N,A12*%
X86360000Y-50800000D03*
%TO.P,U6,6,B1_6*%
%TO.N,GND*%
X88900000Y-50800000D03*
%TO.P,U6,7,C0_7*%
X91440000Y-50800000D03*
%TO.P,U6,8,GND_8*%
X93980000Y-50800000D03*
%TO.P,U6,9,C4_9*%
%TO.N,unconnected-(U6-C4-Pad9)*%
X93980000Y-43180000D03*
%TO.P,U6,10,S4_10*%
%TO.N,RA15*%
X91440000Y-43180000D03*
%TO.P,U6,11,B4_11*%
%TO.N,GND*%
X88900000Y-43180000D03*
%TO.P,U6,12,A4_12*%
%TO.N,P7*%
X86360000Y-43180000D03*
%TO.P,U6,13,S3_13*%
%TO.N,RA14*%
X83820000Y-43180000D03*
%TO.P,U6,14,A3_14*%
%TO.N,A14*%
X81280000Y-43180000D03*
%TO.P,U6,15,B3_15*%
%TO.N,/~{T_SEL}*%
X78740000Y-43180000D03*
%TO.P,U6,16,VCC_16*%
%TO.N,VCC*%
X76200000Y-43180000D03*
%TD*%
D18*
%TO.P,U2,1,NC_1*%
%TO.N,unconnected-(U2-NC-Pad1)*%
X137160000Y-80010000D03*
D19*
%TO.P,U2,2,A16_2*%
%TO.N,GND*%
X134620000Y-77470000D03*
%TO.P,U2,3,A15_3*%
X134620000Y-80010000D03*
%TO.P,U2,4,A12_4*%
X132080000Y-77470000D03*
%TO.P,U2,5,A7_5*%
X129540000Y-80010000D03*
%TO.P,U2,6,A6_6*%
X132080000Y-80010000D03*
%TO.P,U2,7,A5_7*%
%TO.N,Net-(J3-Pin_2)*%
X129540000Y-82550000D03*
%TO.P,U2,8,A4_8*%
%TO.N,A15*%
X132080000Y-82550000D03*
%TO.P,U2,9,A3_9*%
%TO.N,A14*%
X129540000Y-85090000D03*
%TO.P,U2,10,A2_10*%
%TO.N,A13*%
X132080000Y-85090000D03*
%TO.P,U2,11,A1_11*%
%TO.N,A12*%
X129540000Y-87630000D03*
%TO.P,U2,12,A0_12*%
%TO.N,A11*%
X132080000Y-87630000D03*
%TO.P,U2,13,D0_13*%
%TO.N,P0*%
X129540000Y-90170000D03*
%TO.P,U2,14,D1_14*%
%TO.N,P1*%
X132080000Y-92710000D03*
%TO.P,U2,15,D2_15*%
%TO.N,~{RAMS3}*%
X132080000Y-90170000D03*
%TO.P,U2,16,GND_16*%
%TO.N,GND*%
X134620000Y-92710000D03*
%TO.P,U2,17,D3_17*%
%TO.N,P2*%
X134620000Y-90170000D03*
%TO.P,U2,18,D4_18*%
%TO.N,unconnected-(U2-D4-Pad18)*%
X137160000Y-92710000D03*
%TO.P,U2,19,D5_19*%
%TO.N,P5*%
X137160000Y-90170000D03*
%TO.P,U2,20,D6_20*%
%TO.N,P6*%
X139700000Y-92710000D03*
%TO.P,U2,21,D7_21*%
%TO.N,P7*%
X142240000Y-90170000D03*
%TO.P,U2,22,CE_22*%
%TO.N,/~{CPM_SEL}*%
X139700000Y-90170000D03*
%TO.P,U2,23,A10_23*%
%TO.N,GND*%
X142240000Y-87630000D03*
%TO.P,U2,24,OE_24*%
%TO.N,/~{CPM_SEL}*%
X139700000Y-87630000D03*
%TO.P,U2,25,A11_25*%
%TO.N,GND*%
X142240000Y-85090000D03*
%TO.P,U2,26,A9_26*%
X139700000Y-85090000D03*
%TO.P,U2,27,A8_27*%
X142240000Y-82550000D03*
%TO.P,U2,28,A13_28*%
X139700000Y-82550000D03*
%TO.P,U2,29,A14_29*%
X142240000Y-80010000D03*
%TO.P,U2,30,NC_30*%
%TO.N,unconnected-(U2-NC-Pad30)*%
X139700000Y-77470000D03*
%TO.P,U2,31,PGM_31*%
%TO.N,VCC*%
X139700000Y-80010000D03*
%TO.P,U2,32,VCC_32*%
X137160000Y-77470000D03*
%TD*%
D17*
%TO.P,J1,1,Pin_1_1*%
%TO.N,GND*%
X58420000Y-43180000D03*
D16*
%TO.P,J1,2,Pin_2_2*%
%TO.N,D*%
X60960000Y-43180000D03*
%TO.P,J1,3,Pin_3_3*%
%TO.N,D0*%
X58420000Y-45720000D03*
%TO.P,J1,4,Pin_4_4*%
%TO.N,D1*%
X60960000Y-45720000D03*
%TO.P,J1,5,Pin_5_5*%
%TO.N,D2*%
X58420000Y-48260000D03*
%TO.P,J1,6,Pin_6_6*%
%TO.N,D3*%
X60960000Y-48260000D03*
%TO.P,J1,7,Pin_7_7*%
%TO.N,D4*%
X58420000Y-50800000D03*
%TO.P,J1,8,Pin_8_8*%
%TO.N,D5*%
X60960000Y-50800000D03*
%TO.P,J1,9,Pin_9_9*%
%TO.N,D6*%
X58420000Y-53340000D03*
%TO.P,J1,10,Pin_10_10*%
%TO.N,D7*%
X60960000Y-53340000D03*
%TO.P,J1,11,Pin_11_11*%
%TO.N,A0*%
X58420000Y-55880000D03*
%TO.P,J1,12,Pin_12_12*%
%TO.N,A1*%
X60960000Y-55880000D03*
%TO.P,J1,13,Pin_13_13*%
%TO.N,A2*%
X58420000Y-58420000D03*
%TO.P,J1,14,Pin_14_14*%
%TO.N,A3*%
X60960000Y-58420000D03*
%TO.P,J1,15,Pin_15_15*%
%TO.N,A4*%
X58420000Y-60960000D03*
%TO.P,J1,16,Pin_16_16*%
%TO.N,A5*%
X60960000Y-60960000D03*
%TO.P,J1,17,Pin_17_17*%
%TO.N,A6*%
X58420000Y-63500000D03*
%TO.P,J1,18,Pin_18_18*%
%TO.N,A7*%
X60960000Y-63500000D03*
%TO.P,J1,19,Pin_19_19*%
%TO.N,A8*%
X58420000Y-66040000D03*
%TO.P,J1,20,Pin_20_20*%
%TO.N,A9*%
X60960000Y-66040000D03*
%TO.P,J1,21,Pin_21_21*%
%TO.N,A10*%
X58420000Y-68580000D03*
%TO.P,J1,22,Pin_22_22*%
%TO.N,A11*%
X60960000Y-68580000D03*
%TO.P,J1,23,Pin_23_23*%
%TO.N,A12*%
X58420000Y-71120000D03*
%TO.P,J1,24,Pin_24_24*%
%TO.N,A13*%
X60960000Y-71120000D03*
%TO.P,J1,25,Pin_25_25*%
%TO.N,A14*%
X58420000Y-73660000D03*
%TO.P,J1,26,Pin_26_26*%
%TO.N,A15*%
X60960000Y-73660000D03*
%TO.P,J1,27,Pin_27_27*%
%TO.N,~{MRQ}*%
X58420000Y-76200000D03*
%TO.P,J1,28,Pin_28_28*%
%TO.N,~{RD}*%
X60960000Y-76200000D03*
%TO.P,J1,29,Pin_29_29*%
%TO.N,~{INT}*%
X58420000Y-78740000D03*
%TO.P,J1,30,Pin_30_30*%
%TO.N,~{WR}*%
X60960000Y-78740000D03*
%TO.P,J1,31,Pin_31_31*%
%TO.N,~{IORQ}*%
X58420000Y-81280000D03*
%TO.P,J1,32,Pin_32_32*%
%TO.N,~{WAIT}*%
X60960000Y-81280000D03*
%TO.P,J1,33,Pin_33_33*%
%TO.N,~{M1}*%
X58420000Y-83820000D03*
%TO.P,J1,34,Pin_34_34*%
%TO.N,~{RES}*%
X60960000Y-83820000D03*
%TO.P,J1,35,Pin_35_35*%
%TO.N,~{LOCK}*%
X58420000Y-86360000D03*
%TO.P,J1,36,Pin_36_36*%
%TO.N,~{RFSH}*%
X60960000Y-86360000D03*
%TO.P,J1,37,Pin_37_37*%
%TO.N,KBI20*%
X58420000Y-88900000D03*
%TO.P,J1,38,Pin_38_38*%
%TO.N,~{PHI}*%
X60960000Y-88900000D03*
%TO.P,J1,39,Pin_39_39*%
%TO.N,~{PHI2}*%
X58420000Y-91440000D03*
%TO.P,J1,40,Pin_40_40*%
%TO.N,4MHz*%
X60960000Y-91440000D03*
%TD*%
D10*
%TO.P,C6,1*%
%TO.N,VCC*%
X71120000Y-57190000D03*
%TO.P,C6,2*%
%TO.N,GND*%
X71120000Y-62190000D03*
%TD*%
D12*
%TO.P,U3,1*%
%TO.N,P0*%
X114300000Y-76200000D03*
D10*
%TO.P,U3,2*%
%TO.N,P1*%
X114300000Y-78740000D03*
%TO.P,U3,3*%
%TO.N,P2*%
X114300000Y-81280000D03*
%TO.P,U3,4*%
%TO.N,P3*%
X114300000Y-83820000D03*
%TO.P,U3,5*%
%TO.N,P4*%
X114300000Y-86360000D03*
%TO.P,U3,6*%
%TO.N,P5*%
X114300000Y-88900000D03*
%TO.P,U3,7*%
%TO.N,P6*%
X114300000Y-91440000D03*
%TO.P,U3,8*%
%TO.N,GND*%
X114300000Y-93980000D03*
%TO.P,U3,9*%
%TO.N,P7*%
X121920000Y-93980000D03*
%TO.P,U3,10*%
%TO.N,A11*%
X121920000Y-91440000D03*
%TO.P,U3,11*%
%TO.N,A12*%
X121920000Y-88900000D03*
%TO.P,U3,12*%
%TO.N,A13*%
X121920000Y-86360000D03*
%TO.P,U3,13*%
%TO.N,A14*%
X121920000Y-83820000D03*
%TO.P,U3,14*%
%TO.N,A15*%
X121920000Y-81280000D03*
%TO.P,U3,15*%
%TO.N,unconnected-(U3-Pad15)*%
X121920000Y-78740000D03*
%TO.P,U3,16*%
%TO.N,unconnected-(U3-Pad16)*%
X121920000Y-76200000D03*
%TD*%
D20*
%TO.N,Net-(U1-~{CS})*%
X95420000Y-80180000D03*
%TO.N,P0*%
X128270000Y-77470000D03*
%TO.N,P1*%
X127000000Y-80010000D03*
%TO.N,P2*%
X118110000Y-81280000D03*
%TO.N,P5*%
X118110000Y-88900000D03*
%TO.N,P6*%
X116840000Y-91440000D03*
%TO.N,GND*%
X58420000Y-40640000D03*
X104372200Y-66675000D03*
X102870000Y-38100000D03*
X93980000Y-45720000D03*
X69850000Y-40640000D03*
%TO.N,A11*%
X121920000Y-63500000D03*
%TO.N,A12*%
X97106470Y-48895000D03*
X85090000Y-66040000D03*
X101600000Y-67310000D03*
%TO.N,A13*%
X80010000Y-54740000D03*
X80010000Y-66040000D03*
%TO.N,A14*%
X100330000Y-71120000D03*
X104140000Y-83185000D03*
X82550000Y-71120000D03*
%TO.N,/~{T_SEL}*%
X91440000Y-52500000D03*
X80010000Y-52500000D03*
%TO.N,VCC*%
X104140000Y-43180000D03*
%TO.N,A7*%
X115570000Y-53340000D03*
X76272108Y-58492108D03*
%TO.N,A6*%
X78240000Y-59480101D03*
X118110000Y-53340000D03*
%TO.N,A4*%
X123190000Y-53340000D03*
X81280000Y-58420000D03*
%TO.N,~{IORQ}*%
X86360000Y-78740000D03*
%TO.N,~{WR}*%
X111760000Y-64135000D03*
X64770000Y-68580000D03*
X86888236Y-66146764D03*
%TO.N,A5*%
X88900000Y-57785000D03*
X120650000Y-53340000D03*
%TO.N,~{RAMS3}*%
X146050000Y-88900000D03*
X97790000Y-95250000D03*
%TO.N,~{RES}*%
X76200000Y-81280000D03*
%TO.N,D7*%
X66040000Y-52248529D03*
X76200000Y-74930000D03*
X73660000Y-52590000D03*
%TO.N,/~{CPM_SEL}*%
X140970000Y-73660000D03*
%TO.N,A3*%
X125730000Y-48860000D03*
%TO.N,A2*%
X128270000Y-48860000D03*
%TO.N,A1*%
X130810000Y-47990000D03*
%TO.N,A0*%
X131712200Y-48260000D03*
%TO.N,D0*%
X134845074Y-45050000D03*
%TO.N,D1*%
X138430000Y-46990000D03*
%TO.N,D2*%
X140970000Y-46990000D03*
%TO.N,D3*%
X63500000Y-50130000D03*
%TO.N,D5*%
X63859266Y-51400000D03*
%TO.N,A10*%
X127000000Y-55880000D03*
X63500000Y-66040000D03*
%TO.N,~{RD}*%
X63500000Y-74295000D03*
X122555000Y-73025000D03*
%TO.N,A9*%
X119380000Y-54610000D03*
%TO.N,A8*%
X116840000Y-55210000D03*
%TO.N,RA12*%
X85090000Y-38100000D03*
X50800000Y-72390000D03*
X50800000Y-38100000D03*
%TO.N,RA13*%
X49530000Y-71120000D03*
X49530000Y-39370000D03*
X77470000Y-39190000D03*
%TO.N,RA14*%
X53340000Y-74810000D03*
X83820000Y-38100000D03*
X53340000Y-38100000D03*
%TO.N,RA15*%
X52070000Y-36830000D03*
X91440000Y-36830000D03*
X52070000Y-73660000D03*
%TO.N,~{MRQ}*%
X88265000Y-78740000D03*
%TO.N,Net-(U1-~{CS})*%
X128332200Y-68580000D03*
X98425000Y-68580000D03*
%TO.N,Net-(U4A-C)*%
X81915000Y-86360000D03*
%TD*%
%TO.N,Net-(U1-~{CS})*%
D21*
X97790000Y-69215000D02*
X98425000Y-68580000D01*
X97790000Y-77810000D02*
X97790000Y-69215000D01*
X95420000Y-80180000D02*
X97790000Y-77810000D01*
%TO.N,P0*%
X128270000Y-88900000D02*
X129540000Y-90170000D01*
X128270000Y-77470000D02*
X128270000Y-88900000D01*
%TO.N,P1*%
X127000000Y-80010000D02*
X127000000Y-91440000D01*
X128270000Y-92710000D02*
X132080000Y-92710000D01*
X127000000Y-91440000D02*
X128270000Y-92710000D01*
%TO.N,P2*%
X119380000Y-82550000D02*
X119380000Y-93980000D01*
X118110000Y-81280000D02*
X119380000Y-82550000D01*
X133350000Y-91440000D02*
X134620000Y-90170000D01*
X132880000Y-95720000D02*
X133350000Y-95250000D01*
X133350000Y-95250000D02*
X133350000Y-91440000D01*
X119380000Y-93980000D02*
X121120000Y-95720000D01*
X121120000Y-95720000D02*
X132880000Y-95720000D01*
%TO.N,P5*%
X118110000Y-88900000D02*
X118110000Y-93980000D01*
X137560000Y-96120000D02*
X138430000Y-95250000D01*
X138430000Y-95250000D02*
X138430000Y-91440000D01*
X120250000Y-96120000D02*
X137560000Y-96120000D01*
X138430000Y-91440000D02*
X137160000Y-90170000D01*
X118110000Y-93980000D02*
X120250000Y-96120000D01*
%TO.N,P6*%
X116840000Y-95250000D02*
X118110000Y-96520000D01*
X118110000Y-96520000D02*
X138430000Y-96520000D01*
X116840000Y-91440000D02*
X116840000Y-95250000D01*
X138430000Y-96520000D02*
X139700000Y-95250000D01*
X139700000Y-95250000D02*
X139700000Y-92710000D01*
%TO.N,GND*%
D22*
X102910000Y-71160000D02*
X105410000Y-73660000D01*
X71120000Y-49490000D02*
X69850000Y-50760000D01*
X93980000Y-45720000D02*
X93980000Y-50800000D01*
X153670000Y-86360000D02*
X153670000Y-53340000D01*
D21*
X142240000Y-87630000D02*
X142240000Y-80010000D01*
D22*
X104372200Y-60880000D02*
X104372200Y-66675000D01*
X149860000Y-97790000D02*
X115570000Y-97790000D01*
X105410000Y-73660000D02*
X105410000Y-92710000D01*
X72390000Y-67310000D02*
X71120000Y-66040000D01*
X152717500Y-87312500D02*
X153670000Y-86360000D01*
X150812500Y-87312500D02*
X150812500Y-96837500D01*
X72390000Y-76160000D02*
X72390000Y-86320000D01*
X71120000Y-49490000D02*
X69850000Y-48220000D01*
X104372200Y-60880000D02*
X102870000Y-59377800D01*
X104140000Y-93980000D02*
X101600000Y-93980000D01*
D21*
X134620000Y-80010000D02*
X134620000Y-87630000D01*
X134620000Y-77470000D02*
X134620000Y-80010000D01*
D22*
X104372200Y-66675000D02*
X104372200Y-69657800D01*
X69850000Y-48220000D02*
X69850000Y-40640000D01*
X58420000Y-43180000D02*
X58420000Y-40640000D01*
X73660000Y-72390000D02*
X72390000Y-71120000D01*
X102870000Y-59377800D02*
X102870000Y-38100000D01*
D21*
X135890000Y-91440000D02*
X134620000Y-92710000D01*
D22*
X150812500Y-87312500D02*
X152717500Y-87312500D01*
X69850000Y-60920000D02*
X71120000Y-62190000D01*
X105410000Y-92710000D02*
X104140000Y-93980000D01*
D21*
X134620000Y-87630000D02*
X135890000Y-88900000D01*
D22*
X142240000Y-41910000D02*
X138430000Y-41910000D01*
X72390000Y-86320000D02*
X73660000Y-87590000D01*
D21*
X135890000Y-88900000D02*
X135890000Y-91440000D01*
X134620000Y-77470000D02*
X134620000Y-72390000D01*
D22*
X104372200Y-69657800D02*
X102910000Y-71120000D01*
D21*
X134620000Y-72390000D02*
X133350000Y-71120000D01*
D22*
X71120000Y-66040000D02*
X71120000Y-62190000D01*
X150812500Y-96837500D02*
X149860000Y-97790000D01*
X138430000Y-41910000D02*
X137160000Y-43180000D01*
D21*
X139700000Y-82550000D02*
X139700000Y-85090000D01*
X88900000Y-43180000D02*
X88900000Y-50800000D01*
D22*
X73660000Y-74890000D02*
X73660000Y-72390000D01*
X72390000Y-71120000D02*
X72390000Y-67310000D01*
X115570000Y-97790000D02*
X114300000Y-96520000D01*
X153670000Y-53340000D02*
X142240000Y-41910000D01*
X102910000Y-71120000D02*
X102910000Y-71160000D01*
X73660000Y-74890000D02*
X72390000Y-76160000D01*
X69850000Y-50760000D02*
X69850000Y-60920000D01*
X114300000Y-96520000D02*
X114300000Y-93980000D01*
%TO.N,P7*%
D21*
X106680000Y-96520000D02*
X109220000Y-93980000D01*
X87630000Y-74930000D02*
X87630000Y-91440000D01*
X87630000Y-91440000D02*
X92710000Y-96520000D01*
X87630000Y-44450000D02*
X87630000Y-52070000D01*
X87630000Y-52070000D02*
X90170000Y-54610000D01*
X90170000Y-54610000D02*
X90170000Y-72390000D01*
X92710000Y-96520000D02*
X106680000Y-96520000D01*
X86360000Y-43180000D02*
X87630000Y-44450000D01*
X90170000Y-72390000D02*
X87630000Y-74930000D01*
%TO.N,A11*%
X112395000Y-68580000D02*
X113030000Y-67945000D01*
X120417200Y-67945000D02*
X121052200Y-67310000D01*
X121920000Y-63500000D02*
X122152200Y-63267800D01*
X121920000Y-63500000D02*
X121052200Y-64367800D01*
X112395000Y-88265000D02*
X112395000Y-68580000D01*
X121052200Y-64367800D02*
X121052200Y-67310000D01*
X113030000Y-67945000D02*
X120417200Y-67945000D01*
X109220000Y-91440000D02*
X112395000Y-88265000D01*
X122152200Y-63267800D02*
X122152200Y-50800000D01*
%TO.N,A12*%
X111992200Y-86127800D02*
X109220000Y-88900000D01*
X97106470Y-48895000D02*
X98425000Y-48895000D01*
X100330000Y-50800000D02*
X100330000Y-66040000D01*
X98425000Y-48895000D02*
X100330000Y-50800000D01*
X85090000Y-66040000D02*
X85090000Y-54610000D01*
X100330000Y-66040000D02*
X101600000Y-67310000D01*
X111992200Y-66040000D02*
X111992200Y-86127800D01*
X86360000Y-53340000D02*
X86360000Y-50800000D01*
X85090000Y-54610000D02*
X86360000Y-53340000D01*
%TO.N,A13*%
X80010000Y-54610000D02*
X81280000Y-53340000D01*
X110892200Y-50344365D02*
X111706565Y-49530000D01*
X110892200Y-68515000D02*
X110892200Y-50344365D01*
X111592200Y-69215000D02*
X110892200Y-68515000D01*
X110490000Y-86360000D02*
X111592200Y-85257800D01*
X80010000Y-66040000D02*
X80010000Y-54610000D01*
X113262200Y-49530000D02*
X114532200Y-50800000D01*
X111592200Y-85257800D02*
X111592200Y-69215000D01*
X81280000Y-53340000D02*
X81280000Y-50800000D01*
X109220000Y-86360000D02*
X110490000Y-86360000D01*
X111706565Y-49530000D02*
X113262200Y-49530000D01*
%TO.N,A14*%
X104140000Y-74930000D02*
X100330000Y-71120000D01*
X82550000Y-71120000D02*
X82550000Y-44450000D01*
X82550000Y-44450000D02*
X81280000Y-43180000D01*
X104140000Y-83185000D02*
X104140000Y-74930000D01*
%TO.N,/~{T_SEL}*%
X78740000Y-50800000D02*
X78740000Y-43180000D01*
X91870000Y-52500000D02*
X92710000Y-53340000D01*
X80010000Y-52500000D02*
X79170000Y-52500000D01*
X92710000Y-72390000D02*
X88900000Y-76200000D01*
X78740000Y-52070000D02*
X78740000Y-50800000D01*
X79170000Y-52500000D02*
X78740000Y-52070000D01*
X91440000Y-52500000D02*
X91870000Y-52500000D01*
X92710000Y-53340000D02*
X92710000Y-72390000D01*
%TO.N,VCC*%
X137160000Y-72310000D02*
X138350000Y-71120000D01*
D22*
X71120000Y-44490000D02*
X72370000Y-45740000D01*
X105622200Y-67097800D02*
X107910000Y-69385600D01*
D21*
X86360000Y-81280000D02*
X87159999Y-80480001D01*
D22*
X74910000Y-71140000D02*
X74910000Y-81340000D01*
X142240000Y-44450000D02*
X147320000Y-49530000D01*
D21*
X137160000Y-77470000D02*
X139700000Y-80010000D01*
D22*
X104372200Y-44682200D02*
X104372200Y-55880000D01*
X72370000Y-55940000D02*
X71120000Y-57190000D01*
D21*
X87159999Y-80480001D02*
X87159999Y-76999999D01*
D22*
X105622200Y-57130000D02*
X105622200Y-67097800D01*
X147320000Y-49530000D02*
X147320000Y-60130000D01*
D21*
X87159999Y-76999999D02*
X86360000Y-76200000D01*
D22*
X73660000Y-69890000D02*
X74910000Y-71140000D01*
X135930000Y-44450000D02*
X142240000Y-44450000D01*
X72390000Y-58460000D02*
X71120000Y-57190000D01*
X134660000Y-43180000D02*
X135930000Y-44450000D01*
D21*
X74930000Y-83860000D02*
X73660000Y-82590000D01*
D22*
X107910000Y-71120000D02*
X107910000Y-74890000D01*
X74910000Y-81340000D02*
X73660000Y-82590000D01*
X104140000Y-43180000D02*
X104140000Y-44450000D01*
X104372200Y-55880000D02*
X105622200Y-57130000D01*
X72390000Y-64770000D02*
X72390000Y-58460000D01*
X149500000Y-62310000D02*
X149500000Y-62590000D01*
X104140000Y-44450000D02*
X104372200Y-44682200D01*
X107910000Y-74890000D02*
X109220000Y-76200000D01*
X104372200Y-55880000D02*
X109452200Y-50800000D01*
X107910000Y-69385600D02*
X107910000Y-71120000D01*
D21*
X86360000Y-76200000D02*
X86360000Y-68580000D01*
X74930000Y-93980000D02*
X74930000Y-83860000D01*
D22*
X73660000Y-69890000D02*
X73660000Y-66040000D01*
X73660000Y-66040000D02*
X72390000Y-64770000D01*
X72370000Y-45740000D02*
X72370000Y-55940000D01*
X147320000Y-60130000D02*
X149500000Y-62310000D01*
D21*
X137160000Y-77470000D02*
X137160000Y-72310000D01*
%TO.N,A7*%
X76200000Y-58564216D02*
X76272108Y-58492108D01*
X115570000Y-53340000D02*
X115570000Y-65002200D01*
X115570000Y-65002200D02*
X114532200Y-66040000D01*
X76200000Y-63500000D02*
X76200000Y-58564216D01*
%TO.N,A6*%
X78740000Y-59980101D02*
X78240000Y-59480101D01*
X118110000Y-53340000D02*
X118110000Y-65002200D01*
X118110000Y-65002200D02*
X117072200Y-66040000D01*
X78740000Y-63500000D02*
X78740000Y-59980101D01*
%TO.N,A4*%
X123190000Y-65002200D02*
X122152200Y-66040000D01*
X123190000Y-53340000D02*
X123190000Y-65002200D01*
X81280000Y-63500000D02*
X81280000Y-58420000D01*
%TO.N,~{IORQ}*%
X83820000Y-67024365D02*
X85090000Y-68294365D01*
X85090000Y-77470000D02*
X86360000Y-78740000D01*
X85090000Y-68294365D02*
X85090000Y-77470000D01*
X83820000Y-63500000D02*
X83820000Y-67024365D01*
%TO.N,~{WR}*%
X86360000Y-63500000D02*
X86360000Y-65618529D01*
X86570736Y-65829264D02*
X86888236Y-66146764D01*
X111992200Y-50800000D02*
X111992200Y-63902800D01*
X86360000Y-65618529D02*
X86570736Y-65829264D01*
X60960000Y-78740000D02*
X64770000Y-74930000D01*
X111992200Y-63902800D02*
X111760000Y-64135000D01*
X64770000Y-74930000D02*
X64770000Y-68580000D01*
%TO.N,A5*%
X120650000Y-65002200D02*
X119612200Y-66040000D01*
X120650000Y-53340000D02*
X120650000Y-65002200D01*
X88900000Y-63500000D02*
X88900000Y-57785000D01*
%TO.N,/OUT_$2x*%
X77640000Y-56980000D02*
X77640000Y-71290000D01*
X78740000Y-55880000D02*
X77640000Y-56980000D01*
X77640000Y-71290000D02*
X80010000Y-73660000D01*
X80010000Y-87630000D02*
X81280000Y-88900000D01*
X80010000Y-73660000D02*
X80010000Y-87630000D01*
%TO.N,~{RAMS3}*%
X152400000Y-57590000D02*
X149500000Y-54690000D01*
X97790000Y-95250000D02*
X91440000Y-88900000D01*
X146050000Y-72390000D02*
X152400000Y-66040000D01*
X146050000Y-88900000D02*
X146050000Y-72390000D01*
X152400000Y-66040000D02*
X152400000Y-57590000D01*
%TO.N,~{RES}*%
X78740000Y-76200000D02*
X78740000Y-78740000D01*
X78740000Y-78740000D02*
X76200000Y-81280000D01*
%TO.N,D7*%
X64948529Y-53340000D02*
X60960000Y-53340000D01*
X66040000Y-52248529D02*
X64948529Y-53340000D01*
X76200000Y-74930000D02*
X76200000Y-65384744D01*
X76200000Y-65384744D02*
X73660000Y-62844744D01*
X73660000Y-62844744D02*
X73660000Y-52590000D01*
%TO.N,/~{CPM_SEL}*%
X139700000Y-90170000D02*
X139700000Y-87630000D01*
X140970000Y-73660000D02*
X140970000Y-86360000D01*
X140970000Y-86360000D02*
X139700000Y-87630000D01*
%TO.N,A3*%
X125792200Y-64940000D02*
X124692200Y-66040000D01*
X125730000Y-48860000D02*
X125792200Y-48922200D01*
X125792200Y-48922200D02*
X125792200Y-64940000D01*
%TO.N,A2*%
X128332200Y-64940000D02*
X127232200Y-66040000D01*
X128332200Y-48922200D02*
X128332200Y-64940000D01*
X128270000Y-48860000D02*
X128332200Y-48922200D01*
%TO.N,A1*%
X130872200Y-64940000D02*
X129772200Y-66040000D01*
X130810000Y-47990000D02*
X130872200Y-48052200D01*
X130872200Y-48052200D02*
X130872200Y-64940000D01*
%TO.N,A0*%
X132312200Y-66040000D02*
X133412200Y-64940000D01*
X133412200Y-64940000D02*
X133412200Y-49592200D01*
X133412200Y-49592200D02*
X132080000Y-48260000D01*
X132080000Y-48260000D02*
X131712200Y-48260000D01*
%TO.N,D0*%
X135890000Y-46094926D02*
X135890000Y-48260000D01*
X135890000Y-48260000D02*
X135952200Y-48322200D01*
X135952200Y-64940000D02*
X134852200Y-66040000D01*
X134845074Y-45050000D02*
X135890000Y-46094926D01*
X135952200Y-48322200D02*
X135952200Y-64940000D01*
%TO.N,D1*%
X138430000Y-49530000D02*
X138492200Y-49592200D01*
X138492200Y-64940000D02*
X137392200Y-66040000D01*
X138492200Y-49592200D02*
X138492200Y-64940000D01*
X138430000Y-46990000D02*
X138430000Y-49530000D01*
%TO.N,D2*%
X140970000Y-46990000D02*
X141032200Y-47052200D01*
X141032200Y-47052200D02*
X141032200Y-64940000D01*
X141032200Y-64940000D02*
X139932200Y-66040000D01*
%TO.N,D3*%
X62830000Y-50130000D02*
X60960000Y-48260000D01*
X63500000Y-50130000D02*
X62830000Y-50130000D01*
%TO.N,D5*%
X63859266Y-51400000D02*
X61560000Y-51400000D01*
X61560000Y-51400000D02*
X60960000Y-50800000D01*
%TO.N,A10*%
X58420000Y-68580000D02*
X59570000Y-67430000D01*
X127232200Y-54377800D02*
X127232200Y-50800000D01*
X62110000Y-67430000D02*
X63500000Y-66040000D01*
X127000000Y-55880000D02*
X127000000Y-54610000D01*
X59570000Y-67430000D02*
X62110000Y-67430000D01*
X127000000Y-54610000D02*
X127232200Y-54377800D01*
%TO.N,~{RD}*%
X123592200Y-65584365D02*
X124692200Y-64484365D01*
X122555000Y-73025000D02*
X123592200Y-71987800D01*
X124692200Y-64484365D02*
X124692200Y-50800000D01*
X62230000Y-74930000D02*
X60960000Y-76200000D01*
X63500000Y-74295000D02*
X62865000Y-74930000D01*
X123592200Y-71987800D02*
X123592200Y-65584365D01*
X62865000Y-74930000D02*
X62230000Y-74930000D01*
%TO.N,A9*%
X119380000Y-54610000D02*
X119380000Y-53340000D01*
X119380000Y-53340000D02*
X119612200Y-53107800D01*
X119612200Y-53107800D02*
X119612200Y-50800000D01*
%TO.N,A8*%
X117072200Y-54977800D02*
X117072200Y-50800000D01*
X116840000Y-55210000D02*
X117072200Y-54977800D01*
%TO.N,RA12*%
X83820000Y-50800000D02*
X85090000Y-49530000D01*
X50800000Y-38100000D02*
X50800000Y-72390000D01*
X85090000Y-49530000D02*
X85090000Y-38100000D01*
%TO.N,RA13*%
X76200000Y-50800000D02*
X77470000Y-49530000D01*
X77470000Y-49530000D02*
X77470000Y-39190000D01*
X49530000Y-39370000D02*
X49530000Y-71120000D01*
%TO.N,RA14*%
X83820000Y-43180000D02*
X83820000Y-38100000D01*
X53340000Y-38100000D02*
X53340000Y-74810000D01*
%TO.N,RA15*%
X91440000Y-43180000D02*
X91440000Y-36830000D01*
X52070000Y-73660000D02*
X52070000Y-36830000D01*
%TO.N,~{MRQ}*%
X90000000Y-87800000D02*
X90000000Y-80475000D01*
X90000000Y-80475000D02*
X88265000Y-78740000D01*
X88900000Y-88900000D02*
X90000000Y-87800000D01*
%TO.N,Net-(U1-~{CS})*%
X129772200Y-64144365D02*
X128332200Y-65584365D01*
X128332200Y-65584365D02*
X128332200Y-68580000D01*
X129772200Y-50800000D02*
X129772200Y-64144365D01*
%TO.N,Net-(U4A-C)*%
X82550000Y-77470000D02*
X82550000Y-81915000D01*
X82550000Y-81915000D02*
X81915000Y-82550000D01*
X83820000Y-76200000D02*
X82550000Y-77470000D01*
X81915000Y-82550000D02*
X81915000Y-86360000D01*
%TD*%
%TA.AperFunction,Conductor*%
%TO.N,Net-(U1-~{CS})*%
G36*
X98158143Y-68469332D02*
G01*
X98422884Y-68575616D01*
X98429285Y-68581879D01*
X98429383Y-68582115D01*
X98535666Y-68846855D01*
X98535568Y-68855809D01*
X98529724Y-68861831D01*
X98080675Y-69069727D01*
X98071727Y-69070093D01*
X98067486Y-69067383D01*
X97937616Y-68937513D01*
X97934189Y-68929240D01*
X97935270Y-68924329D01*
X98143170Y-68475272D01*
X98149753Y-68469208D01*
X98158143Y-68469332D01*
G37*
%TD.AperFunction*%
%TD*%
%TA.AperFunction,Conductor*%
%TO.N,P0*%
G36*
X128614258Y-89098310D02*
G01*
X129735862Y-89485766D01*
X129742563Y-89491707D01*
X129743257Y-89500160D01*
X129544934Y-90167054D01*
X129539291Y-90174007D01*
X129537054Y-90174934D01*
X128870160Y-90373257D01*
X128861253Y-90372330D01*
X128855766Y-90365862D01*
X128468311Y-89244259D01*
X128468849Y-89235323D01*
X128471094Y-89232171D01*
X128602169Y-89101096D01*
X128610441Y-89097670D01*
X128614258Y-89098310D01*
G37*
%TD.AperFunction*%
%TD*%
%TA.AperFunction,Conductor*%
%TO.N,P0*%
G36*
X128274557Y-77468379D02*
G01*
X128536947Y-77580441D01*
X128543210Y-77586842D01*
X128543335Y-77595233D01*
X128372815Y-78059765D01*
X128366748Y-78066350D01*
X128361832Y-78067433D01*
X128178168Y-78067433D01*
X128169895Y-78064006D01*
X128167185Y-78059765D01*
X127996664Y-77595233D01*
X127997030Y-77586285D01*
X128003050Y-77580442D01*
X128265406Y-77468394D01*
X128274359Y-77468297D01*
X128274557Y-77468379D01*
G37*
%TD.AperFunction*%
%TD*%
%TA.AperFunction,Conductor*%
%TO.N,P1*%
G36*
X127004557Y-80008379D02*
G01*
X127266947Y-80120441D01*
X127273210Y-80126842D01*
X127273335Y-80135233D01*
X127102815Y-80599765D01*
X127096748Y-80606350D01*
X127091832Y-80607433D01*
X126908168Y-80607433D01*
X126899895Y-80604006D01*
X126897185Y-80599765D01*
X126726664Y-80135233D01*
X126727030Y-80126285D01*
X126733050Y-80120442D01*
X126995406Y-80008394D01*
X127004359Y-80008297D01*
X127004557Y-80008379D01*
G37*
%TD.AperFunction*%
%TD*%
%TA.AperFunction,Conductor*%
%TO.N,P1*%
G36*
X131750076Y-92092627D02*
G01*
X132081407Y-92704428D01*
X132082334Y-92713335D01*
X132081407Y-92715572D01*
X131750076Y-93327372D01*
X131743123Y-93333015D01*
X131734670Y-93332321D01*
X130667607Y-92813202D01*
X130661666Y-92806501D01*
X130661025Y-92802681D01*
X130661025Y-92617318D01*
X130664452Y-92609045D01*
X130667603Y-92606799D01*
X131734671Y-92087677D01*
X131743608Y-92087140D01*
X131750076Y-92092627D01*
G37*
%TD.AperFunction*%
%TD*%
%TA.AperFunction,Conductor*%
%TO.N,P2*%
G36*
X118385809Y-81169431D02*
G01*
X118391830Y-81175274D01*
X118570794Y-81561831D01*
X118599727Y-81624324D01*
X118600093Y-81633272D01*
X118597383Y-81637513D01*
X118467513Y-81767383D01*
X118459240Y-81770810D01*
X118454325Y-81769727D01*
X118005274Y-81561830D01*
X117999208Y-81555246D01*
X117999332Y-81546856D01*
X118105616Y-81282114D01*
X118111879Y-81275714D01*
X118112084Y-81275628D01*
X118376856Y-81169333D01*
X118385809Y-81169431D01*
G37*
%TD.AperFunction*%
%TD*%
%TA.AperFunction,Conductor*%
%TO.N,P2*%
G36*
X133952258Y-89967366D02*
G01*
X134614826Y-90164403D01*
X134618863Y-90166534D01*
X134621542Y-90168709D01*
X134625383Y-90174457D01*
X134822593Y-90837609D01*
X134823016Y-90842151D01*
X134822817Y-90844069D01*
X134818747Y-90851785D01*
X134817535Y-90852813D01*
X134813787Y-90854949D01*
X133696460Y-91240928D01*
X133691935Y-91241548D01*
X133688786Y-91241358D01*
X133681218Y-91237952D01*
X133552742Y-91109476D01*
X133550206Y-91105680D01*
X133548999Y-91102766D01*
X133548749Y-91094471D01*
X133935007Y-89976332D01*
X133937308Y-89972396D01*
X133938590Y-89970950D01*
X133946384Y-89967051D01*
X133947973Y-89966921D01*
X133952258Y-89967366D01*
G37*
%TD.AperFunction*%
%TD*%
%TA.AperFunction,Conductor*%
%TO.N,P5*%
G36*
X118114557Y-88898379D02*
G01*
X118376947Y-89010441D01*
X118383210Y-89016842D01*
X118383335Y-89025233D01*
X118212815Y-89489765D01*
X118206748Y-89496350D01*
X118201832Y-89497433D01*
X118018168Y-89497433D01*
X118009895Y-89494006D01*
X118007185Y-89489765D01*
X117836664Y-89025233D01*
X117837030Y-89016285D01*
X117843050Y-89010442D01*
X118105406Y-88898394D01*
X118114359Y-88898297D01*
X118114557Y-88898379D01*
G37*
%TD.AperFunction*%
%TD*%
%TA.AperFunction,Conductor*%
%TO.N,P5*%
G36*
X137838746Y-89967669D02*
G01*
X137844233Y-89974137D01*
X138231688Y-91095738D01*
X138231150Y-91104676D01*
X138228902Y-91107831D01*
X138097831Y-91238902D01*
X138089558Y-91242329D01*
X138085738Y-91241688D01*
X136964137Y-90854233D01*
X136957436Y-90848292D01*
X136956742Y-90839841D01*
X137155066Y-90172943D01*
X137160708Y-90165992D01*
X137162936Y-90165068D01*
X137829841Y-89966742D01*
X137838746Y-89967669D01*
G37*
%TD.AperFunction*%
%TD*%
%TA.AperFunction,Conductor*%
%TO.N,P6*%
G36*
X116844557Y-91438379D02*
G01*
X117106947Y-91550441D01*
X117113210Y-91556842D01*
X117113335Y-91565233D01*
X116942815Y-92029765D01*
X116936748Y-92036350D01*
X116931832Y-92037433D01*
X116748168Y-92037433D01*
X116739895Y-92034006D01*
X116737185Y-92029765D01*
X116566664Y-91565233D01*
X116567030Y-91556285D01*
X116573050Y-91550442D01*
X116835406Y-91438394D01*
X116844359Y-91438297D01*
X116844557Y-91438379D01*
G37*
%TD.AperFunction*%
%TD*%
%TA.AperFunction,Conductor*%
%TO.N,P6*%
G36*
X139705567Y-92708590D02*
G01*
X140065442Y-92903486D01*
X140317372Y-93039923D01*
X140323015Y-93046876D01*
X140322321Y-93055329D01*
X139803202Y-94122393D01*
X139796501Y-94128334D01*
X139792681Y-94128975D01*
X139607319Y-94128975D01*
X139599046Y-94125548D01*
X139596798Y-94122393D01*
X139077678Y-93055329D01*
X139077140Y-93046391D01*
X139082627Y-93039923D01*
X139694429Y-92708591D01*
X139703335Y-92707665D01*
X139705567Y-92708590D01*
G37*
%TD.AperFunction*%
%TD*%
%TA.AperFunction,Conductor*%
%TO.N,GND*%
G36*
X103620135Y-70753697D02*
G01*
X103620589Y-70754636D01*
X104192291Y-72084584D01*
X104192410Y-72093538D01*
X104189815Y-72097478D01*
X103847699Y-72439594D01*
X103839426Y-72443021D01*
X103834418Y-72441895D01*
X102543800Y-71830707D01*
X102537790Y-71824069D01*
X102538234Y-71815125D01*
X102538374Y-71814839D01*
X102884912Y-71139795D01*
X102889758Y-71134846D01*
X103604281Y-70748961D01*
X103613188Y-70748046D01*
X103620135Y-70753697D01*
G37*
%TD.AperFunction*%
%TD*%
%TA.AperFunction,Conductor*%
%TO.N,GND*%
G36*
X70424824Y-49118368D02*
G01*
X70425465Y-49118682D01*
X71120225Y-49484879D01*
X71125120Y-49489774D01*
X71491317Y-50184534D01*
X71492143Y-50193450D01*
X71486422Y-50200339D01*
X71485781Y-50200653D01*
X70175499Y-50792097D01*
X70166548Y-50792377D01*
X70162412Y-50789706D01*
X69820293Y-50447587D01*
X69816866Y-50439314D01*
X69817901Y-50434503D01*
X70409346Y-49124217D01*
X70415873Y-49118088D01*
X70424824Y-49118368D01*
G37*
%TD.AperFunction*%
%TD*%
%TA.AperFunction,Conductor*%
%TO.N,GND*%
G36*
X94230188Y-49207279D02*
G01*
X94232859Y-49211415D01*
X94741154Y-50556138D01*
X94740874Y-50565089D01*
X94734347Y-50571219D01*
X94733671Y-50571451D01*
X93983461Y-50803780D01*
X93976539Y-50803780D01*
X93226328Y-50571451D01*
X93219439Y-50565730D01*
X93218613Y-50556814D01*
X93218839Y-50556154D01*
X93727141Y-49211414D01*
X93733271Y-49204888D01*
X93738085Y-49203852D01*
X94221915Y-49203852D01*
X94230188Y-49207279D01*
G37*
%TD.AperFunction*%
%TD*%
%TA.AperFunction,Conductor*%
%TO.N,GND*%
G36*
X94266504Y-45757588D02*
G01*
X94274205Y-45762156D01*
X94276498Y-45770159D01*
X94230910Y-46306723D01*
X94226795Y-46314677D01*
X94219252Y-46317433D01*
X93740748Y-46317433D01*
X93732475Y-46314006D01*
X93729090Y-46306724D01*
X93729090Y-46306723D01*
X93683501Y-45770158D01*
X93686215Y-45761626D01*
X93693494Y-45757588D01*
X93978336Y-45716672D01*
X93981664Y-45716672D01*
X94266504Y-45757588D01*
G37*
%TD.AperFunction*%
%TD*%
%TA.AperFunction,Conductor*%
%TO.N,GND*%
G36*
X142340954Y-83674452D02*
G01*
X142343202Y-83677607D01*
X142862321Y-84744670D01*
X142862859Y-84753608D01*
X142857372Y-84760076D01*
X142245572Y-85091407D01*
X142236665Y-85092334D01*
X142234428Y-85091407D01*
X141622627Y-84760076D01*
X141616984Y-84753123D01*
X141617678Y-84744670D01*
X142136798Y-83677607D01*
X142143499Y-83671666D01*
X142147319Y-83671025D01*
X142332681Y-83671025D01*
X142340954Y-83674452D01*
G37*
%TD.AperFunction*%
%TD*%
%TA.AperFunction,Conductor*%
%TO.N,GND*%
G36*
X142246955Y-85089341D02*
G01*
X142605442Y-85283486D01*
X142855326Y-85418815D01*
X142858839Y-85421731D01*
X142860055Y-85423230D01*
X142862630Y-85431558D01*
X142862500Y-85433142D01*
X142861360Y-85437303D01*
X142344220Y-86500298D01*
X142341464Y-86503931D01*
X142339103Y-86506026D01*
X142331338Y-86508975D01*
X142149646Y-86508975D01*
X142145169Y-86508084D01*
X142142252Y-86506876D01*
X142136210Y-86501185D01*
X142135778Y-86500298D01*
X141618695Y-85437420D01*
X141617538Y-85433007D01*
X141617422Y-85431080D01*
X141620177Y-85422810D01*
X141621208Y-85421594D01*
X141624554Y-85418879D01*
X142232384Y-85089698D01*
X142236741Y-85088350D01*
X142240175Y-85087993D01*
X142246955Y-85089341D01*
G37*
%TD.AperFunction*%
%TD*%
%TA.AperFunction,Conductor*%
%TO.N,GND*%
G36*
X142334831Y-86211916D02*
G01*
X142337745Y-86213123D01*
X142343789Y-86218814D01*
X142861302Y-87282576D01*
X142862460Y-87286991D01*
X142862576Y-87288918D01*
X142859820Y-87297189D01*
X142858792Y-87298401D01*
X142855441Y-87301121D01*
X142247618Y-87630298D01*
X142243260Y-87631647D01*
X142240246Y-87631961D01*
X142239826Y-87632004D01*
X142233041Y-87630656D01*
X141624673Y-87301184D01*
X141621159Y-87298267D01*
X141619943Y-87296768D01*
X141617368Y-87288440D01*
X141617487Y-87286991D01*
X141617498Y-87286853D01*
X141618636Y-87282698D01*
X142135779Y-86219699D01*
X142138538Y-86216064D01*
X142140357Y-86214452D01*
X142140900Y-86213969D01*
X142148662Y-86211025D01*
X142330354Y-86211025D01*
X142334831Y-86211916D01*
G37*
%TD.AperFunction*%
%TD*%
%TA.AperFunction,Conductor*%
%TO.N,GND*%
G36*
X142340954Y-81134452D02*
G01*
X142343202Y-81137607D01*
X142862321Y-82204670D01*
X142862859Y-82213608D01*
X142857372Y-82220076D01*
X142245572Y-82551407D01*
X142236665Y-82552334D01*
X142234428Y-82551407D01*
X141622627Y-82220076D01*
X141616984Y-82213123D01*
X141617678Y-82204670D01*
X142136798Y-81137607D01*
X142143499Y-81131666D01*
X142147319Y-81131025D01*
X142332681Y-81131025D01*
X142340954Y-81134452D01*
G37*
%TD.AperFunction*%
%TD*%
%TA.AperFunction,Conductor*%
%TO.N,GND*%
G36*
X142245567Y-82548590D02*
G01*
X142605442Y-82743486D01*
X142857372Y-82879923D01*
X142863015Y-82886876D01*
X142862321Y-82895329D01*
X142343202Y-83962393D01*
X142336501Y-83968334D01*
X142332681Y-83968975D01*
X142147319Y-83968975D01*
X142139046Y-83965548D01*
X142136798Y-83962393D01*
X141617678Y-82895329D01*
X141617140Y-82886391D01*
X141622627Y-82879923D01*
X142234429Y-82548591D01*
X142243335Y-82547665D01*
X142245567Y-82548590D01*
G37*
%TD.AperFunction*%
%TD*%
%TA.AperFunction,Conductor*%
%TO.N,GND*%
G36*
X142245567Y-80008590D02*
G01*
X142605442Y-80203486D01*
X142857372Y-80339923D01*
X142863015Y-80346876D01*
X142862321Y-80355329D01*
X142343202Y-81422393D01*
X142336501Y-81428334D01*
X142332681Y-81428975D01*
X142147319Y-81428975D01*
X142139046Y-81425548D01*
X142136798Y-81422393D01*
X141617678Y-80355329D01*
X141617140Y-80346391D01*
X141622627Y-80339923D01*
X142234429Y-80008591D01*
X142243335Y-80007665D01*
X142245567Y-80008590D01*
G37*
%TD.AperFunction*%
%TD*%
%TA.AperFunction,Conductor*%
%TO.N,GND*%
G36*
X105125872Y-61108549D02*
G01*
X105132760Y-61114269D01*
X105133586Y-61123185D01*
X105133354Y-61123861D01*
X104625059Y-62468585D01*
X104618929Y-62475112D01*
X104614115Y-62476148D01*
X104130285Y-62476148D01*
X104122012Y-62472721D01*
X104119341Y-62468585D01*
X103611045Y-61123861D01*
X103611325Y-61114910D01*
X103617852Y-61108780D01*
X103618499Y-61108557D01*
X104368742Y-60876219D01*
X104375658Y-60876219D01*
X105125872Y-61108549D01*
G37*
%TD.AperFunction*%
%TD*%
%TA.AperFunction,Conductor*%
%TO.N,GND*%
G36*
X104619725Y-66080994D02*
G01*
X104623110Y-66088277D01*
X104668698Y-66624840D01*
X104665984Y-66633373D01*
X104658704Y-66637411D01*
X104373864Y-66678327D01*
X104370536Y-66678327D01*
X104085695Y-66637411D01*
X104077994Y-66632843D01*
X104075701Y-66624841D01*
X104121290Y-66088275D01*
X104125405Y-66080323D01*
X104132948Y-66077567D01*
X104611452Y-66077567D01*
X104619725Y-66080994D01*
G37*
%TD.AperFunction*%
%TD*%
%TA.AperFunction,Conductor*%
%TO.N,GND*%
G36*
X150820766Y-87319776D02*
G01*
X151485201Y-87984992D01*
X151655539Y-88155531D01*
X151658961Y-88163806D01*
X151656820Y-88170546D01*
X151065996Y-89007547D01*
X151058425Y-89012330D01*
X151056437Y-89012500D01*
X150568563Y-89012500D01*
X150560290Y-89009073D01*
X150559004Y-89007547D01*
X150377211Y-88750008D01*
X149968178Y-88170544D01*
X149966208Y-88161811D01*
X149969459Y-88155532D01*
X150804223Y-87319786D01*
X150812493Y-87316355D01*
X150820766Y-87319776D01*
G37*
%TD.AperFunction*%
%TD*%
%TA.AperFunction,Conductor*%
%TO.N,GND*%
G36*
X70175497Y-48187901D02*
G01*
X71485781Y-48779346D01*
X71491911Y-48785873D01*
X71491631Y-48794824D01*
X71491317Y-48795465D01*
X71125120Y-49490225D01*
X71120225Y-49495120D01*
X70425465Y-49861317D01*
X70416549Y-49862143D01*
X70409660Y-49856422D01*
X70409346Y-49855781D01*
X69817901Y-48545498D01*
X69817622Y-48536548D01*
X69820291Y-48532414D01*
X70162413Y-48190292D01*
X70170685Y-48186866D01*
X70175497Y-48187901D01*
G37*
%TD.AperFunction*%
%TD*%
%TA.AperFunction,Conductor*%
%TO.N,GND*%
G36*
X103427697Y-59577901D02*
G01*
X104737981Y-60169346D01*
X104744111Y-60175873D01*
X104743831Y-60184824D01*
X104743517Y-60185465D01*
X104377320Y-60880225D01*
X104372425Y-60885120D01*
X103677665Y-61251317D01*
X103668749Y-61252143D01*
X103661860Y-61246422D01*
X103661546Y-61245781D01*
X103070101Y-59935498D01*
X103069822Y-59926548D01*
X103072491Y-59922414D01*
X103414613Y-59580292D01*
X103422885Y-59576866D01*
X103427697Y-59577901D01*
G37*
%TD.AperFunction*%
%TD*%
%TA.AperFunction,Conductor*%
%TO.N,GND*%
G36*
X101843855Y-93218843D02*
G01*
X103188585Y-93727141D01*
X103195112Y-93733271D01*
X103196148Y-93738085D01*
X103196148Y-94221914D01*
X103192721Y-94230187D01*
X103188585Y-94232858D01*
X101843861Y-94741154D01*
X101834910Y-94740874D01*
X101828780Y-94734347D01*
X101828554Y-94733689D01*
X101596219Y-93983458D01*
X101596219Y-93976541D01*
X101828549Y-93226326D01*
X101834269Y-93219439D01*
X101843185Y-93218613D01*
X101843855Y-93218843D01*
G37*
%TD.AperFunction*%
%TD*%
%TA.AperFunction,Conductor*%
%TO.N,GND*%
G36*
X134625567Y-80008590D02*
G01*
X134985442Y-80203486D01*
X135237372Y-80339923D01*
X135243015Y-80346876D01*
X135242321Y-80355329D01*
X134723202Y-81422393D01*
X134716501Y-81428334D01*
X134712681Y-81428975D01*
X134527319Y-81428975D01*
X134519046Y-81425548D01*
X134516798Y-81422393D01*
X133997678Y-80355329D01*
X133997140Y-80346391D01*
X134002627Y-80339923D01*
X134614429Y-80008591D01*
X134623335Y-80007665D01*
X134625567Y-80008590D01*
G37*
%TD.AperFunction*%
%TD*%
%TA.AperFunction,Conductor*%
%TO.N,GND*%
G36*
X134720954Y-78594452D02*
G01*
X134723202Y-78597607D01*
X135242321Y-79664670D01*
X135242859Y-79673608D01*
X135237372Y-79680076D01*
X134625572Y-80011407D01*
X134616665Y-80012334D01*
X134614428Y-80011407D01*
X134002627Y-79680076D01*
X133996984Y-79673123D01*
X133997678Y-79664670D01*
X134516798Y-78597607D01*
X134523499Y-78591666D01*
X134527319Y-78591025D01*
X134712681Y-78591025D01*
X134720954Y-78594452D01*
G37*
%TD.AperFunction*%
%TD*%
%TA.AperFunction,Conductor*%
%TO.N,GND*%
G36*
X134625567Y-77468590D02*
G01*
X134985442Y-77663486D01*
X135237372Y-77799923D01*
X135243015Y-77806876D01*
X135242321Y-77815329D01*
X134723202Y-78882393D01*
X134716501Y-78888334D01*
X134712681Y-78888975D01*
X134527319Y-78888975D01*
X134519046Y-78885548D01*
X134516798Y-78882393D01*
X133997678Y-77815329D01*
X133997140Y-77806391D01*
X134002627Y-77799923D01*
X134614429Y-77468591D01*
X134623335Y-77467665D01*
X134625567Y-77468590D01*
G37*
%TD.AperFunction*%
%TD*%
%TA.AperFunction,Conductor*%
%TO.N,GND*%
G36*
X104658704Y-66712588D02*
G01*
X104666405Y-66717156D01*
X104668698Y-66725159D01*
X104623110Y-67261723D01*
X104618995Y-67269677D01*
X104611452Y-67272433D01*
X104132948Y-67272433D01*
X104124675Y-67269006D01*
X104121290Y-67261724D01*
X104121290Y-67261723D01*
X104075701Y-66725158D01*
X104078415Y-66716626D01*
X104085694Y-66712588D01*
X104370536Y-66671672D01*
X104373864Y-66671672D01*
X104658704Y-66712588D01*
G37*
%TD.AperFunction*%
%TD*%
%TA.AperFunction,Conductor*%
%TO.N,GND*%
G36*
X70136504Y-40677588D02*
G01*
X70144205Y-40682156D01*
X70146498Y-40690159D01*
X70100910Y-41226723D01*
X70096795Y-41234677D01*
X70089252Y-41237433D01*
X69610748Y-41237433D01*
X69602475Y-41234006D01*
X69599090Y-41226724D01*
X69599090Y-41226723D01*
X69553501Y-40690158D01*
X69556215Y-40681626D01*
X69563494Y-40677588D01*
X69848336Y-40636672D01*
X69851664Y-40636672D01*
X70136504Y-40677588D01*
G37*
%TD.AperFunction*%
%TD*%
%TA.AperFunction,Conductor*%
%TO.N,GND*%
G36*
X58671524Y-41483427D02*
G01*
X58673379Y-41485842D01*
X59246048Y-42475820D01*
X59247224Y-42484697D01*
X59243437Y-42490644D01*
X58427517Y-43174697D01*
X58418975Y-43177386D01*
X58412483Y-43174697D01*
X57596562Y-42490644D01*
X57592424Y-42482703D01*
X57593950Y-42475823D01*
X58166621Y-41485842D01*
X58173730Y-41480396D01*
X58176749Y-41480000D01*
X58663251Y-41480000D01*
X58671524Y-41483427D01*
G37*
%TD.AperFunction*%
%TD*%
%TA.AperFunction,Conductor*%
%TO.N,GND*%
G36*
X58706504Y-40677588D02*
G01*
X58714205Y-40682156D01*
X58716498Y-40690159D01*
X58670910Y-41226723D01*
X58666795Y-41234677D01*
X58659252Y-41237433D01*
X58180748Y-41237433D01*
X58172475Y-41234006D01*
X58169090Y-41226724D01*
X58169090Y-41226723D01*
X58123501Y-40690158D01*
X58126215Y-40681626D01*
X58133494Y-40677588D01*
X58418336Y-40636672D01*
X58421664Y-40636672D01*
X58706504Y-40677588D01*
G37*
%TD.AperFunction*%
%TD*%
%TA.AperFunction,Conductor*%
%TO.N,GND*%
G36*
X103156504Y-38137588D02*
G01*
X103164205Y-38142156D01*
X103166498Y-38150159D01*
X103120910Y-38686723D01*
X103116795Y-38694677D01*
X103109252Y-38697433D01*
X102630748Y-38697433D01*
X102622475Y-38694006D01*
X102619090Y-38686724D01*
X102619090Y-38686723D01*
X102573501Y-38150158D01*
X102576215Y-38141626D01*
X102583494Y-38137588D01*
X102868336Y-38096672D01*
X102871664Y-38096672D01*
X103156504Y-38137588D01*
G37*
%TD.AperFunction*%
%TD*%
%TA.AperFunction,Conductor*%
%TO.N,GND*%
G36*
X135554676Y-91638849D02*
G01*
X135557831Y-91641097D01*
X135688902Y-91772168D01*
X135692329Y-91780441D01*
X135691688Y-91784261D01*
X135304233Y-92905862D01*
X135298292Y-92912563D01*
X135289839Y-92913257D01*
X134622945Y-92714934D01*
X134615992Y-92709291D01*
X134615067Y-92707059D01*
X134416742Y-92040158D01*
X134417669Y-92031253D01*
X134424135Y-92025767D01*
X135545739Y-91638311D01*
X135554676Y-91638849D01*
G37*
%TD.AperFunction*%
%TD*%
%TA.AperFunction,Conductor*%
%TO.N,GND*%
G36*
X151670544Y-86468178D02*
G01*
X152507547Y-87059004D01*
X152512330Y-87066574D01*
X152512500Y-87068562D01*
X152512500Y-87556437D01*
X152509073Y-87564710D01*
X152507547Y-87565996D01*
X151670546Y-88156820D01*
X151661811Y-88158791D01*
X151655531Y-88155539D01*
X151065294Y-87565996D01*
X150819786Y-87320776D01*
X150816355Y-87312507D01*
X150819776Y-87304233D01*
X151655532Y-86469459D01*
X151663806Y-86466038D01*
X151670544Y-86468178D01*
G37*
%TD.AperFunction*%
%TD*%
%TA.AperFunction,Conductor*%
%TO.N,GND*%
G36*
X70175497Y-60887901D02*
G01*
X71485781Y-61479346D01*
X71491911Y-61485873D01*
X71491631Y-61494824D01*
X71491317Y-61495465D01*
X71125120Y-62190225D01*
X71120225Y-62195120D01*
X70425465Y-62561317D01*
X70416549Y-62562143D01*
X70409660Y-62556422D01*
X70409346Y-62555781D01*
X69817901Y-61245498D01*
X69817622Y-61236548D01*
X69820291Y-61232414D01*
X70162413Y-60890292D01*
X70170685Y-60886866D01*
X70175497Y-60887901D01*
G37*
%TD.AperFunction*%
%TD*%
%TA.AperFunction,Conductor*%
%TO.N,GND*%
G36*
X141350666Y-41101240D02*
G01*
X141355672Y-41103444D01*
X141358856Y-41104845D01*
X141359837Y-41105869D01*
X141362559Y-41110496D01*
X141535168Y-41668004D01*
X141608498Y-41904850D01*
X141609021Y-41908310D01*
X141609021Y-41911689D01*
X141608498Y-41915149D01*
X141362658Y-42709182D01*
X141360482Y-42713197D01*
X141359345Y-42714566D01*
X141351423Y-42718741D01*
X141351421Y-42718741D01*
X141350015Y-42718871D01*
X141344698Y-42718126D01*
X140689734Y-42463493D01*
X139918720Y-42163742D01*
X139914870Y-42161289D01*
X139912700Y-42159212D01*
X139909096Y-42151016D01*
X139909093Y-42150762D01*
X139909093Y-41670331D01*
X139909984Y-41665854D01*
X139911133Y-41663080D01*
X139917465Y-41656748D01*
X139917702Y-41656652D01*
X141344392Y-41101990D01*
X141348878Y-41101200D01*
X141350666Y-41101240D01*
G37*
%TD.AperFunction*%
%TD*%
%TA.AperFunction,Conductor*%
%TO.N,GND*%
G36*
X72715497Y-86287901D02*
G01*
X74025781Y-86879346D01*
X74031911Y-86885873D01*
X74031631Y-86894824D01*
X74031317Y-86895465D01*
X73665120Y-87590225D01*
X73660225Y-87595120D01*
X72965465Y-87961317D01*
X72956549Y-87962143D01*
X72949660Y-87956422D01*
X72949346Y-87955781D01*
X72357901Y-86645498D01*
X72357622Y-86636548D01*
X72360291Y-86632414D01*
X72702413Y-86290292D01*
X72710685Y-86286866D01*
X72715497Y-86287901D01*
G37*
%TD.AperFunction*%
%TD*%
%TA.AperFunction,Conductor*%
%TO.N,GND*%
G36*
X134720954Y-76054452D02*
G01*
X134723202Y-76057607D01*
X135242321Y-77124670D01*
X135242859Y-77133608D01*
X135237372Y-77140076D01*
X134625572Y-77471407D01*
X134616665Y-77472334D01*
X134614428Y-77471407D01*
X134002627Y-77140076D01*
X133996984Y-77133123D01*
X133997678Y-77124670D01*
X134516798Y-76057607D01*
X134523499Y-76051666D01*
X134527319Y-76051025D01*
X134712681Y-76051025D01*
X134720954Y-76054452D01*
G37*
%TD.AperFunction*%
%TD*%
%TA.AperFunction,Conductor*%
%TO.N,GND*%
G36*
X103867587Y-69820293D02*
G01*
X104209706Y-70162412D01*
X104213133Y-70170685D01*
X104212097Y-70175499D01*
X103620653Y-71485781D01*
X103614126Y-71491911D01*
X103605175Y-71491631D01*
X103604534Y-71491317D01*
X102909774Y-71125120D01*
X102904879Y-71120225D01*
X102538682Y-70425465D01*
X102537856Y-70416549D01*
X102543577Y-70409660D01*
X102544204Y-70409352D01*
X103854501Y-69817901D01*
X103863451Y-69817622D01*
X103867587Y-69820293D01*
G37*
%TD.AperFunction*%
%TD*%
%TA.AperFunction,Conductor*%
%TO.N,GND*%
G36*
X134113631Y-70891918D02*
G01*
X134119151Y-70898478D01*
X134547046Y-72171062D01*
X134546434Y-72179996D01*
X134544229Y-72183064D01*
X134413064Y-72314229D01*
X134404791Y-72317656D01*
X134401062Y-72317046D01*
X133128478Y-71889151D01*
X133121729Y-71883266D01*
X133120993Y-71874725D01*
X133344763Y-71122637D01*
X133350406Y-71115687D01*
X133352630Y-71114765D01*
X134104725Y-70890993D01*
X134113631Y-70891918D01*
G37*
%TD.AperFunction*%
%TD*%
%TA.AperFunction,Conductor*%
%TO.N,GND*%
G36*
X71873672Y-62418549D02*
G01*
X71880560Y-62424269D01*
X71881386Y-62433185D01*
X71881154Y-62433861D01*
X71372859Y-63778585D01*
X71366729Y-63785112D01*
X71361915Y-63786148D01*
X70878085Y-63786148D01*
X70869812Y-63782721D01*
X70867141Y-63778585D01*
X70358845Y-62433861D01*
X70359125Y-62424910D01*
X70365652Y-62418780D01*
X70366299Y-62418557D01*
X71116542Y-62186219D01*
X71123458Y-62186219D01*
X71873672Y-62418549D01*
G37*
%TD.AperFunction*%
%TD*%
%TA.AperFunction,Conductor*%
%TO.N,GND*%
G36*
X138117587Y-41880293D02*
G01*
X138459706Y-42222412D01*
X138463133Y-42230685D01*
X138462097Y-42235499D01*
X137870653Y-43545781D01*
X137864126Y-43551911D01*
X137855175Y-43551631D01*
X137854534Y-43551317D01*
X137159774Y-43185120D01*
X137154879Y-43180225D01*
X136788682Y-42485465D01*
X136787856Y-42476549D01*
X136793577Y-42469660D01*
X136794204Y-42469352D01*
X138104501Y-41877901D01*
X138113451Y-41877622D01*
X138117587Y-41880293D01*
G37*
%TD.AperFunction*%
%TD*%
%TA.AperFunction,Conductor*%
%TO.N,GND*%
G36*
X139800954Y-83674452D02*
G01*
X139803202Y-83677607D01*
X140322321Y-84744670D01*
X140322859Y-84753608D01*
X140317372Y-84760076D01*
X139705572Y-85091407D01*
X139696665Y-85092334D01*
X139694428Y-85091407D01*
X139082627Y-84760076D01*
X139076984Y-84753123D01*
X139077678Y-84744670D01*
X139596798Y-83677607D01*
X139603499Y-83671666D01*
X139607319Y-83671025D01*
X139792681Y-83671025D01*
X139800954Y-83674452D01*
G37*
%TD.AperFunction*%
%TD*%
%TA.AperFunction,Conductor*%
%TO.N,GND*%
G36*
X139705567Y-82548590D02*
G01*
X140065442Y-82743486D01*
X140317372Y-82879923D01*
X140323015Y-82886876D01*
X140322321Y-82895329D01*
X139803202Y-83962393D01*
X139796501Y-83968334D01*
X139792681Y-83968975D01*
X139607319Y-83968975D01*
X139599046Y-83965548D01*
X139596798Y-83962393D01*
X139077678Y-82895329D01*
X139077140Y-82886391D01*
X139082627Y-82879923D01*
X139694429Y-82548591D01*
X139703335Y-82547665D01*
X139705567Y-82548590D01*
G37*
%TD.AperFunction*%
%TD*%
%TA.AperFunction,Conductor*%
%TO.N,GND*%
G36*
X88905565Y-43178161D02*
G01*
X89447444Y-43471527D01*
X89595603Y-43551739D01*
X89601247Y-43558691D01*
X89600511Y-43567233D01*
X89003226Y-44769653D01*
X88996477Y-44775538D01*
X88992748Y-44776148D01*
X88807252Y-44776148D01*
X88798979Y-44772721D01*
X88796774Y-44769653D01*
X88199488Y-43567233D01*
X88198876Y-43558299D01*
X88204395Y-43551739D01*
X88894431Y-43178162D01*
X88903337Y-43177238D01*
X88905565Y-43178161D01*
G37*
%TD.AperFunction*%
%TD*%
%TA.AperFunction,Conductor*%
%TO.N,GND*%
G36*
X89001021Y-49207279D02*
G01*
X89003226Y-49210347D01*
X89600511Y-50412766D01*
X89601123Y-50421700D01*
X89595603Y-50428260D01*
X88905570Y-50801836D01*
X88896663Y-50802761D01*
X88894430Y-50801836D01*
X88204396Y-50428260D01*
X88198752Y-50421308D01*
X88199488Y-50412766D01*
X88796774Y-49210347D01*
X88803523Y-49204462D01*
X88807252Y-49203852D01*
X88992748Y-49203852D01*
X89001021Y-49207279D01*
G37*
%TD.AperFunction*%
%TD*%
%TA.AperFunction,Conductor*%
%TO.N,GND*%
G36*
X142211967Y-41316149D02*
G01*
X143200795Y-42515801D01*
X143203413Y-42524365D01*
X143200040Y-42531516D01*
X142860717Y-42870839D01*
X142852444Y-42874266D01*
X142846049Y-42872363D01*
X142242042Y-42478080D01*
X142237651Y-42472816D01*
X141832234Y-41508089D01*
X141832188Y-41499134D01*
X141837786Y-41493091D01*
X142197707Y-41313125D01*
X142206639Y-41312491D01*
X142211967Y-41316149D01*
G37*
%TD.AperFunction*%
%TD*%
%TA.AperFunction,Conductor*%
%TO.N,GND*%
G36*
X115053672Y-94208549D02*
G01*
X115060560Y-94214269D01*
X115061386Y-94223185D01*
X115061154Y-94223861D01*
X114552859Y-95568585D01*
X114546729Y-95575112D01*
X114541915Y-95576148D01*
X114058085Y-95576148D01*
X114049812Y-95572721D01*
X114047141Y-95568585D01*
X113538845Y-94223861D01*
X113539125Y-94214910D01*
X113545652Y-94208780D01*
X113546299Y-94208557D01*
X114296542Y-93976219D01*
X114303458Y-93976219D01*
X115053672Y-94208549D01*
G37*
%TD.AperFunction*%
%TD*%
%TA.AperFunction,Conductor*%
%TO.N,P7*%
G36*
X109217361Y-93974763D02*
G01*
X109224312Y-93980406D01*
X109225237Y-93982639D01*
X109449006Y-94734724D01*
X109448081Y-94743631D01*
X109441521Y-94749151D01*
X108168937Y-95177046D01*
X108160003Y-95176434D01*
X108156935Y-95174229D01*
X108025770Y-95043064D01*
X108022343Y-95034791D01*
X108022953Y-95031062D01*
X108378125Y-93974762D01*
X108450848Y-93758477D01*
X108456733Y-93751729D01*
X108465274Y-93750993D01*
X109217361Y-93974763D01*
G37*
%TD.AperFunction*%
%TD*%
%TA.AperFunction,Conductor*%
%TO.N,P7*%
G36*
X87118931Y-42951429D02*
G01*
X87126671Y-42955531D01*
X87127722Y-42956780D01*
X87129858Y-42960581D01*
X87556303Y-44228855D01*
X87556886Y-44233381D01*
X87556670Y-44236546D01*
X87553270Y-44244022D01*
X87424709Y-44372583D01*
X87420915Y-44375119D01*
X87417985Y-44376333D01*
X87409777Y-44376614D01*
X87003467Y-44239996D01*
X86140682Y-43949892D01*
X86136724Y-43947622D01*
X86135289Y-43946370D01*
X86131323Y-43938560D01*
X86131183Y-43936934D01*
X86131625Y-43932598D01*
X86354100Y-43184864D01*
X86356229Y-43180830D01*
X86358406Y-43178149D01*
X86364149Y-43174312D01*
X87112497Y-42951655D01*
X87117031Y-42951232D01*
X87118931Y-42951429D01*
G37*
%TD.AperFunction*%
%TD*%
%TA.AperFunction,Conductor*%
%TO.N,A11*%
G36*
X121653143Y-63389332D02*
G01*
X121917884Y-63495616D01*
X121924285Y-63501879D01*
X121924383Y-63502115D01*
X122030666Y-63766855D01*
X122030568Y-63775809D01*
X122024724Y-63781831D01*
X121575675Y-63989727D01*
X121566727Y-63990093D01*
X121562486Y-63987383D01*
X121432616Y-63857513D01*
X121429189Y-63849240D01*
X121430270Y-63844329D01*
X121638170Y-63395272D01*
X121644753Y-63389208D01*
X121653143Y-63389332D01*
G37*
%TD.AperFunction*%
%TD*%
%TA.AperFunction,Conductor*%
%TO.N,A11*%
G36*
X110279996Y-90243565D02*
G01*
X110283064Y-90245770D01*
X110414229Y-90376935D01*
X110417656Y-90385208D01*
X110417046Y-90388937D01*
X109989151Y-91661521D01*
X109983266Y-91668270D01*
X109974724Y-91669006D01*
X109222639Y-91445237D01*
X109215687Y-91439593D01*
X109214764Y-91437365D01*
X108990993Y-90685274D01*
X108991918Y-90676368D01*
X108998477Y-90670848D01*
X110271062Y-90242953D01*
X110279996Y-90243565D01*
G37*
%TD.AperFunction*%
%TD*%
%TA.AperFunction,Conductor*%
%TO.N,A11*%
G36*
X122159155Y-50798913D02*
G01*
X122699644Y-51091527D01*
X122845758Y-51170631D01*
X122849267Y-51173542D01*
X122850466Y-51175019D01*
X122853041Y-51183400D01*
X122852901Y-51185023D01*
X122851722Y-51189222D01*
X122256460Y-52387569D01*
X122253675Y-52391179D01*
X122252503Y-52392201D01*
X122251285Y-52393263D01*
X122243594Y-52396148D01*
X122061779Y-52396148D01*
X122057302Y-52395257D01*
X122054369Y-52394042D01*
X122048371Y-52388439D01*
X121452724Y-51189318D01*
X121451530Y-51184918D01*
X121451399Y-51183019D01*
X121454117Y-51174683D01*
X121455170Y-51173432D01*
X121458545Y-51170682D01*
X122144587Y-50799268D01*
X122148942Y-50797922D01*
X122152381Y-50797565D01*
X122159155Y-50798913D01*
G37*
%TD.AperFunction*%
%TD*%
%TA.AperFunction,Conductor*%
%TO.N,A12*%
G36*
X110273939Y-87703150D02*
G01*
X110276547Y-87703328D01*
X110284022Y-87706728D01*
X110412583Y-87835289D01*
X110415119Y-87839083D01*
X110416333Y-87842013D01*
X110416614Y-87850221D01*
X109989892Y-89119316D01*
X109987620Y-89123277D01*
X109986372Y-89124708D01*
X109978560Y-89128675D01*
X109976937Y-89128815D01*
X109972594Y-89128372D01*
X109224868Y-88905900D01*
X109220831Y-88903769D01*
X109218152Y-88901594D01*
X109214313Y-88895849D01*
X108991655Y-88147501D01*
X108991232Y-88142966D01*
X108991430Y-88141066D01*
X108995529Y-88133328D01*
X108996781Y-88132274D01*
X109000576Y-88130142D01*
X110268855Y-87703694D01*
X110273381Y-87703112D01*
X110273939Y-87703150D01*
G37*
%TD.AperFunction*%
%TD*%
%TA.AperFunction,Conductor*%
%TO.N,A12*%
G36*
X97696235Y-48792185D02*
G01*
X97702820Y-48798252D01*
X97703903Y-48803168D01*
X97703903Y-48986831D01*
X97700476Y-48995104D01*
X97696235Y-48997814D01*
X97231703Y-49168335D01*
X97222755Y-49167969D01*
X97216911Y-49161947D01*
X97145655Y-48995104D01*
X97104864Y-48899593D01*
X97104767Y-48890641D01*
X97104865Y-48890405D01*
X97216912Y-48628050D01*
X97223312Y-48621789D01*
X97231703Y-48621664D01*
X97696235Y-48792185D01*
G37*
%TD.AperFunction*%
%TD*%
%TA.AperFunction,Conductor*%
%TO.N,A12*%
G36*
X85190105Y-65445994D02*
G01*
X85192815Y-65450235D01*
X85363335Y-65914766D01*
X85362969Y-65923714D01*
X85356947Y-65929558D01*
X85094595Y-66041604D01*
X85085641Y-66041702D01*
X85085405Y-66041604D01*
X84823052Y-65929558D01*
X84816789Y-65923157D01*
X84816664Y-65914766D01*
X84987185Y-65450235D01*
X84993252Y-65443650D01*
X84998168Y-65442567D01*
X85181832Y-65442567D01*
X85190105Y-65445994D01*
G37*
%TD.AperFunction*%
%TD*%
%TA.AperFunction,Conductor*%
%TO.N,A12*%
G36*
X101255670Y-66820271D02*
G01*
X101704725Y-67028169D01*
X101710791Y-67034753D01*
X101710666Y-67043144D01*
X101604383Y-67307884D01*
X101598120Y-67314285D01*
X101597884Y-67314383D01*
X101333144Y-67420666D01*
X101324190Y-67420568D01*
X101318169Y-67414725D01*
X101110271Y-66965672D01*
X101109906Y-66956727D01*
X101112614Y-66952488D01*
X101242487Y-66822615D01*
X101250759Y-66819189D01*
X101255670Y-66820271D01*
G37*
%TD.AperFunction*%
%TD*%
%TA.AperFunction,Conductor*%
%TO.N,A12*%
G36*
X111997765Y-66038161D02*
G01*
X112539644Y-66331527D01*
X112687803Y-66411739D01*
X112693447Y-66418691D01*
X112692711Y-66427233D01*
X112095426Y-67629653D01*
X112088677Y-67635538D01*
X112084948Y-67636148D01*
X111899452Y-67636148D01*
X111891179Y-67632721D01*
X111888974Y-67629653D01*
X111291688Y-66427233D01*
X111291076Y-66418299D01*
X111296595Y-66411739D01*
X111986631Y-66038162D01*
X111995537Y-66037238D01*
X111997765Y-66038161D01*
G37*
%TD.AperFunction*%
%TD*%
%TA.AperFunction,Conductor*%
%TO.N,A12*%
G36*
X86365565Y-50798161D02*
G01*
X86907444Y-51091527D01*
X87055603Y-51171739D01*
X87061247Y-51178691D01*
X87060511Y-51187233D01*
X86463226Y-52389653D01*
X86456477Y-52395538D01*
X86452748Y-52396148D01*
X86267252Y-52396148D01*
X86258979Y-52392721D01*
X86256774Y-52389653D01*
X85659488Y-51187233D01*
X85658876Y-51178299D01*
X85664395Y-51171739D01*
X86354431Y-50798162D01*
X86363337Y-50797238D01*
X86365565Y-50798161D01*
G37*
%TD.AperFunction*%
%TD*%
%TA.AperFunction,Conductor*%
%TO.N,A13*%
G36*
X80293621Y-54198718D02*
G01*
X80422305Y-54327402D01*
X80425732Y-54335675D01*
X80424585Y-54340728D01*
X80290331Y-54621090D01*
X80283667Y-54627072D01*
X80281757Y-54627568D01*
X79939085Y-54686385D01*
X79930352Y-54684407D01*
X79928161Y-54682396D01*
X79881069Y-54626545D01*
X79806189Y-54537737D01*
X79803477Y-54529204D01*
X79807593Y-54521251D01*
X79808500Y-54520559D01*
X80278724Y-54197348D01*
X80287480Y-54195487D01*
X80293621Y-54198718D01*
G37*
%TD.AperFunction*%
%TD*%
%TA.AperFunction,Conductor*%
%TO.N,A13*%
G36*
X80014557Y-54738379D02*
G01*
X80276947Y-54850441D01*
X80283210Y-54856842D01*
X80283335Y-54865233D01*
X80112815Y-55329765D01*
X80106748Y-55336350D01*
X80101832Y-55337433D01*
X79918168Y-55337433D01*
X79909895Y-55334006D01*
X79907185Y-55329765D01*
X79736664Y-54865233D01*
X79737030Y-54856285D01*
X79743050Y-54850442D01*
X80005406Y-54738394D01*
X80014359Y-54738297D01*
X80014557Y-54738379D01*
G37*
%TD.AperFunction*%
%TD*%
%TA.AperFunction,Conductor*%
%TO.N,A13*%
G36*
X80110105Y-65445994D02*
G01*
X80112815Y-65450235D01*
X80283335Y-65914766D01*
X80282969Y-65923714D01*
X80276947Y-65929558D01*
X80014595Y-66041604D01*
X80005641Y-66041702D01*
X80005405Y-66041604D01*
X79743052Y-65929558D01*
X79736789Y-65923157D01*
X79736664Y-65914766D01*
X79907185Y-65450235D01*
X79913252Y-65443650D01*
X79918168Y-65442567D01*
X80101832Y-65442567D01*
X80110105Y-65445994D01*
G37*
%TD.AperFunction*%
%TD*%
%TA.AperFunction,Conductor*%
%TO.N,A13*%
G36*
X113876755Y-49735976D02*
G01*
X114751518Y-50030107D01*
X114755472Y-50032375D01*
X114756908Y-50033627D01*
X114760875Y-50041438D01*
X114761015Y-50043061D01*
X114760572Y-50047404D01*
X114538100Y-50795130D01*
X114535969Y-50799167D01*
X114533794Y-50801846D01*
X114528048Y-50805686D01*
X113779705Y-51028342D01*
X113775163Y-51028765D01*
X113773269Y-51028569D01*
X113765527Y-51024467D01*
X113764475Y-51023217D01*
X113762341Y-51019419D01*
X113335895Y-49751143D01*
X113335312Y-49746617D01*
X113335331Y-49746325D01*
X113335528Y-49743450D01*
X113338927Y-49735977D01*
X113467492Y-49607412D01*
X113471287Y-49604878D01*
X113474217Y-49603665D01*
X113482421Y-49603385D01*
X113876755Y-49735976D01*
G37*
%TD.AperFunction*%
%TD*%
%TA.AperFunction,Conductor*%
%TO.N,A13*%
G36*
X81286955Y-50798913D02*
G01*
X81827444Y-51091527D01*
X81973558Y-51170631D01*
X81977067Y-51173542D01*
X81978266Y-51175019D01*
X81980841Y-51183400D01*
X81980701Y-51185023D01*
X81979522Y-51189222D01*
X81384260Y-52387569D01*
X81381475Y-52391179D01*
X81380303Y-52392201D01*
X81379085Y-52393263D01*
X81371394Y-52396148D01*
X81189579Y-52396148D01*
X81185102Y-52395257D01*
X81182169Y-52394042D01*
X81176171Y-52388439D01*
X80580524Y-51189318D01*
X80579330Y-51184918D01*
X80579199Y-51183019D01*
X80581917Y-51174683D01*
X80582970Y-51173432D01*
X80586345Y-51170682D01*
X81272387Y-50799268D01*
X81276742Y-50797922D01*
X81280181Y-50797565D01*
X81286955Y-50798913D01*
G37*
%TD.AperFunction*%
%TD*%
%TA.AperFunction,Conductor*%
%TO.N,A13*%
G36*
X109736313Y-85747574D02*
G01*
X110414051Y-86208363D01*
X110489999Y-86259999D01*
X110490000Y-86260000D01*
X110641751Y-86068939D01*
X110649580Y-86064593D01*
X110658190Y-86067055D01*
X110659186Y-86067944D01*
X110783059Y-86191817D01*
X110786486Y-86200090D01*
X110783059Y-86208363D01*
X110562356Y-86429065D01*
X110558560Y-86431601D01*
X110490002Y-86459998D01*
X109736313Y-86972425D01*
X109727545Y-86974242D01*
X109720726Y-86970214D01*
X109221331Y-86367463D01*
X109218692Y-86358908D01*
X109221331Y-86352537D01*
X109720727Y-85749784D01*
X109728643Y-85745601D01*
X109736313Y-85747574D01*
G37*
%TD.AperFunction*%
%TD*%
%TA.AperFunction,Conductor*%
%TO.N,A14*%
G36*
X100605809Y-71009431D02*
G01*
X100611830Y-71015274D01*
X100790794Y-71401831D01*
X100819727Y-71464324D01*
X100820093Y-71473272D01*
X100817383Y-71477513D01*
X100687513Y-71607383D01*
X100679240Y-71610810D01*
X100674325Y-71609727D01*
X100225274Y-71401830D01*
X100219208Y-71395246D01*
X100219332Y-71386856D01*
X100325616Y-71122114D01*
X100331879Y-71115714D01*
X100332084Y-71115628D01*
X100596856Y-71009333D01*
X100605809Y-71009431D01*
G37*
%TD.AperFunction*%
%TD*%
%TA.AperFunction,Conductor*%
%TO.N,A14*%
G36*
X82650105Y-70525994D02*
G01*
X82652815Y-70530235D01*
X82823335Y-70994766D01*
X82822969Y-71003714D01*
X82816947Y-71009558D01*
X82554595Y-71121604D01*
X82545641Y-71121702D01*
X82545405Y-71121604D01*
X82283052Y-71009558D01*
X82276789Y-71003157D01*
X82276664Y-70994766D01*
X82447185Y-70530235D01*
X82453252Y-70523650D01*
X82458168Y-70522567D01*
X82641832Y-70522567D01*
X82650105Y-70525994D01*
G37*
%TD.AperFunction*%
%TD*%
%TA.AperFunction,Conductor*%
%TO.N,A14*%
G36*
X82038931Y-42951429D02*
G01*
X82046671Y-42955531D01*
X82047722Y-42956780D01*
X82049858Y-42960581D01*
X82476303Y-44228855D01*
X82476886Y-44233381D01*
X82476670Y-44236546D01*
X82473270Y-44244022D01*
X82344709Y-44372583D01*
X82340915Y-44375119D01*
X82337985Y-44376333D01*
X82329777Y-44376614D01*
X81923467Y-44239996D01*
X81060682Y-43949892D01*
X81056724Y-43947622D01*
X81055289Y-43946370D01*
X81051323Y-43938560D01*
X81051183Y-43936934D01*
X81051625Y-43932598D01*
X81274100Y-43184864D01*
X81276229Y-43180830D01*
X81278406Y-43178149D01*
X81284149Y-43174312D01*
X82032497Y-42951655D01*
X82037031Y-42951232D01*
X82038931Y-42951429D01*
G37*
%TD.AperFunction*%
%TD*%
%TA.AperFunction,Conductor*%
%TO.N,A14*%
G36*
X104240105Y-82590994D02*
G01*
X104242815Y-82595235D01*
X104413335Y-83059766D01*
X104412969Y-83068714D01*
X104406947Y-83074558D01*
X104144595Y-83186604D01*
X104135641Y-83186702D01*
X104135405Y-83186604D01*
X103873052Y-83074558D01*
X103866789Y-83068157D01*
X103866664Y-83059766D01*
X104037185Y-82595235D01*
X104043252Y-82588650D01*
X104048168Y-82587567D01*
X104231832Y-82587567D01*
X104240105Y-82590994D01*
G37*
%TD.AperFunction*%
%TD*%
%TA.AperFunction,Conductor*%
%TO.N,/~{T_SEL}*%
G36*
X78745565Y-43178161D02*
G01*
X79287444Y-43471527D01*
X79435603Y-43551739D01*
X79441247Y-43558691D01*
X79440511Y-43567233D01*
X78843226Y-44769653D01*
X78836477Y-44775538D01*
X78832748Y-44776148D01*
X78647252Y-44776148D01*
X78638979Y-44772721D01*
X78636774Y-44769653D01*
X78039488Y-43567233D01*
X78038876Y-43558299D01*
X78044395Y-43551739D01*
X78734431Y-43178162D01*
X78743337Y-43177238D01*
X78745565Y-43178161D01*
G37*
%TD.AperFunction*%
%TD*%
%TA.AperFunction,Conductor*%
%TO.N,/~{T_SEL}*%
G36*
X78841021Y-49207279D02*
G01*
X78843226Y-49210347D01*
X79440511Y-50412766D01*
X79441123Y-50421700D01*
X79435603Y-50428260D01*
X78745570Y-50801836D01*
X78736663Y-50802761D01*
X78734430Y-50801836D01*
X78044396Y-50428260D01*
X78038752Y-50421308D01*
X78039488Y-50412766D01*
X78636774Y-49210347D01*
X78643523Y-49204462D01*
X78647252Y-49203852D01*
X78832748Y-49203852D01*
X78841021Y-49207279D01*
G37*
%TD.AperFunction*%
%TD*%
%TA.AperFunction,Conductor*%
%TO.N,/~{T_SEL}*%
G36*
X79893714Y-52227030D02*
G01*
X79899558Y-52233052D01*
X80011604Y-52495405D01*
X80011702Y-52504359D01*
X80011604Y-52504595D01*
X79899558Y-52766947D01*
X79893157Y-52773210D01*
X79884766Y-52773335D01*
X79420235Y-52602814D01*
X79413650Y-52596747D01*
X79412567Y-52591831D01*
X79412567Y-52408168D01*
X79415994Y-52399895D01*
X79420234Y-52397185D01*
X79884766Y-52226664D01*
X79893714Y-52227030D01*
G37*
%TD.AperFunction*%
%TD*%
%TA.AperFunction,Conductor*%
%TO.N,/~{T_SEL}*%
G36*
X78747462Y-50801331D02*
G01*
X79350214Y-51300726D01*
X79354398Y-51308643D01*
X79352425Y-51316313D01*
X78840000Y-52069999D01*
X78840000Y-52070000D01*
X78931099Y-52142356D01*
X79031059Y-52221751D01*
X79035406Y-52229580D01*
X79032944Y-52238190D01*
X79032055Y-52239186D01*
X78908183Y-52363059D01*
X78899910Y-52366486D01*
X78891637Y-52363059D01*
X78670934Y-52142356D01*
X78668398Y-52138560D01*
X78640000Y-52070000D01*
X78127574Y-51316313D01*
X78125757Y-51307545D01*
X78129783Y-51300727D01*
X78732536Y-50801331D01*
X78741092Y-50798692D01*
X78747462Y-50801331D01*
G37*
%TD.AperFunction*%
%TD*%
%TA.AperFunction,Conductor*%
%TO.N,VCC*%
G36*
X138347361Y-71114763D02*
G01*
X138354312Y-71120406D01*
X138355237Y-71122639D01*
X138579006Y-71874724D01*
X138578081Y-71883631D01*
X138571521Y-71889151D01*
X137298937Y-72317046D01*
X137290003Y-72316434D01*
X137286935Y-72314229D01*
X137155770Y-72183064D01*
X137152343Y-72174791D01*
X137152953Y-72171062D01*
X137508125Y-71114762D01*
X137580848Y-70898477D01*
X137586733Y-70891729D01*
X137595274Y-70890993D01*
X138347361Y-71114763D01*
G37*
%TD.AperFunction*%
%TD*%
%TA.AperFunction,Conductor*%
%TO.N,VCC*%
G36*
X71830339Y-44123577D02*
G01*
X71830653Y-44124218D01*
X72422097Y-45434500D01*
X72422377Y-45443451D01*
X72419706Y-45447587D01*
X72077587Y-45789706D01*
X72069314Y-45793133D01*
X72064500Y-45792097D01*
X70754218Y-45200653D01*
X70748088Y-45194126D01*
X70748368Y-45185175D01*
X70748675Y-45184547D01*
X71114880Y-44489772D01*
X71119772Y-44484880D01*
X71814535Y-44118681D01*
X71823450Y-44117856D01*
X71830339Y-44123577D01*
G37*
%TD.AperFunction*%
%TD*%
%TA.AperFunction,Conductor*%
%TO.N,VCC*%
G36*
X87250447Y-80016112D02*
G01*
X87251280Y-80016456D01*
X87252094Y-80016794D01*
X87255258Y-80019957D01*
X87258424Y-80023121D01*
X87258426Y-80023124D01*
X87259108Y-80024770D01*
X87259999Y-80029249D01*
X87259999Y-80476521D01*
X87259773Y-80478808D01*
X87259331Y-80481026D01*
X87258666Y-80483216D01*
X87230710Y-80550705D01*
X87230677Y-80550872D01*
X87230660Y-80551251D01*
X87157439Y-81344426D01*
X87156140Y-81348805D01*
X87155308Y-81350384D01*
X87148420Y-81356106D01*
X87146729Y-81356630D01*
X87142174Y-81357103D01*
X86368536Y-81284553D01*
X86364164Y-81283249D01*
X86362029Y-81282121D01*
X86356687Y-81276251D01*
X86356334Y-81275400D01*
X86355499Y-81272026D01*
X86287854Y-80550705D01*
X86282896Y-80497829D01*
X86283364Y-80493291D01*
X86283891Y-80491585D01*
X86289600Y-80484695D01*
X86291169Y-80483866D01*
X86295556Y-80482561D01*
X86726854Y-80442747D01*
X87088762Y-80409340D01*
X87089218Y-80409297D01*
X87089286Y-80409291D01*
X87089286Y-80409290D01*
X87089288Y-80409290D01*
X87061105Y-80030105D01*
X87061662Y-80025576D01*
X87062219Y-80023887D01*
X87068062Y-80017104D01*
X87068681Y-80016793D01*
X87069321Y-80016471D01*
X87074580Y-80015222D01*
X87245972Y-80015222D01*
X87250447Y-80016112D01*
G37*
%TD.AperFunction*%
%TD*%
%TA.AperFunction,Conductor*%
%TO.N,VCC*%
G36*
X142456793Y-43608592D02*
G01*
X142457685Y-43609105D01*
X142462223Y-43613831D01*
X143227762Y-45079586D01*
X143229045Y-45083967D01*
X143229292Y-45086748D01*
X143227646Y-45093844D01*
X143227474Y-45094128D01*
X143226644Y-45095185D01*
X143226611Y-45095292D01*
X143226526Y-45095336D01*
X143225739Y-45096340D01*
X142885051Y-45437028D01*
X142881256Y-45439564D01*
X142877884Y-45440961D01*
X142871738Y-45441732D01*
X141899972Y-45301735D01*
X141895667Y-45300216D01*
X141893639Y-45299012D01*
X141888563Y-45292799D01*
X141888237Y-45291863D01*
X141887591Y-45288343D01*
X141882139Y-45093844D01*
X141853484Y-44071537D01*
X141854247Y-44067041D01*
X141855534Y-44063670D01*
X141859325Y-44058575D01*
X142442106Y-43609925D01*
X142446195Y-43607900D01*
X142447915Y-43607437D01*
X142456793Y-43608592D01*
G37*
%TD.AperFunction*%
%TD*%
%TA.AperFunction,Conductor*%
%TO.N,VCC*%
G36*
X137838746Y-77267669D02*
G01*
X137844233Y-77274137D01*
X138231688Y-78395738D01*
X138231150Y-78404676D01*
X138228902Y-78407831D01*
X138097831Y-78538902D01*
X138089558Y-78542329D01*
X138085738Y-78541688D01*
X136964137Y-78154233D01*
X136957436Y-78148292D01*
X136956742Y-78139841D01*
X137155066Y-77472943D01*
X137160708Y-77465992D01*
X137162936Y-77465068D01*
X137829841Y-77266742D01*
X137838746Y-77267669D01*
G37*
%TD.AperFunction*%
%TD*%
%TA.AperFunction,Conductor*%
%TO.N,VCC*%
G36*
X138774258Y-78938310D02*
G01*
X139895862Y-79325766D01*
X139902563Y-79331707D01*
X139903257Y-79340160D01*
X139704934Y-80007054D01*
X139699291Y-80014007D01*
X139697054Y-80014934D01*
X139030160Y-80213257D01*
X139021253Y-80212330D01*
X139015766Y-80205862D01*
X138628311Y-79084259D01*
X138628849Y-79075323D01*
X138631094Y-79072171D01*
X138762169Y-78941096D01*
X138770441Y-78937670D01*
X138774258Y-78938310D01*
G37*
%TD.AperFunction*%
%TD*%
%TA.AperFunction,Conductor*%
%TO.N,VCC*%
G36*
X104622388Y-54287279D02*
G01*
X104625059Y-54291415D01*
X105133354Y-55636138D01*
X105133074Y-55645089D01*
X105126547Y-55651219D01*
X105125871Y-55651451D01*
X104375661Y-55883780D01*
X104368739Y-55883780D01*
X103618528Y-55651451D01*
X103611639Y-55645730D01*
X103610813Y-55636814D01*
X103611039Y-55636154D01*
X104119341Y-54291414D01*
X104125471Y-54284888D01*
X104130285Y-54283852D01*
X104614115Y-54283852D01*
X104622388Y-54287279D01*
G37*
%TD.AperFunction*%
%TD*%
%TA.AperFunction,Conductor*%
%TO.N,VCC*%
G36*
X72077587Y-55890293D02*
G01*
X72419706Y-56232412D01*
X72423133Y-56240685D01*
X72422097Y-56245499D01*
X71830653Y-57555781D01*
X71824126Y-57561911D01*
X71815175Y-57561631D01*
X71814534Y-57561317D01*
X71119774Y-57195120D01*
X71114879Y-57190225D01*
X70748682Y-56495465D01*
X70747856Y-56486549D01*
X70753577Y-56479660D01*
X70754204Y-56479352D01*
X72064501Y-55887901D01*
X72073451Y-55887622D01*
X72077587Y-55890293D01*
G37*
%TD.AperFunction*%
%TD*%
%TA.AperFunction,Conductor*%
%TO.N,VCC*%
G36*
X140761968Y-43606960D02*
G01*
X141597712Y-44441722D01*
X141601144Y-44449993D01*
X141597722Y-44458268D01*
X141597712Y-44458278D01*
X140761968Y-45293039D01*
X140753693Y-45296461D01*
X140746953Y-45294320D01*
X140745138Y-45293039D01*
X139909953Y-44703496D01*
X139905170Y-44695925D01*
X139905000Y-44693937D01*
X139905000Y-44206062D01*
X139908427Y-44197789D01*
X139909947Y-44196507D01*
X140746955Y-43605678D01*
X140755688Y-43603708D01*
X140761968Y-43606960D01*
G37*
%TD.AperFunction*%
%TD*%
%TA.AperFunction,Conductor*%
%TO.N,VCC*%
G36*
X71830339Y-56823577D02*
G01*
X71830653Y-56824218D01*
X72422097Y-58134500D01*
X72422377Y-58143451D01*
X72419706Y-58147587D01*
X72077587Y-58489706D01*
X72069314Y-58493133D01*
X72064500Y-58492097D01*
X70754218Y-57900653D01*
X70748088Y-57894126D01*
X70748368Y-57885175D01*
X70748675Y-57884547D01*
X71114880Y-57189772D01*
X71119772Y-57184880D01*
X71814535Y-56818681D01*
X71823450Y-56817856D01*
X71830339Y-56823577D01*
G37*
%TD.AperFunction*%
%TD*%
%TA.AperFunction,Conductor*%
%TO.N,VCC*%
G36*
X135453779Y-42852948D02*
G01*
X135461906Y-42856243D01*
X135463076Y-42857376D01*
X135465590Y-42860944D01*
X136093560Y-44244115D01*
X136094600Y-44248552D01*
X136094643Y-44249810D01*
X136091501Y-44258196D01*
X136083350Y-44261903D01*
X136083343Y-44261903D01*
X136082273Y-44261939D01*
X136077403Y-44261055D01*
X135961767Y-44213156D01*
X135961767Y-44685972D01*
X135960876Y-44690451D01*
X135960194Y-44692097D01*
X135953866Y-44698426D01*
X135953285Y-44698667D01*
X135952219Y-44699108D01*
X135947740Y-44700000D01*
X135933479Y-44700000D01*
X135931196Y-44699775D01*
X135928972Y-44699332D01*
X135926782Y-44698667D01*
X135753505Y-44626893D01*
X135753339Y-44626823D01*
X135753130Y-44626732D01*
X135752961Y-44626657D01*
X134341040Y-43985634D01*
X134337331Y-43982972D01*
X134336033Y-43981584D01*
X134332881Y-43973409D01*
X134332908Y-43971767D01*
X134333789Y-43967504D01*
X134656551Y-43185928D01*
X134659075Y-43182142D01*
X134662111Y-43179098D01*
X134665916Y-43176557D01*
X135447404Y-42853831D01*
X135451877Y-42852946D01*
X135453779Y-42852948D01*
G37*
%TD.AperFunction*%
%TD*%
%TA.AperFunction,Conductor*%
%TO.N,VCC*%
G36*
X74423631Y-82361918D02*
G01*
X74429151Y-82368478D01*
X74857046Y-83641062D01*
X74856434Y-83649996D01*
X74854229Y-83653064D01*
X74723064Y-83784229D01*
X74714791Y-83787656D01*
X74711062Y-83787046D01*
X73438478Y-83359151D01*
X73431729Y-83353266D01*
X73430993Y-83344725D01*
X73654763Y-82592637D01*
X73660406Y-82585687D01*
X73662630Y-82584765D01*
X74414725Y-82360993D01*
X74423631Y-82361918D01*
G37*
%TD.AperFunction*%
%TD*%
%TA.AperFunction,Conductor*%
%TO.N,VCC*%
G36*
X108663672Y-71348549D02*
G01*
X108670560Y-71354269D01*
X108671386Y-71363185D01*
X108671154Y-71363861D01*
X108162859Y-72708585D01*
X108156729Y-72715112D01*
X108151915Y-72716148D01*
X107668085Y-72716148D01*
X107659812Y-72712721D01*
X107657141Y-72708585D01*
X107148845Y-71363861D01*
X107149125Y-71354910D01*
X107155652Y-71348780D01*
X107156299Y-71348557D01*
X107906542Y-71116219D01*
X107913458Y-71116219D01*
X108663672Y-71348549D01*
G37*
%TD.AperFunction*%
%TD*%
%TA.AperFunction,Conductor*%
%TO.N,VCC*%
G36*
X74617587Y-81290293D02*
G01*
X74959706Y-81632412D01*
X74963133Y-81640685D01*
X74962097Y-81645499D01*
X74370653Y-82955781D01*
X74364126Y-82961911D01*
X74355175Y-82961631D01*
X74354534Y-82961317D01*
X73659774Y-82595120D01*
X73654879Y-82590225D01*
X73288682Y-81895465D01*
X73287856Y-81886549D01*
X73293577Y-81879660D01*
X73294204Y-81879352D01*
X74604501Y-81287901D01*
X74613451Y-81287622D01*
X74617587Y-81290293D01*
G37*
%TD.AperFunction*%
%TD*%
%TA.AperFunction,Conductor*%
%TO.N,VCC*%
G36*
X104426504Y-43217588D02*
G01*
X104434205Y-43222156D01*
X104436498Y-43230159D01*
X104390910Y-43766723D01*
X104386795Y-43774677D01*
X104379252Y-43777433D01*
X103900748Y-43777433D01*
X103892475Y-43774006D01*
X103889090Y-43766724D01*
X103889090Y-43766723D01*
X103843501Y-43230158D01*
X103846215Y-43221626D01*
X103853494Y-43217588D01*
X104138336Y-43176672D01*
X104141664Y-43176672D01*
X104426504Y-43217588D01*
G37*
%TD.AperFunction*%
%TD*%
%TA.AperFunction,Conductor*%
%TO.N,VCC*%
G36*
X105082539Y-55513577D02*
G01*
X105082853Y-55514218D01*
X105674297Y-56824500D01*
X105674577Y-56833451D01*
X105671906Y-56837587D01*
X105329787Y-57179706D01*
X105321514Y-57183133D01*
X105316700Y-57182097D01*
X104006418Y-56590653D01*
X104000288Y-56584126D01*
X104000568Y-56575175D01*
X104000875Y-56574547D01*
X104367080Y-55879772D01*
X104371972Y-55874880D01*
X105066735Y-55508681D01*
X105075650Y-55507856D01*
X105082539Y-55513577D01*
G37*
%TD.AperFunction*%
%TD*%
%TA.AperFunction,Conductor*%
%TO.N,VCC*%
G36*
X108275497Y-74897901D02*
G01*
X109585781Y-75489346D01*
X109591911Y-75495873D01*
X109591631Y-75504824D01*
X109591317Y-75505465D01*
X109225120Y-76200225D01*
X109220225Y-76205120D01*
X108525465Y-76571317D01*
X108516549Y-76572143D01*
X108509660Y-76566422D01*
X108509346Y-76565781D01*
X107917901Y-75255498D01*
X107917622Y-75246548D01*
X107920291Y-75242414D01*
X108262413Y-74900292D01*
X108270685Y-74896866D01*
X108275497Y-74897901D01*
G37*
%TD.AperFunction*%
%TD*%
%TA.AperFunction,Conductor*%
%TO.N,VCC*%
G36*
X105329787Y-54580293D02*
G01*
X105671906Y-54922412D01*
X105675333Y-54930685D01*
X105674297Y-54935499D01*
X105082853Y-56245781D01*
X105076326Y-56251911D01*
X105067375Y-56251631D01*
X105066734Y-56251317D01*
X104371974Y-55885120D01*
X104367079Y-55880225D01*
X104000882Y-55185465D01*
X104000056Y-55176549D01*
X104005777Y-55169660D01*
X104006404Y-55169352D01*
X105316701Y-54577901D01*
X105325651Y-54577622D01*
X105329787Y-54580293D01*
G37*
%TD.AperFunction*%
%TD*%
%TA.AperFunction,Conductor*%
%TO.N,VCC*%
G36*
X108757024Y-50428368D02*
G01*
X108757665Y-50428682D01*
X109452425Y-50794879D01*
X109457320Y-50799774D01*
X109823517Y-51494534D01*
X109824343Y-51503450D01*
X109818622Y-51510339D01*
X109817981Y-51510653D01*
X108507699Y-52102097D01*
X108498748Y-52102377D01*
X108494612Y-52099706D01*
X108152493Y-51757587D01*
X108149066Y-51749314D01*
X108150101Y-51744503D01*
X108741546Y-50434217D01*
X108748073Y-50428088D01*
X108757024Y-50428368D01*
G37*
%TD.AperFunction*%
%TD*%
%TA.AperFunction,Conductor*%
%TO.N,VCC*%
G36*
X108160188Y-69527279D02*
G01*
X108162859Y-69531415D01*
X108671154Y-70876138D01*
X108670874Y-70885089D01*
X108664347Y-70891219D01*
X108663671Y-70891451D01*
X107913461Y-71123780D01*
X107906539Y-71123780D01*
X107156328Y-70891451D01*
X107149439Y-70885730D01*
X107148613Y-70876814D01*
X107148839Y-70876154D01*
X107657141Y-69531414D01*
X107663271Y-69524888D01*
X107668085Y-69523852D01*
X108151915Y-69523852D01*
X108160188Y-69527279D01*
G37*
%TD.AperFunction*%
%TD*%
%TA.AperFunction,Conductor*%
%TO.N,VCC*%
G36*
X137260954Y-76054452D02*
G01*
X137263202Y-76057607D01*
X137782321Y-77124670D01*
X137782859Y-77133608D01*
X137777372Y-77140076D01*
X137165572Y-77471407D01*
X137156665Y-77472334D01*
X137154428Y-77471407D01*
X136542627Y-77140076D01*
X136536984Y-77133123D01*
X136537678Y-77124670D01*
X137056798Y-76057607D01*
X137063499Y-76051666D01*
X137067319Y-76051025D01*
X137252681Y-76051025D01*
X137260954Y-76054452D01*
G37*
%TD.AperFunction*%
%TD*%
%TA.AperFunction,Conductor*%
%TO.N,A7*%
G36*
X115574557Y-53338379D02*
G01*
X115836947Y-53450441D01*
X115843210Y-53456842D01*
X115843335Y-53465233D01*
X115672815Y-53929765D01*
X115666748Y-53936350D01*
X115661832Y-53937433D01*
X115478168Y-53937433D01*
X115469895Y-53934006D01*
X115467185Y-53929765D01*
X115296664Y-53465233D01*
X115297030Y-53456285D01*
X115303050Y-53450442D01*
X115565406Y-53338394D01*
X115574359Y-53338297D01*
X115574557Y-53338379D01*
G37*
%TD.AperFunction*%
%TD*%
%TA.AperFunction,Conductor*%
%TO.N,A7*%
G36*
X115666573Y-64877149D02*
G01*
X115670000Y-64885422D01*
X115670000Y-64999874D01*
X115669109Y-65004351D01*
X115640716Y-65072897D01*
X115640709Y-65072915D01*
X115301003Y-66260858D01*
X115295434Y-66267870D01*
X115286537Y-66268890D01*
X115286417Y-66268855D01*
X114534839Y-66045237D01*
X114527887Y-66039593D01*
X114526964Y-66037365D01*
X114303344Y-65285781D01*
X114304269Y-65276875D01*
X114311220Y-65271231D01*
X115499289Y-64931489D01*
X115499288Y-64931488D01*
X115499289Y-64931488D01*
X115478615Y-64890713D01*
X115477930Y-64881784D01*
X115483759Y-64874987D01*
X115489050Y-64873722D01*
X115658300Y-64873722D01*
X115666573Y-64877149D01*
G37*
%TD.AperFunction*%
%TD*%
%TA.AperFunction,Conductor*%
%TO.N,A7*%
G36*
X76302269Y-61903427D02*
G01*
X76303501Y-61904878D01*
X76920988Y-62765158D01*
X76923028Y-62773877D01*
X76919762Y-62780247D01*
X76208279Y-63492709D01*
X76200008Y-63496142D01*
X76191733Y-63492721D01*
X76191721Y-63492709D01*
X75480237Y-62780247D01*
X75476816Y-62771972D01*
X75479010Y-62765160D01*
X76096499Y-61904878D01*
X76104107Y-61900155D01*
X76106004Y-61900000D01*
X76293996Y-61900000D01*
X76302269Y-61903427D01*
G37*
%TD.AperFunction*%
%TD*%
%TA.AperFunction,Conductor*%
%TO.N,A7*%
G36*
X76202645Y-58483000D02*
G01*
X76203757Y-58484143D01*
X76423403Y-58743195D01*
X76426140Y-58751722D01*
X76425398Y-58754965D01*
X76302886Y-59073215D01*
X76296716Y-59079705D01*
X76291967Y-59080712D01*
X76109431Y-59080712D01*
X76101158Y-59077285D01*
X76097998Y-59071496D01*
X75975024Y-58505529D01*
X75976616Y-58496717D01*
X75983973Y-58491612D01*
X75985819Y-58491362D01*
X76194198Y-58480027D01*
X76202645Y-58483000D01*
G37*
%TD.AperFunction*%
%TD*%
%TA.AperFunction,Conductor*%
%TO.N,A6*%
G36*
X78515809Y-59369532D02*
G01*
X78521830Y-59375375D01*
X78700794Y-59761932D01*
X78729727Y-59824425D01*
X78730093Y-59833373D01*
X78727383Y-59837614D01*
X78597513Y-59967484D01*
X78589240Y-59970911D01*
X78584325Y-59969828D01*
X78135274Y-59761931D01*
X78129208Y-59755347D01*
X78129332Y-59746957D01*
X78235616Y-59482215D01*
X78241879Y-59475815D01*
X78242084Y-59475729D01*
X78506856Y-59369434D01*
X78515809Y-59369532D01*
G37*
%TD.AperFunction*%
%TD*%
%TA.AperFunction,Conductor*%
%TO.N,A6*%
G36*
X118114557Y-53338379D02*
G01*
X118376947Y-53450441D01*
X118383210Y-53456842D01*
X118383335Y-53465233D01*
X118212815Y-53929765D01*
X118206748Y-53936350D01*
X118201832Y-53937433D01*
X118018168Y-53937433D01*
X118009895Y-53934006D01*
X118007185Y-53929765D01*
X117836664Y-53465233D01*
X117837030Y-53456285D01*
X117843050Y-53450442D01*
X118105406Y-53338394D01*
X118114359Y-53338297D01*
X118114557Y-53338379D01*
G37*
%TD.AperFunction*%
%TD*%
%TA.AperFunction,Conductor*%
%TO.N,A6*%
G36*
X118206573Y-64877149D02*
G01*
X118210000Y-64885422D01*
X118210000Y-64999874D01*
X118209109Y-65004351D01*
X118180716Y-65072897D01*
X118180709Y-65072915D01*
X117841003Y-66260858D01*
X117835434Y-66267870D01*
X117826537Y-66268890D01*
X117826417Y-66268855D01*
X117074839Y-66045237D01*
X117067887Y-66039593D01*
X117066964Y-66037365D01*
X116843344Y-65285781D01*
X116844269Y-65276875D01*
X116851220Y-65271231D01*
X118039289Y-64931489D01*
X118039288Y-64931488D01*
X118039289Y-64931488D01*
X118018615Y-64890713D01*
X118017930Y-64881784D01*
X118023759Y-64874987D01*
X118029050Y-64873722D01*
X118198300Y-64873722D01*
X118206573Y-64877149D01*
G37*
%TD.AperFunction*%
%TD*%
%TA.AperFunction,Conductor*%
%TO.N,A6*%
G36*
X78841021Y-61907279D02*
G01*
X78843226Y-61910347D01*
X79440511Y-63112766D01*
X79441123Y-63121700D01*
X79435603Y-63128260D01*
X78745570Y-63501836D01*
X78736663Y-63502761D01*
X78734430Y-63501836D01*
X78044396Y-63128260D01*
X78038752Y-63121308D01*
X78039488Y-63112766D01*
X78636774Y-61910347D01*
X78643523Y-61904462D01*
X78647252Y-61903852D01*
X78832748Y-61903852D01*
X78841021Y-61907279D01*
G37*
%TD.AperFunction*%
%TD*%
%TA.AperFunction,Conductor*%
%TO.N,A4*%
G36*
X123286573Y-64877149D02*
G01*
X123290000Y-64885422D01*
X123290000Y-64999874D01*
X123289109Y-65004351D01*
X123260716Y-65072897D01*
X123260709Y-65072915D01*
X122921003Y-66260858D01*
X122915434Y-66267870D01*
X122906537Y-66268890D01*
X122906417Y-66268855D01*
X122154839Y-66045237D01*
X122147887Y-66039593D01*
X122146964Y-66037365D01*
X121923344Y-65285781D01*
X121924269Y-65276875D01*
X121931220Y-65271231D01*
X123119289Y-64931489D01*
X123119288Y-64931488D01*
X123119289Y-64931488D01*
X123098615Y-64890713D01*
X123097930Y-64881784D01*
X123103759Y-64874987D01*
X123109050Y-64873722D01*
X123278300Y-64873722D01*
X123286573Y-64877149D01*
G37*
%TD.AperFunction*%
%TD*%
%TA.AperFunction,Conductor*%
%TO.N,A4*%
G36*
X123194557Y-53338379D02*
G01*
X123456947Y-53450441D01*
X123463210Y-53456842D01*
X123463335Y-53465233D01*
X123292815Y-53929765D01*
X123286748Y-53936350D01*
X123281832Y-53937433D01*
X123098168Y-53937433D01*
X123089895Y-53934006D01*
X123087185Y-53929765D01*
X122916664Y-53465233D01*
X122917030Y-53456285D01*
X122923050Y-53450442D01*
X123185406Y-53338394D01*
X123194359Y-53338297D01*
X123194557Y-53338379D01*
G37*
%TD.AperFunction*%
%TD*%
%TA.AperFunction,Conductor*%
%TO.N,A4*%
G36*
X81381021Y-61907279D02*
G01*
X81383226Y-61910347D01*
X81980511Y-63112766D01*
X81981123Y-63121700D01*
X81975603Y-63128260D01*
X81285570Y-63501836D01*
X81276663Y-63502761D01*
X81274430Y-63501836D01*
X80584396Y-63128260D01*
X80578752Y-63121308D01*
X80579488Y-63112766D01*
X81176774Y-61910347D01*
X81183523Y-61904462D01*
X81187252Y-61903852D01*
X81372748Y-61903852D01*
X81381021Y-61907279D01*
G37*
%TD.AperFunction*%
%TD*%
%TA.AperFunction,Conductor*%
%TO.N,A4*%
G36*
X81284557Y-58418379D02*
G01*
X81546947Y-58530441D01*
X81553210Y-58536842D01*
X81553335Y-58545233D01*
X81382815Y-59009765D01*
X81376748Y-59016350D01*
X81371832Y-59017433D01*
X81188168Y-59017433D01*
X81179895Y-59014006D01*
X81177185Y-59009765D01*
X81006664Y-58545233D01*
X81007030Y-58536285D01*
X81013050Y-58530442D01*
X81275406Y-58418394D01*
X81284359Y-58418297D01*
X81284557Y-58418379D01*
G37*
%TD.AperFunction*%
%TD*%
%TA.AperFunction,Conductor*%
%TO.N,~{IORQ}*%
G36*
X86015670Y-78250271D02*
G01*
X86464725Y-78458169D01*
X86470791Y-78464753D01*
X86470666Y-78473144D01*
X86364383Y-78737884D01*
X86358120Y-78744285D01*
X86357884Y-78744383D01*
X86093144Y-78850666D01*
X86084190Y-78850568D01*
X86078169Y-78844725D01*
X85870271Y-78395672D01*
X85869906Y-78386727D01*
X85872614Y-78382488D01*
X86002487Y-78252615D01*
X86010759Y-78249189D01*
X86015670Y-78250271D01*
G37*
%TD.AperFunction*%
%TD*%
%TA.AperFunction,Conductor*%
%TO.N,~{IORQ}*%
G36*
X83825565Y-63498161D02*
G01*
X84367444Y-63791527D01*
X84515603Y-63871739D01*
X84521247Y-63878691D01*
X84520511Y-63887233D01*
X83923226Y-65089653D01*
X83916477Y-65095538D01*
X83912748Y-65096148D01*
X83727252Y-65096148D01*
X83718979Y-65092721D01*
X83716774Y-65089653D01*
X83119488Y-63887233D01*
X83118876Y-63878299D01*
X83124395Y-63871739D01*
X83814431Y-63498162D01*
X83823337Y-63497238D01*
X83825565Y-63498161D01*
G37*
%TD.AperFunction*%
%TD*%
%TA.AperFunction,Conductor*%
%TO.N,~{WR}*%
G36*
X86365565Y-63498161D02*
G01*
X86907444Y-63791527D01*
X87055603Y-63871739D01*
X87061247Y-63878691D01*
X87060511Y-63887233D01*
X86463226Y-65089653D01*
X86456477Y-65095538D01*
X86452748Y-65096148D01*
X86267252Y-65096148D01*
X86258979Y-65092721D01*
X86256774Y-65089653D01*
X85659488Y-63887233D01*
X85658876Y-63878299D01*
X85664395Y-63871739D01*
X86354431Y-63498162D01*
X86363337Y-63497238D01*
X86365565Y-63498161D01*
G37*
%TD.AperFunction*%
%TD*%
%TA.AperFunction,Conductor*%
%TO.N,~{WR}*%
G36*
X111997765Y-50798161D02*
G01*
X112539644Y-51091527D01*
X112687803Y-51171739D01*
X112693447Y-51178691D01*
X112692711Y-51187233D01*
X112095426Y-52389653D01*
X112088677Y-52395538D01*
X112084948Y-52396148D01*
X111899452Y-52396148D01*
X111891179Y-52392721D01*
X111888974Y-52389653D01*
X111291688Y-51187233D01*
X111291076Y-51178299D01*
X111296595Y-51171739D01*
X111986631Y-50798162D01*
X111995537Y-50797238D01*
X111997765Y-50798161D01*
G37*
%TD.AperFunction*%
%TD*%
%TA.AperFunction,Conductor*%
%TO.N,~{WR}*%
G36*
X62090554Y-77473022D02*
G01*
X62093582Y-77475207D01*
X62224792Y-77606417D01*
X62228219Y-77614690D01*
X62227623Y-77618376D01*
X61776971Y-78975979D01*
X61771112Y-78982751D01*
X61762530Y-78983507D01*
X60962469Y-78745407D01*
X60955517Y-78739763D01*
X60954592Y-78737530D01*
X60716492Y-77937469D01*
X60717417Y-77928562D01*
X60724018Y-77923028D01*
X62081625Y-77472376D01*
X62090554Y-77473022D01*
G37*
%TD.AperFunction*%
%TD*%
%TA.AperFunction,Conductor*%
%TO.N,~{WR}*%
G36*
X64774557Y-68578379D02*
G01*
X65036947Y-68690441D01*
X65043210Y-68696842D01*
X65043335Y-68705233D01*
X64872815Y-69169765D01*
X64866748Y-69176350D01*
X64861832Y-69177433D01*
X64678168Y-69177433D01*
X64669895Y-69174006D01*
X64667185Y-69169765D01*
X64496664Y-68705233D01*
X64497030Y-68696285D01*
X64503050Y-68690442D01*
X64765406Y-68578394D01*
X64774359Y-68578297D01*
X64774557Y-68578379D01*
G37*
%TD.AperFunction*%
%TD*%
%TA.AperFunction,Conductor*%
%TO.N,A5*%
G36*
X120746573Y-64877149D02*
G01*
X120750000Y-64885422D01*
X120750000Y-64999874D01*
X120749109Y-65004351D01*
X120720716Y-65072897D01*
X120720709Y-65072915D01*
X120381003Y-66260858D01*
X120375434Y-66267870D01*
X120366537Y-66268890D01*
X120366417Y-66268855D01*
X119614839Y-66045237D01*
X119607887Y-66039593D01*
X119606964Y-66037365D01*
X119383344Y-65285781D01*
X119384269Y-65276875D01*
X119391220Y-65271231D01*
X120579289Y-64931489D01*
X120579288Y-64931488D01*
X120579289Y-64931488D01*
X120558615Y-64890713D01*
X120557930Y-64881784D01*
X120563759Y-64874987D01*
X120569050Y-64873722D01*
X120738300Y-64873722D01*
X120746573Y-64877149D01*
G37*
%TD.AperFunction*%
%TD*%
%TA.AperFunction,Conductor*%
%TO.N,A5*%
G36*
X120654557Y-53338379D02*
G01*
X120916947Y-53450441D01*
X120923210Y-53456842D01*
X120923335Y-53465233D01*
X120752815Y-53929765D01*
X120746748Y-53936350D01*
X120741832Y-53937433D01*
X120558168Y-53937433D01*
X120549895Y-53934006D01*
X120547185Y-53929765D01*
X120376664Y-53465233D01*
X120377030Y-53456285D01*
X120383050Y-53450442D01*
X120645406Y-53338394D01*
X120654359Y-53338297D01*
X120654557Y-53338379D01*
G37*
%TD.AperFunction*%
%TD*%
%TA.AperFunction,Conductor*%
%TO.N,A5*%
G36*
X89001021Y-61907279D02*
G01*
X89003226Y-61910347D01*
X89600511Y-63112766D01*
X89601123Y-63121700D01*
X89595603Y-63128260D01*
X88905570Y-63501836D01*
X88896663Y-63502761D01*
X88894430Y-63501836D01*
X88204396Y-63128260D01*
X88198752Y-63121308D01*
X88199488Y-63112766D01*
X88796774Y-61910347D01*
X88803523Y-61904462D01*
X88807252Y-61903852D01*
X88992748Y-61903852D01*
X89001021Y-61907279D01*
G37*
%TD.AperFunction*%
%TD*%
%TA.AperFunction,Conductor*%
%TO.N,A5*%
G36*
X88904557Y-57783379D02*
G01*
X89166947Y-57895441D01*
X89173210Y-57901842D01*
X89173335Y-57910233D01*
X89002815Y-58374765D01*
X88996748Y-58381350D01*
X88991832Y-58382433D01*
X88808168Y-58382433D01*
X88799895Y-58379006D01*
X88797185Y-58374765D01*
X88626664Y-57910233D01*
X88627030Y-57901285D01*
X88633050Y-57895442D01*
X88895406Y-57783394D01*
X88904359Y-57783297D01*
X88904557Y-57783379D01*
G37*
%TD.AperFunction*%
%TD*%
%TA.AperFunction,Conductor*%
%TO.N,/OUT_$2x*%
G36*
X78737361Y-55874763D02*
G01*
X78744312Y-55880406D01*
X78745237Y-55882639D01*
X78968962Y-56634576D01*
X78968037Y-56643483D01*
X78961326Y-56649053D01*
X77734767Y-57042984D01*
X77725842Y-57042251D01*
X77720049Y-57035422D01*
X77720379Y-57027368D01*
X77723219Y-57020514D01*
X77551700Y-57020514D01*
X77543427Y-57017087D01*
X77540000Y-57008814D01*
X77540000Y-56982325D01*
X77540891Y-56977848D01*
X77569289Y-56909289D01*
X77970947Y-55658671D01*
X77976739Y-55651844D01*
X77985421Y-55651037D01*
X78737361Y-55874763D01*
G37*
%TD.AperFunction*%
%TD*%
%TA.AperFunction,Conductor*%
%TO.N,/OUT_$2x*%
G36*
X80228937Y-87702953D02*
G01*
X81501521Y-88130848D01*
X81508270Y-88136733D01*
X81509006Y-88145275D01*
X81285237Y-88897360D01*
X81279593Y-88904312D01*
X81277360Y-88905237D01*
X80525275Y-89129006D01*
X80516368Y-89128081D01*
X80510848Y-89121521D01*
X80082953Y-87848937D01*
X80083565Y-87840003D01*
X80085767Y-87836938D01*
X80216936Y-87705769D01*
X80225208Y-87702343D01*
X80228937Y-87702953D01*
G37*
%TD.AperFunction*%
%TD*%
%TA.AperFunction,Conductor*%
%TO.N,~{RAMS3}*%
G36*
X92203631Y-88671918D02*
G01*
X92209151Y-88678478D01*
X92637046Y-89951062D01*
X92636434Y-89959996D01*
X92634229Y-89963064D01*
X92503064Y-90094229D01*
X92494791Y-90097656D01*
X92491062Y-90097046D01*
X91218478Y-89669151D01*
X91211729Y-89663266D01*
X91210993Y-89654725D01*
X91434763Y-88902637D01*
X91440406Y-88895687D01*
X91442630Y-88894765D01*
X92194725Y-88670993D01*
X92203631Y-88671918D01*
G37*
%TD.AperFunction*%
%TD*%
%TA.AperFunction,Conductor*%
%TO.N,~{RAMS3}*%
G36*
X97445670Y-94760271D02*
G01*
X97894725Y-94968169D01*
X97900791Y-94974753D01*
X97900666Y-94983144D01*
X97794383Y-95247884D01*
X97788120Y-95254285D01*
X97787884Y-95254383D01*
X97523144Y-95360666D01*
X97514190Y-95360568D01*
X97508169Y-95354725D01*
X97300271Y-94905672D01*
X97299906Y-94896727D01*
X97302614Y-94892488D01*
X97432487Y-94762615D01*
X97440759Y-94759189D01*
X97445670Y-94760271D01*
G37*
%TD.AperFunction*%
%TD*%
%TA.AperFunction,Conductor*%
%TO.N,~{RAMS3}*%
G36*
X146150105Y-88305994D02*
G01*
X146152815Y-88310235D01*
X146323335Y-88774766D01*
X146322969Y-88783714D01*
X146316947Y-88789558D01*
X146054595Y-88901604D01*
X146045641Y-88901702D01*
X146045405Y-88901604D01*
X145783052Y-88789558D01*
X145776789Y-88783157D01*
X145776664Y-88774766D01*
X145947185Y-88310235D01*
X145953252Y-88303650D01*
X145958168Y-88302567D01*
X146141832Y-88302567D01*
X146150105Y-88305994D01*
G37*
%TD.AperFunction*%
%TD*%
%TA.AperFunction,Conductor*%
%TO.N,~{RES}*%
G36*
X76557513Y-80792616D02*
G01*
X76687383Y-80922486D01*
X76690810Y-80930759D01*
X76689727Y-80935675D01*
X76481831Y-81384724D01*
X76475246Y-81390791D01*
X76466855Y-81390666D01*
X76202115Y-81284383D01*
X76195714Y-81278120D01*
X76195616Y-81277884D01*
X76089333Y-81013144D01*
X76089431Y-81004190D01*
X76095272Y-80998170D01*
X76544327Y-80790271D01*
X76553272Y-80789906D01*
X76557513Y-80792616D01*
G37*
%TD.AperFunction*%
%TD*%
%TA.AperFunction,Conductor*%
%TO.N,D7*%
G36*
X61368598Y-52595253D02*
G01*
X61372816Y-52596450D01*
X62647371Y-53235718D01*
X62650970Y-53238517D01*
X62653055Y-53240927D01*
X62655907Y-53248581D01*
X62655907Y-53430451D01*
X62655016Y-53434929D01*
X62653799Y-53437867D01*
X62648235Y-53443847D01*
X61372905Y-54083504D01*
X61368507Y-54084715D01*
X61366620Y-54084852D01*
X61358257Y-54082148D01*
X61356995Y-54081091D01*
X61354226Y-54077698D01*
X60959028Y-53347613D01*
X60957681Y-53343258D01*
X60957324Y-53339815D01*
X60958673Y-53333042D01*
X61005129Y-53247220D01*
X61011355Y-53235718D01*
X61354183Y-52602380D01*
X61357093Y-52598872D01*
X61358563Y-52597679D01*
X61366960Y-52595109D01*
X61368598Y-52595253D01*
G37*
%TD.AperFunction*%
%TD*%
%TA.AperFunction,Conductor*%
%TO.N,D7*%
G36*
X65773143Y-52137861D02*
G01*
X66037884Y-52244145D01*
X66044285Y-52250408D01*
X66044383Y-52250644D01*
X66150666Y-52515384D01*
X66150568Y-52524338D01*
X66144724Y-52530360D01*
X65695675Y-52738256D01*
X65686727Y-52738622D01*
X65682486Y-52735912D01*
X65552616Y-52606042D01*
X65549189Y-52597769D01*
X65550270Y-52592858D01*
X65758170Y-52143801D01*
X65764753Y-52137737D01*
X65773143Y-52137861D01*
G37*
%TD.AperFunction*%
%TD*%
%TA.AperFunction,Conductor*%
%TO.N,D7*%
G36*
X76300105Y-74335994D02*
G01*
X76302815Y-74340235D01*
X76473335Y-74804766D01*
X76472969Y-74813714D01*
X76466947Y-74819558D01*
X76204595Y-74931604D01*
X76195641Y-74931702D01*
X76195405Y-74931604D01*
X75933052Y-74819558D01*
X75926789Y-74813157D01*
X75926664Y-74804766D01*
X76097185Y-74340235D01*
X76103252Y-74333650D01*
X76108168Y-74332567D01*
X76291832Y-74332567D01*
X76300105Y-74335994D01*
G37*
%TD.AperFunction*%
%TD*%
%TA.AperFunction,Conductor*%
%TO.N,D7*%
G36*
X73664557Y-52588379D02*
G01*
X73926947Y-52700441D01*
X73933210Y-52706842D01*
X73933335Y-52715233D01*
X73762815Y-53179765D01*
X73756748Y-53186350D01*
X73751832Y-53187433D01*
X73568168Y-53187433D01*
X73559895Y-53184006D01*
X73557185Y-53179765D01*
X73386664Y-52715233D01*
X73387030Y-52706285D01*
X73393050Y-52700442D01*
X73655406Y-52588394D01*
X73664359Y-52588297D01*
X73664557Y-52588379D01*
G37*
%TD.AperFunction*%
%TD*%
%TA.AperFunction,Conductor*%
%TO.N,/~{CPM_SEL}*%
G36*
X139800954Y-88754452D02*
G01*
X139803202Y-88757607D01*
X140322321Y-89824670D01*
X140322859Y-89833608D01*
X140317372Y-89840076D01*
X139705572Y-90171407D01*
X139696665Y-90172334D01*
X139694428Y-90171407D01*
X139082627Y-89840076D01*
X139076984Y-89833123D01*
X139077678Y-89824670D01*
X139596798Y-88757607D01*
X139603499Y-88751666D01*
X139607319Y-88751025D01*
X139792681Y-88751025D01*
X139800954Y-88754452D01*
G37*
%TD.AperFunction*%
%TD*%
%TA.AperFunction,Conductor*%
%TO.N,/~{CPM_SEL}*%
G36*
X139705567Y-87628590D02*
G01*
X140065442Y-87823486D01*
X140317372Y-87959923D01*
X140323015Y-87966876D01*
X140322321Y-87975329D01*
X139803202Y-89042393D01*
X139796501Y-89048334D01*
X139792681Y-89048975D01*
X139607319Y-89048975D01*
X139599046Y-89045548D01*
X139596798Y-89042393D01*
X139077678Y-87975329D01*
X139077140Y-87966391D01*
X139082627Y-87959923D01*
X139694429Y-87628591D01*
X139703335Y-87627665D01*
X139705567Y-87628590D01*
G37*
%TD.AperFunction*%
%TD*%
%TA.AperFunction,Conductor*%
%TO.N,/~{CPM_SEL}*%
G36*
X140974557Y-73658379D02*
G01*
X141236947Y-73770441D01*
X141243210Y-73776842D01*
X141243335Y-73785233D01*
X141072815Y-74249765D01*
X141066748Y-74256350D01*
X141061832Y-74257433D01*
X140878168Y-74257433D01*
X140869895Y-74254006D01*
X140867185Y-74249765D01*
X140696664Y-73785233D01*
X140697030Y-73776285D01*
X140703050Y-73770442D01*
X140965406Y-73658394D01*
X140974359Y-73658297D01*
X140974557Y-73658379D01*
G37*
%TD.AperFunction*%
%TD*%
%TA.AperFunction,Conductor*%
%TO.N,/~{CPM_SEL}*%
G36*
X140634676Y-86558849D02*
G01*
X140637831Y-86561097D01*
X140768902Y-86692168D01*
X140772329Y-86700441D01*
X140771688Y-86704261D01*
X140384233Y-87825862D01*
X140378292Y-87832563D01*
X140369839Y-87833257D01*
X139702945Y-87634934D01*
X139695992Y-87629291D01*
X139695067Y-87627059D01*
X139496742Y-86960158D01*
X139497669Y-86951253D01*
X139504135Y-86945767D01*
X140625739Y-86558311D01*
X140634676Y-86558849D01*
G37*
%TD.AperFunction*%
%TD*%
%TA.AperFunction,Conductor*%
%TO.N,A3*%
G36*
X125706357Y-64877748D02*
G01*
X125712150Y-64884577D01*
X125711819Y-64892632D01*
X125708980Y-64899485D01*
X125708981Y-64899486D01*
X125880500Y-64899486D01*
X125888773Y-64902913D01*
X125892200Y-64911186D01*
X125892200Y-64937674D01*
X125891309Y-64942151D01*
X125862918Y-65010692D01*
X125862914Y-65010702D01*
X125461253Y-66261326D01*
X125455460Y-66268155D01*
X125446776Y-66268962D01*
X124694839Y-66045237D01*
X124687887Y-66039593D01*
X124686964Y-66037365D01*
X124463237Y-65285421D01*
X124464162Y-65276516D01*
X124470871Y-65270947D01*
X125697432Y-64877015D01*
X125706357Y-64877748D01*
G37*
%TD.AperFunction*%
%TD*%
%TA.AperFunction,Conductor*%
%TO.N,A3*%
G36*
X125797519Y-48850476D02*
G01*
X126015875Y-48859421D01*
X126024001Y-48863183D01*
X126027086Y-48871590D01*
X126026791Y-48873767D01*
X125894308Y-49442215D01*
X125889092Y-49449494D01*
X125882913Y-49451259D01*
X125700151Y-49451259D01*
X125691878Y-49447832D01*
X125689273Y-49443866D01*
X125656354Y-49360730D01*
X125557134Y-49110142D01*
X125557274Y-49101192D01*
X125559484Y-49097829D01*
X125788539Y-48854152D01*
X125796700Y-48850473D01*
X125797519Y-48850476D01*
G37*
%TD.AperFunction*%
%TD*%
%TA.AperFunction,Conductor*%
%TO.N,A2*%
G36*
X128246357Y-64877748D02*
G01*
X128252150Y-64884577D01*
X128251819Y-64892632D01*
X128248980Y-64899485D01*
X128248981Y-64899486D01*
X128420500Y-64899486D01*
X128428773Y-64902913D01*
X128432200Y-64911186D01*
X128432200Y-64937674D01*
X128431309Y-64942151D01*
X128402918Y-65010692D01*
X128402914Y-65010702D01*
X128366884Y-65122880D01*
X128364017Y-65127575D01*
X128147689Y-65343905D01*
X128091741Y-65399852D01*
X128091737Y-65399857D01*
X128052179Y-65468373D01*
X128052177Y-65468377D01*
X128031700Y-65544800D01*
X128031700Y-66164691D01*
X128031140Y-66168269D01*
X128001253Y-66261326D01*
X127995460Y-66268155D01*
X127986776Y-66268962D01*
X127234839Y-66045237D01*
X127227887Y-66039593D01*
X127226964Y-66037365D01*
X127003237Y-65285421D01*
X127004162Y-65276516D01*
X127010871Y-65270947D01*
X128237432Y-64877015D01*
X128246357Y-64877748D01*
G37*
%TD.AperFunction*%
%TD*%
%TA.AperFunction,Conductor*%
%TO.N,A2*%
G36*
X128337519Y-48850476D02*
G01*
X128555875Y-48859421D01*
X128564001Y-48863183D01*
X128567086Y-48871590D01*
X128566791Y-48873767D01*
X128434308Y-49442215D01*
X128429092Y-49449494D01*
X128422913Y-49451259D01*
X128240151Y-49451259D01*
X128231878Y-49447832D01*
X128229273Y-49443866D01*
X128196354Y-49360730D01*
X128097134Y-49110142D01*
X128097274Y-49101192D01*
X128099484Y-49097829D01*
X128328539Y-48854152D01*
X128336700Y-48850473D01*
X128337519Y-48850476D01*
G37*
%TD.AperFunction*%
%TD*%
%TA.AperFunction,Conductor*%
%TO.N,A1*%
G36*
X130786357Y-64877748D02*
G01*
X130792150Y-64884577D01*
X130791819Y-64892632D01*
X130788980Y-64899485D01*
X130788981Y-64899486D01*
X130960500Y-64899486D01*
X130968773Y-64902913D01*
X130972200Y-64911186D01*
X130972200Y-64937674D01*
X130971309Y-64942151D01*
X130942918Y-65010692D01*
X130942914Y-65010702D01*
X130541253Y-66261326D01*
X130535460Y-66268155D01*
X130526776Y-66268962D01*
X129774839Y-66045237D01*
X129767887Y-66039593D01*
X129766964Y-66037365D01*
X129543237Y-65285421D01*
X129544162Y-65276516D01*
X129550871Y-65270947D01*
X130777432Y-64877015D01*
X130786357Y-64877748D01*
G37*
%TD.AperFunction*%
%TD*%
%TA.AperFunction,Conductor*%
%TO.N,A1*%
G36*
X130877519Y-47980476D02*
G01*
X131095875Y-47989421D01*
X131104001Y-47993183D01*
X131107086Y-48001590D01*
X131106791Y-48003767D01*
X130974308Y-48572215D01*
X130969092Y-48579494D01*
X130962913Y-48581259D01*
X130780151Y-48581259D01*
X130771878Y-48577832D01*
X130769273Y-48573866D01*
X130736354Y-48490730D01*
X130637134Y-48240142D01*
X130637274Y-48231192D01*
X130639484Y-48227829D01*
X130868539Y-47984152D01*
X130876700Y-47980473D01*
X130877519Y-47980476D01*
G37*
%TD.AperFunction*%
%TD*%
%TA.AperFunction,Conductor*%
%TO.N,A0*%
G36*
X133326357Y-64877748D02*
G01*
X133332150Y-64884577D01*
X133331819Y-64892632D01*
X133328980Y-64899485D01*
X133328981Y-64899486D01*
X133500500Y-64899486D01*
X133508773Y-64902913D01*
X133512200Y-64911186D01*
X133512200Y-64937674D01*
X133511309Y-64942151D01*
X133482918Y-65010692D01*
X133482914Y-65010702D01*
X133081253Y-66261326D01*
X133075460Y-66268155D01*
X133066776Y-66268962D01*
X132314839Y-66045237D01*
X132307887Y-66039593D01*
X132306964Y-66037365D01*
X132083237Y-65285421D01*
X132084162Y-65276516D01*
X132090871Y-65270947D01*
X133317432Y-64877015D01*
X133326357Y-64877748D01*
G37*
%TD.AperFunction*%
%TD*%
%TA.AperFunction,Conductor*%
%TO.N,D0*%
G36*
X135866357Y-64877748D02*
G01*
X135872150Y-64884577D01*
X135871819Y-64892632D01*
X135868980Y-64899485D01*
X135868981Y-64899486D01*
X136040500Y-64899486D01*
X136048773Y-64902913D01*
X136052200Y-64911186D01*
X136052200Y-64937674D01*
X136051309Y-64942151D01*
X136022918Y-65010692D01*
X136022914Y-65010702D01*
X135621253Y-66261326D01*
X135615460Y-66268155D01*
X135606776Y-66268962D01*
X134854839Y-66045237D01*
X134847887Y-66039593D01*
X134846964Y-66037365D01*
X134623237Y-65285421D01*
X134624162Y-65276516D01*
X134630871Y-65270947D01*
X135857432Y-64877015D01*
X135866357Y-64877748D01*
G37*
%TD.AperFunction*%
%TD*%
%TA.AperFunction,Conductor*%
%TO.N,D0*%
G36*
X135120883Y-44939431D02*
G01*
X135126904Y-44945274D01*
X135305868Y-45331831D01*
X135334801Y-45394324D01*
X135335167Y-45403272D01*
X135332457Y-45407513D01*
X135202587Y-45537383D01*
X135194314Y-45540810D01*
X135189399Y-45539727D01*
X134740348Y-45331830D01*
X134734282Y-45325246D01*
X134734406Y-45316856D01*
X134840690Y-45052114D01*
X134846953Y-45045714D01*
X134847158Y-45045628D01*
X135111930Y-44939333D01*
X135120883Y-44939431D01*
G37*
%TD.AperFunction*%
%TD*%
%TA.AperFunction,Conductor*%
%TO.N,D1*%
G36*
X138406357Y-64877748D02*
G01*
X138412150Y-64884577D01*
X138411819Y-64892632D01*
X138408980Y-64899485D01*
X138408981Y-64899486D01*
X138580500Y-64899486D01*
X138588773Y-64902913D01*
X138592200Y-64911186D01*
X138592200Y-64937674D01*
X138591309Y-64942151D01*
X138562918Y-65010692D01*
X138562914Y-65010702D01*
X138161253Y-66261326D01*
X138155460Y-66268155D01*
X138146776Y-66268962D01*
X137394839Y-66045237D01*
X137387887Y-66039593D01*
X137386964Y-66037365D01*
X137163237Y-65285421D01*
X137164162Y-65276516D01*
X137170871Y-65270947D01*
X138397432Y-64877015D01*
X138406357Y-64877748D01*
G37*
%TD.AperFunction*%
%TD*%
%TA.AperFunction,Conductor*%
%TO.N,D1*%
G36*
X138434557Y-46988379D02*
G01*
X138696947Y-47100441D01*
X138703210Y-47106842D01*
X138703335Y-47115233D01*
X138532815Y-47579765D01*
X138526748Y-47586350D01*
X138521832Y-47587433D01*
X138338168Y-47587433D01*
X138329895Y-47584006D01*
X138327185Y-47579765D01*
X138156664Y-47115233D01*
X138157030Y-47106285D01*
X138163050Y-47100442D01*
X138425406Y-46988394D01*
X138434359Y-46988297D01*
X138434557Y-46988379D01*
G37*
%TD.AperFunction*%
%TD*%
%TA.AperFunction,Conductor*%
%TO.N,D2*%
G36*
X141037519Y-46980476D02*
G01*
X141255875Y-46989421D01*
X141264001Y-46993183D01*
X141267086Y-47001590D01*
X141266791Y-47003767D01*
X141134308Y-47572215D01*
X141129092Y-47579494D01*
X141122913Y-47581259D01*
X140940151Y-47581259D01*
X140931878Y-47577832D01*
X140929273Y-47573866D01*
X140896354Y-47490730D01*
X140797134Y-47240142D01*
X140797274Y-47231192D01*
X140799484Y-47227829D01*
X141028539Y-46984152D01*
X141036700Y-46980473D01*
X141037519Y-46980476D01*
G37*
%TD.AperFunction*%
%TD*%
%TA.AperFunction,Conductor*%
%TO.N,D2*%
G36*
X140946357Y-64877748D02*
G01*
X140952150Y-64884577D01*
X140951819Y-64892632D01*
X140948980Y-64899485D01*
X140948981Y-64899486D01*
X141120500Y-64899486D01*
X141128773Y-64902913D01*
X141132200Y-64911186D01*
X141132200Y-64937674D01*
X141131309Y-64942151D01*
X141102918Y-65010692D01*
X141102914Y-65010702D01*
X140701253Y-66261326D01*
X140695460Y-66268155D01*
X140686776Y-66268962D01*
X139934839Y-66045237D01*
X139927887Y-66039593D01*
X139926964Y-66037365D01*
X139703237Y-65285421D01*
X139704162Y-65276516D01*
X139710871Y-65270947D01*
X140937432Y-64877015D01*
X140946357Y-64877748D01*
G37*
%TD.AperFunction*%
%TD*%
%TA.AperFunction,Conductor*%
%TO.N,D3*%
G36*
X61771437Y-48017417D02*
G01*
X61776971Y-48024020D01*
X62227623Y-49381623D01*
X62226977Y-49390554D01*
X62224792Y-49393582D01*
X62093582Y-49524792D01*
X62085309Y-49528219D01*
X62081623Y-49527623D01*
X60724020Y-49076971D01*
X60717248Y-49071112D01*
X60716492Y-49062531D01*
X60954592Y-48262467D01*
X60960236Y-48255517D01*
X60962464Y-48254593D01*
X61762531Y-48016492D01*
X61771437Y-48017417D01*
G37*
%TD.AperFunction*%
%TD*%
%TA.AperFunction,Conductor*%
%TO.N,D3*%
G36*
X63379048Y-49856839D02*
G01*
X63386961Y-49860376D01*
X63388046Y-49861494D01*
X63390410Y-49865046D01*
X63500690Y-50123266D01*
X63501629Y-50127732D01*
X63501675Y-50131903D01*
X63500736Y-50136627D01*
X63390472Y-50394805D01*
X63387895Y-50398572D01*
X63386495Y-50399942D01*
X63378485Y-50403279D01*
X63376932Y-50403302D01*
X63372727Y-50402586D01*
X62912420Y-50233616D01*
X62908523Y-50231237D01*
X62906355Y-50229239D01*
X62902852Y-50223128D01*
X62902834Y-50223046D01*
X62902567Y-50220557D01*
X62902567Y-50040495D01*
X62903457Y-50036019D01*
X62904586Y-50033293D01*
X62909112Y-50027901D01*
X62909184Y-50027855D01*
X62911426Y-50026747D01*
X63372582Y-49857465D01*
X63377089Y-49856759D01*
X63379048Y-49856839D01*
G37*
%TD.AperFunction*%
%TD*%
%TA.AperFunction,Conductor*%
%TO.N,D5*%
G36*
X63742980Y-51127030D02*
G01*
X63748824Y-51133052D01*
X63860870Y-51395405D01*
X63860968Y-51404359D01*
X63860870Y-51404595D01*
X63748824Y-51666947D01*
X63742423Y-51673210D01*
X63734032Y-51673335D01*
X63269501Y-51502814D01*
X63262916Y-51496747D01*
X63261833Y-51491831D01*
X63261833Y-51308168D01*
X63265260Y-51299895D01*
X63269500Y-51297185D01*
X63734032Y-51126664D01*
X63742980Y-51127030D01*
G37*
%TD.AperFunction*%
%TD*%
%TA.AperFunction,Conductor*%
%TO.N,A10*%
G36*
X59636135Y-67333427D02*
G01*
X59639562Y-67341700D01*
X59639562Y-67518300D01*
X59636135Y-67526573D01*
X59634480Y-67527258D01*
X59634814Y-67527709D01*
X59631713Y-67530000D01*
X59236804Y-68815655D01*
X59231099Y-68822558D01*
X59222283Y-68823434D01*
X59219339Y-68822558D01*
X59024730Y-68764641D01*
X58422469Y-68585407D01*
X58415517Y-68579763D01*
X58414592Y-68577530D01*
X58176565Y-67777713D01*
X58177490Y-67768809D01*
X58184342Y-67763196D01*
X59499289Y-67359289D01*
X59567849Y-67330891D01*
X59572326Y-67330000D01*
X59627862Y-67330000D01*
X59636135Y-67333427D01*
G37*
%TD.AperFunction*%
%TD*%
%TA.AperFunction,Conductor*%
%TO.N,A10*%
G36*
X127237765Y-50798161D02*
G01*
X127779644Y-51091527D01*
X127927803Y-51171739D01*
X127933447Y-51178691D01*
X127932711Y-51187233D01*
X127335426Y-52389653D01*
X127328677Y-52395538D01*
X127324948Y-52396148D01*
X127139452Y-52396148D01*
X127131179Y-52392721D01*
X127128974Y-52389653D01*
X126531688Y-51187233D01*
X126531076Y-51178299D01*
X126536595Y-51171739D01*
X127226631Y-50798162D01*
X127235537Y-50797238D01*
X127237765Y-50798161D01*
G37*
%TD.AperFunction*%
%TD*%
%TA.AperFunction,Conductor*%
%TO.N,A10*%
G36*
X63233143Y-65929332D02*
G01*
X63497884Y-66035616D01*
X63504285Y-66041879D01*
X63504383Y-66042115D01*
X63610666Y-66306855D01*
X63610568Y-66315809D01*
X63604724Y-66321831D01*
X63155675Y-66529727D01*
X63146727Y-66530093D01*
X63142486Y-66527383D01*
X63012616Y-66397513D01*
X63009189Y-66389240D01*
X63010270Y-66384329D01*
X63218170Y-65935272D01*
X63224753Y-65929208D01*
X63233143Y-65929332D01*
G37*
%TD.AperFunction*%
%TD*%
%TA.AperFunction,Conductor*%
%TO.N,A10*%
G36*
X127100105Y-55285994D02*
G01*
X127102815Y-55290235D01*
X127273335Y-55754766D01*
X127272969Y-55763714D01*
X127266947Y-55769558D01*
X127004595Y-55881604D01*
X126995641Y-55881702D01*
X126995405Y-55881604D01*
X126733052Y-55769558D01*
X126726789Y-55763157D01*
X126726664Y-55754766D01*
X126897185Y-55290235D01*
X126903252Y-55283650D01*
X126908168Y-55282567D01*
X127091832Y-55282567D01*
X127100105Y-55285994D01*
G37*
%TD.AperFunction*%
%TD*%
%TA.AperFunction,Conductor*%
%TO.N,~{RD}*%
G36*
X122912513Y-72537616D02*
G01*
X123042383Y-72667486D01*
X123045810Y-72675759D01*
X123044727Y-72680675D01*
X122836831Y-73129724D01*
X122830246Y-73135791D01*
X122821855Y-73135666D01*
X122557115Y-73029383D01*
X122550714Y-73023120D01*
X122550616Y-73022884D01*
X122444333Y-72758144D01*
X122444431Y-72749190D01*
X122450272Y-72743170D01*
X122899327Y-72535271D01*
X122908272Y-72534906D01*
X122912513Y-72537616D01*
G37*
%TD.AperFunction*%
%TD*%
%TA.AperFunction,Conductor*%
%TO.N,~{RD}*%
G36*
X124697765Y-50798161D02*
G01*
X125239644Y-51091527D01*
X125387803Y-51171739D01*
X125393447Y-51178691D01*
X125392711Y-51187233D01*
X124795426Y-52389653D01*
X124788677Y-52395538D01*
X124784948Y-52396148D01*
X124599452Y-52396148D01*
X124591179Y-52392721D01*
X124588974Y-52389653D01*
X123991688Y-51187233D01*
X123991076Y-51178299D01*
X123996595Y-51171739D01*
X124686631Y-50798162D01*
X124695537Y-50797238D01*
X124697765Y-50798161D01*
G37*
%TD.AperFunction*%
%TD*%
%TA.AperFunction,Conductor*%
%TO.N,~{RD}*%
G36*
X62090554Y-74933022D02*
G01*
X62093582Y-74935207D01*
X62224792Y-75066417D01*
X62228219Y-75074690D01*
X62227623Y-75078376D01*
X61776971Y-76435979D01*
X61771112Y-76442751D01*
X61762530Y-76443507D01*
X60962469Y-76205407D01*
X60955517Y-76199763D01*
X60954592Y-76197530D01*
X60716492Y-75397469D01*
X60717417Y-75388562D01*
X60724018Y-75383028D01*
X62081625Y-74932376D01*
X62090554Y-74933022D01*
G37*
%TD.AperFunction*%
%TD*%
%TA.AperFunction,Conductor*%
%TO.N,~{RD}*%
G36*
X63233143Y-74184332D02*
G01*
X63497884Y-74290616D01*
X63504285Y-74296879D01*
X63504383Y-74297115D01*
X63610666Y-74561855D01*
X63610568Y-74570809D01*
X63604724Y-74576831D01*
X63155675Y-74784727D01*
X63146727Y-74785093D01*
X63142486Y-74782383D01*
X63012616Y-74652513D01*
X63009189Y-74644240D01*
X63010270Y-74639329D01*
X63218170Y-74190272D01*
X63224753Y-74184208D01*
X63233143Y-74184332D01*
G37*
%TD.AperFunction*%
%TD*%
%TA.AperFunction,Conductor*%
%TO.N,A9*%
G36*
X119480105Y-54015994D02*
G01*
X119482815Y-54020235D01*
X119653335Y-54484766D01*
X119652969Y-54493714D01*
X119646947Y-54499558D01*
X119384595Y-54611604D01*
X119375641Y-54611702D01*
X119375405Y-54611604D01*
X119113052Y-54499558D01*
X119106789Y-54493157D01*
X119106664Y-54484766D01*
X119277185Y-54020235D01*
X119283252Y-54013650D01*
X119288168Y-54012567D01*
X119471832Y-54012567D01*
X119480105Y-54015994D01*
G37*
%TD.AperFunction*%
%TD*%
%TA.AperFunction,Conductor*%
%TO.N,A9*%
G36*
X119617765Y-50798161D02*
G01*
X120159644Y-51091527D01*
X120307803Y-51171739D01*
X120313447Y-51178691D01*
X120312711Y-51187233D01*
X119715426Y-52389653D01*
X119708677Y-52395538D01*
X119704948Y-52396148D01*
X119519452Y-52396148D01*
X119511179Y-52392721D01*
X119508974Y-52389653D01*
X118911688Y-51187233D01*
X118911076Y-51178299D01*
X118916595Y-51171739D01*
X119606631Y-50798162D01*
X119615537Y-50797238D01*
X119617765Y-50798161D01*
G37*
%TD.AperFunction*%
%TD*%
%TA.AperFunction,Conductor*%
%TO.N,A8*%
G36*
X117077765Y-50798161D02*
G01*
X117619644Y-51091527D01*
X117767803Y-51171739D01*
X117773447Y-51178691D01*
X117772711Y-51187233D01*
X117175426Y-52389653D01*
X117168677Y-52395538D01*
X117164948Y-52396148D01*
X116979452Y-52396148D01*
X116971179Y-52392721D01*
X116968974Y-52389653D01*
X116371688Y-51187233D01*
X116371076Y-51178299D01*
X116376595Y-51171739D01*
X117066631Y-50798162D01*
X117075537Y-50797238D01*
X117077765Y-50798161D01*
G37*
%TD.AperFunction*%
%TD*%
%TA.AperFunction,Conductor*%
%TO.N,RA12*%
G36*
X84879996Y-49603565D02*
G01*
X84883064Y-49605770D01*
X85014229Y-49736935D01*
X85017656Y-49745208D01*
X85017046Y-49748937D01*
X84589151Y-51021521D01*
X84583266Y-51028270D01*
X84574724Y-51029006D01*
X83822639Y-50805237D01*
X83815687Y-50799593D01*
X83814764Y-50797365D01*
X83590993Y-50045274D01*
X83591918Y-50036368D01*
X83598477Y-50030848D01*
X84871062Y-49602953D01*
X84879996Y-49603565D01*
G37*
%TD.AperFunction*%
%TD*%
%TA.AperFunction,Conductor*%
%TO.N,RA12*%
G36*
X50806625Y-38099262D02*
G01*
X51064805Y-38209526D01*
X51068572Y-38212103D01*
X51069942Y-38213503D01*
X51073279Y-38221513D01*
X51073302Y-38223066D01*
X51072586Y-38227271D01*
X50903617Y-38687579D01*
X50901238Y-38691476D01*
X50899240Y-38693644D01*
X50893299Y-38697108D01*
X50893222Y-38697126D01*
X50890559Y-38697433D01*
X50710495Y-38697433D01*
X50706017Y-38696542D01*
X50703294Y-38695414D01*
X50697908Y-38690897D01*
X50697860Y-38690822D01*
X50697036Y-38689156D01*
X50696962Y-38689082D01*
X50696962Y-38689006D01*
X50696747Y-38688572D01*
X50527465Y-38227417D01*
X50526759Y-38222908D01*
X50526839Y-38220951D01*
X50530380Y-38213032D01*
X50531494Y-38211951D01*
X50535047Y-38209589D01*
X50535195Y-38209526D01*
X50793270Y-38099306D01*
X50797731Y-38098368D01*
X50801906Y-38098323D01*
X50806625Y-38099262D01*
G37*
%TD.AperFunction*%
%TD*%
%TA.AperFunction,Conductor*%
%TO.N,RA12*%
G36*
X50893980Y-71793456D02*
G01*
X50896704Y-71794585D01*
X50902092Y-71799103D01*
X50902136Y-71799172D01*
X50903254Y-71801431D01*
X51072532Y-72262580D01*
X51073239Y-72267090D01*
X51073159Y-72269048D01*
X51069620Y-72276963D01*
X51068506Y-72278044D01*
X51064952Y-72280410D01*
X50806733Y-72390690D01*
X50802267Y-72391629D01*
X50798096Y-72391675D01*
X50793373Y-72390736D01*
X50689588Y-72346411D01*
X50535193Y-72280472D01*
X50531426Y-72277895D01*
X50530056Y-72276495D01*
X50526719Y-72268485D01*
X50526698Y-72267090D01*
X50526696Y-72266930D01*
X50527412Y-72262727D01*
X50527466Y-72262580D01*
X50696384Y-71802416D01*
X50698758Y-71798527D01*
X50700760Y-71796354D01*
X50706868Y-71792853D01*
X50706953Y-71792834D01*
X50708793Y-71792636D01*
X50708886Y-71792594D01*
X50708954Y-71792619D01*
X50709441Y-71792567D01*
X50889505Y-71792567D01*
X50893980Y-71793456D01*
G37*
%TD.AperFunction*%
%TD*%
%TA.AperFunction,Conductor*%
%TO.N,RA12*%
G36*
X85094557Y-38098379D02*
G01*
X85356947Y-38210441D01*
X85363210Y-38216842D01*
X85363335Y-38225233D01*
X85192815Y-38689765D01*
X85186748Y-38696350D01*
X85181832Y-38697433D01*
X84998168Y-38697433D01*
X84989895Y-38694006D01*
X84987185Y-38689765D01*
X84816664Y-38225233D01*
X84817030Y-38216285D01*
X84823050Y-38210442D01*
X85085406Y-38098394D01*
X85094359Y-38098297D01*
X85094557Y-38098379D01*
G37*
%TD.AperFunction*%
%TD*%
%TA.AperFunction,Conductor*%
%TO.N,RA13*%
G36*
X77378259Y-49468230D02*
G01*
X77382180Y-49470103D01*
X77386126Y-49471864D01*
X77386184Y-49472017D01*
X77386334Y-49472089D01*
X77389330Y-49480226D01*
X77389299Y-49481380D01*
X77388412Y-49485543D01*
X77383156Y-49498231D01*
X77383156Y-49498232D01*
X77383158Y-49498233D01*
X77555973Y-49498233D01*
X77560448Y-49499123D01*
X77561281Y-49499467D01*
X77562093Y-49499804D01*
X77568425Y-49506132D01*
X77568427Y-49506135D01*
X77569109Y-49507781D01*
X77570000Y-49512260D01*
X77570000Y-49526520D01*
X77569774Y-49528807D01*
X77569332Y-49531025D01*
X77568667Y-49533216D01*
X77540718Y-49600687D01*
X77540628Y-49600939D01*
X77540629Y-49600940D01*
X77540623Y-49600957D01*
X77540622Y-49600960D01*
X77004880Y-51117553D01*
X77002546Y-51121481D01*
X77001354Y-51122806D01*
X76993281Y-51126664D01*
X76993274Y-51126664D01*
X76993273Y-51126664D01*
X76993272Y-51126664D01*
X76993271Y-51126664D01*
X76991785Y-51126744D01*
X76986694Y-51125875D01*
X76205935Y-50803450D01*
X76202141Y-50800921D01*
X76199099Y-50797887D01*
X76196554Y-50794077D01*
X75874221Y-50013539D01*
X75873336Y-50009062D01*
X75873338Y-50007282D01*
X75876772Y-49999014D01*
X75877836Y-49997953D01*
X75882199Y-49995205D01*
X77372348Y-49468805D01*
X77376853Y-49468155D01*
X77378259Y-49468230D01*
G37*
%TD.AperFunction*%
%TD*%
%TA.AperFunction,Conductor*%
%TO.N,RA13*%
G36*
X77474557Y-39188379D02*
G01*
X77736947Y-39300441D01*
X77743210Y-39306842D01*
X77743335Y-39315233D01*
X77572815Y-39779765D01*
X77566748Y-39786350D01*
X77561832Y-39787433D01*
X77378168Y-39787433D01*
X77369895Y-39784006D01*
X77367185Y-39779765D01*
X77196664Y-39315233D01*
X77197030Y-39306285D01*
X77203050Y-39300442D01*
X77465406Y-39188394D01*
X77474359Y-39188297D01*
X77474557Y-39188379D01*
G37*
%TD.AperFunction*%
%TD*%
%TA.AperFunction,Conductor*%
%TO.N,RA13*%
G36*
X49630105Y-70525994D02*
G01*
X49632815Y-70530235D01*
X49803335Y-70994766D01*
X49802969Y-71003714D01*
X49796947Y-71009558D01*
X49534595Y-71121604D01*
X49525641Y-71121702D01*
X49525405Y-71121604D01*
X49263052Y-71009558D01*
X49256789Y-71003157D01*
X49256664Y-70994766D01*
X49427185Y-70530235D01*
X49433252Y-70523650D01*
X49438168Y-70522567D01*
X49621832Y-70522567D01*
X49630105Y-70525994D01*
G37*
%TD.AperFunction*%
%TD*%
%TA.AperFunction,Conductor*%
%TO.N,RA13*%
G36*
X49534557Y-39368379D02*
G01*
X49796947Y-39480441D01*
X49803210Y-39486842D01*
X49803335Y-39495233D01*
X49632815Y-39959765D01*
X49626748Y-39966350D01*
X49621832Y-39967433D01*
X49438168Y-39967433D01*
X49429895Y-39964006D01*
X49427185Y-39959765D01*
X49256664Y-39495233D01*
X49257030Y-39486285D01*
X49263050Y-39480442D01*
X49525406Y-39368394D01*
X49534359Y-39368297D01*
X49534557Y-39368379D01*
G37*
%TD.AperFunction*%
%TD*%
%TA.AperFunction,Conductor*%
%TO.N,RA14*%
G36*
X83921021Y-41587279D02*
G01*
X83923226Y-41590347D01*
X84520511Y-42792766D01*
X84521123Y-42801700D01*
X84515603Y-42808260D01*
X83825570Y-43181836D01*
X83816663Y-43182761D01*
X83814430Y-43181836D01*
X83124396Y-42808260D01*
X83118752Y-42801308D01*
X83119488Y-42792766D01*
X83716774Y-41590347D01*
X83723523Y-41584462D01*
X83727252Y-41583852D01*
X83912748Y-41583852D01*
X83921021Y-41587279D01*
G37*
%TD.AperFunction*%
%TD*%
%TA.AperFunction,Conductor*%
%TO.N,RA14*%
G36*
X83826625Y-38099262D02*
G01*
X84084805Y-38209526D01*
X84088572Y-38212103D01*
X84089942Y-38213503D01*
X84093279Y-38221513D01*
X84093302Y-38223066D01*
X84092586Y-38227271D01*
X83923617Y-38687579D01*
X83921238Y-38691476D01*
X83919240Y-38693644D01*
X83913299Y-38697108D01*
X83913222Y-38697126D01*
X83910559Y-38697433D01*
X83730495Y-38697433D01*
X83726017Y-38696542D01*
X83723294Y-38695414D01*
X83717908Y-38690897D01*
X83717860Y-38690822D01*
X83717036Y-38689156D01*
X83716962Y-38689082D01*
X83716962Y-38689006D01*
X83716747Y-38688572D01*
X83547465Y-38227417D01*
X83546759Y-38222908D01*
X83546839Y-38220951D01*
X83550380Y-38213032D01*
X83551494Y-38211951D01*
X83555047Y-38209589D01*
X83555195Y-38209526D01*
X83813270Y-38099306D01*
X83817731Y-38098368D01*
X83821906Y-38098323D01*
X83826625Y-38099262D01*
G37*
%TD.AperFunction*%
%TD*%
%TA.AperFunction,Conductor*%
%TO.N,RA14*%
G36*
X53346625Y-38099262D02*
G01*
X53604805Y-38209526D01*
X53608572Y-38212103D01*
X53609942Y-38213503D01*
X53613279Y-38221513D01*
X53613302Y-38223066D01*
X53612586Y-38227271D01*
X53443617Y-38687579D01*
X53441238Y-38691476D01*
X53439240Y-38693644D01*
X53433299Y-38697108D01*
X53433222Y-38697126D01*
X53430559Y-38697433D01*
X53250495Y-38697433D01*
X53246017Y-38696542D01*
X53243294Y-38695414D01*
X53237908Y-38690897D01*
X53237860Y-38690822D01*
X53237036Y-38689156D01*
X53236962Y-38689082D01*
X53236962Y-38689006D01*
X53236747Y-38688572D01*
X53067465Y-38227417D01*
X53066759Y-38222908D01*
X53066839Y-38220951D01*
X53070380Y-38213032D01*
X53071494Y-38211951D01*
X53075047Y-38209589D01*
X53075195Y-38209526D01*
X53333270Y-38099306D01*
X53337731Y-38098368D01*
X53341906Y-38098323D01*
X53346625Y-38099262D01*
G37*
%TD.AperFunction*%
%TD*%
%TA.AperFunction,Conductor*%
%TO.N,RA14*%
G36*
X53440105Y-74215994D02*
G01*
X53442815Y-74220235D01*
X53613335Y-74684766D01*
X53612969Y-74693714D01*
X53606947Y-74699558D01*
X53344595Y-74811604D01*
X53335641Y-74811702D01*
X53335405Y-74811604D01*
X53073052Y-74699558D01*
X53066789Y-74693157D01*
X53066664Y-74684766D01*
X53237185Y-74220235D01*
X53243252Y-74213650D01*
X53248168Y-74212567D01*
X53431832Y-74212567D01*
X53440105Y-74215994D01*
G37*
%TD.AperFunction*%
%TD*%
%TA.AperFunction,Conductor*%
%TO.N,RA15*%
G36*
X91541021Y-41587279D02*
G01*
X91543226Y-41590347D01*
X92140511Y-42792766D01*
X92141123Y-42801700D01*
X92135603Y-42808260D01*
X91445570Y-43181836D01*
X91436663Y-43182761D01*
X91434430Y-43181836D01*
X90744396Y-42808260D01*
X90738752Y-42801308D01*
X90739488Y-42792766D01*
X91336774Y-41590347D01*
X91343523Y-41584462D01*
X91347252Y-41583852D01*
X91532748Y-41583852D01*
X91541021Y-41587279D01*
G37*
%TD.AperFunction*%
%TD*%
%TA.AperFunction,Conductor*%
%TO.N,RA15*%
G36*
X91444557Y-36828379D02*
G01*
X91706947Y-36940441D01*
X91713210Y-36946842D01*
X91713335Y-36955233D01*
X91542815Y-37419765D01*
X91536748Y-37426350D01*
X91531832Y-37427433D01*
X91348168Y-37427433D01*
X91339895Y-37424006D01*
X91337185Y-37419765D01*
X91166664Y-36955233D01*
X91167030Y-36946285D01*
X91173050Y-36940442D01*
X91435406Y-36828394D01*
X91444359Y-36828297D01*
X91444557Y-36828379D01*
G37*
%TD.AperFunction*%
%TD*%
%TA.AperFunction,Conductor*%
%TO.N,RA15*%
G36*
X52074557Y-36828379D02*
G01*
X52336947Y-36940441D01*
X52343210Y-36946842D01*
X52343335Y-36955233D01*
X52172815Y-37419765D01*
X52166748Y-37426350D01*
X52161832Y-37427433D01*
X51978168Y-37427433D01*
X51969895Y-37424006D01*
X51967185Y-37419765D01*
X51796664Y-36955233D01*
X51797030Y-36946285D01*
X51803050Y-36940442D01*
X52065406Y-36828394D01*
X52074359Y-36828297D01*
X52074557Y-36828379D01*
G37*
%TD.AperFunction*%
%TD*%
%TA.AperFunction,Conductor*%
%TO.N,RA15*%
G36*
X52170105Y-73065994D02*
G01*
X52172815Y-73070235D01*
X52343335Y-73534766D01*
X52342969Y-73543714D01*
X52336947Y-73549558D01*
X52074595Y-73661604D01*
X52065641Y-73661702D01*
X52065405Y-73661604D01*
X51803052Y-73549558D01*
X51796789Y-73543157D01*
X51796664Y-73534766D01*
X51967185Y-73070235D01*
X51973252Y-73063650D01*
X51978168Y-73062567D01*
X52161832Y-73062567D01*
X52170105Y-73065994D01*
G37*
%TD.AperFunction*%
%TD*%
%TA.AperFunction,Conductor*%
%TO.N,~{MRQ}*%
G36*
X88540809Y-78629431D02*
G01*
X88546830Y-78635274D01*
X88725794Y-79021831D01*
X88754727Y-79084324D01*
X88755093Y-79093272D01*
X88752383Y-79097513D01*
X88622513Y-79227383D01*
X88614240Y-79230810D01*
X88609325Y-79229727D01*
X88160274Y-79021830D01*
X88154208Y-79015246D01*
X88154332Y-79006856D01*
X88260616Y-78742114D01*
X88266879Y-78735714D01*
X88267084Y-78735628D01*
X88531856Y-78629333D01*
X88540809Y-78629431D01*
G37*
%TD.AperFunction*%
%TD*%
%TA.AperFunction,Conductor*%
%TO.N,~{MRQ}*%
G36*
X89914157Y-87737748D02*
G01*
X89919950Y-87744577D01*
X89919619Y-87752632D01*
X89916780Y-87759485D01*
X89916781Y-87759486D01*
X90088300Y-87759486D01*
X90096573Y-87762913D01*
X90100000Y-87771186D01*
X90100000Y-87797674D01*
X90099109Y-87802151D01*
X90070718Y-87870692D01*
X90070714Y-87870702D01*
X89669053Y-89121326D01*
X89663260Y-89128155D01*
X89654576Y-89128962D01*
X88902639Y-88905237D01*
X88895687Y-88899593D01*
X88894764Y-88897365D01*
X88671037Y-88145421D01*
X88671962Y-88136516D01*
X88678671Y-88130947D01*
X89905232Y-87737015D01*
X89914157Y-87737748D01*
G37*
%TD.AperFunction*%
%TD*%
%TA.AperFunction,Conductor*%
%TO.N,Net-(U1-~{CS})*%
G36*
X128432305Y-67985994D02*
G01*
X128435015Y-67990235D01*
X128605535Y-68454766D01*
X128605169Y-68463714D01*
X128599147Y-68469558D01*
X128336795Y-68581604D01*
X128327841Y-68581702D01*
X128327605Y-68581604D01*
X128065252Y-68469558D01*
X128058989Y-68463157D01*
X128058864Y-68454766D01*
X128229385Y-67990235D01*
X128235452Y-67983650D01*
X128240368Y-67982567D01*
X128424032Y-67982567D01*
X128432305Y-67985994D01*
G37*
%TD.AperFunction*%
%TD*%
%TA.AperFunction,Conductor*%
%TO.N,Net-(U1-~{CS})*%
G36*
X129777765Y-50798161D02*
G01*
X130319644Y-51091527D01*
X130467803Y-51171739D01*
X130473447Y-51178691D01*
X130472711Y-51187233D01*
X129875426Y-52389653D01*
X129868677Y-52395538D01*
X129864948Y-52396148D01*
X129679452Y-52396148D01*
X129671179Y-52392721D01*
X129668974Y-52389653D01*
X129071688Y-51187233D01*
X129071076Y-51178299D01*
X129076595Y-51171739D01*
X129766631Y-50798162D01*
X129775537Y-50797238D01*
X129777765Y-50798161D01*
G37*
%TD.AperFunction*%
%TD*%
%TA.AperFunction,Conductor*%
%TO.N,Net-(U4A-C)*%
G36*
X82015105Y-85765994D02*
G01*
X82017815Y-85770235D01*
X82188335Y-86234766D01*
X82187969Y-86243714D01*
X82181947Y-86249558D01*
X81919595Y-86361604D01*
X81910641Y-86361702D01*
X81910405Y-86361604D01*
X81648052Y-86249558D01*
X81641789Y-86243157D01*
X81641664Y-86234766D01*
X81812185Y-85770235D01*
X81818252Y-85763650D01*
X81823168Y-85762567D01*
X82006832Y-85762567D01*
X82015105Y-85765994D01*
G37*
%TD.AperFunction*%
%TD*%
%TA.AperFunction,Conductor*%
%TO.N,/~{T_SEL}*%
G36*
X89959996Y-75003565D02*
G01*
X89963064Y-75005770D01*
X90094229Y-75136935D01*
X90097656Y-75145208D01*
X90097046Y-75148937D01*
X89669151Y-76421521D01*
X89663266Y-76428270D01*
X89654724Y-76429006D01*
X88902639Y-76205237D01*
X88895687Y-76199593D01*
X88894764Y-76197365D01*
X88670993Y-75445274D01*
X88671918Y-75436368D01*
X88678477Y-75430848D01*
X89951062Y-75002953D01*
X89959996Y-75003565D01*
G37*
%TD.AperFunction*%
%TD*%
%TA.AperFunction,Conductor*%
%TO.N,VCC*%
G36*
X87153040Y-76125319D02*
G01*
X87157223Y-76133234D01*
X87157224Y-76133252D01*
X87157225Y-76133253D01*
X87230710Y-76929289D01*
X87230710Y-76929291D01*
X87259108Y-76997847D01*
X87259999Y-77002324D01*
X87259999Y-77453078D01*
X87256572Y-77461351D01*
X87248299Y-77464778D01*
X87072601Y-77464778D01*
X87064328Y-77461351D01*
X87060901Y-77453078D01*
X87060933Y-77452211D01*
X87089288Y-77070710D01*
X87089286Y-77070709D01*
X87089286Y-77070708D01*
X86293253Y-76997225D01*
X86285329Y-76993053D01*
X86282678Y-76984500D01*
X86355664Y-76206217D01*
X86359847Y-76198303D01*
X86366217Y-76195664D01*
X87144485Y-76122679D01*
X87153040Y-76125319D01*
G37*
%TD.AperFunction*%
%TD*%
%TA.AperFunction,Conductor*%
%TO.N,VCC*%
G36*
X86461021Y-74607279D02*
G01*
X86463226Y-74610347D01*
X87060511Y-75812766D01*
X87061123Y-75821700D01*
X87055603Y-75828260D01*
X86365570Y-76201836D01*
X86356663Y-76202761D01*
X86354430Y-76201836D01*
X85664396Y-75828260D01*
X85658752Y-75821308D01*
X85659488Y-75812766D01*
X86256774Y-74610347D01*
X86263523Y-74604462D01*
X86267252Y-74603852D01*
X86452748Y-74603852D01*
X86461021Y-74607279D01*
G37*
%TD.AperFunction*%
%TD*%
%TA.AperFunction,Conductor*%
%TO.N,VCC*%
G36*
X86365565Y-68578161D02*
G01*
X86907444Y-68871527D01*
X87055603Y-68951739D01*
X87061247Y-68958691D01*
X87060511Y-68967233D01*
X86463226Y-70169653D01*
X86456477Y-70175538D01*
X86452748Y-70176148D01*
X86267252Y-70176148D01*
X86258979Y-70172721D01*
X86256774Y-70169653D01*
X85659488Y-68967233D01*
X85658876Y-68958299D01*
X85664395Y-68951739D01*
X86354431Y-68578162D01*
X86363337Y-68577238D01*
X86365565Y-68578161D01*
G37*
%TD.AperFunction*%
%TD*%
%TA.AperFunction,Conductor*%
%TO.N,~{RES}*%
G36*
X78748267Y-76207278D02*
G01*
X78748279Y-76207290D01*
X79459762Y-76919752D01*
X79463183Y-76928027D01*
X79460988Y-76934841D01*
X78843501Y-77795122D01*
X78835893Y-77799845D01*
X78833996Y-77800000D01*
X78646004Y-77800000D01*
X78637731Y-77796573D01*
X78636499Y-77795122D01*
X78019011Y-76934841D01*
X78016971Y-76926122D01*
X78020235Y-76919754D01*
X78731721Y-76207289D01*
X78739992Y-76203857D01*
X78748267Y-76207278D01*
G37*
%TD.AperFunction*%
%TD*%
%TA.AperFunction,Conductor*%
%TO.N,Net-(U4A-C)*%
G36*
X83817361Y-76194763D02*
G01*
X83824312Y-76200406D01*
X83825237Y-76202639D01*
X84049006Y-76954724D01*
X84048081Y-76963631D01*
X84041521Y-76969151D01*
X82768937Y-77397046D01*
X82760003Y-77396434D01*
X82756935Y-77394229D01*
X82625770Y-77263064D01*
X82622343Y-77254791D01*
X82622953Y-77251062D01*
X82978125Y-76194762D01*
X83050848Y-75978477D01*
X83056733Y-75971729D01*
X83065274Y-75970993D01*
X83817361Y-76194763D01*
G37*
%TD.AperFunction*%
%TD*%
%TA.AperFunction,Conductor*%
%TO.N,GND*%
G36*
X73910188Y-73297279D02*
G01*
X73912859Y-73301415D01*
X74421154Y-74646138D01*
X74420874Y-74655089D01*
X74414347Y-74661219D01*
X74413671Y-74661451D01*
X73663461Y-74893780D01*
X73656539Y-74893780D01*
X72906328Y-74661451D01*
X72899439Y-74655730D01*
X72898613Y-74646814D01*
X72898839Y-74646154D01*
X73407141Y-73301414D01*
X73413271Y-73294888D01*
X73418085Y-73293852D01*
X73901915Y-73293852D01*
X73910188Y-73297279D01*
G37*
%TD.AperFunction*%
%TD*%
%TA.AperFunction,Conductor*%
%TO.N,GND*%
G36*
X72964824Y-74518368D02*
G01*
X72965465Y-74518682D01*
X73660225Y-74884879D01*
X73665120Y-74889774D01*
X74031317Y-75584534D01*
X74032143Y-75593450D01*
X74026422Y-75600339D01*
X74025781Y-75600653D01*
X72715499Y-76192097D01*
X72706548Y-76192377D01*
X72702412Y-76189706D01*
X72360293Y-75847587D01*
X72356866Y-75839314D01*
X72357901Y-75834503D01*
X72949346Y-74524217D01*
X72955873Y-74518088D01*
X72964824Y-74518368D01*
G37*
%TD.AperFunction*%
%TD*%
%TA.AperFunction,Conductor*%
%TO.N,VCC*%
G36*
X74370339Y-69523577D02*
G01*
X74370653Y-69524218D01*
X74962097Y-70834500D01*
X74962377Y-70843451D01*
X74959706Y-70847587D01*
X74617587Y-71189706D01*
X74609314Y-71193133D01*
X74604500Y-71192097D01*
X73294218Y-70600653D01*
X73288088Y-70594126D01*
X73288368Y-70585175D01*
X73288675Y-70584547D01*
X73654880Y-69889772D01*
X73659772Y-69884880D01*
X74354535Y-69518681D01*
X74363450Y-69517856D01*
X74370339Y-69523577D01*
G37*
%TD.AperFunction*%
%TD*%
%TA.AperFunction,Conductor*%
%TO.N,VCC*%
G36*
X73910188Y-68297279D02*
G01*
X73912859Y-68301415D01*
X74421154Y-69646138D01*
X74420874Y-69655089D01*
X74414347Y-69661219D01*
X74413671Y-69661451D01*
X73663461Y-69893780D01*
X73656539Y-69893780D01*
X72906328Y-69661451D01*
X72899439Y-69655730D01*
X72898613Y-69646814D01*
X72898839Y-69646154D01*
X73407141Y-68301414D01*
X73413271Y-68294888D01*
X73418085Y-68293852D01*
X73901915Y-68293852D01*
X73910188Y-68297279D01*
G37*
%TD.AperFunction*%
%TD*%
%TA.AperFunction,Conductor*%
%TO.N,VCC*%
G36*
X75031021Y-92387279D02*
G01*
X75033226Y-92390347D01*
X75630511Y-93592766D01*
X75631123Y-93601700D01*
X75625603Y-93608260D01*
X74935570Y-93981836D01*
X74926663Y-93982761D01*
X74924430Y-93981836D01*
X74234396Y-93608260D01*
X74228752Y-93601308D01*
X74229488Y-93592766D01*
X74826774Y-92390347D01*
X74833523Y-92384462D01*
X74837252Y-92383852D01*
X75022748Y-92383852D01*
X75031021Y-92387279D01*
G37*
%TD.AperFunction*%
%TD*%
%TA.AperFunction,Conductor*%
%TO.N,VCC*%
G36*
X148555497Y-61007901D02*
G01*
X149865781Y-61599346D01*
X149871911Y-61605873D01*
X149871631Y-61614824D01*
X149871317Y-61615465D01*
X149505120Y-62310225D01*
X149500225Y-62315120D01*
X148805465Y-62681317D01*
X148796549Y-62682143D01*
X148789660Y-62676422D01*
X148789346Y-62675781D01*
X148197901Y-61365498D01*
X148197622Y-61356548D01*
X148200291Y-61352414D01*
X148542413Y-61010292D01*
X148550685Y-61006866D01*
X148555497Y-61007901D01*
G37*
%TD.AperFunction*%
%TD*%
%TA.AperFunction,Conductor*%
%TO.N,~{RAMS3}*%
G36*
X150263631Y-54461918D02*
G01*
X150269151Y-54468478D01*
X150697046Y-55741062D01*
X150696434Y-55749996D01*
X150694229Y-55753064D01*
X150563064Y-55884229D01*
X150554791Y-55887656D01*
X150551062Y-55887046D01*
X149278478Y-55459151D01*
X149271729Y-55453266D01*
X149270993Y-55444725D01*
X149494763Y-54692637D01*
X149500406Y-54685687D01*
X149502630Y-54684765D01*
X150254725Y-54460993D01*
X150263631Y-54461918D01*
G37*
%TD.AperFunction*%
%TD*%
M02*
