M48
; DRILL file KiCad 10.0.3 date 2026-08-19T21:44:07
; FORMAT={-:-/ absolute / metric / decimal}
; #@! TF.CreationDate,2026-08-19T21:44:07+02:00
; #@! TF.GenerationSoftware,Kicad,Pcbnew,10.0.3
; #@! TF.FileFunction,Plated,1,2,PTH
FMAT,2
METRIC
; #@! TA.AperFunction,Plated,PTH,ViaDrill
T1C0.300
; #@! TA.AperFunction,Plated,PTH,ComponentDrill
T2C0.800
; #@! TA.AperFunction,Plated,PTH,ComponentDrill
T3C1.000
; #@! TA.AperFunction,Plated,PTH,ComponentDrill
T4C1.100
%
G90
G05
T1
X49.53Y-39.37
X49.53Y-71.12
X50.8Y-38.1
X50.8Y-72.39
X52.07Y-36.83
X52.07Y-73.66
X53.34Y-38.1
X53.34Y-74.81
X58.42Y-40.64
X63.5Y-50.13
X63.5Y-66.04
X63.5Y-74.295
X63.859Y-51.4
X64.77Y-68.58
X66.04Y-52.249
X69.85Y-40.64
X73.66Y-52.59
X76.2Y-74.93
X76.2Y-81.28
X76.272Y-58.492
X77.47Y-39.19
X78.24Y-59.48
X80.01Y-52.5
X80.01Y-54.74
X80.01Y-66.04
X81.28Y-58.42
X81.915Y-86.36
X82.55Y-71.12
X83.82Y-38.1
X85.09Y-38.1
X85.09Y-66.04
X86.36Y-78.74
X86.36Y-83.82
X86.888Y-66.147
X88.265Y-78.74
X88.9Y-57.785
X91.44Y-36.83
X91.44Y-52.5
X93.98Y-45.72
X97.106Y-48.895
X97.79Y-83.185
X97.79Y-95.25
X98.425Y-68.58
X100.33Y-71.12
X101.6Y-67.31
X102.87Y-38.1
X104.14Y-43.18
X104.14Y-83.185
X104.372Y-66.675
X111.76Y-64.135
X115.57Y-53.34
X116.84Y-55.21
X116.84Y-91.44
X118.11Y-53.34
X118.11Y-81.28
X118.11Y-88.9
X119.38Y-54.61
X120.65Y-53.34
X121.92Y-63.5
X122.555Y-73.025
X123.19Y-53.34
X125.73Y-48.86
X127.0Y-55.88
X127.0Y-80.01
X128.27Y-48.86
X128.27Y-77.47
X128.332Y-68.58
X130.81Y-47.99
X131.712Y-48.26
X134.845Y-45.05
X138.43Y-46.99
X140.97Y-46.99
X140.97Y-73.66
X146.05Y-88.9
T2
X71.12Y-44.49
X71.12Y-49.49
X71.12Y-57.19
X71.12Y-62.19
X73.66Y-69.89
X73.66Y-74.89
X73.66Y-82.59
X73.66Y-87.59
X74.93Y-93.98
X76.2Y-43.18
X76.2Y-50.8
X76.2Y-55.88
X76.2Y-63.5
X78.74Y-43.18
X78.74Y-50.8
X78.74Y-55.88
X78.74Y-63.5
X78.74Y-68.58
X78.74Y-76.2
X78.74Y-81.28
X78.74Y-88.9
X81.28Y-43.18
X81.28Y-50.8
X81.28Y-55.88
X81.28Y-63.5
X81.28Y-68.58
X81.28Y-76.2
X81.28Y-81.28
X81.28Y-88.9
X82.55Y-93.98
X83.82Y-43.18
X83.82Y-50.8
X83.82Y-55.88
X83.82Y-63.5
X83.82Y-68.58
X83.82Y-76.2
X83.82Y-81.28
X83.82Y-88.9
X86.36Y-43.18
X86.36Y-50.8
X86.36Y-55.88
X86.36Y-63.5
X86.36Y-68.58
X86.36Y-76.2
X86.36Y-81.28
X86.36Y-88.9
X86.36Y-93.98
X88.9Y-43.18
X88.9Y-50.8
X88.9Y-55.88
X88.9Y-63.5
X88.9Y-68.58
X88.9Y-76.2
X88.9Y-81.28
X88.9Y-88.9
X91.44Y-43.18
X91.44Y-50.8
X91.44Y-55.88
X91.44Y-63.5
X91.44Y-68.58
X91.44Y-76.2
X91.44Y-81.28
X91.44Y-88.9
X93.98Y-43.18
X93.98Y-50.8
X93.98Y-55.88
X93.98Y-63.5
X93.98Y-68.58
X93.98Y-76.2
X93.98Y-81.28
X93.98Y-88.9
X93.98Y-93.98
X101.6Y-76.2
X101.6Y-78.74
X101.6Y-81.28
X101.6Y-83.82
X101.6Y-86.36
X101.6Y-88.9
X101.6Y-91.44
X101.6Y-93.98
X102.91Y-71.12
X104.372Y-55.88
X104.372Y-60.88
X107.91Y-71.12
X109.22Y-76.2
X109.22Y-78.74
X109.22Y-81.28
X109.22Y-83.82
X109.22Y-86.36
X109.22Y-88.9
X109.22Y-91.44
X109.22Y-93.98
X109.452Y-50.8
X109.452Y-66.04
X111.992Y-50.8
X111.992Y-66.04
X114.3Y-76.2
X114.3Y-78.74
X114.3Y-81.28
X114.3Y-83.82
X114.3Y-86.36
X114.3Y-88.9
X114.3Y-91.44
X114.3Y-93.98
X114.532Y-50.8
X114.532Y-66.04
X117.072Y-50.8
X117.072Y-66.04
X119.612Y-50.8
X119.612Y-66.04
X121.92Y-76.2
X121.92Y-78.74
X121.92Y-81.28
X121.92Y-83.82
X121.92Y-86.36
X121.92Y-88.9
X121.92Y-91.44
X121.92Y-93.98
X122.152Y-50.8
X122.152Y-66.04
X124.692Y-50.8
X124.692Y-66.04
X127.232Y-50.8
X127.232Y-66.04
X129.54Y-80.01
X129.54Y-82.55
X129.54Y-85.09
X129.54Y-87.63
X129.54Y-90.17
X129.772Y-50.8
X129.772Y-66.04
X132.08Y-77.47
X132.08Y-80.01
X132.08Y-82.55
X132.08Y-85.09
X132.08Y-87.63
X132.08Y-90.17
X132.08Y-92.71
X132.312Y-50.8
X132.312Y-66.04
X133.35Y-71.12
X134.62Y-77.47
X134.62Y-80.01
X134.62Y-90.17
X134.62Y-92.71
X134.66Y-43.18
X134.852Y-50.8
X134.852Y-66.04
X137.16Y-43.18
X137.16Y-77.47
X137.16Y-80.01
X137.16Y-90.17
X137.16Y-92.71
X137.392Y-50.8
X137.392Y-66.04
X138.35Y-71.12
X139.7Y-77.47
X139.7Y-80.01
X139.7Y-82.55
X139.7Y-85.09
X139.7Y-87.63
X139.7Y-90.17
X139.7Y-92.71
X139.932Y-50.8
X139.932Y-66.04
X142.24Y-80.01
X142.24Y-82.55
X142.24Y-85.09
X142.24Y-87.63
X142.24Y-90.17
X142.472Y-50.8
X142.472Y-66.04
X149.5Y-54.69
X149.5Y-62.31
T3
X40.64Y-43.18
X40.64Y-45.72
X40.64Y-48.26
X40.64Y-50.8
X40.64Y-53.34
X40.64Y-55.88
X40.64Y-58.42
X40.64Y-60.96
X40.64Y-63.5
X40.64Y-66.04
X40.64Y-68.58
X40.64Y-71.12
X40.64Y-73.66
X40.64Y-76.2
X40.64Y-78.74
X40.64Y-81.28
X40.64Y-83.82
X40.64Y-86.36
X40.64Y-88.9
X40.64Y-91.44
X43.18Y-43.18
X43.18Y-45.72
X43.18Y-48.26
X43.18Y-50.8
X43.18Y-53.34
X43.18Y-55.88
X43.18Y-58.42
X43.18Y-60.96
X43.18Y-63.5
X43.18Y-66.04
X43.18Y-68.58
X43.18Y-71.12
X43.18Y-73.66
X43.18Y-76.2
X43.18Y-78.74
X43.18Y-81.28
X43.18Y-83.82
X43.18Y-86.36
X43.18Y-88.9
X43.18Y-91.44
X58.42Y-43.18
X58.42Y-45.72
X58.42Y-48.26
X58.42Y-50.8
X58.42Y-53.34
X58.42Y-55.88
X58.42Y-58.42
X58.42Y-60.96
X58.42Y-63.5
X58.42Y-66.04
X58.42Y-68.58
X58.42Y-71.12
X58.42Y-73.66
X58.42Y-76.2
X58.42Y-78.74
X58.42Y-81.28
X58.42Y-83.82
X58.42Y-86.36
X58.42Y-88.9
X58.42Y-91.44
X60.96Y-43.18
X60.96Y-45.72
X60.96Y-48.26
X60.96Y-50.8
X60.96Y-53.34
X60.96Y-55.88
X60.96Y-58.42
X60.96Y-60.96
X60.96Y-63.5
X60.96Y-66.04
X60.96Y-68.58
X60.96Y-71.12
X60.96Y-73.66
X60.96Y-76.2
X60.96Y-78.74
X60.96Y-81.28
X60.96Y-83.82
X60.96Y-86.36
X60.96Y-88.9
X60.96Y-91.44
X141.605Y-41.91
X141.605Y-44.45
X150.812Y-82.233
X150.812Y-84.772
X150.812Y-87.312
T4
X149.86Y-40.64
X149.86Y-45.72
M30
