%TF.GenerationSoftware,KiCad,Pcbnew,10.0.3*%
%TF.CreationDate,2026-08-13T09:16:22+02:00*%
%TF.ProjectId,p2000m-cpm-coboard,70323030-306d-42d6-9370-6d2d636f626f,rev?*%
%TF.SameCoordinates,Original*%
%TF.FileFunction,Legend,Top*%
%TF.FilePolarity,Positive*%
%FSLAX46Y46*%
G04 Gerber Fmt 4.6, Leading zero omitted, Abs format (unit mm)*
G04 Created by KiCad (PCBNEW 10.0.3) date 2026-08-13 09:16:22*
%MOMM*%
%LPD*%
G01*
G04 APERTURE LIST*
%ADD10C,0.100000*%
%ADD11C,0.150000*%
%ADD12C,0.200000*%
%ADD13C,0.120000*%
G04 APERTURE END LIST*
D10*
X147637500Y-84137500D02*
G75*
G02*
X147637500Y-80962500I0J1587500D01*
G01*
X147637500Y-87312500D02*
G75*
G02*
X147637500Y-84137500I0J1587500D01*
G01*
X124208646Y-42205752D02*
X124446741Y-42872419D01*
X124446741Y-42872419D02*
X124684836Y-42205752D01*
X125589598Y-42872419D02*
X125018170Y-42872419D01*
X125303884Y-42872419D02*
X125303884Y-41872419D01*
X125303884Y-41872419D02*
X125208646Y-42015276D01*
X125208646Y-42015276D02*
X125113408Y-42110514D01*
X125113408Y-42110514D02*
X125018170Y-42158133D01*
X155447419Y-91136115D02*
X154447419Y-91136115D01*
X155447419Y-90707544D02*
X154923609Y-90707544D01*
X154923609Y-90707544D02*
X154828371Y-90755163D01*
X154828371Y-90755163D02*
X154780752Y-90850401D01*
X154780752Y-90850401D02*
X154780752Y-90993258D01*
X154780752Y-90993258D02*
X154828371Y-91088496D01*
X154828371Y-91088496D02*
X154875990Y-91136115D01*
X154780752Y-90374210D02*
X154780752Y-89993258D01*
X154447419Y-90231353D02*
X155304561Y-90231353D01*
X155304561Y-90231353D02*
X155399800Y-90183734D01*
X155399800Y-90183734D02*
X155447419Y-90088496D01*
X155447419Y-90088496D02*
X155447419Y-89993258D01*
X154780752Y-89802781D02*
X154780752Y-89421829D01*
X154447419Y-89659924D02*
X155304561Y-89659924D01*
X155304561Y-89659924D02*
X155399800Y-89612305D01*
X155399800Y-89612305D02*
X155447419Y-89517067D01*
X155447419Y-89517067D02*
X155447419Y-89421829D01*
X154780752Y-89088495D02*
X155780752Y-89088495D01*
X154828371Y-89088495D02*
X154780752Y-88993257D01*
X154780752Y-88993257D02*
X154780752Y-88802781D01*
X154780752Y-88802781D02*
X154828371Y-88707543D01*
X154828371Y-88707543D02*
X154875990Y-88659924D01*
X154875990Y-88659924D02*
X154971228Y-88612305D01*
X154971228Y-88612305D02*
X155256942Y-88612305D01*
X155256942Y-88612305D02*
X155352180Y-88659924D01*
X155352180Y-88659924D02*
X155399800Y-88707543D01*
X155399800Y-88707543D02*
X155447419Y-88802781D01*
X155447419Y-88802781D02*
X155447419Y-88993257D01*
X155447419Y-88993257D02*
X155399800Y-89088495D01*
X155399800Y-88231352D02*
X155447419Y-88136114D01*
X155447419Y-88136114D02*
X155447419Y-87945638D01*
X155447419Y-87945638D02*
X155399800Y-87850400D01*
X155399800Y-87850400D02*
X155304561Y-87802781D01*
X155304561Y-87802781D02*
X155256942Y-87802781D01*
X155256942Y-87802781D02*
X155161704Y-87850400D01*
X155161704Y-87850400D02*
X155114085Y-87945638D01*
X155114085Y-87945638D02*
X155114085Y-88088495D01*
X155114085Y-88088495D02*
X155066466Y-88183733D01*
X155066466Y-88183733D02*
X154971228Y-88231352D01*
X154971228Y-88231352D02*
X154923609Y-88231352D01*
X154923609Y-88231352D02*
X154828371Y-88183733D01*
X154828371Y-88183733D02*
X154780752Y-88088495D01*
X154780752Y-88088495D02*
X154780752Y-87945638D01*
X154780752Y-87945638D02*
X154828371Y-87850400D01*
X155352180Y-87374209D02*
X155399800Y-87326590D01*
X155399800Y-87326590D02*
X155447419Y-87374209D01*
X155447419Y-87374209D02*
X155399800Y-87421828D01*
X155399800Y-87421828D02*
X155352180Y-87374209D01*
X155352180Y-87374209D02*
X155447419Y-87374209D01*
X154828371Y-87374209D02*
X154875990Y-87326590D01*
X154875990Y-87326590D02*
X154923609Y-87374209D01*
X154923609Y-87374209D02*
X154875990Y-87421828D01*
X154875990Y-87421828D02*
X154828371Y-87374209D01*
X154828371Y-87374209D02*
X154923609Y-87374209D01*
X154399800Y-86183734D02*
X155685514Y-87040876D01*
X154399800Y-85136115D02*
X155685514Y-85993257D01*
X154780752Y-84374210D02*
X155590276Y-84374210D01*
X155590276Y-84374210D02*
X155685514Y-84421829D01*
X155685514Y-84421829D02*
X155733133Y-84469448D01*
X155733133Y-84469448D02*
X155780752Y-84564686D01*
X155780752Y-84564686D02*
X155780752Y-84707543D01*
X155780752Y-84707543D02*
X155733133Y-84802781D01*
X155399800Y-84374210D02*
X155447419Y-84469448D01*
X155447419Y-84469448D02*
X155447419Y-84659924D01*
X155447419Y-84659924D02*
X155399800Y-84755162D01*
X155399800Y-84755162D02*
X155352180Y-84802781D01*
X155352180Y-84802781D02*
X155256942Y-84850400D01*
X155256942Y-84850400D02*
X154971228Y-84850400D01*
X154971228Y-84850400D02*
X154875990Y-84802781D01*
X154875990Y-84802781D02*
X154828371Y-84755162D01*
X154828371Y-84755162D02*
X154780752Y-84659924D01*
X154780752Y-84659924D02*
X154780752Y-84469448D01*
X154780752Y-84469448D02*
X154828371Y-84374210D01*
X155447419Y-83898019D02*
X154780752Y-83898019D01*
X154447419Y-83898019D02*
X154495038Y-83945638D01*
X154495038Y-83945638D02*
X154542657Y-83898019D01*
X154542657Y-83898019D02*
X154495038Y-83850400D01*
X154495038Y-83850400D02*
X154447419Y-83898019D01*
X154447419Y-83898019D02*
X154542657Y-83898019D01*
X154780752Y-83564686D02*
X154780752Y-83183734D01*
X154447419Y-83421829D02*
X155304561Y-83421829D01*
X155304561Y-83421829D02*
X155399800Y-83374210D01*
X155399800Y-83374210D02*
X155447419Y-83278972D01*
X155447419Y-83278972D02*
X155447419Y-83183734D01*
X155447419Y-82850400D02*
X154447419Y-82850400D01*
X155447419Y-82421829D02*
X154923609Y-82421829D01*
X154923609Y-82421829D02*
X154828371Y-82469448D01*
X154828371Y-82469448D02*
X154780752Y-82564686D01*
X154780752Y-82564686D02*
X154780752Y-82707543D01*
X154780752Y-82707543D02*
X154828371Y-82802781D01*
X154828371Y-82802781D02*
X154875990Y-82850400D01*
X154780752Y-81517067D02*
X155447419Y-81517067D01*
X154780752Y-81945638D02*
X155304561Y-81945638D01*
X155304561Y-81945638D02*
X155399800Y-81898019D01*
X155399800Y-81898019D02*
X155447419Y-81802781D01*
X155447419Y-81802781D02*
X155447419Y-81659924D01*
X155447419Y-81659924D02*
X155399800Y-81564686D01*
X155399800Y-81564686D02*
X155352180Y-81517067D01*
X155447419Y-81040876D02*
X154447419Y-81040876D01*
X154828371Y-81040876D02*
X154780752Y-80945638D01*
X154780752Y-80945638D02*
X154780752Y-80755162D01*
X154780752Y-80755162D02*
X154828371Y-80659924D01*
X154828371Y-80659924D02*
X154875990Y-80612305D01*
X154875990Y-80612305D02*
X154971228Y-80564686D01*
X154971228Y-80564686D02*
X155256942Y-80564686D01*
X155256942Y-80564686D02*
X155352180Y-80612305D01*
X155352180Y-80612305D02*
X155399800Y-80659924D01*
X155399800Y-80659924D02*
X155447419Y-80755162D01*
X155447419Y-80755162D02*
X155447419Y-80945638D01*
X155447419Y-80945638D02*
X155399800Y-81040876D01*
X155352180Y-80136114D02*
X155399800Y-80088495D01*
X155399800Y-80088495D02*
X155447419Y-80136114D01*
X155447419Y-80136114D02*
X155399800Y-80183733D01*
X155399800Y-80183733D02*
X155352180Y-80136114D01*
X155352180Y-80136114D02*
X155447419Y-80136114D01*
X155399800Y-79231353D02*
X155447419Y-79326591D01*
X155447419Y-79326591D02*
X155447419Y-79517067D01*
X155447419Y-79517067D02*
X155399800Y-79612305D01*
X155399800Y-79612305D02*
X155352180Y-79659924D01*
X155352180Y-79659924D02*
X155256942Y-79707543D01*
X155256942Y-79707543D02*
X154971228Y-79707543D01*
X154971228Y-79707543D02*
X154875990Y-79659924D01*
X154875990Y-79659924D02*
X154828371Y-79612305D01*
X154828371Y-79612305D02*
X154780752Y-79517067D01*
X154780752Y-79517067D02*
X154780752Y-79326591D01*
X154780752Y-79326591D02*
X154828371Y-79231353D01*
X155447419Y-78659924D02*
X155399800Y-78755162D01*
X155399800Y-78755162D02*
X155352180Y-78802781D01*
X155352180Y-78802781D02*
X155256942Y-78850400D01*
X155256942Y-78850400D02*
X154971228Y-78850400D01*
X154971228Y-78850400D02*
X154875990Y-78802781D01*
X154875990Y-78802781D02*
X154828371Y-78755162D01*
X154828371Y-78755162D02*
X154780752Y-78659924D01*
X154780752Y-78659924D02*
X154780752Y-78517067D01*
X154780752Y-78517067D02*
X154828371Y-78421829D01*
X154828371Y-78421829D02*
X154875990Y-78374210D01*
X154875990Y-78374210D02*
X154971228Y-78326591D01*
X154971228Y-78326591D02*
X155256942Y-78326591D01*
X155256942Y-78326591D02*
X155352180Y-78374210D01*
X155352180Y-78374210D02*
X155399800Y-78421829D01*
X155399800Y-78421829D02*
X155447419Y-78517067D01*
X155447419Y-78517067D02*
X155447419Y-78659924D01*
X155447419Y-77898019D02*
X154780752Y-77898019D01*
X154875990Y-77898019D02*
X154828371Y-77850400D01*
X154828371Y-77850400D02*
X154780752Y-77755162D01*
X154780752Y-77755162D02*
X154780752Y-77612305D01*
X154780752Y-77612305D02*
X154828371Y-77517067D01*
X154828371Y-77517067D02*
X154923609Y-77469448D01*
X154923609Y-77469448D02*
X155447419Y-77469448D01*
X154923609Y-77469448D02*
X154828371Y-77421829D01*
X154828371Y-77421829D02*
X154780752Y-77326591D01*
X154780752Y-77326591D02*
X154780752Y-77183734D01*
X154780752Y-77183734D02*
X154828371Y-77088495D01*
X154828371Y-77088495D02*
X154923609Y-77040876D01*
X154923609Y-77040876D02*
X155447419Y-77040876D01*
X154399800Y-75850401D02*
X155685514Y-76707543D01*
X155447419Y-75517067D02*
X154780752Y-75517067D01*
X154447419Y-75517067D02*
X154495038Y-75564686D01*
X154495038Y-75564686D02*
X154542657Y-75517067D01*
X154542657Y-75517067D02*
X154495038Y-75469448D01*
X154495038Y-75469448D02*
X154447419Y-75517067D01*
X154447419Y-75517067D02*
X154542657Y-75517067D01*
X154780752Y-75183734D02*
X154780752Y-74802782D01*
X155447419Y-75040877D02*
X154590276Y-75040877D01*
X154590276Y-75040877D02*
X154495038Y-74993258D01*
X154495038Y-74993258D02*
X154447419Y-74898020D01*
X154447419Y-74898020D02*
X154447419Y-74802782D01*
X155447419Y-74469448D02*
X154780752Y-74469448D01*
X154447419Y-74469448D02*
X154495038Y-74517067D01*
X154495038Y-74517067D02*
X154542657Y-74469448D01*
X154542657Y-74469448D02*
X154495038Y-74421829D01*
X154495038Y-74421829D02*
X154447419Y-74469448D01*
X154447419Y-74469448D02*
X154542657Y-74469448D01*
X155447419Y-73850401D02*
X155399800Y-73945639D01*
X155399800Y-73945639D02*
X155304561Y-73993258D01*
X155304561Y-73993258D02*
X154447419Y-73993258D01*
X155447419Y-73326591D02*
X155399800Y-73421829D01*
X155399800Y-73421829D02*
X155352180Y-73469448D01*
X155352180Y-73469448D02*
X155256942Y-73517067D01*
X155256942Y-73517067D02*
X154971228Y-73517067D01*
X154971228Y-73517067D02*
X154875990Y-73469448D01*
X154875990Y-73469448D02*
X154828371Y-73421829D01*
X154828371Y-73421829D02*
X154780752Y-73326591D01*
X154780752Y-73326591D02*
X154780752Y-73183734D01*
X154780752Y-73183734D02*
X154828371Y-73088496D01*
X154828371Y-73088496D02*
X154875990Y-73040877D01*
X154875990Y-73040877D02*
X154971228Y-72993258D01*
X154971228Y-72993258D02*
X155256942Y-72993258D01*
X155256942Y-72993258D02*
X155352180Y-73040877D01*
X155352180Y-73040877D02*
X155399800Y-73088496D01*
X155399800Y-73088496D02*
X155447419Y-73183734D01*
X155447419Y-73183734D02*
X155447419Y-73326591D01*
X154780752Y-72707543D02*
X154780752Y-72326591D01*
X154447419Y-72564686D02*
X155304561Y-72564686D01*
X155304561Y-72564686D02*
X155399800Y-72517067D01*
X155399800Y-72517067D02*
X155447419Y-72421829D01*
X155447419Y-72421829D02*
X155447419Y-72326591D01*
X154399800Y-71278972D02*
X155685514Y-72136114D01*
X154780752Y-70945638D02*
X155780752Y-70945638D01*
X154828371Y-70945638D02*
X154780752Y-70850400D01*
X154780752Y-70850400D02*
X154780752Y-70659924D01*
X154780752Y-70659924D02*
X154828371Y-70564686D01*
X154828371Y-70564686D02*
X154875990Y-70517067D01*
X154875990Y-70517067D02*
X154971228Y-70469448D01*
X154971228Y-70469448D02*
X155256942Y-70469448D01*
X155256942Y-70469448D02*
X155352180Y-70517067D01*
X155352180Y-70517067D02*
X155399800Y-70564686D01*
X155399800Y-70564686D02*
X155447419Y-70659924D01*
X155447419Y-70659924D02*
X155447419Y-70850400D01*
X155447419Y-70850400D02*
X155399800Y-70945638D01*
X154542657Y-70088495D02*
X154495038Y-70040876D01*
X154495038Y-70040876D02*
X154447419Y-69945638D01*
X154447419Y-69945638D02*
X154447419Y-69707543D01*
X154447419Y-69707543D02*
X154495038Y-69612305D01*
X154495038Y-69612305D02*
X154542657Y-69564686D01*
X154542657Y-69564686D02*
X154637895Y-69517067D01*
X154637895Y-69517067D02*
X154733133Y-69517067D01*
X154733133Y-69517067D02*
X154875990Y-69564686D01*
X154875990Y-69564686D02*
X155447419Y-70136114D01*
X155447419Y-70136114D02*
X155447419Y-69517067D01*
X154447419Y-68898019D02*
X154447419Y-68802781D01*
X154447419Y-68802781D02*
X154495038Y-68707543D01*
X154495038Y-68707543D02*
X154542657Y-68659924D01*
X154542657Y-68659924D02*
X154637895Y-68612305D01*
X154637895Y-68612305D02*
X154828371Y-68564686D01*
X154828371Y-68564686D02*
X155066466Y-68564686D01*
X155066466Y-68564686D02*
X155256942Y-68612305D01*
X155256942Y-68612305D02*
X155352180Y-68659924D01*
X155352180Y-68659924D02*
X155399800Y-68707543D01*
X155399800Y-68707543D02*
X155447419Y-68802781D01*
X155447419Y-68802781D02*
X155447419Y-68898019D01*
X155447419Y-68898019D02*
X155399800Y-68993257D01*
X155399800Y-68993257D02*
X155352180Y-69040876D01*
X155352180Y-69040876D02*
X155256942Y-69088495D01*
X155256942Y-69088495D02*
X155066466Y-69136114D01*
X155066466Y-69136114D02*
X154828371Y-69136114D01*
X154828371Y-69136114D02*
X154637895Y-69088495D01*
X154637895Y-69088495D02*
X154542657Y-69040876D01*
X154542657Y-69040876D02*
X154495038Y-68993257D01*
X154495038Y-68993257D02*
X154447419Y-68898019D01*
X154447419Y-67945638D02*
X154447419Y-67850400D01*
X154447419Y-67850400D02*
X154495038Y-67755162D01*
X154495038Y-67755162D02*
X154542657Y-67707543D01*
X154542657Y-67707543D02*
X154637895Y-67659924D01*
X154637895Y-67659924D02*
X154828371Y-67612305D01*
X154828371Y-67612305D02*
X155066466Y-67612305D01*
X155066466Y-67612305D02*
X155256942Y-67659924D01*
X155256942Y-67659924D02*
X155352180Y-67707543D01*
X155352180Y-67707543D02*
X155399800Y-67755162D01*
X155399800Y-67755162D02*
X155447419Y-67850400D01*
X155447419Y-67850400D02*
X155447419Y-67945638D01*
X155447419Y-67945638D02*
X155399800Y-68040876D01*
X155399800Y-68040876D02*
X155352180Y-68088495D01*
X155352180Y-68088495D02*
X155256942Y-68136114D01*
X155256942Y-68136114D02*
X155066466Y-68183733D01*
X155066466Y-68183733D02*
X154828371Y-68183733D01*
X154828371Y-68183733D02*
X154637895Y-68136114D01*
X154637895Y-68136114D02*
X154542657Y-68088495D01*
X154542657Y-68088495D02*
X154495038Y-68040876D01*
X154495038Y-68040876D02*
X154447419Y-67945638D01*
X154447419Y-66993257D02*
X154447419Y-66898019D01*
X154447419Y-66898019D02*
X154495038Y-66802781D01*
X154495038Y-66802781D02*
X154542657Y-66755162D01*
X154542657Y-66755162D02*
X154637895Y-66707543D01*
X154637895Y-66707543D02*
X154828371Y-66659924D01*
X154828371Y-66659924D02*
X155066466Y-66659924D01*
X155066466Y-66659924D02*
X155256942Y-66707543D01*
X155256942Y-66707543D02*
X155352180Y-66755162D01*
X155352180Y-66755162D02*
X155399800Y-66802781D01*
X155399800Y-66802781D02*
X155447419Y-66898019D01*
X155447419Y-66898019D02*
X155447419Y-66993257D01*
X155447419Y-66993257D02*
X155399800Y-67088495D01*
X155399800Y-67088495D02*
X155352180Y-67136114D01*
X155352180Y-67136114D02*
X155256942Y-67183733D01*
X155256942Y-67183733D02*
X155066466Y-67231352D01*
X155066466Y-67231352D02*
X154828371Y-67231352D01*
X154828371Y-67231352D02*
X154637895Y-67183733D01*
X154637895Y-67183733D02*
X154542657Y-67136114D01*
X154542657Y-67136114D02*
X154495038Y-67088495D01*
X154495038Y-67088495D02*
X154447419Y-66993257D01*
X155447419Y-66231352D02*
X154780752Y-66231352D01*
X154875990Y-66231352D02*
X154828371Y-66183733D01*
X154828371Y-66183733D02*
X154780752Y-66088495D01*
X154780752Y-66088495D02*
X154780752Y-65945638D01*
X154780752Y-65945638D02*
X154828371Y-65850400D01*
X154828371Y-65850400D02*
X154923609Y-65802781D01*
X154923609Y-65802781D02*
X155447419Y-65802781D01*
X154923609Y-65802781D02*
X154828371Y-65755162D01*
X154828371Y-65755162D02*
X154780752Y-65659924D01*
X154780752Y-65659924D02*
X154780752Y-65517067D01*
X154780752Y-65517067D02*
X154828371Y-65421828D01*
X154828371Y-65421828D02*
X154923609Y-65374209D01*
X154923609Y-65374209D02*
X155447419Y-65374209D01*
X155066466Y-64898019D02*
X155066466Y-64136115D01*
X155399800Y-63231353D02*
X155447419Y-63326591D01*
X155447419Y-63326591D02*
X155447419Y-63517067D01*
X155447419Y-63517067D02*
X155399800Y-63612305D01*
X155399800Y-63612305D02*
X155352180Y-63659924D01*
X155352180Y-63659924D02*
X155256942Y-63707543D01*
X155256942Y-63707543D02*
X154971228Y-63707543D01*
X154971228Y-63707543D02*
X154875990Y-63659924D01*
X154875990Y-63659924D02*
X154828371Y-63612305D01*
X154828371Y-63612305D02*
X154780752Y-63517067D01*
X154780752Y-63517067D02*
X154780752Y-63326591D01*
X154780752Y-63326591D02*
X154828371Y-63231353D01*
X154780752Y-62802781D02*
X155780752Y-62802781D01*
X154828371Y-62802781D02*
X154780752Y-62707543D01*
X154780752Y-62707543D02*
X154780752Y-62517067D01*
X154780752Y-62517067D02*
X154828371Y-62421829D01*
X154828371Y-62421829D02*
X154875990Y-62374210D01*
X154875990Y-62374210D02*
X154971228Y-62326591D01*
X154971228Y-62326591D02*
X155256942Y-62326591D01*
X155256942Y-62326591D02*
X155352180Y-62374210D01*
X155352180Y-62374210D02*
X155399800Y-62421829D01*
X155399800Y-62421829D02*
X155447419Y-62517067D01*
X155447419Y-62517067D02*
X155447419Y-62707543D01*
X155447419Y-62707543D02*
X155399800Y-62802781D01*
X155447419Y-61898019D02*
X154780752Y-61898019D01*
X154875990Y-61898019D02*
X154828371Y-61850400D01*
X154828371Y-61850400D02*
X154780752Y-61755162D01*
X154780752Y-61755162D02*
X154780752Y-61612305D01*
X154780752Y-61612305D02*
X154828371Y-61517067D01*
X154828371Y-61517067D02*
X154923609Y-61469448D01*
X154923609Y-61469448D02*
X155447419Y-61469448D01*
X154923609Y-61469448D02*
X154828371Y-61421829D01*
X154828371Y-61421829D02*
X154780752Y-61326591D01*
X154780752Y-61326591D02*
X154780752Y-61183734D01*
X154780752Y-61183734D02*
X154828371Y-61088495D01*
X154828371Y-61088495D02*
X154923609Y-61040876D01*
X154923609Y-61040876D02*
X155447419Y-61040876D01*
X155066466Y-60564686D02*
X155066466Y-59802782D01*
X155399800Y-58898020D02*
X155447419Y-58993258D01*
X155447419Y-58993258D02*
X155447419Y-59183734D01*
X155447419Y-59183734D02*
X155399800Y-59278972D01*
X155399800Y-59278972D02*
X155352180Y-59326591D01*
X155352180Y-59326591D02*
X155256942Y-59374210D01*
X155256942Y-59374210D02*
X154971228Y-59374210D01*
X154971228Y-59374210D02*
X154875990Y-59326591D01*
X154875990Y-59326591D02*
X154828371Y-59278972D01*
X154828371Y-59278972D02*
X154780752Y-59183734D01*
X154780752Y-59183734D02*
X154780752Y-58993258D01*
X154780752Y-58993258D02*
X154828371Y-58898020D01*
X155447419Y-58326591D02*
X155399800Y-58421829D01*
X155399800Y-58421829D02*
X155352180Y-58469448D01*
X155352180Y-58469448D02*
X155256942Y-58517067D01*
X155256942Y-58517067D02*
X154971228Y-58517067D01*
X154971228Y-58517067D02*
X154875990Y-58469448D01*
X154875990Y-58469448D02*
X154828371Y-58421829D01*
X154828371Y-58421829D02*
X154780752Y-58326591D01*
X154780752Y-58326591D02*
X154780752Y-58183734D01*
X154780752Y-58183734D02*
X154828371Y-58088496D01*
X154828371Y-58088496D02*
X154875990Y-58040877D01*
X154875990Y-58040877D02*
X154971228Y-57993258D01*
X154971228Y-57993258D02*
X155256942Y-57993258D01*
X155256942Y-57993258D02*
X155352180Y-58040877D01*
X155352180Y-58040877D02*
X155399800Y-58088496D01*
X155399800Y-58088496D02*
X155447419Y-58183734D01*
X155447419Y-58183734D02*
X155447419Y-58326591D01*
X155447419Y-57564686D02*
X154447419Y-57564686D01*
X154828371Y-57564686D02*
X154780752Y-57469448D01*
X154780752Y-57469448D02*
X154780752Y-57278972D01*
X154780752Y-57278972D02*
X154828371Y-57183734D01*
X154828371Y-57183734D02*
X154875990Y-57136115D01*
X154875990Y-57136115D02*
X154971228Y-57088496D01*
X154971228Y-57088496D02*
X155256942Y-57088496D01*
X155256942Y-57088496D02*
X155352180Y-57136115D01*
X155352180Y-57136115D02*
X155399800Y-57183734D01*
X155399800Y-57183734D02*
X155447419Y-57278972D01*
X155447419Y-57278972D02*
X155447419Y-57469448D01*
X155447419Y-57469448D02*
X155399800Y-57564686D01*
X155447419Y-56517067D02*
X155399800Y-56612305D01*
X155399800Y-56612305D02*
X155352180Y-56659924D01*
X155352180Y-56659924D02*
X155256942Y-56707543D01*
X155256942Y-56707543D02*
X154971228Y-56707543D01*
X154971228Y-56707543D02*
X154875990Y-56659924D01*
X154875990Y-56659924D02*
X154828371Y-56612305D01*
X154828371Y-56612305D02*
X154780752Y-56517067D01*
X154780752Y-56517067D02*
X154780752Y-56374210D01*
X154780752Y-56374210D02*
X154828371Y-56278972D01*
X154828371Y-56278972D02*
X154875990Y-56231353D01*
X154875990Y-56231353D02*
X154971228Y-56183734D01*
X154971228Y-56183734D02*
X155256942Y-56183734D01*
X155256942Y-56183734D02*
X155352180Y-56231353D01*
X155352180Y-56231353D02*
X155399800Y-56278972D01*
X155399800Y-56278972D02*
X155447419Y-56374210D01*
X155447419Y-56374210D02*
X155447419Y-56517067D01*
X155447419Y-55326591D02*
X154923609Y-55326591D01*
X154923609Y-55326591D02*
X154828371Y-55374210D01*
X154828371Y-55374210D02*
X154780752Y-55469448D01*
X154780752Y-55469448D02*
X154780752Y-55659924D01*
X154780752Y-55659924D02*
X154828371Y-55755162D01*
X155399800Y-55326591D02*
X155447419Y-55421829D01*
X155447419Y-55421829D02*
X155447419Y-55659924D01*
X155447419Y-55659924D02*
X155399800Y-55755162D01*
X155399800Y-55755162D02*
X155304561Y-55802781D01*
X155304561Y-55802781D02*
X155209323Y-55802781D01*
X155209323Y-55802781D02*
X155114085Y-55755162D01*
X155114085Y-55755162D02*
X155066466Y-55659924D01*
X155066466Y-55659924D02*
X155066466Y-55421829D01*
X155066466Y-55421829D02*
X155018847Y-55326591D01*
X155447419Y-54850400D02*
X154780752Y-54850400D01*
X154971228Y-54850400D02*
X154875990Y-54802781D01*
X154875990Y-54802781D02*
X154828371Y-54755162D01*
X154828371Y-54755162D02*
X154780752Y-54659924D01*
X154780752Y-54659924D02*
X154780752Y-54564686D01*
X155447419Y-53802781D02*
X154447419Y-53802781D01*
X155399800Y-53802781D02*
X155447419Y-53898019D01*
X155447419Y-53898019D02*
X155447419Y-54088495D01*
X155447419Y-54088495D02*
X155399800Y-54183733D01*
X155399800Y-54183733D02*
X155352180Y-54231352D01*
X155352180Y-54231352D02*
X155256942Y-54278971D01*
X155256942Y-54278971D02*
X154971228Y-54278971D01*
X154971228Y-54278971D02*
X154875990Y-54231352D01*
X154875990Y-54231352D02*
X154828371Y-54183733D01*
X154828371Y-54183733D02*
X154780752Y-54088495D01*
X154780752Y-54088495D02*
X154780752Y-53898019D01*
X154780752Y-53898019D02*
X154828371Y-53802781D01*
X35432419Y-42894285D02*
X35432419Y-43465713D01*
X35432419Y-43179999D02*
X34432419Y-43179999D01*
X34432419Y-43179999D02*
X34575276Y-43275237D01*
X34575276Y-43275237D02*
X34670514Y-43370475D01*
X34670514Y-43370475D02*
X34718133Y-43465713D01*
X35702419Y-92249523D02*
X35702419Y-91630476D01*
X35702419Y-91630476D02*
X36083371Y-91963809D01*
X36083371Y-91963809D02*
X36083371Y-91820952D01*
X36083371Y-91820952D02*
X36130990Y-91725714D01*
X36130990Y-91725714D02*
X36178609Y-91678095D01*
X36178609Y-91678095D02*
X36273847Y-91630476D01*
X36273847Y-91630476D02*
X36511942Y-91630476D01*
X36511942Y-91630476D02*
X36607180Y-91678095D01*
X36607180Y-91678095D02*
X36654800Y-91725714D01*
X36654800Y-91725714D02*
X36702419Y-91820952D01*
X36702419Y-91820952D02*
X36702419Y-92106666D01*
X36702419Y-92106666D02*
X36654800Y-92201904D01*
X36654800Y-92201904D02*
X36607180Y-92249523D01*
X36702419Y-91154285D02*
X36702419Y-90963809D01*
X36702419Y-90963809D02*
X36654800Y-90868571D01*
X36654800Y-90868571D02*
X36607180Y-90820952D01*
X36607180Y-90820952D02*
X36464323Y-90725714D01*
X36464323Y-90725714D02*
X36273847Y-90678095D01*
X36273847Y-90678095D02*
X35892895Y-90678095D01*
X35892895Y-90678095D02*
X35797657Y-90725714D01*
X35797657Y-90725714D02*
X35750038Y-90773333D01*
X35750038Y-90773333D02*
X35702419Y-90868571D01*
X35702419Y-90868571D02*
X35702419Y-91059047D01*
X35702419Y-91059047D02*
X35750038Y-91154285D01*
X35750038Y-91154285D02*
X35797657Y-91201904D01*
X35797657Y-91201904D02*
X35892895Y-91249523D01*
X35892895Y-91249523D02*
X36130990Y-91249523D01*
X36130990Y-91249523D02*
X36226228Y-91201904D01*
X36226228Y-91201904D02*
X36273847Y-91154285D01*
X36273847Y-91154285D02*
X36321466Y-91059047D01*
X36321466Y-91059047D02*
X36321466Y-90868571D01*
X36321466Y-90868571D02*
X36273847Y-90773333D01*
X36273847Y-90773333D02*
X36226228Y-90725714D01*
X36226228Y-90725714D02*
X36130990Y-90678095D01*
X47227657Y-43465713D02*
X47180038Y-43418094D01*
X47180038Y-43418094D02*
X47132419Y-43322856D01*
X47132419Y-43322856D02*
X47132419Y-43084761D01*
X47132419Y-43084761D02*
X47180038Y-42989523D01*
X47180038Y-42989523D02*
X47227657Y-42941904D01*
X47227657Y-42941904D02*
X47322895Y-42894285D01*
X47322895Y-42894285D02*
X47418133Y-42894285D01*
X47418133Y-42894285D02*
X47560990Y-42941904D01*
X47560990Y-42941904D02*
X48132419Y-43513332D01*
X48132419Y-43513332D02*
X48132419Y-42894285D01*
X47465752Y-91725714D02*
X48132419Y-91725714D01*
X47084800Y-91963809D02*
X47799085Y-92201904D01*
X47799085Y-92201904D02*
X47799085Y-91582857D01*
X47132419Y-91011428D02*
X47132419Y-90916190D01*
X47132419Y-90916190D02*
X47180038Y-90820952D01*
X47180038Y-90820952D02*
X47227657Y-90773333D01*
X47227657Y-90773333D02*
X47322895Y-90725714D01*
X47322895Y-90725714D02*
X47513371Y-90678095D01*
X47513371Y-90678095D02*
X47751466Y-90678095D01*
X47751466Y-90678095D02*
X47941942Y-90725714D01*
X47941942Y-90725714D02*
X48037180Y-90773333D01*
X48037180Y-90773333D02*
X48084800Y-90820952D01*
X48084800Y-90820952D02*
X48132419Y-90916190D01*
X48132419Y-90916190D02*
X48132419Y-91011428D01*
X48132419Y-91011428D02*
X48084800Y-91106666D01*
X48084800Y-91106666D02*
X48037180Y-91154285D01*
X48037180Y-91154285D02*
X47941942Y-91201904D01*
X47941942Y-91201904D02*
X47751466Y-91249523D01*
X47751466Y-91249523D02*
X47513371Y-91249523D01*
X47513371Y-91249523D02*
X47322895Y-91201904D01*
X47322895Y-91201904D02*
X47227657Y-91154285D01*
X47227657Y-91154285D02*
X47180038Y-91106666D01*
X47180038Y-91106666D02*
X47132419Y-91011428D01*
X53212419Y-42894285D02*
X53212419Y-43465713D01*
X53212419Y-43179999D02*
X52212419Y-43179999D01*
X52212419Y-43179999D02*
X52355276Y-43275237D01*
X52355276Y-43275237D02*
X52450514Y-43370475D01*
X52450514Y-43370475D02*
X52498133Y-43465713D01*
X53482419Y-92249523D02*
X53482419Y-91630476D01*
X53482419Y-91630476D02*
X53863371Y-91963809D01*
X53863371Y-91963809D02*
X53863371Y-91820952D01*
X53863371Y-91820952D02*
X53910990Y-91725714D01*
X53910990Y-91725714D02*
X53958609Y-91678095D01*
X53958609Y-91678095D02*
X54053847Y-91630476D01*
X54053847Y-91630476D02*
X54291942Y-91630476D01*
X54291942Y-91630476D02*
X54387180Y-91678095D01*
X54387180Y-91678095D02*
X54434800Y-91725714D01*
X54434800Y-91725714D02*
X54482419Y-91820952D01*
X54482419Y-91820952D02*
X54482419Y-92106666D01*
X54482419Y-92106666D02*
X54434800Y-92201904D01*
X54434800Y-92201904D02*
X54387180Y-92249523D01*
X54482419Y-91154285D02*
X54482419Y-90963809D01*
X54482419Y-90963809D02*
X54434800Y-90868571D01*
X54434800Y-90868571D02*
X54387180Y-90820952D01*
X54387180Y-90820952D02*
X54244323Y-90725714D01*
X54244323Y-90725714D02*
X54053847Y-90678095D01*
X54053847Y-90678095D02*
X53672895Y-90678095D01*
X53672895Y-90678095D02*
X53577657Y-90725714D01*
X53577657Y-90725714D02*
X53530038Y-90773333D01*
X53530038Y-90773333D02*
X53482419Y-90868571D01*
X53482419Y-90868571D02*
X53482419Y-91059047D01*
X53482419Y-91059047D02*
X53530038Y-91154285D01*
X53530038Y-91154285D02*
X53577657Y-91201904D01*
X53577657Y-91201904D02*
X53672895Y-91249523D01*
X53672895Y-91249523D02*
X53910990Y-91249523D01*
X53910990Y-91249523D02*
X54006228Y-91201904D01*
X54006228Y-91201904D02*
X54053847Y-91154285D01*
X54053847Y-91154285D02*
X54101466Y-91059047D01*
X54101466Y-91059047D02*
X54101466Y-90868571D01*
X54101466Y-90868571D02*
X54053847Y-90773333D01*
X54053847Y-90773333D02*
X54006228Y-90725714D01*
X54006228Y-90725714D02*
X53910990Y-90678095D01*
X65007657Y-43465713D02*
X64960038Y-43418094D01*
X64960038Y-43418094D02*
X64912419Y-43322856D01*
X64912419Y-43322856D02*
X64912419Y-43084761D01*
X64912419Y-43084761D02*
X64960038Y-42989523D01*
X64960038Y-42989523D02*
X65007657Y-42941904D01*
X65007657Y-42941904D02*
X65102895Y-42894285D01*
X65102895Y-42894285D02*
X65198133Y-42894285D01*
X65198133Y-42894285D02*
X65340990Y-42941904D01*
X65340990Y-42941904D02*
X65912419Y-43513332D01*
X65912419Y-43513332D02*
X65912419Y-42894285D01*
X65245752Y-91725714D02*
X65912419Y-91725714D01*
X64864800Y-91963809D02*
X65579085Y-92201904D01*
X65579085Y-92201904D02*
X65579085Y-91582857D01*
X64912419Y-91011428D02*
X64912419Y-90916190D01*
X64912419Y-90916190D02*
X64960038Y-90820952D01*
X64960038Y-90820952D02*
X65007657Y-90773333D01*
X65007657Y-90773333D02*
X65102895Y-90725714D01*
X65102895Y-90725714D02*
X65293371Y-90678095D01*
X65293371Y-90678095D02*
X65531466Y-90678095D01*
X65531466Y-90678095D02*
X65721942Y-90725714D01*
X65721942Y-90725714D02*
X65817180Y-90773333D01*
X65817180Y-90773333D02*
X65864800Y-90820952D01*
X65864800Y-90820952D02*
X65912419Y-90916190D01*
X65912419Y-90916190D02*
X65912419Y-91011428D01*
X65912419Y-91011428D02*
X65864800Y-91106666D01*
X65864800Y-91106666D02*
X65817180Y-91154285D01*
X65817180Y-91154285D02*
X65721942Y-91201904D01*
X65721942Y-91201904D02*
X65531466Y-91249523D01*
X65531466Y-91249523D02*
X65293371Y-91249523D01*
X65293371Y-91249523D02*
X65102895Y-91201904D01*
X65102895Y-91201904D02*
X65007657Y-91154285D01*
X65007657Y-91154285D02*
X64960038Y-91106666D01*
X64960038Y-91106666D02*
X64912419Y-91011428D01*
X146509919Y-82835713D02*
X146509919Y-82264285D01*
X147509919Y-82549999D02*
X146509919Y-82549999D01*
X147509919Y-86058332D02*
X146509919Y-86058332D01*
X146509919Y-86058332D02*
X147224204Y-85724999D01*
X147224204Y-85724999D02*
X146509919Y-85391666D01*
X146509919Y-85391666D02*
X147509919Y-85391666D01*
D11*
X74631779Y-91944819D02*
X74631779Y-90944819D01*
X75107969Y-91278152D02*
X75107969Y-91944819D01*
X75107969Y-91373390D02*
X75155588Y-91325771D01*
X75155588Y-91325771D02*
X75250826Y-91278152D01*
X75250826Y-91278152D02*
X75393683Y-91278152D01*
X75393683Y-91278152D02*
X75488921Y-91325771D01*
X75488921Y-91325771D02*
X75536540Y-91421009D01*
X75536540Y-91421009D02*
X75536540Y-91944819D01*
X75965112Y-91897200D02*
X76060350Y-91944819D01*
X76060350Y-91944819D02*
X76250826Y-91944819D01*
X76250826Y-91944819D02*
X76346064Y-91897200D01*
X76346064Y-91897200D02*
X76393683Y-91801961D01*
X76393683Y-91801961D02*
X76393683Y-91754342D01*
X76393683Y-91754342D02*
X76346064Y-91659104D01*
X76346064Y-91659104D02*
X76250826Y-91611485D01*
X76250826Y-91611485D02*
X76107969Y-91611485D01*
X76107969Y-91611485D02*
X76012731Y-91563866D01*
X76012731Y-91563866D02*
X75965112Y-91468628D01*
X75965112Y-91468628D02*
X75965112Y-91421009D01*
X75965112Y-91421009D02*
X76012731Y-91325771D01*
X76012731Y-91325771D02*
X76107969Y-91278152D01*
X76107969Y-91278152D02*
X76250826Y-91278152D01*
X76250826Y-91278152D02*
X76346064Y-91325771D01*
X77203207Y-91897200D02*
X77107969Y-91944819D01*
X77107969Y-91944819D02*
X76917493Y-91944819D01*
X76917493Y-91944819D02*
X76822255Y-91897200D01*
X76822255Y-91897200D02*
X76774636Y-91801961D01*
X76774636Y-91801961D02*
X76774636Y-91421009D01*
X76774636Y-91421009D02*
X76822255Y-91325771D01*
X76822255Y-91325771D02*
X76917493Y-91278152D01*
X76917493Y-91278152D02*
X77107969Y-91278152D01*
X77107969Y-91278152D02*
X77203207Y-91325771D01*
X77203207Y-91325771D02*
X77250826Y-91421009D01*
X77250826Y-91421009D02*
X77250826Y-91516247D01*
X77250826Y-91516247D02*
X76774636Y-91611485D01*
X77679398Y-91944819D02*
X77679398Y-91278152D01*
X77679398Y-91468628D02*
X77727017Y-91373390D01*
X77727017Y-91373390D02*
X77774636Y-91325771D01*
X77774636Y-91325771D02*
X77869874Y-91278152D01*
X77869874Y-91278152D02*
X77965112Y-91278152D01*
X78155589Y-91278152D02*
X78536541Y-91278152D01*
X78298446Y-90944819D02*
X78298446Y-91801961D01*
X78298446Y-91801961D02*
X78346065Y-91897200D01*
X78346065Y-91897200D02*
X78441303Y-91944819D01*
X78441303Y-91944819D02*
X78536541Y-91944819D01*
X79631780Y-91944819D02*
X79631780Y-90944819D01*
X79631780Y-90944819D02*
X80012732Y-90944819D01*
X80012732Y-90944819D02*
X80107970Y-90992438D01*
X80107970Y-90992438D02*
X80155589Y-91040057D01*
X80155589Y-91040057D02*
X80203208Y-91135295D01*
X80203208Y-91135295D02*
X80203208Y-91278152D01*
X80203208Y-91278152D02*
X80155589Y-91373390D01*
X80155589Y-91373390D02*
X80107970Y-91421009D01*
X80107970Y-91421009D02*
X80012732Y-91468628D01*
X80012732Y-91468628D02*
X79631780Y-91468628D01*
X81203208Y-91944819D02*
X80869875Y-91468628D01*
X80631780Y-91944819D02*
X80631780Y-90944819D01*
X80631780Y-90944819D02*
X81012732Y-90944819D01*
X81012732Y-90944819D02*
X81107970Y-90992438D01*
X81107970Y-90992438D02*
X81155589Y-91040057D01*
X81155589Y-91040057D02*
X81203208Y-91135295D01*
X81203208Y-91135295D02*
X81203208Y-91278152D01*
X81203208Y-91278152D02*
X81155589Y-91373390D01*
X81155589Y-91373390D02*
X81107970Y-91421009D01*
X81107970Y-91421009D02*
X81012732Y-91468628D01*
X81012732Y-91468628D02*
X80631780Y-91468628D01*
X81822256Y-90944819D02*
X82012732Y-90944819D01*
X82012732Y-90944819D02*
X82107970Y-90992438D01*
X82107970Y-90992438D02*
X82203208Y-91087676D01*
X82203208Y-91087676D02*
X82250827Y-91278152D01*
X82250827Y-91278152D02*
X82250827Y-91611485D01*
X82250827Y-91611485D02*
X82203208Y-91801961D01*
X82203208Y-91801961D02*
X82107970Y-91897200D01*
X82107970Y-91897200D02*
X82012732Y-91944819D01*
X82012732Y-91944819D02*
X81822256Y-91944819D01*
X81822256Y-91944819D02*
X81727018Y-91897200D01*
X81727018Y-91897200D02*
X81631780Y-91801961D01*
X81631780Y-91801961D02*
X81584161Y-91611485D01*
X81584161Y-91611485D02*
X81584161Y-91278152D01*
X81584161Y-91278152D02*
X81631780Y-91087676D01*
X81631780Y-91087676D02*
X81727018Y-90992438D01*
X81727018Y-90992438D02*
X81822256Y-90944819D01*
X82679399Y-91944819D02*
X82679399Y-90944819D01*
X82679399Y-90944819D02*
X83012732Y-91659104D01*
X83012732Y-91659104D02*
X83346065Y-90944819D01*
X83346065Y-90944819D02*
X83346065Y-91944819D01*
X84441304Y-91278152D02*
X84822256Y-91278152D01*
X84584161Y-91944819D02*
X84584161Y-91087676D01*
X84584161Y-91087676D02*
X84631780Y-90992438D01*
X84631780Y-90992438D02*
X84727018Y-90944819D01*
X84727018Y-90944819D02*
X84822256Y-90944819D01*
X85155590Y-91944819D02*
X85155590Y-91278152D01*
X85155590Y-91468628D02*
X85203209Y-91373390D01*
X85203209Y-91373390D02*
X85250828Y-91325771D01*
X85250828Y-91325771D02*
X85346066Y-91278152D01*
X85346066Y-91278152D02*
X85441304Y-91278152D01*
X85917495Y-91944819D02*
X85822257Y-91897200D01*
X85822257Y-91897200D02*
X85774638Y-91849580D01*
X85774638Y-91849580D02*
X85727019Y-91754342D01*
X85727019Y-91754342D02*
X85727019Y-91468628D01*
X85727019Y-91468628D02*
X85774638Y-91373390D01*
X85774638Y-91373390D02*
X85822257Y-91325771D01*
X85822257Y-91325771D02*
X85917495Y-91278152D01*
X85917495Y-91278152D02*
X86060352Y-91278152D01*
X86060352Y-91278152D02*
X86155590Y-91325771D01*
X86155590Y-91325771D02*
X86203209Y-91373390D01*
X86203209Y-91373390D02*
X86250828Y-91468628D01*
X86250828Y-91468628D02*
X86250828Y-91754342D01*
X86250828Y-91754342D02*
X86203209Y-91849580D01*
X86203209Y-91849580D02*
X86155590Y-91897200D01*
X86155590Y-91897200D02*
X86060352Y-91944819D01*
X86060352Y-91944819D02*
X85917495Y-91944819D01*
X86679400Y-91944819D02*
X86679400Y-91278152D01*
X86679400Y-91373390D02*
X86727019Y-91325771D01*
X86727019Y-91325771D02*
X86822257Y-91278152D01*
X86822257Y-91278152D02*
X86965114Y-91278152D01*
X86965114Y-91278152D02*
X87060352Y-91325771D01*
X87060352Y-91325771D02*
X87107971Y-91421009D01*
X87107971Y-91421009D02*
X87107971Y-91944819D01*
X87107971Y-91421009D02*
X87155590Y-91325771D01*
X87155590Y-91325771D02*
X87250828Y-91278152D01*
X87250828Y-91278152D02*
X87393685Y-91278152D01*
X87393685Y-91278152D02*
X87488924Y-91325771D01*
X87488924Y-91325771D02*
X87536543Y-91421009D01*
X87536543Y-91421009D02*
X87536543Y-91944819D01*
X89346066Y-91849580D02*
X89298447Y-91897200D01*
X89298447Y-91897200D02*
X89155590Y-91944819D01*
X89155590Y-91944819D02*
X89060352Y-91944819D01*
X89060352Y-91944819D02*
X88917495Y-91897200D01*
X88917495Y-91897200D02*
X88822257Y-91801961D01*
X88822257Y-91801961D02*
X88774638Y-91706723D01*
X88774638Y-91706723D02*
X88727019Y-91516247D01*
X88727019Y-91516247D02*
X88727019Y-91373390D01*
X88727019Y-91373390D02*
X88774638Y-91182914D01*
X88774638Y-91182914D02*
X88822257Y-91087676D01*
X88822257Y-91087676D02*
X88917495Y-90992438D01*
X88917495Y-90992438D02*
X89060352Y-90944819D01*
X89060352Y-90944819D02*
X89155590Y-90944819D01*
X89155590Y-90944819D02*
X89298447Y-90992438D01*
X89298447Y-90992438D02*
X89346066Y-91040057D01*
X89774638Y-91944819D02*
X89774638Y-90944819D01*
X89774638Y-90944819D02*
X90155590Y-90944819D01*
X90155590Y-90944819D02*
X90250828Y-90992438D01*
X90250828Y-90992438D02*
X90298447Y-91040057D01*
X90298447Y-91040057D02*
X90346066Y-91135295D01*
X90346066Y-91135295D02*
X90346066Y-91278152D01*
X90346066Y-91278152D02*
X90298447Y-91373390D01*
X90298447Y-91373390D02*
X90250828Y-91421009D01*
X90250828Y-91421009D02*
X90155590Y-91468628D01*
X90155590Y-91468628D02*
X89774638Y-91468628D01*
X90774638Y-90944819D02*
X90774638Y-91754342D01*
X90774638Y-91754342D02*
X90822257Y-91849580D01*
X90822257Y-91849580D02*
X90869876Y-91897200D01*
X90869876Y-91897200D02*
X90965114Y-91944819D01*
X90965114Y-91944819D02*
X91155590Y-91944819D01*
X91155590Y-91944819D02*
X91250828Y-91897200D01*
X91250828Y-91897200D02*
X91298447Y-91849580D01*
X91298447Y-91849580D02*
X91346066Y-91754342D01*
X91346066Y-91754342D02*
X91346066Y-90944819D01*
X92584162Y-91944819D02*
X92584162Y-90944819D01*
X92584162Y-91325771D02*
X92679400Y-91278152D01*
X92679400Y-91278152D02*
X92869876Y-91278152D01*
X92869876Y-91278152D02*
X92965114Y-91325771D01*
X92965114Y-91325771D02*
X93012733Y-91373390D01*
X93012733Y-91373390D02*
X93060352Y-91468628D01*
X93060352Y-91468628D02*
X93060352Y-91754342D01*
X93060352Y-91754342D02*
X93012733Y-91849580D01*
X93012733Y-91849580D02*
X92965114Y-91897200D01*
X92965114Y-91897200D02*
X92869876Y-91944819D01*
X92869876Y-91944819D02*
X92679400Y-91944819D01*
X92679400Y-91944819D02*
X92584162Y-91897200D01*
X93631781Y-91944819D02*
X93536543Y-91897200D01*
X93536543Y-91897200D02*
X93488924Y-91849580D01*
X93488924Y-91849580D02*
X93441305Y-91754342D01*
X93441305Y-91754342D02*
X93441305Y-91468628D01*
X93441305Y-91468628D02*
X93488924Y-91373390D01*
X93488924Y-91373390D02*
X93536543Y-91325771D01*
X93536543Y-91325771D02*
X93631781Y-91278152D01*
X93631781Y-91278152D02*
X93774638Y-91278152D01*
X93774638Y-91278152D02*
X93869876Y-91325771D01*
X93869876Y-91325771D02*
X93917495Y-91373390D01*
X93917495Y-91373390D02*
X93965114Y-91468628D01*
X93965114Y-91468628D02*
X93965114Y-91754342D01*
X93965114Y-91754342D02*
X93917495Y-91849580D01*
X93917495Y-91849580D02*
X93869876Y-91897200D01*
X93869876Y-91897200D02*
X93774638Y-91944819D01*
X93774638Y-91944819D02*
X93631781Y-91944819D01*
X94822257Y-91944819D02*
X94822257Y-91421009D01*
X94822257Y-91421009D02*
X94774638Y-91325771D01*
X94774638Y-91325771D02*
X94679400Y-91278152D01*
X94679400Y-91278152D02*
X94488924Y-91278152D01*
X94488924Y-91278152D02*
X94393686Y-91325771D01*
X94822257Y-91897200D02*
X94727019Y-91944819D01*
X94727019Y-91944819D02*
X94488924Y-91944819D01*
X94488924Y-91944819D02*
X94393686Y-91897200D01*
X94393686Y-91897200D02*
X94346067Y-91801961D01*
X94346067Y-91801961D02*
X94346067Y-91706723D01*
X94346067Y-91706723D02*
X94393686Y-91611485D01*
X94393686Y-91611485D02*
X94488924Y-91563866D01*
X94488924Y-91563866D02*
X94727019Y-91563866D01*
X94727019Y-91563866D02*
X94822257Y-91516247D01*
X95298448Y-91944819D02*
X95298448Y-91278152D01*
X95298448Y-91468628D02*
X95346067Y-91373390D01*
X95346067Y-91373390D02*
X95393686Y-91325771D01*
X95393686Y-91325771D02*
X95488924Y-91278152D01*
X95488924Y-91278152D02*
X95584162Y-91278152D01*
X96346067Y-91944819D02*
X96346067Y-90944819D01*
X96346067Y-91897200D02*
X96250829Y-91944819D01*
X96250829Y-91944819D02*
X96060353Y-91944819D01*
X96060353Y-91944819D02*
X95965115Y-91897200D01*
X95965115Y-91897200D02*
X95917496Y-91849580D01*
X95917496Y-91849580D02*
X95869877Y-91754342D01*
X95869877Y-91754342D02*
X95869877Y-91468628D01*
X95869877Y-91468628D02*
X95917496Y-91373390D01*
X95917496Y-91373390D02*
X95965115Y-91325771D01*
X95965115Y-91325771D02*
X96060353Y-91278152D01*
X96060353Y-91278152D02*
X96250829Y-91278152D01*
X96250829Y-91278152D02*
X96346067Y-91325771D01*
X115164636Y-91591792D02*
X115212256Y-91639411D01*
X115212256Y-91639411D02*
X115259875Y-91782268D01*
X115259875Y-91782268D02*
X115259875Y-91877506D01*
X115259875Y-91877506D02*
X115212256Y-92020363D01*
X115212256Y-92020363D02*
X115117017Y-92115601D01*
X115117017Y-92115601D02*
X115021779Y-92163220D01*
X115021779Y-92163220D02*
X114831303Y-92210839D01*
X114831303Y-92210839D02*
X114688446Y-92210839D01*
X114688446Y-92210839D02*
X114497970Y-92163220D01*
X114497970Y-92163220D02*
X114402732Y-92115601D01*
X114402732Y-92115601D02*
X114307494Y-92020363D01*
X114307494Y-92020363D02*
X114259875Y-91877506D01*
X114259875Y-91877506D02*
X114259875Y-91782268D01*
X114259875Y-91782268D02*
X114307494Y-91639411D01*
X114307494Y-91639411D02*
X114355113Y-91591792D01*
X115259875Y-91020363D02*
X115212256Y-91115601D01*
X115212256Y-91115601D02*
X115164636Y-91163220D01*
X115164636Y-91163220D02*
X115069398Y-91210839D01*
X115069398Y-91210839D02*
X114783684Y-91210839D01*
X114783684Y-91210839D02*
X114688446Y-91163220D01*
X114688446Y-91163220D02*
X114640827Y-91115601D01*
X114640827Y-91115601D02*
X114593208Y-91020363D01*
X114593208Y-91020363D02*
X114593208Y-90877506D01*
X114593208Y-90877506D02*
X114640827Y-90782268D01*
X114640827Y-90782268D02*
X114688446Y-90734649D01*
X114688446Y-90734649D02*
X114783684Y-90687030D01*
X114783684Y-90687030D02*
X115069398Y-90687030D01*
X115069398Y-90687030D02*
X115164636Y-90734649D01*
X115164636Y-90734649D02*
X115212256Y-90782268D01*
X115212256Y-90782268D02*
X115259875Y-90877506D01*
X115259875Y-90877506D02*
X115259875Y-91020363D01*
X114593208Y-90258458D02*
X115259875Y-90258458D01*
X114688446Y-90258458D02*
X114640827Y-90210839D01*
X114640827Y-90210839D02*
X114593208Y-90115601D01*
X114593208Y-90115601D02*
X114593208Y-89972744D01*
X114593208Y-89972744D02*
X114640827Y-89877506D01*
X114640827Y-89877506D02*
X114736065Y-89829887D01*
X114736065Y-89829887D02*
X115259875Y-89829887D01*
X114593208Y-89353696D02*
X115259875Y-89353696D01*
X114688446Y-89353696D02*
X114640827Y-89306077D01*
X114640827Y-89306077D02*
X114593208Y-89210839D01*
X114593208Y-89210839D02*
X114593208Y-89067982D01*
X114593208Y-89067982D02*
X114640827Y-88972744D01*
X114640827Y-88972744D02*
X114736065Y-88925125D01*
X114736065Y-88925125D02*
X115259875Y-88925125D01*
X115212256Y-88067982D02*
X115259875Y-88163220D01*
X115259875Y-88163220D02*
X115259875Y-88353696D01*
X115259875Y-88353696D02*
X115212256Y-88448934D01*
X115212256Y-88448934D02*
X115117017Y-88496553D01*
X115117017Y-88496553D02*
X114736065Y-88496553D01*
X114736065Y-88496553D02*
X114640827Y-88448934D01*
X114640827Y-88448934D02*
X114593208Y-88353696D01*
X114593208Y-88353696D02*
X114593208Y-88163220D01*
X114593208Y-88163220D02*
X114640827Y-88067982D01*
X114640827Y-88067982D02*
X114736065Y-88020363D01*
X114736065Y-88020363D02*
X114831303Y-88020363D01*
X114831303Y-88020363D02*
X114926541Y-88496553D01*
X115212256Y-87163220D02*
X115259875Y-87258458D01*
X115259875Y-87258458D02*
X115259875Y-87448934D01*
X115259875Y-87448934D02*
X115212256Y-87544172D01*
X115212256Y-87544172D02*
X115164636Y-87591791D01*
X115164636Y-87591791D02*
X115069398Y-87639410D01*
X115069398Y-87639410D02*
X114783684Y-87639410D01*
X114783684Y-87639410D02*
X114688446Y-87591791D01*
X114688446Y-87591791D02*
X114640827Y-87544172D01*
X114640827Y-87544172D02*
X114593208Y-87448934D01*
X114593208Y-87448934D02*
X114593208Y-87258458D01*
X114593208Y-87258458D02*
X114640827Y-87163220D01*
X114593208Y-86877505D02*
X114593208Y-86496553D01*
X114259875Y-86734648D02*
X115117017Y-86734648D01*
X115117017Y-86734648D02*
X115212256Y-86687029D01*
X115212256Y-86687029D02*
X115259875Y-86591791D01*
X115259875Y-86591791D02*
X115259875Y-86496553D01*
X114593208Y-85544171D02*
X114593208Y-85163219D01*
X114259875Y-85401314D02*
X115117017Y-85401314D01*
X115117017Y-85401314D02*
X115212256Y-85353695D01*
X115212256Y-85353695D02*
X115259875Y-85258457D01*
X115259875Y-85258457D02*
X115259875Y-85163219D01*
X115259875Y-84687028D02*
X115212256Y-84782266D01*
X115212256Y-84782266D02*
X115164636Y-84829885D01*
X115164636Y-84829885D02*
X115069398Y-84877504D01*
X115069398Y-84877504D02*
X114783684Y-84877504D01*
X114783684Y-84877504D02*
X114688446Y-84829885D01*
X114688446Y-84829885D02*
X114640827Y-84782266D01*
X114640827Y-84782266D02*
X114593208Y-84687028D01*
X114593208Y-84687028D02*
X114593208Y-84544171D01*
X114593208Y-84544171D02*
X114640827Y-84448933D01*
X114640827Y-84448933D02*
X114688446Y-84401314D01*
X114688446Y-84401314D02*
X114783684Y-84353695D01*
X114783684Y-84353695D02*
X115069398Y-84353695D01*
X115069398Y-84353695D02*
X115164636Y-84401314D01*
X115164636Y-84401314D02*
X115212256Y-84448933D01*
X115212256Y-84448933D02*
X115259875Y-84544171D01*
X115259875Y-84544171D02*
X115259875Y-84687028D01*
X115164636Y-82591790D02*
X115212256Y-82639409D01*
X115212256Y-82639409D02*
X115259875Y-82782266D01*
X115259875Y-82782266D02*
X115259875Y-82877504D01*
X115259875Y-82877504D02*
X115212256Y-83020361D01*
X115212256Y-83020361D02*
X115117017Y-83115599D01*
X115117017Y-83115599D02*
X115021779Y-83163218D01*
X115021779Y-83163218D02*
X114831303Y-83210837D01*
X114831303Y-83210837D02*
X114688446Y-83210837D01*
X114688446Y-83210837D02*
X114497970Y-83163218D01*
X114497970Y-83163218D02*
X114402732Y-83115599D01*
X114402732Y-83115599D02*
X114307494Y-83020361D01*
X114307494Y-83020361D02*
X114259875Y-82877504D01*
X114259875Y-82877504D02*
X114259875Y-82782266D01*
X114259875Y-82782266D02*
X114307494Y-82639409D01*
X114307494Y-82639409D02*
X114355113Y-82591790D01*
X115259875Y-82163218D02*
X114259875Y-82163218D01*
X114259875Y-82163218D02*
X114259875Y-81782266D01*
X114259875Y-81782266D02*
X114307494Y-81687028D01*
X114307494Y-81687028D02*
X114355113Y-81639409D01*
X114355113Y-81639409D02*
X114450351Y-81591790D01*
X114450351Y-81591790D02*
X114593208Y-81591790D01*
X114593208Y-81591790D02*
X114688446Y-81639409D01*
X114688446Y-81639409D02*
X114736065Y-81687028D01*
X114736065Y-81687028D02*
X114783684Y-81782266D01*
X114783684Y-81782266D02*
X114783684Y-82163218D01*
X114259875Y-81163218D02*
X115069398Y-81163218D01*
X115069398Y-81163218D02*
X115164636Y-81115599D01*
X115164636Y-81115599D02*
X115212256Y-81067980D01*
X115212256Y-81067980D02*
X115259875Y-80972742D01*
X115259875Y-80972742D02*
X115259875Y-80782266D01*
X115259875Y-80782266D02*
X115212256Y-80687028D01*
X115212256Y-80687028D02*
X115164636Y-80639409D01*
X115164636Y-80639409D02*
X115069398Y-80591790D01*
X115069398Y-80591790D02*
X114259875Y-80591790D01*
X115259875Y-79353694D02*
X114259875Y-79353694D01*
X114640827Y-79353694D02*
X114593208Y-79258456D01*
X114593208Y-79258456D02*
X114593208Y-79067980D01*
X114593208Y-79067980D02*
X114640827Y-78972742D01*
X114640827Y-78972742D02*
X114688446Y-78925123D01*
X114688446Y-78925123D02*
X114783684Y-78877504D01*
X114783684Y-78877504D02*
X115069398Y-78877504D01*
X115069398Y-78877504D02*
X115164636Y-78925123D01*
X115164636Y-78925123D02*
X115212256Y-78972742D01*
X115212256Y-78972742D02*
X115259875Y-79067980D01*
X115259875Y-79067980D02*
X115259875Y-79258456D01*
X115259875Y-79258456D02*
X115212256Y-79353694D01*
X115259875Y-78306075D02*
X115212256Y-78401313D01*
X115212256Y-78401313D02*
X115164636Y-78448932D01*
X115164636Y-78448932D02*
X115069398Y-78496551D01*
X115069398Y-78496551D02*
X114783684Y-78496551D01*
X114783684Y-78496551D02*
X114688446Y-78448932D01*
X114688446Y-78448932D02*
X114640827Y-78401313D01*
X114640827Y-78401313D02*
X114593208Y-78306075D01*
X114593208Y-78306075D02*
X114593208Y-78163218D01*
X114593208Y-78163218D02*
X114640827Y-78067980D01*
X114640827Y-78067980D02*
X114688446Y-78020361D01*
X114688446Y-78020361D02*
X114783684Y-77972742D01*
X114783684Y-77972742D02*
X115069398Y-77972742D01*
X115069398Y-77972742D02*
X115164636Y-78020361D01*
X115164636Y-78020361D02*
X115212256Y-78067980D01*
X115212256Y-78067980D02*
X115259875Y-78163218D01*
X115259875Y-78163218D02*
X115259875Y-78306075D01*
X115259875Y-77115599D02*
X114736065Y-77115599D01*
X114736065Y-77115599D02*
X114640827Y-77163218D01*
X114640827Y-77163218D02*
X114593208Y-77258456D01*
X114593208Y-77258456D02*
X114593208Y-77448932D01*
X114593208Y-77448932D02*
X114640827Y-77544170D01*
X115212256Y-77115599D02*
X115259875Y-77210837D01*
X115259875Y-77210837D02*
X115259875Y-77448932D01*
X115259875Y-77448932D02*
X115212256Y-77544170D01*
X115212256Y-77544170D02*
X115117017Y-77591789D01*
X115117017Y-77591789D02*
X115021779Y-77591789D01*
X115021779Y-77591789D02*
X114926541Y-77544170D01*
X114926541Y-77544170D02*
X114878922Y-77448932D01*
X114878922Y-77448932D02*
X114878922Y-77210837D01*
X114878922Y-77210837D02*
X114831303Y-77115599D01*
X115259875Y-76639408D02*
X114593208Y-76639408D01*
X114783684Y-76639408D02*
X114688446Y-76591789D01*
X114688446Y-76591789D02*
X114640827Y-76544170D01*
X114640827Y-76544170D02*
X114593208Y-76448932D01*
X114593208Y-76448932D02*
X114593208Y-76353694D01*
X115259875Y-75591789D02*
X114259875Y-75591789D01*
X115212256Y-75591789D02*
X115259875Y-75687027D01*
X115259875Y-75687027D02*
X115259875Y-75877503D01*
X115259875Y-75877503D02*
X115212256Y-75972741D01*
X115212256Y-75972741D02*
X115164636Y-76020360D01*
X115164636Y-76020360D02*
X115069398Y-76067979D01*
X115069398Y-76067979D02*
X114783684Y-76067979D01*
X114783684Y-76067979D02*
X114688446Y-76020360D01*
X114688446Y-76020360D02*
X114640827Y-75972741D01*
X114640827Y-75972741D02*
X114593208Y-75877503D01*
X114593208Y-75877503D02*
X114593208Y-75687027D01*
X114593208Y-75687027D02*
X114640827Y-75591789D01*
X116203152Y-92258458D02*
X116869819Y-92020363D01*
X116869819Y-92020363D02*
X116203152Y-91782268D01*
X116869819Y-91401315D02*
X116203152Y-91401315D01*
X115869819Y-91401315D02*
X115917438Y-91448934D01*
X115917438Y-91448934D02*
X115965057Y-91401315D01*
X115965057Y-91401315D02*
X115917438Y-91353696D01*
X115917438Y-91353696D02*
X115869819Y-91401315D01*
X115869819Y-91401315D02*
X115965057Y-91401315D01*
X116869819Y-90496554D02*
X116346009Y-90496554D01*
X116346009Y-90496554D02*
X116250771Y-90544173D01*
X116250771Y-90544173D02*
X116203152Y-90639411D01*
X116203152Y-90639411D02*
X116203152Y-90829887D01*
X116203152Y-90829887D02*
X116250771Y-90925125D01*
X116822200Y-90496554D02*
X116869819Y-90591792D01*
X116869819Y-90591792D02*
X116869819Y-90829887D01*
X116869819Y-90829887D02*
X116822200Y-90925125D01*
X116822200Y-90925125D02*
X116726961Y-90972744D01*
X116726961Y-90972744D02*
X116631723Y-90972744D01*
X116631723Y-90972744D02*
X116536485Y-90925125D01*
X116536485Y-90925125D02*
X116488866Y-90829887D01*
X116488866Y-90829887D02*
X116488866Y-90591792D01*
X116488866Y-90591792D02*
X116441247Y-90496554D01*
X116869819Y-88734649D02*
X116869819Y-89306077D01*
X116869819Y-89020363D02*
X115869819Y-89020363D01*
X115869819Y-89020363D02*
X116012676Y-89115601D01*
X116012676Y-89115601D02*
X116107914Y-89210839D01*
X116107914Y-89210839D02*
X116155533Y-89306077D01*
X115869819Y-87877506D02*
X115869819Y-88067982D01*
X115869819Y-88067982D02*
X115917438Y-88163220D01*
X115917438Y-88163220D02*
X115965057Y-88210839D01*
X115965057Y-88210839D02*
X116107914Y-88306077D01*
X116107914Y-88306077D02*
X116298390Y-88353696D01*
X116298390Y-88353696D02*
X116679342Y-88353696D01*
X116679342Y-88353696D02*
X116774580Y-88306077D01*
X116774580Y-88306077D02*
X116822200Y-88258458D01*
X116822200Y-88258458D02*
X116869819Y-88163220D01*
X116869819Y-88163220D02*
X116869819Y-87972744D01*
X116869819Y-87972744D02*
X116822200Y-87877506D01*
X116822200Y-87877506D02*
X116774580Y-87829887D01*
X116774580Y-87829887D02*
X116679342Y-87782268D01*
X116679342Y-87782268D02*
X116441247Y-87782268D01*
X116441247Y-87782268D02*
X116346009Y-87829887D01*
X116346009Y-87829887D02*
X116298390Y-87877506D01*
X116298390Y-87877506D02*
X116250771Y-87972744D01*
X116250771Y-87972744D02*
X116250771Y-88163220D01*
X116250771Y-88163220D02*
X116298390Y-88258458D01*
X116298390Y-88258458D02*
X116346009Y-88306077D01*
X116346009Y-88306077D02*
X116441247Y-88353696D01*
X116488866Y-87353696D02*
X116488866Y-86591792D01*
X116203152Y-86115601D02*
X117203152Y-86115601D01*
X116250771Y-86115601D02*
X116203152Y-86020363D01*
X116203152Y-86020363D02*
X116203152Y-85829887D01*
X116203152Y-85829887D02*
X116250771Y-85734649D01*
X116250771Y-85734649D02*
X116298390Y-85687030D01*
X116298390Y-85687030D02*
X116393628Y-85639411D01*
X116393628Y-85639411D02*
X116679342Y-85639411D01*
X116679342Y-85639411D02*
X116774580Y-85687030D01*
X116774580Y-85687030D02*
X116822200Y-85734649D01*
X116822200Y-85734649D02*
X116869819Y-85829887D01*
X116869819Y-85829887D02*
X116869819Y-86020363D01*
X116869819Y-86020363D02*
X116822200Y-86115601D01*
X116869819Y-85210839D02*
X116203152Y-85210839D01*
X115869819Y-85210839D02*
X115917438Y-85258458D01*
X115917438Y-85258458D02*
X115965057Y-85210839D01*
X115965057Y-85210839D02*
X115917438Y-85163220D01*
X115917438Y-85163220D02*
X115869819Y-85210839D01*
X115869819Y-85210839D02*
X115965057Y-85210839D01*
X116203152Y-84734649D02*
X116869819Y-84734649D01*
X116298390Y-84734649D02*
X116250771Y-84687030D01*
X116250771Y-84687030D02*
X116203152Y-84591792D01*
X116203152Y-84591792D02*
X116203152Y-84448935D01*
X116203152Y-84448935D02*
X116250771Y-84353697D01*
X116250771Y-84353697D02*
X116346009Y-84306078D01*
X116346009Y-84306078D02*
X116869819Y-84306078D01*
X116869819Y-83067982D02*
X116203152Y-83067982D01*
X116393628Y-83067982D02*
X116298390Y-83020363D01*
X116298390Y-83020363D02*
X116250771Y-82972744D01*
X116250771Y-82972744D02*
X116203152Y-82877506D01*
X116203152Y-82877506D02*
X116203152Y-82782268D01*
X116869819Y-82448934D02*
X116203152Y-82448934D01*
X115869819Y-82448934D02*
X115917438Y-82496553D01*
X115917438Y-82496553D02*
X115965057Y-82448934D01*
X115965057Y-82448934D02*
X115917438Y-82401315D01*
X115917438Y-82401315D02*
X115869819Y-82448934D01*
X115869819Y-82448934D02*
X115965057Y-82448934D01*
X116869819Y-81972744D02*
X115869819Y-81972744D01*
X116250771Y-81972744D02*
X116203152Y-81877506D01*
X116203152Y-81877506D02*
X116203152Y-81687030D01*
X116203152Y-81687030D02*
X116250771Y-81591792D01*
X116250771Y-81591792D02*
X116298390Y-81544173D01*
X116298390Y-81544173D02*
X116393628Y-81496554D01*
X116393628Y-81496554D02*
X116679342Y-81496554D01*
X116679342Y-81496554D02*
X116774580Y-81544173D01*
X116774580Y-81544173D02*
X116822200Y-81591792D01*
X116822200Y-81591792D02*
X116869819Y-81687030D01*
X116869819Y-81687030D02*
X116869819Y-81877506D01*
X116869819Y-81877506D02*
X116822200Y-81972744D01*
X116869819Y-81067982D02*
X115869819Y-81067982D01*
X116250771Y-81067982D02*
X116203152Y-80972744D01*
X116203152Y-80972744D02*
X116203152Y-80782268D01*
X116203152Y-80782268D02*
X116250771Y-80687030D01*
X116250771Y-80687030D02*
X116298390Y-80639411D01*
X116298390Y-80639411D02*
X116393628Y-80591792D01*
X116393628Y-80591792D02*
X116679342Y-80591792D01*
X116679342Y-80591792D02*
X116774580Y-80639411D01*
X116774580Y-80639411D02*
X116822200Y-80687030D01*
X116822200Y-80687030D02*
X116869819Y-80782268D01*
X116869819Y-80782268D02*
X116869819Y-80972744D01*
X116869819Y-80972744D02*
X116822200Y-81067982D01*
X116869819Y-80020363D02*
X116822200Y-80115601D01*
X116822200Y-80115601D02*
X116774580Y-80163220D01*
X116774580Y-80163220D02*
X116679342Y-80210839D01*
X116679342Y-80210839D02*
X116393628Y-80210839D01*
X116393628Y-80210839D02*
X116298390Y-80163220D01*
X116298390Y-80163220D02*
X116250771Y-80115601D01*
X116250771Y-80115601D02*
X116203152Y-80020363D01*
X116203152Y-80020363D02*
X116203152Y-79877506D01*
X116203152Y-79877506D02*
X116250771Y-79782268D01*
X116250771Y-79782268D02*
X116298390Y-79734649D01*
X116298390Y-79734649D02*
X116393628Y-79687030D01*
X116393628Y-79687030D02*
X116679342Y-79687030D01*
X116679342Y-79687030D02*
X116774580Y-79734649D01*
X116774580Y-79734649D02*
X116822200Y-79782268D01*
X116822200Y-79782268D02*
X116869819Y-79877506D01*
X116869819Y-79877506D02*
X116869819Y-80020363D01*
X116203152Y-79258458D02*
X116869819Y-79258458D01*
X116298390Y-79258458D02*
X116250771Y-79210839D01*
X116250771Y-79210839D02*
X116203152Y-79115601D01*
X116203152Y-79115601D02*
X116203152Y-78972744D01*
X116203152Y-78972744D02*
X116250771Y-78877506D01*
X116250771Y-78877506D02*
X116346009Y-78829887D01*
X116346009Y-78829887D02*
X116869819Y-78829887D01*
X116822200Y-77163220D02*
X116869819Y-77258458D01*
X116869819Y-77258458D02*
X116869819Y-77448934D01*
X116869819Y-77448934D02*
X116822200Y-77544172D01*
X116822200Y-77544172D02*
X116774580Y-77591791D01*
X116774580Y-77591791D02*
X116679342Y-77639410D01*
X116679342Y-77639410D02*
X116393628Y-77639410D01*
X116393628Y-77639410D02*
X116298390Y-77591791D01*
X116298390Y-77591791D02*
X116250771Y-77544172D01*
X116250771Y-77544172D02*
X116203152Y-77448934D01*
X116203152Y-77448934D02*
X116203152Y-77258458D01*
X116203152Y-77258458D02*
X116250771Y-77163220D01*
X116869819Y-76306077D02*
X116346009Y-76306077D01*
X116346009Y-76306077D02*
X116250771Y-76353696D01*
X116250771Y-76353696D02*
X116203152Y-76448934D01*
X116203152Y-76448934D02*
X116203152Y-76639410D01*
X116203152Y-76639410D02*
X116250771Y-76734648D01*
X116822200Y-76306077D02*
X116869819Y-76401315D01*
X116869819Y-76401315D02*
X116869819Y-76639410D01*
X116869819Y-76639410D02*
X116822200Y-76734648D01*
X116822200Y-76734648D02*
X116726961Y-76782267D01*
X116726961Y-76782267D02*
X116631723Y-76782267D01*
X116631723Y-76782267D02*
X116536485Y-76734648D01*
X116536485Y-76734648D02*
X116488866Y-76639410D01*
X116488866Y-76639410D02*
X116488866Y-76401315D01*
X116488866Y-76401315D02*
X116441247Y-76306077D01*
X116869819Y-75829886D02*
X115869819Y-75829886D01*
X116250771Y-75829886D02*
X116203152Y-75734648D01*
X116203152Y-75734648D02*
X116203152Y-75544172D01*
X116203152Y-75544172D02*
X116250771Y-75448934D01*
X116250771Y-75448934D02*
X116298390Y-75401315D01*
X116298390Y-75401315D02*
X116393628Y-75353696D01*
X116393628Y-75353696D02*
X116679342Y-75353696D01*
X116679342Y-75353696D02*
X116774580Y-75401315D01*
X116774580Y-75401315D02*
X116822200Y-75448934D01*
X116822200Y-75448934D02*
X116869819Y-75544172D01*
X116869819Y-75544172D02*
X116869819Y-75734648D01*
X116869819Y-75734648D02*
X116822200Y-75829886D01*
X116869819Y-74782267D02*
X116822200Y-74877505D01*
X116822200Y-74877505D02*
X116726961Y-74925124D01*
X116726961Y-74925124D02*
X115869819Y-74925124D01*
X116822200Y-74020362D02*
X116869819Y-74115600D01*
X116869819Y-74115600D02*
X116869819Y-74306076D01*
X116869819Y-74306076D02*
X116822200Y-74401314D01*
X116822200Y-74401314D02*
X116726961Y-74448933D01*
X116726961Y-74448933D02*
X116346009Y-74448933D01*
X116346009Y-74448933D02*
X116250771Y-74401314D01*
X116250771Y-74401314D02*
X116203152Y-74306076D01*
X116203152Y-74306076D02*
X116203152Y-74115600D01*
X116203152Y-74115600D02*
X116250771Y-74020362D01*
X116250771Y-74020362D02*
X116346009Y-73972743D01*
X116346009Y-73972743D02*
X116441247Y-73972743D01*
X116441247Y-73972743D02*
X116536485Y-74448933D01*
X36604580Y-85451792D02*
X36652200Y-85499411D01*
X36652200Y-85499411D02*
X36699819Y-85642268D01*
X36699819Y-85642268D02*
X36699819Y-85737506D01*
X36699819Y-85737506D02*
X36652200Y-85880363D01*
X36652200Y-85880363D02*
X36556961Y-85975601D01*
X36556961Y-85975601D02*
X36461723Y-86023220D01*
X36461723Y-86023220D02*
X36271247Y-86070839D01*
X36271247Y-86070839D02*
X36128390Y-86070839D01*
X36128390Y-86070839D02*
X35937914Y-86023220D01*
X35937914Y-86023220D02*
X35842676Y-85975601D01*
X35842676Y-85975601D02*
X35747438Y-85880363D01*
X35747438Y-85880363D02*
X35699819Y-85737506D01*
X35699819Y-85737506D02*
X35699819Y-85642268D01*
X35699819Y-85642268D02*
X35747438Y-85499411D01*
X35747438Y-85499411D02*
X35795057Y-85451792D01*
X36699819Y-84880363D02*
X36652200Y-84975601D01*
X36652200Y-84975601D02*
X36604580Y-85023220D01*
X36604580Y-85023220D02*
X36509342Y-85070839D01*
X36509342Y-85070839D02*
X36223628Y-85070839D01*
X36223628Y-85070839D02*
X36128390Y-85023220D01*
X36128390Y-85023220D02*
X36080771Y-84975601D01*
X36080771Y-84975601D02*
X36033152Y-84880363D01*
X36033152Y-84880363D02*
X36033152Y-84737506D01*
X36033152Y-84737506D02*
X36080771Y-84642268D01*
X36080771Y-84642268D02*
X36128390Y-84594649D01*
X36128390Y-84594649D02*
X36223628Y-84547030D01*
X36223628Y-84547030D02*
X36509342Y-84547030D01*
X36509342Y-84547030D02*
X36604580Y-84594649D01*
X36604580Y-84594649D02*
X36652200Y-84642268D01*
X36652200Y-84642268D02*
X36699819Y-84737506D01*
X36699819Y-84737506D02*
X36699819Y-84880363D01*
X36033152Y-84118458D02*
X36699819Y-84118458D01*
X36128390Y-84118458D02*
X36080771Y-84070839D01*
X36080771Y-84070839D02*
X36033152Y-83975601D01*
X36033152Y-83975601D02*
X36033152Y-83832744D01*
X36033152Y-83832744D02*
X36080771Y-83737506D01*
X36080771Y-83737506D02*
X36176009Y-83689887D01*
X36176009Y-83689887D02*
X36699819Y-83689887D01*
X36033152Y-83213696D02*
X36699819Y-83213696D01*
X36128390Y-83213696D02*
X36080771Y-83166077D01*
X36080771Y-83166077D02*
X36033152Y-83070839D01*
X36033152Y-83070839D02*
X36033152Y-82927982D01*
X36033152Y-82927982D02*
X36080771Y-82832744D01*
X36080771Y-82832744D02*
X36176009Y-82785125D01*
X36176009Y-82785125D02*
X36699819Y-82785125D01*
X36652200Y-81927982D02*
X36699819Y-82023220D01*
X36699819Y-82023220D02*
X36699819Y-82213696D01*
X36699819Y-82213696D02*
X36652200Y-82308934D01*
X36652200Y-82308934D02*
X36556961Y-82356553D01*
X36556961Y-82356553D02*
X36176009Y-82356553D01*
X36176009Y-82356553D02*
X36080771Y-82308934D01*
X36080771Y-82308934D02*
X36033152Y-82213696D01*
X36033152Y-82213696D02*
X36033152Y-82023220D01*
X36033152Y-82023220D02*
X36080771Y-81927982D01*
X36080771Y-81927982D02*
X36176009Y-81880363D01*
X36176009Y-81880363D02*
X36271247Y-81880363D01*
X36271247Y-81880363D02*
X36366485Y-82356553D01*
X36652200Y-81023220D02*
X36699819Y-81118458D01*
X36699819Y-81118458D02*
X36699819Y-81308934D01*
X36699819Y-81308934D02*
X36652200Y-81404172D01*
X36652200Y-81404172D02*
X36604580Y-81451791D01*
X36604580Y-81451791D02*
X36509342Y-81499410D01*
X36509342Y-81499410D02*
X36223628Y-81499410D01*
X36223628Y-81499410D02*
X36128390Y-81451791D01*
X36128390Y-81451791D02*
X36080771Y-81404172D01*
X36080771Y-81404172D02*
X36033152Y-81308934D01*
X36033152Y-81308934D02*
X36033152Y-81118458D01*
X36033152Y-81118458D02*
X36080771Y-81023220D01*
X36033152Y-80737505D02*
X36033152Y-80356553D01*
X35699819Y-80594648D02*
X36556961Y-80594648D01*
X36556961Y-80594648D02*
X36652200Y-80547029D01*
X36652200Y-80547029D02*
X36699819Y-80451791D01*
X36699819Y-80451791D02*
X36699819Y-80356553D01*
X36033152Y-79404171D02*
X36033152Y-79023219D01*
X35699819Y-79261314D02*
X36556961Y-79261314D01*
X36556961Y-79261314D02*
X36652200Y-79213695D01*
X36652200Y-79213695D02*
X36699819Y-79118457D01*
X36699819Y-79118457D02*
X36699819Y-79023219D01*
X36699819Y-78547028D02*
X36652200Y-78642266D01*
X36652200Y-78642266D02*
X36604580Y-78689885D01*
X36604580Y-78689885D02*
X36509342Y-78737504D01*
X36509342Y-78737504D02*
X36223628Y-78737504D01*
X36223628Y-78737504D02*
X36128390Y-78689885D01*
X36128390Y-78689885D02*
X36080771Y-78642266D01*
X36080771Y-78642266D02*
X36033152Y-78547028D01*
X36033152Y-78547028D02*
X36033152Y-78404171D01*
X36033152Y-78404171D02*
X36080771Y-78308933D01*
X36080771Y-78308933D02*
X36128390Y-78261314D01*
X36128390Y-78261314D02*
X36223628Y-78213695D01*
X36223628Y-78213695D02*
X36509342Y-78213695D01*
X36509342Y-78213695D02*
X36604580Y-78261314D01*
X36604580Y-78261314D02*
X36652200Y-78308933D01*
X36652200Y-78308933D02*
X36699819Y-78404171D01*
X36699819Y-78404171D02*
X36699819Y-78547028D01*
X36652200Y-76642266D02*
X36699819Y-76737504D01*
X36699819Y-76737504D02*
X36699819Y-76927980D01*
X36699819Y-76927980D02*
X36652200Y-77023218D01*
X36652200Y-77023218D02*
X36556961Y-77070837D01*
X36556961Y-77070837D02*
X36176009Y-77070837D01*
X36176009Y-77070837D02*
X36080771Y-77023218D01*
X36080771Y-77023218D02*
X36033152Y-76927980D01*
X36033152Y-76927980D02*
X36033152Y-76737504D01*
X36033152Y-76737504D02*
X36080771Y-76642266D01*
X36080771Y-76642266D02*
X36176009Y-76594647D01*
X36176009Y-76594647D02*
X36271247Y-76594647D01*
X36271247Y-76594647D02*
X36366485Y-77070837D01*
X36699819Y-76261313D02*
X36033152Y-75737504D01*
X36033152Y-76261313D02*
X36699819Y-75737504D01*
X36033152Y-75356551D02*
X37033152Y-75356551D01*
X36080771Y-75356551D02*
X36033152Y-75261313D01*
X36033152Y-75261313D02*
X36033152Y-75070837D01*
X36033152Y-75070837D02*
X36080771Y-74975599D01*
X36080771Y-74975599D02*
X36128390Y-74927980D01*
X36128390Y-74927980D02*
X36223628Y-74880361D01*
X36223628Y-74880361D02*
X36509342Y-74880361D01*
X36509342Y-74880361D02*
X36604580Y-74927980D01*
X36604580Y-74927980D02*
X36652200Y-74975599D01*
X36652200Y-74975599D02*
X36699819Y-75070837D01*
X36699819Y-75070837D02*
X36699819Y-75261313D01*
X36699819Y-75261313D02*
X36652200Y-75356551D01*
X36699819Y-74023218D02*
X36176009Y-74023218D01*
X36176009Y-74023218D02*
X36080771Y-74070837D01*
X36080771Y-74070837D02*
X36033152Y-74166075D01*
X36033152Y-74166075D02*
X36033152Y-74356551D01*
X36033152Y-74356551D02*
X36080771Y-74451789D01*
X36652200Y-74023218D02*
X36699819Y-74118456D01*
X36699819Y-74118456D02*
X36699819Y-74356551D01*
X36699819Y-74356551D02*
X36652200Y-74451789D01*
X36652200Y-74451789D02*
X36556961Y-74499408D01*
X36556961Y-74499408D02*
X36461723Y-74499408D01*
X36461723Y-74499408D02*
X36366485Y-74451789D01*
X36366485Y-74451789D02*
X36318866Y-74356551D01*
X36318866Y-74356551D02*
X36318866Y-74118456D01*
X36318866Y-74118456D02*
X36271247Y-74023218D01*
X36033152Y-73547027D02*
X36699819Y-73547027D01*
X36128390Y-73547027D02*
X36080771Y-73499408D01*
X36080771Y-73499408D02*
X36033152Y-73404170D01*
X36033152Y-73404170D02*
X36033152Y-73261313D01*
X36033152Y-73261313D02*
X36080771Y-73166075D01*
X36080771Y-73166075D02*
X36176009Y-73118456D01*
X36176009Y-73118456D02*
X36699819Y-73118456D01*
X36652200Y-72689884D02*
X36699819Y-72594646D01*
X36699819Y-72594646D02*
X36699819Y-72404170D01*
X36699819Y-72404170D02*
X36652200Y-72308932D01*
X36652200Y-72308932D02*
X36556961Y-72261313D01*
X36556961Y-72261313D02*
X36509342Y-72261313D01*
X36509342Y-72261313D02*
X36414104Y-72308932D01*
X36414104Y-72308932D02*
X36366485Y-72404170D01*
X36366485Y-72404170D02*
X36366485Y-72547027D01*
X36366485Y-72547027D02*
X36318866Y-72642265D01*
X36318866Y-72642265D02*
X36223628Y-72689884D01*
X36223628Y-72689884D02*
X36176009Y-72689884D01*
X36176009Y-72689884D02*
X36080771Y-72642265D01*
X36080771Y-72642265D02*
X36033152Y-72547027D01*
X36033152Y-72547027D02*
X36033152Y-72404170D01*
X36033152Y-72404170D02*
X36080771Y-72308932D01*
X36699819Y-71832741D02*
X36033152Y-71832741D01*
X35699819Y-71832741D02*
X35747438Y-71880360D01*
X35747438Y-71880360D02*
X35795057Y-71832741D01*
X35795057Y-71832741D02*
X35747438Y-71785122D01*
X35747438Y-71785122D02*
X35699819Y-71832741D01*
X35699819Y-71832741D02*
X35795057Y-71832741D01*
X36699819Y-71213694D02*
X36652200Y-71308932D01*
X36652200Y-71308932D02*
X36604580Y-71356551D01*
X36604580Y-71356551D02*
X36509342Y-71404170D01*
X36509342Y-71404170D02*
X36223628Y-71404170D01*
X36223628Y-71404170D02*
X36128390Y-71356551D01*
X36128390Y-71356551D02*
X36080771Y-71308932D01*
X36080771Y-71308932D02*
X36033152Y-71213694D01*
X36033152Y-71213694D02*
X36033152Y-71070837D01*
X36033152Y-71070837D02*
X36080771Y-70975599D01*
X36080771Y-70975599D02*
X36128390Y-70927980D01*
X36128390Y-70927980D02*
X36223628Y-70880361D01*
X36223628Y-70880361D02*
X36509342Y-70880361D01*
X36509342Y-70880361D02*
X36604580Y-70927980D01*
X36604580Y-70927980D02*
X36652200Y-70975599D01*
X36652200Y-70975599D02*
X36699819Y-71070837D01*
X36699819Y-71070837D02*
X36699819Y-71213694D01*
X36033152Y-70451789D02*
X36699819Y-70451789D01*
X36128390Y-70451789D02*
X36080771Y-70404170D01*
X36080771Y-70404170D02*
X36033152Y-70308932D01*
X36033152Y-70308932D02*
X36033152Y-70166075D01*
X36033152Y-70166075D02*
X36080771Y-70070837D01*
X36080771Y-70070837D02*
X36176009Y-70023218D01*
X36176009Y-70023218D02*
X36699819Y-70023218D01*
X36699819Y-68785122D02*
X35699819Y-68785122D01*
X36080771Y-68785122D02*
X36033152Y-68689884D01*
X36033152Y-68689884D02*
X36033152Y-68499408D01*
X36033152Y-68499408D02*
X36080771Y-68404170D01*
X36080771Y-68404170D02*
X36128390Y-68356551D01*
X36128390Y-68356551D02*
X36223628Y-68308932D01*
X36223628Y-68308932D02*
X36509342Y-68308932D01*
X36509342Y-68308932D02*
X36604580Y-68356551D01*
X36604580Y-68356551D02*
X36652200Y-68404170D01*
X36652200Y-68404170D02*
X36699819Y-68499408D01*
X36699819Y-68499408D02*
X36699819Y-68689884D01*
X36699819Y-68689884D02*
X36652200Y-68785122D01*
X36699819Y-67737503D02*
X36652200Y-67832741D01*
X36652200Y-67832741D02*
X36604580Y-67880360D01*
X36604580Y-67880360D02*
X36509342Y-67927979D01*
X36509342Y-67927979D02*
X36223628Y-67927979D01*
X36223628Y-67927979D02*
X36128390Y-67880360D01*
X36128390Y-67880360D02*
X36080771Y-67832741D01*
X36080771Y-67832741D02*
X36033152Y-67737503D01*
X36033152Y-67737503D02*
X36033152Y-67594646D01*
X36033152Y-67594646D02*
X36080771Y-67499408D01*
X36080771Y-67499408D02*
X36128390Y-67451789D01*
X36128390Y-67451789D02*
X36223628Y-67404170D01*
X36223628Y-67404170D02*
X36509342Y-67404170D01*
X36509342Y-67404170D02*
X36604580Y-67451789D01*
X36604580Y-67451789D02*
X36652200Y-67499408D01*
X36652200Y-67499408D02*
X36699819Y-67594646D01*
X36699819Y-67594646D02*
X36699819Y-67737503D01*
X36699819Y-66547027D02*
X36176009Y-66547027D01*
X36176009Y-66547027D02*
X36080771Y-66594646D01*
X36080771Y-66594646D02*
X36033152Y-66689884D01*
X36033152Y-66689884D02*
X36033152Y-66880360D01*
X36033152Y-66880360D02*
X36080771Y-66975598D01*
X36652200Y-66547027D02*
X36699819Y-66642265D01*
X36699819Y-66642265D02*
X36699819Y-66880360D01*
X36699819Y-66880360D02*
X36652200Y-66975598D01*
X36652200Y-66975598D02*
X36556961Y-67023217D01*
X36556961Y-67023217D02*
X36461723Y-67023217D01*
X36461723Y-67023217D02*
X36366485Y-66975598D01*
X36366485Y-66975598D02*
X36318866Y-66880360D01*
X36318866Y-66880360D02*
X36318866Y-66642265D01*
X36318866Y-66642265D02*
X36271247Y-66547027D01*
X36699819Y-66070836D02*
X36033152Y-66070836D01*
X36223628Y-66070836D02*
X36128390Y-66023217D01*
X36128390Y-66023217D02*
X36080771Y-65975598D01*
X36080771Y-65975598D02*
X36033152Y-65880360D01*
X36033152Y-65880360D02*
X36033152Y-65785122D01*
X36699819Y-65023217D02*
X35699819Y-65023217D01*
X36652200Y-65023217D02*
X36699819Y-65118455D01*
X36699819Y-65118455D02*
X36699819Y-65308931D01*
X36699819Y-65308931D02*
X36652200Y-65404169D01*
X36652200Y-65404169D02*
X36604580Y-65451788D01*
X36604580Y-65451788D02*
X36509342Y-65499407D01*
X36509342Y-65499407D02*
X36223628Y-65499407D01*
X36223628Y-65499407D02*
X36128390Y-65451788D01*
X36128390Y-65451788D02*
X36080771Y-65404169D01*
X36080771Y-65404169D02*
X36033152Y-65308931D01*
X36033152Y-65308931D02*
X36033152Y-65118455D01*
X36033152Y-65118455D02*
X36080771Y-65023217D01*
X36033152Y-63880359D02*
X36699819Y-63642264D01*
X36699819Y-63642264D02*
X36033152Y-63404169D01*
X36699819Y-63023216D02*
X36033152Y-63023216D01*
X35699819Y-63023216D02*
X35747438Y-63070835D01*
X35747438Y-63070835D02*
X35795057Y-63023216D01*
X35795057Y-63023216D02*
X35747438Y-62975597D01*
X35747438Y-62975597D02*
X35699819Y-63023216D01*
X35699819Y-63023216D02*
X35795057Y-63023216D01*
X36699819Y-62118455D02*
X36176009Y-62118455D01*
X36176009Y-62118455D02*
X36080771Y-62166074D01*
X36080771Y-62166074D02*
X36033152Y-62261312D01*
X36033152Y-62261312D02*
X36033152Y-62451788D01*
X36033152Y-62451788D02*
X36080771Y-62547026D01*
X36652200Y-62118455D02*
X36699819Y-62213693D01*
X36699819Y-62213693D02*
X36699819Y-62451788D01*
X36699819Y-62451788D02*
X36652200Y-62547026D01*
X36652200Y-62547026D02*
X36556961Y-62594645D01*
X36556961Y-62594645D02*
X36461723Y-62594645D01*
X36461723Y-62594645D02*
X36366485Y-62547026D01*
X36366485Y-62547026D02*
X36318866Y-62451788D01*
X36318866Y-62451788D02*
X36318866Y-62213693D01*
X36318866Y-62213693D02*
X36271247Y-62118455D01*
X36033152Y-60451788D02*
X36699819Y-60451788D01*
X35652200Y-60689883D02*
X36366485Y-60927978D01*
X36366485Y-60927978D02*
X36366485Y-60308931D01*
X35699819Y-59737502D02*
X35699819Y-59642264D01*
X35699819Y-59642264D02*
X35747438Y-59547026D01*
X35747438Y-59547026D02*
X35795057Y-59499407D01*
X35795057Y-59499407D02*
X35890295Y-59451788D01*
X35890295Y-59451788D02*
X36080771Y-59404169D01*
X36080771Y-59404169D02*
X36318866Y-59404169D01*
X36318866Y-59404169D02*
X36509342Y-59451788D01*
X36509342Y-59451788D02*
X36604580Y-59499407D01*
X36604580Y-59499407D02*
X36652200Y-59547026D01*
X36652200Y-59547026D02*
X36699819Y-59642264D01*
X36699819Y-59642264D02*
X36699819Y-59737502D01*
X36699819Y-59737502D02*
X36652200Y-59832740D01*
X36652200Y-59832740D02*
X36604580Y-59880359D01*
X36604580Y-59880359D02*
X36509342Y-59927978D01*
X36509342Y-59927978D02*
X36318866Y-59975597D01*
X36318866Y-59975597D02*
X36080771Y-59975597D01*
X36080771Y-59975597D02*
X35890295Y-59927978D01*
X35890295Y-59927978D02*
X35795057Y-59880359D01*
X35795057Y-59880359D02*
X35747438Y-59832740D01*
X35747438Y-59832740D02*
X35699819Y-59737502D01*
X36318866Y-58975597D02*
X36318866Y-58213693D01*
X36033152Y-57737502D02*
X37033152Y-57737502D01*
X36080771Y-57737502D02*
X36033152Y-57642264D01*
X36033152Y-57642264D02*
X36033152Y-57451788D01*
X36033152Y-57451788D02*
X36080771Y-57356550D01*
X36080771Y-57356550D02*
X36128390Y-57308931D01*
X36128390Y-57308931D02*
X36223628Y-57261312D01*
X36223628Y-57261312D02*
X36509342Y-57261312D01*
X36509342Y-57261312D02*
X36604580Y-57308931D01*
X36604580Y-57308931D02*
X36652200Y-57356550D01*
X36652200Y-57356550D02*
X36699819Y-57451788D01*
X36699819Y-57451788D02*
X36699819Y-57642264D01*
X36699819Y-57642264D02*
X36652200Y-57737502D01*
X36699819Y-56832740D02*
X36033152Y-56832740D01*
X35699819Y-56832740D02*
X35747438Y-56880359D01*
X35747438Y-56880359D02*
X35795057Y-56832740D01*
X35795057Y-56832740D02*
X35747438Y-56785121D01*
X35747438Y-56785121D02*
X35699819Y-56832740D01*
X35699819Y-56832740D02*
X35795057Y-56832740D01*
X36033152Y-56356550D02*
X36699819Y-56356550D01*
X36128390Y-56356550D02*
X36080771Y-56308931D01*
X36080771Y-56308931D02*
X36033152Y-56213693D01*
X36033152Y-56213693D02*
X36033152Y-56070836D01*
X36033152Y-56070836D02*
X36080771Y-55975598D01*
X36080771Y-55975598D02*
X36176009Y-55927979D01*
X36176009Y-55927979D02*
X36699819Y-55927979D01*
X36699819Y-54689883D02*
X36033152Y-54689883D01*
X36223628Y-54689883D02*
X36128390Y-54642264D01*
X36128390Y-54642264D02*
X36080771Y-54594645D01*
X36080771Y-54594645D02*
X36033152Y-54499407D01*
X36033152Y-54499407D02*
X36033152Y-54404169D01*
X36699819Y-54070835D02*
X36033152Y-54070835D01*
X35699819Y-54070835D02*
X35747438Y-54118454D01*
X35747438Y-54118454D02*
X35795057Y-54070835D01*
X35795057Y-54070835D02*
X35747438Y-54023216D01*
X35747438Y-54023216D02*
X35699819Y-54070835D01*
X35699819Y-54070835D02*
X35795057Y-54070835D01*
X36699819Y-53594645D02*
X35699819Y-53594645D01*
X36080771Y-53594645D02*
X36033152Y-53499407D01*
X36033152Y-53499407D02*
X36033152Y-53308931D01*
X36033152Y-53308931D02*
X36080771Y-53213693D01*
X36080771Y-53213693D02*
X36128390Y-53166074D01*
X36128390Y-53166074D02*
X36223628Y-53118455D01*
X36223628Y-53118455D02*
X36509342Y-53118455D01*
X36509342Y-53118455D02*
X36604580Y-53166074D01*
X36604580Y-53166074D02*
X36652200Y-53213693D01*
X36652200Y-53213693D02*
X36699819Y-53308931D01*
X36699819Y-53308931D02*
X36699819Y-53499407D01*
X36699819Y-53499407D02*
X36652200Y-53594645D01*
X36699819Y-52689883D02*
X35699819Y-52689883D01*
X36080771Y-52689883D02*
X36033152Y-52594645D01*
X36033152Y-52594645D02*
X36033152Y-52404169D01*
X36033152Y-52404169D02*
X36080771Y-52308931D01*
X36080771Y-52308931D02*
X36128390Y-52261312D01*
X36128390Y-52261312D02*
X36223628Y-52213693D01*
X36223628Y-52213693D02*
X36509342Y-52213693D01*
X36509342Y-52213693D02*
X36604580Y-52261312D01*
X36604580Y-52261312D02*
X36652200Y-52308931D01*
X36652200Y-52308931D02*
X36699819Y-52404169D01*
X36699819Y-52404169D02*
X36699819Y-52594645D01*
X36699819Y-52594645D02*
X36652200Y-52689883D01*
X36699819Y-51642264D02*
X36652200Y-51737502D01*
X36652200Y-51737502D02*
X36604580Y-51785121D01*
X36604580Y-51785121D02*
X36509342Y-51832740D01*
X36509342Y-51832740D02*
X36223628Y-51832740D01*
X36223628Y-51832740D02*
X36128390Y-51785121D01*
X36128390Y-51785121D02*
X36080771Y-51737502D01*
X36080771Y-51737502D02*
X36033152Y-51642264D01*
X36033152Y-51642264D02*
X36033152Y-51499407D01*
X36033152Y-51499407D02*
X36080771Y-51404169D01*
X36080771Y-51404169D02*
X36128390Y-51356550D01*
X36128390Y-51356550D02*
X36223628Y-51308931D01*
X36223628Y-51308931D02*
X36509342Y-51308931D01*
X36509342Y-51308931D02*
X36604580Y-51356550D01*
X36604580Y-51356550D02*
X36652200Y-51404169D01*
X36652200Y-51404169D02*
X36699819Y-51499407D01*
X36699819Y-51499407D02*
X36699819Y-51642264D01*
X36033152Y-50880359D02*
X36699819Y-50880359D01*
X36128390Y-50880359D02*
X36080771Y-50832740D01*
X36080771Y-50832740D02*
X36033152Y-50737502D01*
X36033152Y-50737502D02*
X36033152Y-50594645D01*
X36033152Y-50594645D02*
X36080771Y-50499407D01*
X36080771Y-50499407D02*
X36176009Y-50451788D01*
X36176009Y-50451788D02*
X36699819Y-50451788D01*
X36652200Y-48785121D02*
X36699819Y-48880359D01*
X36699819Y-48880359D02*
X36699819Y-49070835D01*
X36699819Y-49070835D02*
X36652200Y-49166073D01*
X36652200Y-49166073D02*
X36604580Y-49213692D01*
X36604580Y-49213692D02*
X36509342Y-49261311D01*
X36509342Y-49261311D02*
X36223628Y-49261311D01*
X36223628Y-49261311D02*
X36128390Y-49213692D01*
X36128390Y-49213692D02*
X36080771Y-49166073D01*
X36080771Y-49166073D02*
X36033152Y-49070835D01*
X36033152Y-49070835D02*
X36033152Y-48880359D01*
X36033152Y-48880359D02*
X36080771Y-48785121D01*
X36699819Y-47927978D02*
X36176009Y-47927978D01*
X36176009Y-47927978D02*
X36080771Y-47975597D01*
X36080771Y-47975597D02*
X36033152Y-48070835D01*
X36033152Y-48070835D02*
X36033152Y-48261311D01*
X36033152Y-48261311D02*
X36080771Y-48356549D01*
X36652200Y-47927978D02*
X36699819Y-48023216D01*
X36699819Y-48023216D02*
X36699819Y-48261311D01*
X36699819Y-48261311D02*
X36652200Y-48356549D01*
X36652200Y-48356549D02*
X36556961Y-48404168D01*
X36556961Y-48404168D02*
X36461723Y-48404168D01*
X36461723Y-48404168D02*
X36366485Y-48356549D01*
X36366485Y-48356549D02*
X36318866Y-48261311D01*
X36318866Y-48261311D02*
X36318866Y-48023216D01*
X36318866Y-48023216D02*
X36271247Y-47927978D01*
X36699819Y-47451787D02*
X35699819Y-47451787D01*
X36080771Y-47451787D02*
X36033152Y-47356549D01*
X36033152Y-47356549D02*
X36033152Y-47166073D01*
X36033152Y-47166073D02*
X36080771Y-47070835D01*
X36080771Y-47070835D02*
X36128390Y-47023216D01*
X36128390Y-47023216D02*
X36223628Y-46975597D01*
X36223628Y-46975597D02*
X36509342Y-46975597D01*
X36509342Y-46975597D02*
X36604580Y-47023216D01*
X36604580Y-47023216D02*
X36652200Y-47070835D01*
X36652200Y-47070835D02*
X36699819Y-47166073D01*
X36699819Y-47166073D02*
X36699819Y-47356549D01*
X36699819Y-47356549D02*
X36652200Y-47451787D01*
X36699819Y-46404168D02*
X36652200Y-46499406D01*
X36652200Y-46499406D02*
X36556961Y-46547025D01*
X36556961Y-46547025D02*
X35699819Y-46547025D01*
X36652200Y-45642263D02*
X36699819Y-45737501D01*
X36699819Y-45737501D02*
X36699819Y-45927977D01*
X36699819Y-45927977D02*
X36652200Y-46023215D01*
X36652200Y-46023215D02*
X36556961Y-46070834D01*
X36556961Y-46070834D02*
X36176009Y-46070834D01*
X36176009Y-46070834D02*
X36080771Y-46023215D01*
X36080771Y-46023215D02*
X36033152Y-45927977D01*
X36033152Y-45927977D02*
X36033152Y-45737501D01*
X36033152Y-45737501D02*
X36080771Y-45642263D01*
X36080771Y-45642263D02*
X36176009Y-45594644D01*
X36176009Y-45594644D02*
X36271247Y-45594644D01*
X36271247Y-45594644D02*
X36366485Y-46070834D01*
X54384580Y-85451792D02*
X54432200Y-85499411D01*
X54432200Y-85499411D02*
X54479819Y-85642268D01*
X54479819Y-85642268D02*
X54479819Y-85737506D01*
X54479819Y-85737506D02*
X54432200Y-85880363D01*
X54432200Y-85880363D02*
X54336961Y-85975601D01*
X54336961Y-85975601D02*
X54241723Y-86023220D01*
X54241723Y-86023220D02*
X54051247Y-86070839D01*
X54051247Y-86070839D02*
X53908390Y-86070839D01*
X53908390Y-86070839D02*
X53717914Y-86023220D01*
X53717914Y-86023220D02*
X53622676Y-85975601D01*
X53622676Y-85975601D02*
X53527438Y-85880363D01*
X53527438Y-85880363D02*
X53479819Y-85737506D01*
X53479819Y-85737506D02*
X53479819Y-85642268D01*
X53479819Y-85642268D02*
X53527438Y-85499411D01*
X53527438Y-85499411D02*
X53575057Y-85451792D01*
X54479819Y-84880363D02*
X54432200Y-84975601D01*
X54432200Y-84975601D02*
X54384580Y-85023220D01*
X54384580Y-85023220D02*
X54289342Y-85070839D01*
X54289342Y-85070839D02*
X54003628Y-85070839D01*
X54003628Y-85070839D02*
X53908390Y-85023220D01*
X53908390Y-85023220D02*
X53860771Y-84975601D01*
X53860771Y-84975601D02*
X53813152Y-84880363D01*
X53813152Y-84880363D02*
X53813152Y-84737506D01*
X53813152Y-84737506D02*
X53860771Y-84642268D01*
X53860771Y-84642268D02*
X53908390Y-84594649D01*
X53908390Y-84594649D02*
X54003628Y-84547030D01*
X54003628Y-84547030D02*
X54289342Y-84547030D01*
X54289342Y-84547030D02*
X54384580Y-84594649D01*
X54384580Y-84594649D02*
X54432200Y-84642268D01*
X54432200Y-84642268D02*
X54479819Y-84737506D01*
X54479819Y-84737506D02*
X54479819Y-84880363D01*
X53813152Y-84118458D02*
X54479819Y-84118458D01*
X53908390Y-84118458D02*
X53860771Y-84070839D01*
X53860771Y-84070839D02*
X53813152Y-83975601D01*
X53813152Y-83975601D02*
X53813152Y-83832744D01*
X53813152Y-83832744D02*
X53860771Y-83737506D01*
X53860771Y-83737506D02*
X53956009Y-83689887D01*
X53956009Y-83689887D02*
X54479819Y-83689887D01*
X53813152Y-83213696D02*
X54479819Y-83213696D01*
X53908390Y-83213696D02*
X53860771Y-83166077D01*
X53860771Y-83166077D02*
X53813152Y-83070839D01*
X53813152Y-83070839D02*
X53813152Y-82927982D01*
X53813152Y-82927982D02*
X53860771Y-82832744D01*
X53860771Y-82832744D02*
X53956009Y-82785125D01*
X53956009Y-82785125D02*
X54479819Y-82785125D01*
X54432200Y-81927982D02*
X54479819Y-82023220D01*
X54479819Y-82023220D02*
X54479819Y-82213696D01*
X54479819Y-82213696D02*
X54432200Y-82308934D01*
X54432200Y-82308934D02*
X54336961Y-82356553D01*
X54336961Y-82356553D02*
X53956009Y-82356553D01*
X53956009Y-82356553D02*
X53860771Y-82308934D01*
X53860771Y-82308934D02*
X53813152Y-82213696D01*
X53813152Y-82213696D02*
X53813152Y-82023220D01*
X53813152Y-82023220D02*
X53860771Y-81927982D01*
X53860771Y-81927982D02*
X53956009Y-81880363D01*
X53956009Y-81880363D02*
X54051247Y-81880363D01*
X54051247Y-81880363D02*
X54146485Y-82356553D01*
X54432200Y-81023220D02*
X54479819Y-81118458D01*
X54479819Y-81118458D02*
X54479819Y-81308934D01*
X54479819Y-81308934D02*
X54432200Y-81404172D01*
X54432200Y-81404172D02*
X54384580Y-81451791D01*
X54384580Y-81451791D02*
X54289342Y-81499410D01*
X54289342Y-81499410D02*
X54003628Y-81499410D01*
X54003628Y-81499410D02*
X53908390Y-81451791D01*
X53908390Y-81451791D02*
X53860771Y-81404172D01*
X53860771Y-81404172D02*
X53813152Y-81308934D01*
X53813152Y-81308934D02*
X53813152Y-81118458D01*
X53813152Y-81118458D02*
X53860771Y-81023220D01*
X53813152Y-80737505D02*
X53813152Y-80356553D01*
X53479819Y-80594648D02*
X54336961Y-80594648D01*
X54336961Y-80594648D02*
X54432200Y-80547029D01*
X54432200Y-80547029D02*
X54479819Y-80451791D01*
X54479819Y-80451791D02*
X54479819Y-80356553D01*
X53813152Y-79404171D02*
X53813152Y-79023219D01*
X53479819Y-79261314D02*
X54336961Y-79261314D01*
X54336961Y-79261314D02*
X54432200Y-79213695D01*
X54432200Y-79213695D02*
X54479819Y-79118457D01*
X54479819Y-79118457D02*
X54479819Y-79023219D01*
X54479819Y-78547028D02*
X54432200Y-78642266D01*
X54432200Y-78642266D02*
X54384580Y-78689885D01*
X54384580Y-78689885D02*
X54289342Y-78737504D01*
X54289342Y-78737504D02*
X54003628Y-78737504D01*
X54003628Y-78737504D02*
X53908390Y-78689885D01*
X53908390Y-78689885D02*
X53860771Y-78642266D01*
X53860771Y-78642266D02*
X53813152Y-78547028D01*
X53813152Y-78547028D02*
X53813152Y-78404171D01*
X53813152Y-78404171D02*
X53860771Y-78308933D01*
X53860771Y-78308933D02*
X53908390Y-78261314D01*
X53908390Y-78261314D02*
X54003628Y-78213695D01*
X54003628Y-78213695D02*
X54289342Y-78213695D01*
X54289342Y-78213695D02*
X54384580Y-78261314D01*
X54384580Y-78261314D02*
X54432200Y-78308933D01*
X54432200Y-78308933D02*
X54479819Y-78404171D01*
X54479819Y-78404171D02*
X54479819Y-78547028D01*
X54384580Y-76451790D02*
X54432200Y-76499409D01*
X54432200Y-76499409D02*
X54479819Y-76642266D01*
X54479819Y-76642266D02*
X54479819Y-76737504D01*
X54479819Y-76737504D02*
X54432200Y-76880361D01*
X54432200Y-76880361D02*
X54336961Y-76975599D01*
X54336961Y-76975599D02*
X54241723Y-77023218D01*
X54241723Y-77023218D02*
X54051247Y-77070837D01*
X54051247Y-77070837D02*
X53908390Y-77070837D01*
X53908390Y-77070837D02*
X53717914Y-77023218D01*
X53717914Y-77023218D02*
X53622676Y-76975599D01*
X53622676Y-76975599D02*
X53527438Y-76880361D01*
X53527438Y-76880361D02*
X53479819Y-76737504D01*
X53479819Y-76737504D02*
X53479819Y-76642266D01*
X53479819Y-76642266D02*
X53527438Y-76499409D01*
X53527438Y-76499409D02*
X53575057Y-76451790D01*
X54479819Y-76023218D02*
X53479819Y-76023218D01*
X53479819Y-76023218D02*
X53479819Y-75642266D01*
X53479819Y-75642266D02*
X53527438Y-75547028D01*
X53527438Y-75547028D02*
X53575057Y-75499409D01*
X53575057Y-75499409D02*
X53670295Y-75451790D01*
X53670295Y-75451790D02*
X53813152Y-75451790D01*
X53813152Y-75451790D02*
X53908390Y-75499409D01*
X53908390Y-75499409D02*
X53956009Y-75547028D01*
X53956009Y-75547028D02*
X54003628Y-75642266D01*
X54003628Y-75642266D02*
X54003628Y-76023218D01*
X53479819Y-75023218D02*
X54289342Y-75023218D01*
X54289342Y-75023218D02*
X54384580Y-74975599D01*
X54384580Y-74975599D02*
X54432200Y-74927980D01*
X54432200Y-74927980D02*
X54479819Y-74832742D01*
X54479819Y-74832742D02*
X54479819Y-74642266D01*
X54479819Y-74642266D02*
X54432200Y-74547028D01*
X54432200Y-74547028D02*
X54384580Y-74499409D01*
X54384580Y-74499409D02*
X54289342Y-74451790D01*
X54289342Y-74451790D02*
X53479819Y-74451790D01*
X54479819Y-73213694D02*
X53479819Y-73213694D01*
X53860771Y-73213694D02*
X53813152Y-73118456D01*
X53813152Y-73118456D02*
X53813152Y-72927980D01*
X53813152Y-72927980D02*
X53860771Y-72832742D01*
X53860771Y-72832742D02*
X53908390Y-72785123D01*
X53908390Y-72785123D02*
X54003628Y-72737504D01*
X54003628Y-72737504D02*
X54289342Y-72737504D01*
X54289342Y-72737504D02*
X54384580Y-72785123D01*
X54384580Y-72785123D02*
X54432200Y-72832742D01*
X54432200Y-72832742D02*
X54479819Y-72927980D01*
X54479819Y-72927980D02*
X54479819Y-73118456D01*
X54479819Y-73118456D02*
X54432200Y-73213694D01*
X54479819Y-72166075D02*
X54432200Y-72261313D01*
X54432200Y-72261313D02*
X54384580Y-72308932D01*
X54384580Y-72308932D02*
X54289342Y-72356551D01*
X54289342Y-72356551D02*
X54003628Y-72356551D01*
X54003628Y-72356551D02*
X53908390Y-72308932D01*
X53908390Y-72308932D02*
X53860771Y-72261313D01*
X53860771Y-72261313D02*
X53813152Y-72166075D01*
X53813152Y-72166075D02*
X53813152Y-72023218D01*
X53813152Y-72023218D02*
X53860771Y-71927980D01*
X53860771Y-71927980D02*
X53908390Y-71880361D01*
X53908390Y-71880361D02*
X54003628Y-71832742D01*
X54003628Y-71832742D02*
X54289342Y-71832742D01*
X54289342Y-71832742D02*
X54384580Y-71880361D01*
X54384580Y-71880361D02*
X54432200Y-71927980D01*
X54432200Y-71927980D02*
X54479819Y-72023218D01*
X54479819Y-72023218D02*
X54479819Y-72166075D01*
X54479819Y-70975599D02*
X53956009Y-70975599D01*
X53956009Y-70975599D02*
X53860771Y-71023218D01*
X53860771Y-71023218D02*
X53813152Y-71118456D01*
X53813152Y-71118456D02*
X53813152Y-71308932D01*
X53813152Y-71308932D02*
X53860771Y-71404170D01*
X54432200Y-70975599D02*
X54479819Y-71070837D01*
X54479819Y-71070837D02*
X54479819Y-71308932D01*
X54479819Y-71308932D02*
X54432200Y-71404170D01*
X54432200Y-71404170D02*
X54336961Y-71451789D01*
X54336961Y-71451789D02*
X54241723Y-71451789D01*
X54241723Y-71451789D02*
X54146485Y-71404170D01*
X54146485Y-71404170D02*
X54098866Y-71308932D01*
X54098866Y-71308932D02*
X54098866Y-71070837D01*
X54098866Y-71070837D02*
X54051247Y-70975599D01*
X54479819Y-70499408D02*
X53813152Y-70499408D01*
X54003628Y-70499408D02*
X53908390Y-70451789D01*
X53908390Y-70451789D02*
X53860771Y-70404170D01*
X53860771Y-70404170D02*
X53813152Y-70308932D01*
X53813152Y-70308932D02*
X53813152Y-70213694D01*
X54479819Y-69451789D02*
X53479819Y-69451789D01*
X54432200Y-69451789D02*
X54479819Y-69547027D01*
X54479819Y-69547027D02*
X54479819Y-69737503D01*
X54479819Y-69737503D02*
X54432200Y-69832741D01*
X54432200Y-69832741D02*
X54384580Y-69880360D01*
X54384580Y-69880360D02*
X54289342Y-69927979D01*
X54289342Y-69927979D02*
X54003628Y-69927979D01*
X54003628Y-69927979D02*
X53908390Y-69880360D01*
X53908390Y-69880360D02*
X53860771Y-69832741D01*
X53860771Y-69832741D02*
X53813152Y-69737503D01*
X53813152Y-69737503D02*
X53813152Y-69547027D01*
X53813152Y-69547027D02*
X53860771Y-69451789D01*
X53813152Y-68308931D02*
X54479819Y-68070836D01*
X54479819Y-68070836D02*
X53813152Y-67832741D01*
X54479819Y-67451788D02*
X53813152Y-67451788D01*
X53479819Y-67451788D02*
X53527438Y-67499407D01*
X53527438Y-67499407D02*
X53575057Y-67451788D01*
X53575057Y-67451788D02*
X53527438Y-67404169D01*
X53527438Y-67404169D02*
X53479819Y-67451788D01*
X53479819Y-67451788D02*
X53575057Y-67451788D01*
X54479819Y-66547027D02*
X53956009Y-66547027D01*
X53956009Y-66547027D02*
X53860771Y-66594646D01*
X53860771Y-66594646D02*
X53813152Y-66689884D01*
X53813152Y-66689884D02*
X53813152Y-66880360D01*
X53813152Y-66880360D02*
X53860771Y-66975598D01*
X54432200Y-66547027D02*
X54479819Y-66642265D01*
X54479819Y-66642265D02*
X54479819Y-66880360D01*
X54479819Y-66880360D02*
X54432200Y-66975598D01*
X54432200Y-66975598D02*
X54336961Y-67023217D01*
X54336961Y-67023217D02*
X54241723Y-67023217D01*
X54241723Y-67023217D02*
X54146485Y-66975598D01*
X54146485Y-66975598D02*
X54098866Y-66880360D01*
X54098866Y-66880360D02*
X54098866Y-66642265D01*
X54098866Y-66642265D02*
X54051247Y-66547027D01*
X53813152Y-64880360D02*
X54479819Y-64880360D01*
X53432200Y-65118455D02*
X54146485Y-65356550D01*
X54146485Y-65356550D02*
X54146485Y-64737503D01*
X53479819Y-64166074D02*
X53479819Y-64070836D01*
X53479819Y-64070836D02*
X53527438Y-63975598D01*
X53527438Y-63975598D02*
X53575057Y-63927979D01*
X53575057Y-63927979D02*
X53670295Y-63880360D01*
X53670295Y-63880360D02*
X53860771Y-63832741D01*
X53860771Y-63832741D02*
X54098866Y-63832741D01*
X54098866Y-63832741D02*
X54289342Y-63880360D01*
X54289342Y-63880360D02*
X54384580Y-63927979D01*
X54384580Y-63927979D02*
X54432200Y-63975598D01*
X54432200Y-63975598D02*
X54479819Y-64070836D01*
X54479819Y-64070836D02*
X54479819Y-64166074D01*
X54479819Y-64166074D02*
X54432200Y-64261312D01*
X54432200Y-64261312D02*
X54384580Y-64308931D01*
X54384580Y-64308931D02*
X54289342Y-64356550D01*
X54289342Y-64356550D02*
X54098866Y-64404169D01*
X54098866Y-64404169D02*
X53860771Y-64404169D01*
X53860771Y-64404169D02*
X53670295Y-64356550D01*
X53670295Y-64356550D02*
X53575057Y-64308931D01*
X53575057Y-64308931D02*
X53527438Y-64261312D01*
X53527438Y-64261312D02*
X53479819Y-64166074D01*
X54098866Y-63404169D02*
X54098866Y-62642265D01*
X53813152Y-62166074D02*
X54813152Y-62166074D01*
X53860771Y-62166074D02*
X53813152Y-62070836D01*
X53813152Y-62070836D02*
X53813152Y-61880360D01*
X53813152Y-61880360D02*
X53860771Y-61785122D01*
X53860771Y-61785122D02*
X53908390Y-61737503D01*
X53908390Y-61737503D02*
X54003628Y-61689884D01*
X54003628Y-61689884D02*
X54289342Y-61689884D01*
X54289342Y-61689884D02*
X54384580Y-61737503D01*
X54384580Y-61737503D02*
X54432200Y-61785122D01*
X54432200Y-61785122D02*
X54479819Y-61880360D01*
X54479819Y-61880360D02*
X54479819Y-62070836D01*
X54479819Y-62070836D02*
X54432200Y-62166074D01*
X54479819Y-61261312D02*
X53813152Y-61261312D01*
X53479819Y-61261312D02*
X53527438Y-61308931D01*
X53527438Y-61308931D02*
X53575057Y-61261312D01*
X53575057Y-61261312D02*
X53527438Y-61213693D01*
X53527438Y-61213693D02*
X53479819Y-61261312D01*
X53479819Y-61261312D02*
X53575057Y-61261312D01*
X53813152Y-60785122D02*
X54479819Y-60785122D01*
X53908390Y-60785122D02*
X53860771Y-60737503D01*
X53860771Y-60737503D02*
X53813152Y-60642265D01*
X53813152Y-60642265D02*
X53813152Y-60499408D01*
X53813152Y-60499408D02*
X53860771Y-60404170D01*
X53860771Y-60404170D02*
X53956009Y-60356551D01*
X53956009Y-60356551D02*
X54479819Y-60356551D01*
X54479819Y-59118455D02*
X53813152Y-59118455D01*
X54003628Y-59118455D02*
X53908390Y-59070836D01*
X53908390Y-59070836D02*
X53860771Y-59023217D01*
X53860771Y-59023217D02*
X53813152Y-58927979D01*
X53813152Y-58927979D02*
X53813152Y-58832741D01*
X54479819Y-58499407D02*
X53813152Y-58499407D01*
X53479819Y-58499407D02*
X53527438Y-58547026D01*
X53527438Y-58547026D02*
X53575057Y-58499407D01*
X53575057Y-58499407D02*
X53527438Y-58451788D01*
X53527438Y-58451788D02*
X53479819Y-58499407D01*
X53479819Y-58499407D02*
X53575057Y-58499407D01*
X54479819Y-58023217D02*
X53479819Y-58023217D01*
X53860771Y-58023217D02*
X53813152Y-57927979D01*
X53813152Y-57927979D02*
X53813152Y-57737503D01*
X53813152Y-57737503D02*
X53860771Y-57642265D01*
X53860771Y-57642265D02*
X53908390Y-57594646D01*
X53908390Y-57594646D02*
X54003628Y-57547027D01*
X54003628Y-57547027D02*
X54289342Y-57547027D01*
X54289342Y-57547027D02*
X54384580Y-57594646D01*
X54384580Y-57594646D02*
X54432200Y-57642265D01*
X54432200Y-57642265D02*
X54479819Y-57737503D01*
X54479819Y-57737503D02*
X54479819Y-57927979D01*
X54479819Y-57927979D02*
X54432200Y-58023217D01*
X54479819Y-57118455D02*
X53479819Y-57118455D01*
X53860771Y-57118455D02*
X53813152Y-57023217D01*
X53813152Y-57023217D02*
X53813152Y-56832741D01*
X53813152Y-56832741D02*
X53860771Y-56737503D01*
X53860771Y-56737503D02*
X53908390Y-56689884D01*
X53908390Y-56689884D02*
X54003628Y-56642265D01*
X54003628Y-56642265D02*
X54289342Y-56642265D01*
X54289342Y-56642265D02*
X54384580Y-56689884D01*
X54384580Y-56689884D02*
X54432200Y-56737503D01*
X54432200Y-56737503D02*
X54479819Y-56832741D01*
X54479819Y-56832741D02*
X54479819Y-57023217D01*
X54479819Y-57023217D02*
X54432200Y-57118455D01*
X54479819Y-56070836D02*
X54432200Y-56166074D01*
X54432200Y-56166074D02*
X54384580Y-56213693D01*
X54384580Y-56213693D02*
X54289342Y-56261312D01*
X54289342Y-56261312D02*
X54003628Y-56261312D01*
X54003628Y-56261312D02*
X53908390Y-56213693D01*
X53908390Y-56213693D02*
X53860771Y-56166074D01*
X53860771Y-56166074D02*
X53813152Y-56070836D01*
X53813152Y-56070836D02*
X53813152Y-55927979D01*
X53813152Y-55927979D02*
X53860771Y-55832741D01*
X53860771Y-55832741D02*
X53908390Y-55785122D01*
X53908390Y-55785122D02*
X54003628Y-55737503D01*
X54003628Y-55737503D02*
X54289342Y-55737503D01*
X54289342Y-55737503D02*
X54384580Y-55785122D01*
X54384580Y-55785122D02*
X54432200Y-55832741D01*
X54432200Y-55832741D02*
X54479819Y-55927979D01*
X54479819Y-55927979D02*
X54479819Y-56070836D01*
X53813152Y-55308931D02*
X54479819Y-55308931D01*
X53908390Y-55308931D02*
X53860771Y-55261312D01*
X53860771Y-55261312D02*
X53813152Y-55166074D01*
X53813152Y-55166074D02*
X53813152Y-55023217D01*
X53813152Y-55023217D02*
X53860771Y-54927979D01*
X53860771Y-54927979D02*
X53956009Y-54880360D01*
X53956009Y-54880360D02*
X54479819Y-54880360D01*
X54432200Y-53213693D02*
X54479819Y-53308931D01*
X54479819Y-53308931D02*
X54479819Y-53499407D01*
X54479819Y-53499407D02*
X54432200Y-53594645D01*
X54432200Y-53594645D02*
X54384580Y-53642264D01*
X54384580Y-53642264D02*
X54289342Y-53689883D01*
X54289342Y-53689883D02*
X54003628Y-53689883D01*
X54003628Y-53689883D02*
X53908390Y-53642264D01*
X53908390Y-53642264D02*
X53860771Y-53594645D01*
X53860771Y-53594645D02*
X53813152Y-53499407D01*
X53813152Y-53499407D02*
X53813152Y-53308931D01*
X53813152Y-53308931D02*
X53860771Y-53213693D01*
X54479819Y-52356550D02*
X53956009Y-52356550D01*
X53956009Y-52356550D02*
X53860771Y-52404169D01*
X53860771Y-52404169D02*
X53813152Y-52499407D01*
X53813152Y-52499407D02*
X53813152Y-52689883D01*
X53813152Y-52689883D02*
X53860771Y-52785121D01*
X54432200Y-52356550D02*
X54479819Y-52451788D01*
X54479819Y-52451788D02*
X54479819Y-52689883D01*
X54479819Y-52689883D02*
X54432200Y-52785121D01*
X54432200Y-52785121D02*
X54336961Y-52832740D01*
X54336961Y-52832740D02*
X54241723Y-52832740D01*
X54241723Y-52832740D02*
X54146485Y-52785121D01*
X54146485Y-52785121D02*
X54098866Y-52689883D01*
X54098866Y-52689883D02*
X54098866Y-52451788D01*
X54098866Y-52451788D02*
X54051247Y-52356550D01*
X54479819Y-51880359D02*
X53479819Y-51880359D01*
X53860771Y-51880359D02*
X53813152Y-51785121D01*
X53813152Y-51785121D02*
X53813152Y-51594645D01*
X53813152Y-51594645D02*
X53860771Y-51499407D01*
X53860771Y-51499407D02*
X53908390Y-51451788D01*
X53908390Y-51451788D02*
X54003628Y-51404169D01*
X54003628Y-51404169D02*
X54289342Y-51404169D01*
X54289342Y-51404169D02*
X54384580Y-51451788D01*
X54384580Y-51451788D02*
X54432200Y-51499407D01*
X54432200Y-51499407D02*
X54479819Y-51594645D01*
X54479819Y-51594645D02*
X54479819Y-51785121D01*
X54479819Y-51785121D02*
X54432200Y-51880359D01*
X54479819Y-50832740D02*
X54432200Y-50927978D01*
X54432200Y-50927978D02*
X54336961Y-50975597D01*
X54336961Y-50975597D02*
X53479819Y-50975597D01*
X54432200Y-50070835D02*
X54479819Y-50166073D01*
X54479819Y-50166073D02*
X54479819Y-50356549D01*
X54479819Y-50356549D02*
X54432200Y-50451787D01*
X54432200Y-50451787D02*
X54336961Y-50499406D01*
X54336961Y-50499406D02*
X53956009Y-50499406D01*
X53956009Y-50499406D02*
X53860771Y-50451787D01*
X53860771Y-50451787D02*
X53813152Y-50356549D01*
X53813152Y-50356549D02*
X53813152Y-50166073D01*
X53813152Y-50166073D02*
X53860771Y-50070835D01*
X53860771Y-50070835D02*
X53956009Y-50023216D01*
X53956009Y-50023216D02*
X54051247Y-50023216D01*
X54051247Y-50023216D02*
X54146485Y-50499406D01*
D12*
X107488720Y-40391112D02*
X107488720Y-38891112D01*
X107488720Y-38891112D02*
X108060149Y-38891112D01*
X108060149Y-38891112D02*
X108203006Y-38962541D01*
X108203006Y-38962541D02*
X108274435Y-39033969D01*
X108274435Y-39033969D02*
X108345863Y-39176826D01*
X108345863Y-39176826D02*
X108345863Y-39391112D01*
X108345863Y-39391112D02*
X108274435Y-39533969D01*
X108274435Y-39533969D02*
X108203006Y-39605398D01*
X108203006Y-39605398D02*
X108060149Y-39676826D01*
X108060149Y-39676826D02*
X107488720Y-39676826D01*
X108917292Y-39033969D02*
X108988720Y-38962541D01*
X108988720Y-38962541D02*
X109131578Y-38891112D01*
X109131578Y-38891112D02*
X109488720Y-38891112D01*
X109488720Y-38891112D02*
X109631578Y-38962541D01*
X109631578Y-38962541D02*
X109703006Y-39033969D01*
X109703006Y-39033969D02*
X109774435Y-39176826D01*
X109774435Y-39176826D02*
X109774435Y-39319684D01*
X109774435Y-39319684D02*
X109703006Y-39533969D01*
X109703006Y-39533969D02*
X108845863Y-40391112D01*
X108845863Y-40391112D02*
X109774435Y-40391112D01*
X110703006Y-38891112D02*
X110845863Y-38891112D01*
X110845863Y-38891112D02*
X110988720Y-38962541D01*
X110988720Y-38962541D02*
X111060149Y-39033969D01*
X111060149Y-39033969D02*
X111131577Y-39176826D01*
X111131577Y-39176826D02*
X111203006Y-39462541D01*
X111203006Y-39462541D02*
X111203006Y-39819684D01*
X111203006Y-39819684D02*
X111131577Y-40105398D01*
X111131577Y-40105398D02*
X111060149Y-40248255D01*
X111060149Y-40248255D02*
X110988720Y-40319684D01*
X110988720Y-40319684D02*
X110845863Y-40391112D01*
X110845863Y-40391112D02*
X110703006Y-40391112D01*
X110703006Y-40391112D02*
X110560149Y-40319684D01*
X110560149Y-40319684D02*
X110488720Y-40248255D01*
X110488720Y-40248255D02*
X110417291Y-40105398D01*
X110417291Y-40105398D02*
X110345863Y-39819684D01*
X110345863Y-39819684D02*
X110345863Y-39462541D01*
X110345863Y-39462541D02*
X110417291Y-39176826D01*
X110417291Y-39176826D02*
X110488720Y-39033969D01*
X110488720Y-39033969D02*
X110560149Y-38962541D01*
X110560149Y-38962541D02*
X110703006Y-38891112D01*
X112131577Y-38891112D02*
X112274434Y-38891112D01*
X112274434Y-38891112D02*
X112417291Y-38962541D01*
X112417291Y-38962541D02*
X112488720Y-39033969D01*
X112488720Y-39033969D02*
X112560148Y-39176826D01*
X112560148Y-39176826D02*
X112631577Y-39462541D01*
X112631577Y-39462541D02*
X112631577Y-39819684D01*
X112631577Y-39819684D02*
X112560148Y-40105398D01*
X112560148Y-40105398D02*
X112488720Y-40248255D01*
X112488720Y-40248255D02*
X112417291Y-40319684D01*
X112417291Y-40319684D02*
X112274434Y-40391112D01*
X112274434Y-40391112D02*
X112131577Y-40391112D01*
X112131577Y-40391112D02*
X111988720Y-40319684D01*
X111988720Y-40319684D02*
X111917291Y-40248255D01*
X111917291Y-40248255D02*
X111845862Y-40105398D01*
X111845862Y-40105398D02*
X111774434Y-39819684D01*
X111774434Y-39819684D02*
X111774434Y-39462541D01*
X111774434Y-39462541D02*
X111845862Y-39176826D01*
X111845862Y-39176826D02*
X111917291Y-39033969D01*
X111917291Y-39033969D02*
X111988720Y-38962541D01*
X111988720Y-38962541D02*
X112131577Y-38891112D01*
X113560148Y-38891112D02*
X113703005Y-38891112D01*
X113703005Y-38891112D02*
X113845862Y-38962541D01*
X113845862Y-38962541D02*
X113917291Y-39033969D01*
X113917291Y-39033969D02*
X113988719Y-39176826D01*
X113988719Y-39176826D02*
X114060148Y-39462541D01*
X114060148Y-39462541D02*
X114060148Y-39819684D01*
X114060148Y-39819684D02*
X113988719Y-40105398D01*
X113988719Y-40105398D02*
X113917291Y-40248255D01*
X113917291Y-40248255D02*
X113845862Y-40319684D01*
X113845862Y-40319684D02*
X113703005Y-40391112D01*
X113703005Y-40391112D02*
X113560148Y-40391112D01*
X113560148Y-40391112D02*
X113417291Y-40319684D01*
X113417291Y-40319684D02*
X113345862Y-40248255D01*
X113345862Y-40248255D02*
X113274433Y-40105398D01*
X113274433Y-40105398D02*
X113203005Y-39819684D01*
X113203005Y-39819684D02*
X113203005Y-39462541D01*
X113203005Y-39462541D02*
X113274433Y-39176826D01*
X113274433Y-39176826D02*
X113345862Y-39033969D01*
X113345862Y-39033969D02*
X113417291Y-38962541D01*
X113417291Y-38962541D02*
X113560148Y-38891112D01*
X114488719Y-38891112D02*
X115345862Y-38891112D01*
X114917290Y-40391112D02*
X114917290Y-38891112D01*
X116917290Y-38819684D02*
X115631576Y-40748255D01*
X117417290Y-40391112D02*
X117417290Y-38891112D01*
X117417290Y-38891112D02*
X117917290Y-39962541D01*
X117917290Y-39962541D02*
X118417290Y-38891112D01*
X118417290Y-38891112D02*
X118417290Y-40391112D01*
X108345863Y-42663171D02*
X108274435Y-42734600D01*
X108274435Y-42734600D02*
X108060149Y-42806028D01*
X108060149Y-42806028D02*
X107917292Y-42806028D01*
X107917292Y-42806028D02*
X107703006Y-42734600D01*
X107703006Y-42734600D02*
X107560149Y-42591742D01*
X107560149Y-42591742D02*
X107488720Y-42448885D01*
X107488720Y-42448885D02*
X107417292Y-42163171D01*
X107417292Y-42163171D02*
X107417292Y-41948885D01*
X107417292Y-41948885D02*
X107488720Y-41663171D01*
X107488720Y-41663171D02*
X107560149Y-41520314D01*
X107560149Y-41520314D02*
X107703006Y-41377457D01*
X107703006Y-41377457D02*
X107917292Y-41306028D01*
X107917292Y-41306028D02*
X108060149Y-41306028D01*
X108060149Y-41306028D02*
X108274435Y-41377457D01*
X108274435Y-41377457D02*
X108345863Y-41448885D01*
X108988720Y-42806028D02*
X108988720Y-41306028D01*
X108988720Y-41306028D02*
X109560149Y-41306028D01*
X109560149Y-41306028D02*
X109703006Y-41377457D01*
X109703006Y-41377457D02*
X109774435Y-41448885D01*
X109774435Y-41448885D02*
X109845863Y-41591742D01*
X109845863Y-41591742D02*
X109845863Y-41806028D01*
X109845863Y-41806028D02*
X109774435Y-41948885D01*
X109774435Y-41948885D02*
X109703006Y-42020314D01*
X109703006Y-42020314D02*
X109560149Y-42091742D01*
X109560149Y-42091742D02*
X108988720Y-42091742D01*
X111560149Y-41234600D02*
X110274435Y-43163171D01*
X112060149Y-42806028D02*
X112060149Y-41306028D01*
X112060149Y-41306028D02*
X112560149Y-42377457D01*
X112560149Y-42377457D02*
X113060149Y-41306028D01*
X113060149Y-41306028D02*
X113060149Y-42806028D01*
X115774435Y-42663171D02*
X115703007Y-42734600D01*
X115703007Y-42734600D02*
X115488721Y-42806028D01*
X115488721Y-42806028D02*
X115345864Y-42806028D01*
X115345864Y-42806028D02*
X115131578Y-42734600D01*
X115131578Y-42734600D02*
X114988721Y-42591742D01*
X114988721Y-42591742D02*
X114917292Y-42448885D01*
X114917292Y-42448885D02*
X114845864Y-42163171D01*
X114845864Y-42163171D02*
X114845864Y-41948885D01*
X114845864Y-41948885D02*
X114917292Y-41663171D01*
X114917292Y-41663171D02*
X114988721Y-41520314D01*
X114988721Y-41520314D02*
X115131578Y-41377457D01*
X115131578Y-41377457D02*
X115345864Y-41306028D01*
X115345864Y-41306028D02*
X115488721Y-41306028D01*
X115488721Y-41306028D02*
X115703007Y-41377457D01*
X115703007Y-41377457D02*
X115774435Y-41448885D01*
X116631578Y-42806028D02*
X116488721Y-42734600D01*
X116488721Y-42734600D02*
X116417292Y-42663171D01*
X116417292Y-42663171D02*
X116345864Y-42520314D01*
X116345864Y-42520314D02*
X116345864Y-42091742D01*
X116345864Y-42091742D02*
X116417292Y-41948885D01*
X116417292Y-41948885D02*
X116488721Y-41877457D01*
X116488721Y-41877457D02*
X116631578Y-41806028D01*
X116631578Y-41806028D02*
X116845864Y-41806028D01*
X116845864Y-41806028D02*
X116988721Y-41877457D01*
X116988721Y-41877457D02*
X117060150Y-41948885D01*
X117060150Y-41948885D02*
X117131578Y-42091742D01*
X117131578Y-42091742D02*
X117131578Y-42520314D01*
X117131578Y-42520314D02*
X117060150Y-42663171D01*
X117060150Y-42663171D02*
X116988721Y-42734600D01*
X116988721Y-42734600D02*
X116845864Y-42806028D01*
X116845864Y-42806028D02*
X116631578Y-42806028D01*
X117774435Y-42806028D02*
X117774435Y-41306028D01*
X117774435Y-41877457D02*
X117917293Y-41806028D01*
X117917293Y-41806028D02*
X118203007Y-41806028D01*
X118203007Y-41806028D02*
X118345864Y-41877457D01*
X118345864Y-41877457D02*
X118417293Y-41948885D01*
X118417293Y-41948885D02*
X118488721Y-42091742D01*
X118488721Y-42091742D02*
X118488721Y-42520314D01*
X118488721Y-42520314D02*
X118417293Y-42663171D01*
X118417293Y-42663171D02*
X118345864Y-42734600D01*
X118345864Y-42734600D02*
X118203007Y-42806028D01*
X118203007Y-42806028D02*
X117917293Y-42806028D01*
X117917293Y-42806028D02*
X117774435Y-42734600D01*
X119345864Y-42806028D02*
X119203007Y-42734600D01*
X119203007Y-42734600D02*
X119131578Y-42663171D01*
X119131578Y-42663171D02*
X119060150Y-42520314D01*
X119060150Y-42520314D02*
X119060150Y-42091742D01*
X119060150Y-42091742D02*
X119131578Y-41948885D01*
X119131578Y-41948885D02*
X119203007Y-41877457D01*
X119203007Y-41877457D02*
X119345864Y-41806028D01*
X119345864Y-41806028D02*
X119560150Y-41806028D01*
X119560150Y-41806028D02*
X119703007Y-41877457D01*
X119703007Y-41877457D02*
X119774436Y-41948885D01*
X119774436Y-41948885D02*
X119845864Y-42091742D01*
X119845864Y-42091742D02*
X119845864Y-42520314D01*
X119845864Y-42520314D02*
X119774436Y-42663171D01*
X119774436Y-42663171D02*
X119703007Y-42734600D01*
X119703007Y-42734600D02*
X119560150Y-42806028D01*
X119560150Y-42806028D02*
X119345864Y-42806028D01*
X121131579Y-42806028D02*
X121131579Y-42020314D01*
X121131579Y-42020314D02*
X121060150Y-41877457D01*
X121060150Y-41877457D02*
X120917293Y-41806028D01*
X120917293Y-41806028D02*
X120631579Y-41806028D01*
X120631579Y-41806028D02*
X120488721Y-41877457D01*
X121131579Y-42734600D02*
X120988721Y-42806028D01*
X120988721Y-42806028D02*
X120631579Y-42806028D01*
X120631579Y-42806028D02*
X120488721Y-42734600D01*
X120488721Y-42734600D02*
X120417293Y-42591742D01*
X120417293Y-42591742D02*
X120417293Y-42448885D01*
X120417293Y-42448885D02*
X120488721Y-42306028D01*
X120488721Y-42306028D02*
X120631579Y-42234600D01*
X120631579Y-42234600D02*
X120988721Y-42234600D01*
X120988721Y-42234600D02*
X121131579Y-42163171D01*
X121845864Y-42806028D02*
X121845864Y-41806028D01*
X121845864Y-42091742D02*
X121917293Y-41948885D01*
X121917293Y-41948885D02*
X121988722Y-41877457D01*
X121988722Y-41877457D02*
X122131579Y-41806028D01*
X122131579Y-41806028D02*
X122274436Y-41806028D01*
X123417293Y-42806028D02*
X123417293Y-41306028D01*
X123417293Y-42734600D02*
X123274435Y-42806028D01*
X123274435Y-42806028D02*
X122988721Y-42806028D01*
X122988721Y-42806028D02*
X122845864Y-42734600D01*
X122845864Y-42734600D02*
X122774435Y-42663171D01*
X122774435Y-42663171D02*
X122703007Y-42520314D01*
X122703007Y-42520314D02*
X122703007Y-42091742D01*
X122703007Y-42091742D02*
X122774435Y-41948885D01*
X122774435Y-41948885D02*
X122845864Y-41877457D01*
X122845864Y-41877457D02*
X122988721Y-41806028D01*
X122988721Y-41806028D02*
X123274435Y-41806028D01*
X123274435Y-41806028D02*
X123417293Y-41877457D01*
D11*
X73324819Y-85851904D02*
X74134342Y-85851904D01*
X74134342Y-85851904D02*
X74229580Y-85804285D01*
X74229580Y-85804285D02*
X74277200Y-85756666D01*
X74277200Y-85756666D02*
X74324819Y-85661428D01*
X74324819Y-85661428D02*
X74324819Y-85470952D01*
X74324819Y-85470952D02*
X74277200Y-85375714D01*
X74277200Y-85375714D02*
X74229580Y-85328095D01*
X74229580Y-85328095D02*
X74134342Y-85280476D01*
X74134342Y-85280476D02*
X73324819Y-85280476D01*
X73324819Y-84899523D02*
X73324819Y-84232857D01*
X73324819Y-84232857D02*
X74324819Y-84661428D01*
X96193390Y-87566190D02*
X96145771Y-87661428D01*
X96145771Y-87661428D02*
X96098152Y-87709047D01*
X96098152Y-87709047D02*
X96002914Y-87756666D01*
X96002914Y-87756666D02*
X95955295Y-87756666D01*
X95955295Y-87756666D02*
X95860057Y-87709047D01*
X95860057Y-87709047D02*
X95812438Y-87661428D01*
X95812438Y-87661428D02*
X95764819Y-87566190D01*
X95764819Y-87566190D02*
X95764819Y-87375714D01*
X95764819Y-87375714D02*
X95812438Y-87280476D01*
X95812438Y-87280476D02*
X95860057Y-87232857D01*
X95860057Y-87232857D02*
X95955295Y-87185238D01*
X95955295Y-87185238D02*
X96002914Y-87185238D01*
X96002914Y-87185238D02*
X96098152Y-87232857D01*
X96098152Y-87232857D02*
X96145771Y-87280476D01*
X96145771Y-87280476D02*
X96193390Y-87375714D01*
X96193390Y-87375714D02*
X96193390Y-87566190D01*
X96193390Y-87566190D02*
X96241009Y-87661428D01*
X96241009Y-87661428D02*
X96288628Y-87709047D01*
X96288628Y-87709047D02*
X96383866Y-87756666D01*
X96383866Y-87756666D02*
X96574342Y-87756666D01*
X96574342Y-87756666D02*
X96669580Y-87709047D01*
X96669580Y-87709047D02*
X96717200Y-87661428D01*
X96717200Y-87661428D02*
X96764819Y-87566190D01*
X96764819Y-87566190D02*
X96764819Y-87375714D01*
X96764819Y-87375714D02*
X96717200Y-87280476D01*
X96717200Y-87280476D02*
X96669580Y-87232857D01*
X96669580Y-87232857D02*
X96574342Y-87185238D01*
X96574342Y-87185238D02*
X96383866Y-87185238D01*
X96383866Y-87185238D02*
X96288628Y-87232857D01*
X96288628Y-87232857D02*
X96241009Y-87280476D01*
X96241009Y-87280476D02*
X96193390Y-87375714D01*
X95860057Y-86804285D02*
X95812438Y-86756666D01*
X95812438Y-86756666D02*
X95764819Y-86661428D01*
X95764819Y-86661428D02*
X95764819Y-86423333D01*
X95764819Y-86423333D02*
X95812438Y-86328095D01*
X95812438Y-86328095D02*
X95860057Y-86280476D01*
X95860057Y-86280476D02*
X95955295Y-86232857D01*
X95955295Y-86232857D02*
X96050533Y-86232857D01*
X96050533Y-86232857D02*
X96193390Y-86280476D01*
X96193390Y-86280476D02*
X96764819Y-86851904D01*
X96764819Y-86851904D02*
X96764819Y-86232857D01*
X96717200Y-85851904D02*
X96764819Y-85709047D01*
X96764819Y-85709047D02*
X96764819Y-85470952D01*
X96764819Y-85470952D02*
X96717200Y-85375714D01*
X96717200Y-85375714D02*
X96669580Y-85328095D01*
X96669580Y-85328095D02*
X96574342Y-85280476D01*
X96574342Y-85280476D02*
X96479104Y-85280476D01*
X96479104Y-85280476D02*
X96383866Y-85328095D01*
X96383866Y-85328095D02*
X96336247Y-85375714D01*
X96336247Y-85375714D02*
X96288628Y-85470952D01*
X96288628Y-85470952D02*
X96241009Y-85661428D01*
X96241009Y-85661428D02*
X96193390Y-85756666D01*
X96193390Y-85756666D02*
X96145771Y-85804285D01*
X96145771Y-85804285D02*
X96050533Y-85851904D01*
X96050533Y-85851904D02*
X95955295Y-85851904D01*
X95955295Y-85851904D02*
X95860057Y-85804285D01*
X95860057Y-85804285D02*
X95812438Y-85756666D01*
X95812438Y-85756666D02*
X95764819Y-85661428D01*
X95764819Y-85661428D02*
X95764819Y-85423333D01*
X95764819Y-85423333D02*
X95812438Y-85280476D01*
X96764819Y-84328095D02*
X96764819Y-84899523D01*
X96764819Y-84613809D02*
X95764819Y-84613809D01*
X95764819Y-84613809D02*
X95907676Y-84709047D01*
X95907676Y-84709047D02*
X96002914Y-84804285D01*
X96002914Y-84804285D02*
X96050533Y-84899523D01*
X95860057Y-83947142D02*
X95812438Y-83899523D01*
X95812438Y-83899523D02*
X95764819Y-83804285D01*
X95764819Y-83804285D02*
X95764819Y-83566190D01*
X95764819Y-83566190D02*
X95812438Y-83470952D01*
X95812438Y-83470952D02*
X95860057Y-83423333D01*
X95860057Y-83423333D02*
X95955295Y-83375714D01*
X95955295Y-83375714D02*
X96050533Y-83375714D01*
X96050533Y-83375714D02*
X96193390Y-83423333D01*
X96193390Y-83423333D02*
X96764819Y-83994761D01*
X96764819Y-83994761D02*
X96764819Y-83375714D01*
X95764819Y-83042380D02*
X95764819Y-82423333D01*
X95764819Y-82423333D02*
X96145771Y-82756666D01*
X96145771Y-82756666D02*
X96145771Y-82613809D01*
X96145771Y-82613809D02*
X96193390Y-82518571D01*
X96193390Y-82518571D02*
X96241009Y-82470952D01*
X96241009Y-82470952D02*
X96336247Y-82423333D01*
X96336247Y-82423333D02*
X96574342Y-82423333D01*
X96574342Y-82423333D02*
X96669580Y-82470952D01*
X96669580Y-82470952D02*
X96717200Y-82518571D01*
X96717200Y-82518571D02*
X96764819Y-82613809D01*
X96764819Y-82613809D02*
X96764819Y-82899523D01*
X96764819Y-82899523D02*
X96717200Y-82994761D01*
X96717200Y-82994761D02*
X96669580Y-83042380D01*
X153522319Y-44783333D02*
X154236604Y-44783333D01*
X154236604Y-44783333D02*
X154379461Y-44830952D01*
X154379461Y-44830952D02*
X154474700Y-44926190D01*
X154474700Y-44926190D02*
X154522319Y-45069047D01*
X154522319Y-45069047D02*
X154522319Y-45164285D01*
X153522319Y-43830952D02*
X153522319Y-44307142D01*
X153522319Y-44307142D02*
X153998509Y-44354761D01*
X153998509Y-44354761D02*
X153950890Y-44307142D01*
X153950890Y-44307142D02*
X153903271Y-44211904D01*
X153903271Y-44211904D02*
X153903271Y-43973809D01*
X153903271Y-43973809D02*
X153950890Y-43878571D01*
X153950890Y-43878571D02*
X153998509Y-43830952D01*
X153998509Y-43830952D02*
X154093747Y-43783333D01*
X154093747Y-43783333D02*
X154331842Y-43783333D01*
X154331842Y-43783333D02*
X154427080Y-43830952D01*
X154427080Y-43830952D02*
X154474700Y-43878571D01*
X154474700Y-43878571D02*
X154522319Y-43973809D01*
X154522319Y-43973809D02*
X154522319Y-44211904D01*
X154522319Y-44211904D02*
X154474700Y-44307142D01*
X154474700Y-44307142D02*
X154427080Y-44354761D01*
X141694819Y-47854761D02*
X141694819Y-47283333D01*
X142694819Y-47569047D02*
X141694819Y-47569047D01*
X142171009Y-46949999D02*
X142171009Y-46616666D01*
X142694819Y-46473809D02*
X142694819Y-46949999D01*
X142694819Y-46949999D02*
X141694819Y-46949999D01*
X141694819Y-46949999D02*
X141694819Y-46473809D01*
X142694819Y-45473809D02*
X142218628Y-45807142D01*
X142694819Y-46045237D02*
X141694819Y-46045237D01*
X141694819Y-46045237D02*
X141694819Y-45664285D01*
X141694819Y-45664285D02*
X141742438Y-45569047D01*
X141742438Y-45569047D02*
X141790057Y-45521428D01*
X141790057Y-45521428D02*
X141885295Y-45473809D01*
X141885295Y-45473809D02*
X142028152Y-45473809D01*
X142028152Y-45473809D02*
X142123390Y-45521428D01*
X142123390Y-45521428D02*
X142171009Y-45569047D01*
X142171009Y-45569047D02*
X142218628Y-45664285D01*
X142218628Y-45664285D02*
X142218628Y-46045237D01*
X142694819Y-45045237D02*
X141694819Y-45045237D01*
X141694819Y-45045237D02*
X142409104Y-44711904D01*
X142409104Y-44711904D02*
X141694819Y-44378571D01*
X141694819Y-44378571D02*
X142694819Y-44378571D01*
X142694819Y-43902380D02*
X141694819Y-43902380D01*
X142694819Y-43426190D02*
X141694819Y-43426190D01*
X141694819Y-43426190D02*
X142694819Y-42854762D01*
X142694819Y-42854762D02*
X141694819Y-42854762D01*
X142409104Y-42426190D02*
X142409104Y-41950000D01*
X142694819Y-42521428D02*
X141694819Y-42188095D01*
X141694819Y-42188095D02*
X142694819Y-41854762D01*
X142694819Y-41045238D02*
X142694819Y-41521428D01*
X142694819Y-41521428D02*
X141694819Y-41521428D01*
X136826666Y-47554819D02*
X136826666Y-48269104D01*
X136826666Y-48269104D02*
X136779047Y-48411961D01*
X136779047Y-48411961D02*
X136683809Y-48507200D01*
X136683809Y-48507200D02*
X136540952Y-48554819D01*
X136540952Y-48554819D02*
X136445714Y-48554819D01*
X137731428Y-47888152D02*
X137731428Y-48554819D01*
X137493333Y-47507200D02*
X137255238Y-48221485D01*
X137255238Y-48221485D02*
X137874285Y-48221485D01*
X134850476Y-41254819D02*
X134850476Y-40254819D01*
X134850476Y-40254819D02*
X135231428Y-40254819D01*
X135231428Y-40254819D02*
X135326666Y-40302438D01*
X135326666Y-40302438D02*
X135374285Y-40350057D01*
X135374285Y-40350057D02*
X135421904Y-40445295D01*
X135421904Y-40445295D02*
X135421904Y-40588152D01*
X135421904Y-40588152D02*
X135374285Y-40683390D01*
X135374285Y-40683390D02*
X135326666Y-40731009D01*
X135326666Y-40731009D02*
X135231428Y-40778628D01*
X135231428Y-40778628D02*
X134850476Y-40778628D01*
X136040952Y-40254819D02*
X136231428Y-40254819D01*
X136231428Y-40254819D02*
X136326666Y-40302438D01*
X136326666Y-40302438D02*
X136421904Y-40397676D01*
X136421904Y-40397676D02*
X136469523Y-40588152D01*
X136469523Y-40588152D02*
X136469523Y-40921485D01*
X136469523Y-40921485D02*
X136421904Y-41111961D01*
X136421904Y-41111961D02*
X136326666Y-41207200D01*
X136326666Y-41207200D02*
X136231428Y-41254819D01*
X136231428Y-41254819D02*
X136040952Y-41254819D01*
X136040952Y-41254819D02*
X135945714Y-41207200D01*
X135945714Y-41207200D02*
X135850476Y-41111961D01*
X135850476Y-41111961D02*
X135802857Y-40921485D01*
X135802857Y-40921485D02*
X135802857Y-40588152D01*
X135802857Y-40588152D02*
X135850476Y-40397676D01*
X135850476Y-40397676D02*
X135945714Y-40302438D01*
X135945714Y-40302438D02*
X136040952Y-40254819D01*
X136802857Y-40254819D02*
X137040952Y-41254819D01*
X137040952Y-41254819D02*
X137231428Y-40540533D01*
X137231428Y-40540533D02*
X137421904Y-41254819D01*
X137421904Y-41254819D02*
X137660000Y-40254819D01*
X138040952Y-40731009D02*
X138374285Y-40731009D01*
X138517142Y-41254819D02*
X138040952Y-41254819D01*
X138040952Y-41254819D02*
X138040952Y-40254819D01*
X138040952Y-40254819D02*
X138517142Y-40254819D01*
X139517142Y-41254819D02*
X139183809Y-40778628D01*
X138945714Y-41254819D02*
X138945714Y-40254819D01*
X138945714Y-40254819D02*
X139326666Y-40254819D01*
X139326666Y-40254819D02*
X139421904Y-40302438D01*
X139421904Y-40302438D02*
X139469523Y-40350057D01*
X139469523Y-40350057D02*
X139517142Y-40445295D01*
X139517142Y-40445295D02*
X139517142Y-40588152D01*
X139517142Y-40588152D02*
X139469523Y-40683390D01*
X139469523Y-40683390D02*
X139421904Y-40731009D01*
X139421904Y-40731009D02*
X139326666Y-40778628D01*
X139326666Y-40778628D02*
X138945714Y-40778628D01*
X149526666Y-88194819D02*
X149526666Y-88909104D01*
X149526666Y-88909104D02*
X149479047Y-89051961D01*
X149479047Y-89051961D02*
X149383809Y-89147200D01*
X149383809Y-89147200D02*
X149240952Y-89194819D01*
X149240952Y-89194819D02*
X149145714Y-89194819D01*
X149907619Y-88194819D02*
X150526666Y-88194819D01*
X150526666Y-88194819D02*
X150193333Y-88575771D01*
X150193333Y-88575771D02*
X150336190Y-88575771D01*
X150336190Y-88575771D02*
X150431428Y-88623390D01*
X150431428Y-88623390D02*
X150479047Y-88671009D01*
X150479047Y-88671009D02*
X150526666Y-88766247D01*
X150526666Y-88766247D02*
X150526666Y-89004342D01*
X150526666Y-89004342D02*
X150479047Y-89099580D01*
X150479047Y-89099580D02*
X150431428Y-89147200D01*
X150431428Y-89147200D02*
X150336190Y-89194819D01*
X150336190Y-89194819D02*
X150050476Y-89194819D01*
X150050476Y-89194819D02*
X149955238Y-89147200D01*
X149955238Y-89147200D02*
X149907619Y-89099580D01*
X148479048Y-76924819D02*
X149050476Y-76924819D01*
X148764762Y-77924819D02*
X148764762Y-76924819D01*
X150098095Y-76877200D02*
X149240953Y-78162914D01*
X150431429Y-77924819D02*
X150431429Y-76924819D01*
X150431429Y-76924819D02*
X150764762Y-77639104D01*
X150764762Y-77639104D02*
X151098095Y-76924819D01*
X151098095Y-76924819D02*
X151098095Y-77924819D01*
X150293334Y-76647200D02*
X151236191Y-76647200D01*
X70953333Y-42904580D02*
X70905714Y-42952200D01*
X70905714Y-42952200D02*
X70762857Y-42999819D01*
X70762857Y-42999819D02*
X70667619Y-42999819D01*
X70667619Y-42999819D02*
X70524762Y-42952200D01*
X70524762Y-42952200D02*
X70429524Y-42856961D01*
X70429524Y-42856961D02*
X70381905Y-42761723D01*
X70381905Y-42761723D02*
X70334286Y-42571247D01*
X70334286Y-42571247D02*
X70334286Y-42428390D01*
X70334286Y-42428390D02*
X70381905Y-42237914D01*
X70381905Y-42237914D02*
X70429524Y-42142676D01*
X70429524Y-42142676D02*
X70524762Y-42047438D01*
X70524762Y-42047438D02*
X70667619Y-41999819D01*
X70667619Y-41999819D02*
X70762857Y-41999819D01*
X70762857Y-41999819D02*
X70905714Y-42047438D01*
X70905714Y-42047438D02*
X70953333Y-42095057D01*
X71858095Y-41999819D02*
X71381905Y-41999819D01*
X71381905Y-41999819D02*
X71334286Y-42476009D01*
X71334286Y-42476009D02*
X71381905Y-42428390D01*
X71381905Y-42428390D02*
X71477143Y-42380771D01*
X71477143Y-42380771D02*
X71715238Y-42380771D01*
X71715238Y-42380771D02*
X71810476Y-42428390D01*
X71810476Y-42428390D02*
X71858095Y-42476009D01*
X71858095Y-42476009D02*
X71905714Y-42571247D01*
X71905714Y-42571247D02*
X71905714Y-42809342D01*
X71905714Y-42809342D02*
X71858095Y-42904580D01*
X71858095Y-42904580D02*
X71810476Y-42952200D01*
X71810476Y-42952200D02*
X71715238Y-42999819D01*
X71715238Y-42999819D02*
X71477143Y-42999819D01*
X71477143Y-42999819D02*
X71381905Y-42952200D01*
X71381905Y-42952200D02*
X71334286Y-42904580D01*
X76519580Y-72556666D02*
X76567200Y-72604285D01*
X76567200Y-72604285D02*
X76614819Y-72747142D01*
X76614819Y-72747142D02*
X76614819Y-72842380D01*
X76614819Y-72842380D02*
X76567200Y-72985237D01*
X76567200Y-72985237D02*
X76471961Y-73080475D01*
X76471961Y-73080475D02*
X76376723Y-73128094D01*
X76376723Y-73128094D02*
X76186247Y-73175713D01*
X76186247Y-73175713D02*
X76043390Y-73175713D01*
X76043390Y-73175713D02*
X75852914Y-73128094D01*
X75852914Y-73128094D02*
X75757676Y-73080475D01*
X75757676Y-73080475D02*
X75662438Y-72985237D01*
X75662438Y-72985237D02*
X75614819Y-72842380D01*
X75614819Y-72842380D02*
X75614819Y-72747142D01*
X75614819Y-72747142D02*
X75662438Y-72604285D01*
X75662438Y-72604285D02*
X75710057Y-72556666D01*
X75948152Y-71699523D02*
X76614819Y-71699523D01*
X75567200Y-71937618D02*
X76281485Y-72175713D01*
X76281485Y-72175713D02*
X76281485Y-71556666D01*
X96339819Y-94146666D02*
X95863628Y-94479999D01*
X96339819Y-94718094D02*
X95339819Y-94718094D01*
X95339819Y-94718094D02*
X95339819Y-94337142D01*
X95339819Y-94337142D02*
X95387438Y-94241904D01*
X95387438Y-94241904D02*
X95435057Y-94194285D01*
X95435057Y-94194285D02*
X95530295Y-94146666D01*
X95530295Y-94146666D02*
X95673152Y-94146666D01*
X95673152Y-94146666D02*
X95768390Y-94194285D01*
X95768390Y-94194285D02*
X95816009Y-94241904D01*
X95816009Y-94241904D02*
X95863628Y-94337142D01*
X95863628Y-94337142D02*
X95863628Y-94718094D01*
X96339819Y-93194285D02*
X96339819Y-93765713D01*
X96339819Y-93479999D02*
X95339819Y-93479999D01*
X95339819Y-93479999D02*
X95482676Y-93575237D01*
X95482676Y-93575237D02*
X95577914Y-93670475D01*
X95577914Y-93670475D02*
X95625533Y-93765713D01*
X89003333Y-96070057D02*
X89050952Y-96022438D01*
X89050952Y-96022438D02*
X89146190Y-95974819D01*
X89146190Y-95974819D02*
X89384285Y-95974819D01*
X89384285Y-95974819D02*
X89479523Y-96022438D01*
X89479523Y-96022438D02*
X89527142Y-96070057D01*
X89527142Y-96070057D02*
X89574761Y-96165295D01*
X89574761Y-96165295D02*
X89574761Y-96260533D01*
X89574761Y-96260533D02*
X89527142Y-96403390D01*
X89527142Y-96403390D02*
X88955714Y-96974819D01*
X88955714Y-96974819D02*
X89574761Y-96974819D01*
X90003333Y-96974819D02*
X90003333Y-95974819D01*
X90098571Y-96593866D02*
X90384285Y-96974819D01*
X90384285Y-96308152D02*
X90003333Y-96689104D01*
X90765238Y-96070057D02*
X90812857Y-96022438D01*
X90812857Y-96022438D02*
X90908095Y-95974819D01*
X90908095Y-95974819D02*
X91146190Y-95974819D01*
X91146190Y-95974819D02*
X91241428Y-96022438D01*
X91241428Y-96022438D02*
X91289047Y-96070057D01*
X91289047Y-96070057D02*
X91336666Y-96165295D01*
X91336666Y-96165295D02*
X91336666Y-96260533D01*
X91336666Y-96260533D02*
X91289047Y-96403390D01*
X91289047Y-96403390D02*
X90717619Y-96974819D01*
X90717619Y-96974819D02*
X91336666Y-96974819D01*
X73324819Y-60451904D02*
X74134342Y-60451904D01*
X74134342Y-60451904D02*
X74229580Y-60404285D01*
X74229580Y-60404285D02*
X74277200Y-60356666D01*
X74277200Y-60356666D02*
X74324819Y-60261428D01*
X74324819Y-60261428D02*
X74324819Y-60070952D01*
X74324819Y-60070952D02*
X74277200Y-59975714D01*
X74277200Y-59975714D02*
X74229580Y-59928095D01*
X74229580Y-59928095D02*
X74134342Y-59880476D01*
X74134342Y-59880476D02*
X73324819Y-59880476D01*
X73324819Y-58928095D02*
X73324819Y-59404285D01*
X73324819Y-59404285D02*
X73801009Y-59451904D01*
X73801009Y-59451904D02*
X73753390Y-59404285D01*
X73753390Y-59404285D02*
X73705771Y-59309047D01*
X73705771Y-59309047D02*
X73705771Y-59070952D01*
X73705771Y-59070952D02*
X73753390Y-58975714D01*
X73753390Y-58975714D02*
X73801009Y-58928095D01*
X73801009Y-58928095D02*
X73896247Y-58880476D01*
X73896247Y-58880476D02*
X74134342Y-58880476D01*
X74134342Y-58880476D02*
X74229580Y-58928095D01*
X74229580Y-58928095D02*
X74277200Y-58975714D01*
X74277200Y-58975714D02*
X74324819Y-59070952D01*
X74324819Y-59070952D02*
X74324819Y-59309047D01*
X74324819Y-59309047D02*
X74277200Y-59404285D01*
X74277200Y-59404285D02*
X74229580Y-59451904D01*
X95764819Y-62809047D02*
X95764819Y-62142381D01*
X95764819Y-62142381D02*
X96764819Y-62570952D01*
X96098152Y-61332857D02*
X96764819Y-61332857D01*
X95717200Y-61570952D02*
X96431485Y-61809047D01*
X96431485Y-61809047D02*
X96431485Y-61190000D01*
X96764819Y-60332857D02*
X96764819Y-60809047D01*
X96764819Y-60809047D02*
X95764819Y-60809047D01*
X96717200Y-60047142D02*
X96764819Y-59904285D01*
X96764819Y-59904285D02*
X96764819Y-59666190D01*
X96764819Y-59666190D02*
X96717200Y-59570952D01*
X96717200Y-59570952D02*
X96669580Y-59523333D01*
X96669580Y-59523333D02*
X96574342Y-59475714D01*
X96574342Y-59475714D02*
X96479104Y-59475714D01*
X96479104Y-59475714D02*
X96383866Y-59523333D01*
X96383866Y-59523333D02*
X96336247Y-59570952D01*
X96336247Y-59570952D02*
X96288628Y-59666190D01*
X96288628Y-59666190D02*
X96241009Y-59856666D01*
X96241009Y-59856666D02*
X96193390Y-59951904D01*
X96193390Y-59951904D02*
X96145771Y-59999523D01*
X96145771Y-59999523D02*
X96050533Y-60047142D01*
X96050533Y-60047142D02*
X95955295Y-60047142D01*
X95955295Y-60047142D02*
X95860057Y-59999523D01*
X95860057Y-59999523D02*
X95812438Y-59951904D01*
X95812438Y-59951904D02*
X95764819Y-59856666D01*
X95764819Y-59856666D02*
X95764819Y-59618571D01*
X95764819Y-59618571D02*
X95812438Y-59475714D01*
X96764819Y-58523333D02*
X96764819Y-59094761D01*
X96764819Y-58809047D02*
X95764819Y-58809047D01*
X95764819Y-58809047D02*
X95907676Y-58904285D01*
X95907676Y-58904285D02*
X96002914Y-58999523D01*
X96002914Y-58999523D02*
X96050533Y-59094761D01*
X95764819Y-58189999D02*
X95764819Y-57570952D01*
X95764819Y-57570952D02*
X96145771Y-57904285D01*
X96145771Y-57904285D02*
X96145771Y-57761428D01*
X96145771Y-57761428D02*
X96193390Y-57666190D01*
X96193390Y-57666190D02*
X96241009Y-57618571D01*
X96241009Y-57618571D02*
X96336247Y-57570952D01*
X96336247Y-57570952D02*
X96574342Y-57570952D01*
X96574342Y-57570952D02*
X96669580Y-57618571D01*
X96669580Y-57618571D02*
X96717200Y-57666190D01*
X96717200Y-57666190D02*
X96764819Y-57761428D01*
X96764819Y-57761428D02*
X96764819Y-58047142D01*
X96764819Y-58047142D02*
X96717200Y-58142380D01*
X96717200Y-58142380D02*
X96669580Y-58189999D01*
X96193390Y-56999523D02*
X96145771Y-57094761D01*
X96145771Y-57094761D02*
X96098152Y-57142380D01*
X96098152Y-57142380D02*
X96002914Y-57189999D01*
X96002914Y-57189999D02*
X95955295Y-57189999D01*
X95955295Y-57189999D02*
X95860057Y-57142380D01*
X95860057Y-57142380D02*
X95812438Y-57094761D01*
X95812438Y-57094761D02*
X95764819Y-56999523D01*
X95764819Y-56999523D02*
X95764819Y-56809047D01*
X95764819Y-56809047D02*
X95812438Y-56713809D01*
X95812438Y-56713809D02*
X95860057Y-56666190D01*
X95860057Y-56666190D02*
X95955295Y-56618571D01*
X95955295Y-56618571D02*
X96002914Y-56618571D01*
X96002914Y-56618571D02*
X96098152Y-56666190D01*
X96098152Y-56666190D02*
X96145771Y-56713809D01*
X96145771Y-56713809D02*
X96193390Y-56809047D01*
X96193390Y-56809047D02*
X96193390Y-56999523D01*
X96193390Y-56999523D02*
X96241009Y-57094761D01*
X96241009Y-57094761D02*
X96288628Y-57142380D01*
X96288628Y-57142380D02*
X96383866Y-57189999D01*
X96383866Y-57189999D02*
X96574342Y-57189999D01*
X96574342Y-57189999D02*
X96669580Y-57142380D01*
X96669580Y-57142380D02*
X96717200Y-57094761D01*
X96717200Y-57094761D02*
X96764819Y-56999523D01*
X96764819Y-56999523D02*
X96764819Y-56809047D01*
X96764819Y-56809047D02*
X96717200Y-56713809D01*
X96717200Y-56713809D02*
X96669580Y-56666190D01*
X96669580Y-56666190D02*
X96574342Y-56618571D01*
X96574342Y-56618571D02*
X96383866Y-56618571D01*
X96383866Y-56618571D02*
X96288628Y-56666190D01*
X96288628Y-56666190D02*
X96241009Y-56713809D01*
X96241009Y-56713809D02*
X96193390Y-56809047D01*
X104205533Y-56148980D02*
X104157914Y-56196600D01*
X104157914Y-56196600D02*
X104015057Y-56244219D01*
X104015057Y-56244219D02*
X103919819Y-56244219D01*
X103919819Y-56244219D02*
X103776962Y-56196600D01*
X103776962Y-56196600D02*
X103681724Y-56101361D01*
X103681724Y-56101361D02*
X103634105Y-56006123D01*
X103634105Y-56006123D02*
X103586486Y-55815647D01*
X103586486Y-55815647D02*
X103586486Y-55672790D01*
X103586486Y-55672790D02*
X103634105Y-55482314D01*
X103634105Y-55482314D02*
X103681724Y-55387076D01*
X103681724Y-55387076D02*
X103776962Y-55291838D01*
X103776962Y-55291838D02*
X103919819Y-55244219D01*
X103919819Y-55244219D02*
X104015057Y-55244219D01*
X104015057Y-55244219D02*
X104157914Y-55291838D01*
X104157914Y-55291838D02*
X104205533Y-55339457D01*
X105157914Y-56244219D02*
X104586486Y-56244219D01*
X104872200Y-56244219D02*
X104872200Y-55244219D01*
X104872200Y-55244219D02*
X104776962Y-55387076D01*
X104776962Y-55387076D02*
X104681724Y-55482314D01*
X104681724Y-55482314D02*
X104586486Y-55529933D01*
X124293333Y-79774580D02*
X124245714Y-79822200D01*
X124245714Y-79822200D02*
X124102857Y-79869819D01*
X124102857Y-79869819D02*
X124007619Y-79869819D01*
X124007619Y-79869819D02*
X123864762Y-79822200D01*
X123864762Y-79822200D02*
X123769524Y-79726961D01*
X123769524Y-79726961D02*
X123721905Y-79631723D01*
X123721905Y-79631723D02*
X123674286Y-79441247D01*
X123674286Y-79441247D02*
X123674286Y-79298390D01*
X123674286Y-79298390D02*
X123721905Y-79107914D01*
X123721905Y-79107914D02*
X123769524Y-79012676D01*
X123769524Y-79012676D02*
X123864762Y-78917438D01*
X123864762Y-78917438D02*
X124007619Y-78869819D01*
X124007619Y-78869819D02*
X124102857Y-78869819D01*
X124102857Y-78869819D02*
X124245714Y-78917438D01*
X124245714Y-78917438D02*
X124293333Y-78965057D01*
X124674286Y-78965057D02*
X124721905Y-78917438D01*
X124721905Y-78917438D02*
X124817143Y-78869819D01*
X124817143Y-78869819D02*
X125055238Y-78869819D01*
X125055238Y-78869819D02*
X125150476Y-78917438D01*
X125150476Y-78917438D02*
X125198095Y-78965057D01*
X125198095Y-78965057D02*
X125245714Y-79060295D01*
X125245714Y-79060295D02*
X125245714Y-79155533D01*
X125245714Y-79155533D02*
X125198095Y-79298390D01*
X125198095Y-79298390D02*
X124626667Y-79869819D01*
X124626667Y-79869819D02*
X125245714Y-79869819D01*
X149333333Y-53204819D02*
X149000000Y-52728628D01*
X148761905Y-53204819D02*
X148761905Y-52204819D01*
X148761905Y-52204819D02*
X149142857Y-52204819D01*
X149142857Y-52204819D02*
X149238095Y-52252438D01*
X149238095Y-52252438D02*
X149285714Y-52300057D01*
X149285714Y-52300057D02*
X149333333Y-52395295D01*
X149333333Y-52395295D02*
X149333333Y-52538152D01*
X149333333Y-52538152D02*
X149285714Y-52633390D01*
X149285714Y-52633390D02*
X149238095Y-52681009D01*
X149238095Y-52681009D02*
X149142857Y-52728628D01*
X149142857Y-52728628D02*
X148761905Y-52728628D01*
X149666667Y-52204819D02*
X150285714Y-52204819D01*
X150285714Y-52204819D02*
X149952381Y-52585771D01*
X149952381Y-52585771D02*
X150095238Y-52585771D01*
X150095238Y-52585771D02*
X150190476Y-52633390D01*
X150190476Y-52633390D02*
X150238095Y-52681009D01*
X150238095Y-52681009D02*
X150285714Y-52776247D01*
X150285714Y-52776247D02*
X150285714Y-53014342D01*
X150285714Y-53014342D02*
X150238095Y-53109580D01*
X150238095Y-53109580D02*
X150190476Y-53157200D01*
X150190476Y-53157200D02*
X150095238Y-53204819D01*
X150095238Y-53204819D02*
X149809524Y-53204819D01*
X149809524Y-53204819D02*
X149714286Y-53157200D01*
X149714286Y-53157200D02*
X149666667Y-53109580D01*
X72898095Y-67399819D02*
X72898095Y-68209342D01*
X72898095Y-68209342D02*
X72945714Y-68304580D01*
X72945714Y-68304580D02*
X72993333Y-68352200D01*
X72993333Y-68352200D02*
X73088571Y-68399819D01*
X73088571Y-68399819D02*
X73279047Y-68399819D01*
X73279047Y-68399819D02*
X73374285Y-68352200D01*
X73374285Y-68352200D02*
X73421904Y-68304580D01*
X73421904Y-68304580D02*
X73469523Y-68209342D01*
X73469523Y-68209342D02*
X73469523Y-67399819D01*
X74374285Y-67733152D02*
X74374285Y-68399819D01*
X74136190Y-67352200D02*
X73898095Y-68066485D01*
X73898095Y-68066485D02*
X74517142Y-68066485D01*
X95764819Y-75032856D02*
X95764819Y-74366190D01*
X95764819Y-74366190D02*
X96764819Y-74794761D01*
X96098152Y-73556666D02*
X96764819Y-73556666D01*
X95717200Y-73794761D02*
X96431485Y-74032856D01*
X96431485Y-74032856D02*
X96431485Y-73413809D01*
X96764819Y-72556666D02*
X96764819Y-73032856D01*
X96764819Y-73032856D02*
X95764819Y-73032856D01*
X96717200Y-72270951D02*
X96764819Y-72128094D01*
X96764819Y-72128094D02*
X96764819Y-71889999D01*
X96764819Y-71889999D02*
X96717200Y-71794761D01*
X96717200Y-71794761D02*
X96669580Y-71747142D01*
X96669580Y-71747142D02*
X96574342Y-71699523D01*
X96574342Y-71699523D02*
X96479104Y-71699523D01*
X96479104Y-71699523D02*
X96383866Y-71747142D01*
X96383866Y-71747142D02*
X96336247Y-71794761D01*
X96336247Y-71794761D02*
X96288628Y-71889999D01*
X96288628Y-71889999D02*
X96241009Y-72080475D01*
X96241009Y-72080475D02*
X96193390Y-72175713D01*
X96193390Y-72175713D02*
X96145771Y-72223332D01*
X96145771Y-72223332D02*
X96050533Y-72270951D01*
X96050533Y-72270951D02*
X95955295Y-72270951D01*
X95955295Y-72270951D02*
X95860057Y-72223332D01*
X95860057Y-72223332D02*
X95812438Y-72175713D01*
X95812438Y-72175713D02*
X95764819Y-72080475D01*
X95764819Y-72080475D02*
X95764819Y-71842380D01*
X95764819Y-71842380D02*
X95812438Y-71699523D01*
X95764819Y-71366189D02*
X95764819Y-70699523D01*
X95764819Y-70699523D02*
X96764819Y-71128094D01*
X96098152Y-69889999D02*
X96764819Y-69889999D01*
X95717200Y-70128094D02*
X96431485Y-70366189D01*
X96431485Y-70366189D02*
X96431485Y-69747142D01*
X70953333Y-81004580D02*
X70905714Y-81052200D01*
X70905714Y-81052200D02*
X70762857Y-81099819D01*
X70762857Y-81099819D02*
X70667619Y-81099819D01*
X70667619Y-81099819D02*
X70524762Y-81052200D01*
X70524762Y-81052200D02*
X70429524Y-80956961D01*
X70429524Y-80956961D02*
X70381905Y-80861723D01*
X70381905Y-80861723D02*
X70334286Y-80671247D01*
X70334286Y-80671247D02*
X70334286Y-80528390D01*
X70334286Y-80528390D02*
X70381905Y-80337914D01*
X70381905Y-80337914D02*
X70429524Y-80242676D01*
X70429524Y-80242676D02*
X70524762Y-80147438D01*
X70524762Y-80147438D02*
X70667619Y-80099819D01*
X70667619Y-80099819D02*
X70762857Y-80099819D01*
X70762857Y-80099819D02*
X70905714Y-80147438D01*
X70905714Y-80147438D02*
X70953333Y-80195057D01*
X71286667Y-80099819D02*
X71905714Y-80099819D01*
X71905714Y-80099819D02*
X71572381Y-80480771D01*
X71572381Y-80480771D02*
X71715238Y-80480771D01*
X71715238Y-80480771D02*
X71810476Y-80528390D01*
X71810476Y-80528390D02*
X71858095Y-80576009D01*
X71858095Y-80576009D02*
X71905714Y-80671247D01*
X71905714Y-80671247D02*
X71905714Y-80909342D01*
X71905714Y-80909342D02*
X71858095Y-81004580D01*
X71858095Y-81004580D02*
X71810476Y-81052200D01*
X71810476Y-81052200D02*
X71715238Y-81099819D01*
X71715238Y-81099819D02*
X71429524Y-81099819D01*
X71429524Y-81099819D02*
X71334286Y-81052200D01*
X71334286Y-81052200D02*
X71286667Y-81004580D01*
X74749819Y-94146666D02*
X74273628Y-94479999D01*
X74749819Y-94718094D02*
X73749819Y-94718094D01*
X73749819Y-94718094D02*
X73749819Y-94337142D01*
X73749819Y-94337142D02*
X73797438Y-94241904D01*
X73797438Y-94241904D02*
X73845057Y-94194285D01*
X73845057Y-94194285D02*
X73940295Y-94146666D01*
X73940295Y-94146666D02*
X74083152Y-94146666D01*
X74083152Y-94146666D02*
X74178390Y-94194285D01*
X74178390Y-94194285D02*
X74226009Y-94241904D01*
X74226009Y-94241904D02*
X74273628Y-94337142D01*
X74273628Y-94337142D02*
X74273628Y-94718094D01*
X73845057Y-93765713D02*
X73797438Y-93718094D01*
X73797438Y-93718094D02*
X73749819Y-93622856D01*
X73749819Y-93622856D02*
X73749819Y-93384761D01*
X73749819Y-93384761D02*
X73797438Y-93289523D01*
X73797438Y-93289523D02*
X73845057Y-93241904D01*
X73845057Y-93241904D02*
X73940295Y-93194285D01*
X73940295Y-93194285D02*
X74035533Y-93194285D01*
X74035533Y-93194285D02*
X74178390Y-93241904D01*
X74178390Y-93241904D02*
X74749819Y-93813332D01*
X74749819Y-93813332D02*
X74749819Y-93194285D01*
X78843333Y-95900057D02*
X78890952Y-95852438D01*
X78890952Y-95852438D02*
X78986190Y-95804819D01*
X78986190Y-95804819D02*
X79224285Y-95804819D01*
X79224285Y-95804819D02*
X79319523Y-95852438D01*
X79319523Y-95852438D02*
X79367142Y-95900057D01*
X79367142Y-95900057D02*
X79414761Y-95995295D01*
X79414761Y-95995295D02*
X79414761Y-96090533D01*
X79414761Y-96090533D02*
X79367142Y-96233390D01*
X79367142Y-96233390D02*
X78795714Y-96804819D01*
X78795714Y-96804819D02*
X79414761Y-96804819D01*
X79843333Y-96804819D02*
X79843333Y-95804819D01*
X79938571Y-96423866D02*
X80224285Y-96804819D01*
X80224285Y-96138152D02*
X79843333Y-96519104D01*
X80605238Y-95900057D02*
X80652857Y-95852438D01*
X80652857Y-95852438D02*
X80748095Y-95804819D01*
X80748095Y-95804819D02*
X80986190Y-95804819D01*
X80986190Y-95804819D02*
X81081428Y-95852438D01*
X81081428Y-95852438D02*
X81129047Y-95900057D01*
X81129047Y-95900057D02*
X81176666Y-95995295D01*
X81176666Y-95995295D02*
X81176666Y-96090533D01*
X81176666Y-96090533D02*
X81129047Y-96233390D01*
X81129047Y-96233390D02*
X80557619Y-96804819D01*
X80557619Y-96804819D02*
X81176666Y-96804819D01*
X149333333Y-65459580D02*
X149285714Y-65507200D01*
X149285714Y-65507200D02*
X149142857Y-65554819D01*
X149142857Y-65554819D02*
X149047619Y-65554819D01*
X149047619Y-65554819D02*
X148904762Y-65507200D01*
X148904762Y-65507200D02*
X148809524Y-65411961D01*
X148809524Y-65411961D02*
X148761905Y-65316723D01*
X148761905Y-65316723D02*
X148714286Y-65126247D01*
X148714286Y-65126247D02*
X148714286Y-64983390D01*
X148714286Y-64983390D02*
X148761905Y-64792914D01*
X148761905Y-64792914D02*
X148809524Y-64697676D01*
X148809524Y-64697676D02*
X148904762Y-64602438D01*
X148904762Y-64602438D02*
X149047619Y-64554819D01*
X149047619Y-64554819D02*
X149142857Y-64554819D01*
X149142857Y-64554819D02*
X149285714Y-64602438D01*
X149285714Y-64602438D02*
X149333333Y-64650057D01*
X149666667Y-64554819D02*
X150333333Y-64554819D01*
X150333333Y-64554819D02*
X149904762Y-65554819D01*
X147952380Y-74354819D02*
X147380952Y-74354819D01*
X147666666Y-74354819D02*
X147666666Y-73354819D01*
X147666666Y-73354819D02*
X147571428Y-73497676D01*
X147571428Y-73497676D02*
X147476190Y-73592914D01*
X147476190Y-73592914D02*
X147380952Y-73640533D01*
X148571428Y-73354819D02*
X148666666Y-73354819D01*
X148666666Y-73354819D02*
X148761904Y-73402438D01*
X148761904Y-73402438D02*
X148809523Y-73450057D01*
X148809523Y-73450057D02*
X148857142Y-73545295D01*
X148857142Y-73545295D02*
X148904761Y-73735771D01*
X148904761Y-73735771D02*
X148904761Y-73973866D01*
X148904761Y-73973866D02*
X148857142Y-74164342D01*
X148857142Y-74164342D02*
X148809523Y-74259580D01*
X148809523Y-74259580D02*
X148761904Y-74307200D01*
X148761904Y-74307200D02*
X148666666Y-74354819D01*
X148666666Y-74354819D02*
X148571428Y-74354819D01*
X148571428Y-74354819D02*
X148476190Y-74307200D01*
X148476190Y-74307200D02*
X148428571Y-74259580D01*
X148428571Y-74259580D02*
X148380952Y-74164342D01*
X148380952Y-74164342D02*
X148333333Y-73973866D01*
X148333333Y-73973866D02*
X148333333Y-73735771D01*
X148333333Y-73735771D02*
X148380952Y-73545295D01*
X148380952Y-73545295D02*
X148428571Y-73450057D01*
X148428571Y-73450057D02*
X148476190Y-73402438D01*
X148476190Y-73402438D02*
X148571428Y-73354819D01*
X149523809Y-73354819D02*
X149619047Y-73354819D01*
X149619047Y-73354819D02*
X149714285Y-73402438D01*
X149714285Y-73402438D02*
X149761904Y-73450057D01*
X149761904Y-73450057D02*
X149809523Y-73545295D01*
X149809523Y-73545295D02*
X149857142Y-73735771D01*
X149857142Y-73735771D02*
X149857142Y-73973866D01*
X149857142Y-73973866D02*
X149809523Y-74164342D01*
X149809523Y-74164342D02*
X149761904Y-74259580D01*
X149761904Y-74259580D02*
X149714285Y-74307200D01*
X149714285Y-74307200D02*
X149619047Y-74354819D01*
X149619047Y-74354819D02*
X149523809Y-74354819D01*
X149523809Y-74354819D02*
X149428571Y-74307200D01*
X149428571Y-74307200D02*
X149380952Y-74259580D01*
X149380952Y-74259580D02*
X149333333Y-74164342D01*
X149333333Y-74164342D02*
X149285714Y-73973866D01*
X149285714Y-73973866D02*
X149285714Y-73735771D01*
X149285714Y-73735771D02*
X149333333Y-73545295D01*
X149333333Y-73545295D02*
X149380952Y-73450057D01*
X149380952Y-73450057D02*
X149428571Y-73402438D01*
X149428571Y-73402438D02*
X149523809Y-73354819D01*
X150714285Y-73688152D02*
X150714285Y-74354819D01*
X150285714Y-73688152D02*
X150285714Y-74211961D01*
X150285714Y-74211961D02*
X150333333Y-74307200D01*
X150333333Y-74307200D02*
X150428571Y-74354819D01*
X150428571Y-74354819D02*
X150571428Y-74354819D01*
X150571428Y-74354819D02*
X150666666Y-74307200D01*
X150666666Y-74307200D02*
X150714285Y-74259580D01*
X151523809Y-73831009D02*
X151190476Y-73831009D01*
X151190476Y-74354819D02*
X151190476Y-73354819D01*
X151190476Y-73354819D02*
X151666666Y-73354819D01*
X106577019Y-60996304D02*
X107386542Y-60996304D01*
X107386542Y-60996304D02*
X107481780Y-60948685D01*
X107481780Y-60948685D02*
X107529400Y-60901066D01*
X107529400Y-60901066D02*
X107577019Y-60805828D01*
X107577019Y-60805828D02*
X107577019Y-60615352D01*
X107577019Y-60615352D02*
X107529400Y-60520114D01*
X107529400Y-60520114D02*
X107481780Y-60472495D01*
X107481780Y-60472495D02*
X107386542Y-60424876D01*
X107386542Y-60424876D02*
X106577019Y-60424876D01*
X107577019Y-59424876D02*
X107577019Y-59996304D01*
X107577019Y-59710590D02*
X106577019Y-59710590D01*
X106577019Y-59710590D02*
X106719876Y-59805828D01*
X106719876Y-59805828D02*
X106815114Y-59901066D01*
X106815114Y-59901066D02*
X106862733Y-59996304D01*
X145161780Y-65305828D02*
X145209400Y-65353447D01*
X145209400Y-65353447D02*
X145257019Y-65496304D01*
X145257019Y-65496304D02*
X145257019Y-65591542D01*
X145257019Y-65591542D02*
X145209400Y-65734399D01*
X145209400Y-65734399D02*
X145114161Y-65829637D01*
X145114161Y-65829637D02*
X145018923Y-65877256D01*
X145018923Y-65877256D02*
X144828447Y-65924875D01*
X144828447Y-65924875D02*
X144685590Y-65924875D01*
X144685590Y-65924875D02*
X144495114Y-65877256D01*
X144495114Y-65877256D02*
X144399876Y-65829637D01*
X144399876Y-65829637D02*
X144304638Y-65734399D01*
X144304638Y-65734399D02*
X144257019Y-65591542D01*
X144257019Y-65591542D02*
X144257019Y-65496304D01*
X144257019Y-65496304D02*
X144304638Y-65353447D01*
X144304638Y-65353447D02*
X144352257Y-65305828D01*
X144780828Y-64686780D02*
X145257019Y-64686780D01*
X144257019Y-65020113D02*
X144780828Y-64686780D01*
X144780828Y-64686780D02*
X144257019Y-64353447D01*
X144257019Y-63591542D02*
X144257019Y-63782018D01*
X144257019Y-63782018D02*
X144304638Y-63877256D01*
X144304638Y-63877256D02*
X144352257Y-63924875D01*
X144352257Y-63924875D02*
X144495114Y-64020113D01*
X144495114Y-64020113D02*
X144685590Y-64067732D01*
X144685590Y-64067732D02*
X145066542Y-64067732D01*
X145066542Y-64067732D02*
X145161780Y-64020113D01*
X145161780Y-64020113D02*
X145209400Y-63972494D01*
X145209400Y-63972494D02*
X145257019Y-63877256D01*
X145257019Y-63877256D02*
X145257019Y-63686780D01*
X145257019Y-63686780D02*
X145209400Y-63591542D01*
X145209400Y-63591542D02*
X145161780Y-63543923D01*
X145161780Y-63543923D02*
X145066542Y-63496304D01*
X145066542Y-63496304D02*
X144828447Y-63496304D01*
X144828447Y-63496304D02*
X144733209Y-63543923D01*
X144733209Y-63543923D02*
X144685590Y-63591542D01*
X144685590Y-63591542D02*
X144637971Y-63686780D01*
X144637971Y-63686780D02*
X144637971Y-63877256D01*
X144637971Y-63877256D02*
X144685590Y-63972494D01*
X144685590Y-63972494D02*
X144733209Y-64020113D01*
X144733209Y-64020113D02*
X144828447Y-64067732D01*
X144352257Y-63115351D02*
X144304638Y-63067732D01*
X144304638Y-63067732D02*
X144257019Y-62972494D01*
X144257019Y-62972494D02*
X144257019Y-62734399D01*
X144257019Y-62734399D02*
X144304638Y-62639161D01*
X144304638Y-62639161D02*
X144352257Y-62591542D01*
X144352257Y-62591542D02*
X144447495Y-62543923D01*
X144447495Y-62543923D02*
X144542733Y-62543923D01*
X144542733Y-62543923D02*
X144685590Y-62591542D01*
X144685590Y-62591542D02*
X145257019Y-63162970D01*
X145257019Y-63162970D02*
X145257019Y-62543923D01*
X144352257Y-62162970D02*
X144304638Y-62115351D01*
X144304638Y-62115351D02*
X144257019Y-62020113D01*
X144257019Y-62020113D02*
X144257019Y-61782018D01*
X144257019Y-61782018D02*
X144304638Y-61686780D01*
X144304638Y-61686780D02*
X144352257Y-61639161D01*
X144352257Y-61639161D02*
X144447495Y-61591542D01*
X144447495Y-61591542D02*
X144542733Y-61591542D01*
X144542733Y-61591542D02*
X144685590Y-61639161D01*
X144685590Y-61639161D02*
X145257019Y-62210589D01*
X145257019Y-62210589D02*
X145257019Y-61591542D01*
X144257019Y-60686780D02*
X144257019Y-61162970D01*
X144257019Y-61162970D02*
X144733209Y-61210589D01*
X144733209Y-61210589D02*
X144685590Y-61162970D01*
X144685590Y-61162970D02*
X144637971Y-61067732D01*
X144637971Y-61067732D02*
X144637971Y-60829637D01*
X144637971Y-60829637D02*
X144685590Y-60734399D01*
X144685590Y-60734399D02*
X144733209Y-60686780D01*
X144733209Y-60686780D02*
X144828447Y-60639161D01*
X144828447Y-60639161D02*
X145066542Y-60639161D01*
X145066542Y-60639161D02*
X145161780Y-60686780D01*
X145161780Y-60686780D02*
X145209400Y-60734399D01*
X145209400Y-60734399D02*
X145257019Y-60829637D01*
X145257019Y-60829637D02*
X145257019Y-61067732D01*
X145257019Y-61067732D02*
X145209400Y-61162970D01*
X145209400Y-61162970D02*
X145161780Y-61210589D01*
X144257019Y-59782018D02*
X144257019Y-59972494D01*
X144257019Y-59972494D02*
X144304638Y-60067732D01*
X144304638Y-60067732D02*
X144352257Y-60115351D01*
X144352257Y-60115351D02*
X144495114Y-60210589D01*
X144495114Y-60210589D02*
X144685590Y-60258208D01*
X144685590Y-60258208D02*
X145066542Y-60258208D01*
X145066542Y-60258208D02*
X145161780Y-60210589D01*
X145161780Y-60210589D02*
X145209400Y-60162970D01*
X145209400Y-60162970D02*
X145257019Y-60067732D01*
X145257019Y-60067732D02*
X145257019Y-59877256D01*
X145257019Y-59877256D02*
X145209400Y-59782018D01*
X145209400Y-59782018D02*
X145161780Y-59734399D01*
X145161780Y-59734399D02*
X145066542Y-59686780D01*
X145066542Y-59686780D02*
X144828447Y-59686780D01*
X144828447Y-59686780D02*
X144733209Y-59734399D01*
X144733209Y-59734399D02*
X144685590Y-59782018D01*
X144685590Y-59782018D02*
X144637971Y-59877256D01*
X144637971Y-59877256D02*
X144637971Y-60067732D01*
X144637971Y-60067732D02*
X144685590Y-60162970D01*
X144685590Y-60162970D02*
X144733209Y-60210589D01*
X144733209Y-60210589D02*
X144828447Y-60258208D01*
X144876066Y-59258208D02*
X144876066Y-58496304D01*
X144257019Y-58115351D02*
X144257019Y-57448685D01*
X144257019Y-57448685D02*
X145257019Y-57877256D01*
X144257019Y-56877256D02*
X144257019Y-56782018D01*
X144257019Y-56782018D02*
X144304638Y-56686780D01*
X144304638Y-56686780D02*
X144352257Y-56639161D01*
X144352257Y-56639161D02*
X144447495Y-56591542D01*
X144447495Y-56591542D02*
X144637971Y-56543923D01*
X144637971Y-56543923D02*
X144876066Y-56543923D01*
X144876066Y-56543923D02*
X145066542Y-56591542D01*
X145066542Y-56591542D02*
X145161780Y-56639161D01*
X145161780Y-56639161D02*
X145209400Y-56686780D01*
X145209400Y-56686780D02*
X145257019Y-56782018D01*
X145257019Y-56782018D02*
X145257019Y-56877256D01*
X145257019Y-56877256D02*
X145209400Y-56972494D01*
X145209400Y-56972494D02*
X145161780Y-57020113D01*
X145161780Y-57020113D02*
X145066542Y-57067732D01*
X145066542Y-57067732D02*
X144876066Y-57115351D01*
X144876066Y-57115351D02*
X144637971Y-57115351D01*
X144637971Y-57115351D02*
X144447495Y-57067732D01*
X144447495Y-57067732D02*
X144352257Y-57020113D01*
X144352257Y-57020113D02*
X144304638Y-56972494D01*
X144304638Y-56972494D02*
X144257019Y-56877256D01*
X145257019Y-56115351D02*
X144257019Y-56115351D01*
X144257019Y-56115351D02*
X144257019Y-55734399D01*
X144257019Y-55734399D02*
X144304638Y-55639161D01*
X144304638Y-55639161D02*
X144352257Y-55591542D01*
X144352257Y-55591542D02*
X144447495Y-55543923D01*
X144447495Y-55543923D02*
X144590352Y-55543923D01*
X144590352Y-55543923D02*
X144685590Y-55591542D01*
X144685590Y-55591542D02*
X144733209Y-55639161D01*
X144733209Y-55639161D02*
X144780828Y-55734399D01*
X144780828Y-55734399D02*
X144780828Y-56115351D01*
X145161780Y-54543923D02*
X145209400Y-54591542D01*
X145209400Y-54591542D02*
X145257019Y-54734399D01*
X145257019Y-54734399D02*
X145257019Y-54829637D01*
X145257019Y-54829637D02*
X145209400Y-54972494D01*
X145209400Y-54972494D02*
X145114161Y-55067732D01*
X145114161Y-55067732D02*
X145018923Y-55115351D01*
X145018923Y-55115351D02*
X144828447Y-55162970D01*
X144828447Y-55162970D02*
X144685590Y-55162970D01*
X144685590Y-55162970D02*
X144495114Y-55115351D01*
X144495114Y-55115351D02*
X144399876Y-55067732D01*
X144399876Y-55067732D02*
X144304638Y-54972494D01*
X144304638Y-54972494D02*
X144257019Y-54829637D01*
X144257019Y-54829637D02*
X144257019Y-54734399D01*
X144257019Y-54734399D02*
X144304638Y-54591542D01*
X144304638Y-54591542D02*
X144352257Y-54543923D01*
X41576666Y-36534819D02*
X41576666Y-37249104D01*
X41576666Y-37249104D02*
X41529047Y-37391961D01*
X41529047Y-37391961D02*
X41433809Y-37487200D01*
X41433809Y-37487200D02*
X41290952Y-37534819D01*
X41290952Y-37534819D02*
X41195714Y-37534819D01*
X42005238Y-36630057D02*
X42052857Y-36582438D01*
X42052857Y-36582438D02*
X42148095Y-36534819D01*
X42148095Y-36534819D02*
X42386190Y-36534819D01*
X42386190Y-36534819D02*
X42481428Y-36582438D01*
X42481428Y-36582438D02*
X42529047Y-36630057D01*
X42529047Y-36630057D02*
X42576666Y-36725295D01*
X42576666Y-36725295D02*
X42576666Y-36820533D01*
X42576666Y-36820533D02*
X42529047Y-36963390D01*
X42529047Y-36963390D02*
X41957619Y-37534819D01*
X41957619Y-37534819D02*
X42576666Y-37534819D01*
X36441905Y-97721009D02*
X36775238Y-97721009D01*
X36918095Y-98244819D02*
X36441905Y-98244819D01*
X36441905Y-98244819D02*
X36441905Y-97244819D01*
X36441905Y-97244819D02*
X36918095Y-97244819D01*
X37251429Y-97244819D02*
X37918095Y-98244819D01*
X37918095Y-97244819D02*
X37251429Y-98244819D01*
X38299048Y-98244819D02*
X38299048Y-97244819D01*
X38299048Y-97244819D02*
X38680000Y-97244819D01*
X38680000Y-97244819D02*
X38775238Y-97292438D01*
X38775238Y-97292438D02*
X38822857Y-97340057D01*
X38822857Y-97340057D02*
X38870476Y-97435295D01*
X38870476Y-97435295D02*
X38870476Y-97578152D01*
X38870476Y-97578152D02*
X38822857Y-97673390D01*
X38822857Y-97673390D02*
X38775238Y-97721009D01*
X38775238Y-97721009D02*
X38680000Y-97768628D01*
X38680000Y-97768628D02*
X38299048Y-97768628D01*
X39251429Y-97959104D02*
X39727619Y-97959104D01*
X39156191Y-98244819D02*
X39489524Y-97244819D01*
X39489524Y-97244819D02*
X39822857Y-98244819D01*
X40156191Y-98244819D02*
X40156191Y-97244819D01*
X40156191Y-97244819D02*
X40727619Y-98244819D01*
X40727619Y-98244819D02*
X40727619Y-97244819D01*
X41156191Y-98197200D02*
X41299048Y-98244819D01*
X41299048Y-98244819D02*
X41537143Y-98244819D01*
X41537143Y-98244819D02*
X41632381Y-98197200D01*
X41632381Y-98197200D02*
X41680000Y-98149580D01*
X41680000Y-98149580D02*
X41727619Y-98054342D01*
X41727619Y-98054342D02*
X41727619Y-97959104D01*
X41727619Y-97959104D02*
X41680000Y-97863866D01*
X41680000Y-97863866D02*
X41632381Y-97816247D01*
X41632381Y-97816247D02*
X41537143Y-97768628D01*
X41537143Y-97768628D02*
X41346667Y-97721009D01*
X41346667Y-97721009D02*
X41251429Y-97673390D01*
X41251429Y-97673390D02*
X41203810Y-97625771D01*
X41203810Y-97625771D02*
X41156191Y-97530533D01*
X41156191Y-97530533D02*
X41156191Y-97435295D01*
X41156191Y-97435295D02*
X41203810Y-97340057D01*
X41203810Y-97340057D02*
X41251429Y-97292438D01*
X41251429Y-97292438D02*
X41346667Y-97244819D01*
X41346667Y-97244819D02*
X41584762Y-97244819D01*
X41584762Y-97244819D02*
X41727619Y-97292438D01*
X42156191Y-98244819D02*
X42156191Y-97244819D01*
X42822857Y-97244819D02*
X43013333Y-97244819D01*
X43013333Y-97244819D02*
X43108571Y-97292438D01*
X43108571Y-97292438D02*
X43203809Y-97387676D01*
X43203809Y-97387676D02*
X43251428Y-97578152D01*
X43251428Y-97578152D02*
X43251428Y-97911485D01*
X43251428Y-97911485D02*
X43203809Y-98101961D01*
X43203809Y-98101961D02*
X43108571Y-98197200D01*
X43108571Y-98197200D02*
X43013333Y-98244819D01*
X43013333Y-98244819D02*
X42822857Y-98244819D01*
X42822857Y-98244819D02*
X42727619Y-98197200D01*
X42727619Y-98197200D02*
X42632381Y-98101961D01*
X42632381Y-98101961D02*
X42584762Y-97911485D01*
X42584762Y-97911485D02*
X42584762Y-97578152D01*
X42584762Y-97578152D02*
X42632381Y-97387676D01*
X42632381Y-97387676D02*
X42727619Y-97292438D01*
X42727619Y-97292438D02*
X42822857Y-97244819D01*
X43680000Y-98244819D02*
X43680000Y-97244819D01*
X43680000Y-97244819D02*
X44251428Y-98244819D01*
X44251428Y-98244819D02*
X44251428Y-97244819D01*
X45822857Y-97721009D02*
X45965714Y-97768628D01*
X45965714Y-97768628D02*
X46013333Y-97816247D01*
X46013333Y-97816247D02*
X46060952Y-97911485D01*
X46060952Y-97911485D02*
X46060952Y-98054342D01*
X46060952Y-98054342D02*
X46013333Y-98149580D01*
X46013333Y-98149580D02*
X45965714Y-98197200D01*
X45965714Y-98197200D02*
X45870476Y-98244819D01*
X45870476Y-98244819D02*
X45489524Y-98244819D01*
X45489524Y-98244819D02*
X45489524Y-97244819D01*
X45489524Y-97244819D02*
X45822857Y-97244819D01*
X45822857Y-97244819D02*
X45918095Y-97292438D01*
X45918095Y-97292438D02*
X45965714Y-97340057D01*
X45965714Y-97340057D02*
X46013333Y-97435295D01*
X46013333Y-97435295D02*
X46013333Y-97530533D01*
X46013333Y-97530533D02*
X45965714Y-97625771D01*
X45965714Y-97625771D02*
X45918095Y-97673390D01*
X45918095Y-97673390D02*
X45822857Y-97721009D01*
X45822857Y-97721009D02*
X45489524Y-97721009D01*
X46680000Y-97244819D02*
X46870476Y-97244819D01*
X46870476Y-97244819D02*
X46965714Y-97292438D01*
X46965714Y-97292438D02*
X47060952Y-97387676D01*
X47060952Y-97387676D02*
X47108571Y-97578152D01*
X47108571Y-97578152D02*
X47108571Y-97911485D01*
X47108571Y-97911485D02*
X47060952Y-98101961D01*
X47060952Y-98101961D02*
X46965714Y-98197200D01*
X46965714Y-98197200D02*
X46870476Y-98244819D01*
X46870476Y-98244819D02*
X46680000Y-98244819D01*
X46680000Y-98244819D02*
X46584762Y-98197200D01*
X46584762Y-98197200D02*
X46489524Y-98101961D01*
X46489524Y-98101961D02*
X46441905Y-97911485D01*
X46441905Y-97911485D02*
X46441905Y-97578152D01*
X46441905Y-97578152D02*
X46489524Y-97387676D01*
X46489524Y-97387676D02*
X46584762Y-97292438D01*
X46584762Y-97292438D02*
X46680000Y-97244819D01*
X47489524Y-97959104D02*
X47965714Y-97959104D01*
X47394286Y-98244819D02*
X47727619Y-97244819D01*
X47727619Y-97244819D02*
X48060952Y-98244819D01*
X48965714Y-98244819D02*
X48632381Y-97768628D01*
X48394286Y-98244819D02*
X48394286Y-97244819D01*
X48394286Y-97244819D02*
X48775238Y-97244819D01*
X48775238Y-97244819D02*
X48870476Y-97292438D01*
X48870476Y-97292438D02*
X48918095Y-97340057D01*
X48918095Y-97340057D02*
X48965714Y-97435295D01*
X48965714Y-97435295D02*
X48965714Y-97578152D01*
X48965714Y-97578152D02*
X48918095Y-97673390D01*
X48918095Y-97673390D02*
X48870476Y-97721009D01*
X48870476Y-97721009D02*
X48775238Y-97768628D01*
X48775238Y-97768628D02*
X48394286Y-97768628D01*
X49394286Y-98244819D02*
X49394286Y-97244819D01*
X49394286Y-97244819D02*
X49632381Y-97244819D01*
X49632381Y-97244819D02*
X49775238Y-97292438D01*
X49775238Y-97292438D02*
X49870476Y-97387676D01*
X49870476Y-97387676D02*
X49918095Y-97482914D01*
X49918095Y-97482914D02*
X49965714Y-97673390D01*
X49965714Y-97673390D02*
X49965714Y-97816247D01*
X49965714Y-97816247D02*
X49918095Y-98006723D01*
X49918095Y-98006723D02*
X49870476Y-98101961D01*
X49870476Y-98101961D02*
X49775238Y-98197200D01*
X49775238Y-98197200D02*
X49632381Y-98244819D01*
X49632381Y-98244819D02*
X49394286Y-98244819D01*
X73324819Y-47751904D02*
X74134342Y-47751904D01*
X74134342Y-47751904D02*
X74229580Y-47704285D01*
X74229580Y-47704285D02*
X74277200Y-47656666D01*
X74277200Y-47656666D02*
X74324819Y-47561428D01*
X74324819Y-47561428D02*
X74324819Y-47370952D01*
X74324819Y-47370952D02*
X74277200Y-47275714D01*
X74277200Y-47275714D02*
X74229580Y-47228095D01*
X74229580Y-47228095D02*
X74134342Y-47180476D01*
X74134342Y-47180476D02*
X73324819Y-47180476D01*
X73324819Y-46275714D02*
X73324819Y-46466190D01*
X73324819Y-46466190D02*
X73372438Y-46561428D01*
X73372438Y-46561428D02*
X73420057Y-46609047D01*
X73420057Y-46609047D02*
X73562914Y-46704285D01*
X73562914Y-46704285D02*
X73753390Y-46751904D01*
X73753390Y-46751904D02*
X74134342Y-46751904D01*
X74134342Y-46751904D02*
X74229580Y-46704285D01*
X74229580Y-46704285D02*
X74277200Y-46656666D01*
X74277200Y-46656666D02*
X74324819Y-46561428D01*
X74324819Y-46561428D02*
X74324819Y-46370952D01*
X74324819Y-46370952D02*
X74277200Y-46275714D01*
X74277200Y-46275714D02*
X74229580Y-46228095D01*
X74229580Y-46228095D02*
X74134342Y-46180476D01*
X74134342Y-46180476D02*
X73896247Y-46180476D01*
X73896247Y-46180476D02*
X73801009Y-46228095D01*
X73801009Y-46228095D02*
X73753390Y-46275714D01*
X73753390Y-46275714D02*
X73705771Y-46370952D01*
X73705771Y-46370952D02*
X73705771Y-46561428D01*
X73705771Y-46561428D02*
X73753390Y-46656666D01*
X73753390Y-46656666D02*
X73801009Y-46704285D01*
X73801009Y-46704285D02*
X73896247Y-46751904D01*
X95764819Y-50109047D02*
X95764819Y-49442381D01*
X95764819Y-49442381D02*
X96764819Y-49870952D01*
X96098152Y-48632857D02*
X96764819Y-48632857D01*
X95717200Y-48870952D02*
X96431485Y-49109047D01*
X96431485Y-49109047D02*
X96431485Y-48490000D01*
X96764819Y-47632857D02*
X96764819Y-48109047D01*
X96764819Y-48109047D02*
X95764819Y-48109047D01*
X96717200Y-47347142D02*
X96764819Y-47204285D01*
X96764819Y-47204285D02*
X96764819Y-46966190D01*
X96764819Y-46966190D02*
X96717200Y-46870952D01*
X96717200Y-46870952D02*
X96669580Y-46823333D01*
X96669580Y-46823333D02*
X96574342Y-46775714D01*
X96574342Y-46775714D02*
X96479104Y-46775714D01*
X96479104Y-46775714D02*
X96383866Y-46823333D01*
X96383866Y-46823333D02*
X96336247Y-46870952D01*
X96336247Y-46870952D02*
X96288628Y-46966190D01*
X96288628Y-46966190D02*
X96241009Y-47156666D01*
X96241009Y-47156666D02*
X96193390Y-47251904D01*
X96193390Y-47251904D02*
X96145771Y-47299523D01*
X96145771Y-47299523D02*
X96050533Y-47347142D01*
X96050533Y-47347142D02*
X95955295Y-47347142D01*
X95955295Y-47347142D02*
X95860057Y-47299523D01*
X95860057Y-47299523D02*
X95812438Y-47251904D01*
X95812438Y-47251904D02*
X95764819Y-47156666D01*
X95764819Y-47156666D02*
X95764819Y-46918571D01*
X95764819Y-46918571D02*
X95812438Y-46775714D01*
X95860057Y-46394761D02*
X95812438Y-46347142D01*
X95812438Y-46347142D02*
X95764819Y-46251904D01*
X95764819Y-46251904D02*
X95764819Y-46013809D01*
X95764819Y-46013809D02*
X95812438Y-45918571D01*
X95812438Y-45918571D02*
X95860057Y-45870952D01*
X95860057Y-45870952D02*
X95955295Y-45823333D01*
X95955295Y-45823333D02*
X96050533Y-45823333D01*
X96050533Y-45823333D02*
X96193390Y-45870952D01*
X96193390Y-45870952D02*
X96764819Y-46442380D01*
X96764819Y-46442380D02*
X96764819Y-45823333D01*
X96193390Y-45251904D02*
X96145771Y-45347142D01*
X96145771Y-45347142D02*
X96098152Y-45394761D01*
X96098152Y-45394761D02*
X96002914Y-45442380D01*
X96002914Y-45442380D02*
X95955295Y-45442380D01*
X95955295Y-45442380D02*
X95860057Y-45394761D01*
X95860057Y-45394761D02*
X95812438Y-45347142D01*
X95812438Y-45347142D02*
X95764819Y-45251904D01*
X95764819Y-45251904D02*
X95764819Y-45061428D01*
X95764819Y-45061428D02*
X95812438Y-44966190D01*
X95812438Y-44966190D02*
X95860057Y-44918571D01*
X95860057Y-44918571D02*
X95955295Y-44870952D01*
X95955295Y-44870952D02*
X96002914Y-44870952D01*
X96002914Y-44870952D02*
X96098152Y-44918571D01*
X96098152Y-44918571D02*
X96145771Y-44966190D01*
X96145771Y-44966190D02*
X96193390Y-45061428D01*
X96193390Y-45061428D02*
X96193390Y-45251904D01*
X96193390Y-45251904D02*
X96241009Y-45347142D01*
X96241009Y-45347142D02*
X96288628Y-45394761D01*
X96288628Y-45394761D02*
X96383866Y-45442380D01*
X96383866Y-45442380D02*
X96574342Y-45442380D01*
X96574342Y-45442380D02*
X96669580Y-45394761D01*
X96669580Y-45394761D02*
X96717200Y-45347142D01*
X96717200Y-45347142D02*
X96764819Y-45251904D01*
X96764819Y-45251904D02*
X96764819Y-45061428D01*
X96764819Y-45061428D02*
X96717200Y-44966190D01*
X96717200Y-44966190D02*
X96669580Y-44918571D01*
X96669580Y-44918571D02*
X96574342Y-44870952D01*
X96574342Y-44870952D02*
X96383866Y-44870952D01*
X96383866Y-44870952D02*
X96288628Y-44918571D01*
X96288628Y-44918571D02*
X96241009Y-44966190D01*
X96241009Y-44966190D02*
X96193390Y-45061428D01*
X95764819Y-44537618D02*
X95764819Y-43918571D01*
X95764819Y-43918571D02*
X96145771Y-44251904D01*
X96145771Y-44251904D02*
X96145771Y-44109047D01*
X96145771Y-44109047D02*
X96193390Y-44013809D01*
X96193390Y-44013809D02*
X96241009Y-43966190D01*
X96241009Y-43966190D02*
X96336247Y-43918571D01*
X96336247Y-43918571D02*
X96574342Y-43918571D01*
X96574342Y-43918571D02*
X96669580Y-43966190D01*
X96669580Y-43966190D02*
X96717200Y-44013809D01*
X96717200Y-44013809D02*
X96764819Y-44109047D01*
X96764819Y-44109047D02*
X96764819Y-44394761D01*
X96764819Y-44394761D02*
X96717200Y-44489999D01*
X96717200Y-44489999D02*
X96669580Y-44537618D01*
X135128095Y-71974819D02*
X135128095Y-72784342D01*
X135128095Y-72784342D02*
X135175714Y-72879580D01*
X135175714Y-72879580D02*
X135223333Y-72927200D01*
X135223333Y-72927200D02*
X135318571Y-72974819D01*
X135318571Y-72974819D02*
X135509047Y-72974819D01*
X135509047Y-72974819D02*
X135604285Y-72927200D01*
X135604285Y-72927200D02*
X135651904Y-72879580D01*
X135651904Y-72879580D02*
X135699523Y-72784342D01*
X135699523Y-72784342D02*
X135699523Y-71974819D01*
X136128095Y-72070057D02*
X136175714Y-72022438D01*
X136175714Y-72022438D02*
X136270952Y-71974819D01*
X136270952Y-71974819D02*
X136509047Y-71974819D01*
X136509047Y-71974819D02*
X136604285Y-72022438D01*
X136604285Y-72022438D02*
X136651904Y-72070057D01*
X136651904Y-72070057D02*
X136699523Y-72165295D01*
X136699523Y-72165295D02*
X136699523Y-72260533D01*
X136699523Y-72260533D02*
X136651904Y-72403390D01*
X136651904Y-72403390D02*
X136080476Y-72974819D01*
X136080476Y-72974819D02*
X136699523Y-72974819D01*
X59356666Y-36534819D02*
X59356666Y-37249104D01*
X59356666Y-37249104D02*
X59309047Y-37391961D01*
X59309047Y-37391961D02*
X59213809Y-37487200D01*
X59213809Y-37487200D02*
X59070952Y-37534819D01*
X59070952Y-37534819D02*
X58975714Y-37534819D01*
X60356666Y-37534819D02*
X59785238Y-37534819D01*
X60070952Y-37534819D02*
X60070952Y-36534819D01*
X60070952Y-36534819D02*
X59975714Y-36677676D01*
X59975714Y-36677676D02*
X59880476Y-36772914D01*
X59880476Y-36772914D02*
X59785238Y-36820533D01*
X56142380Y-98149580D02*
X56094761Y-98197200D01*
X56094761Y-98197200D02*
X55951904Y-98244819D01*
X55951904Y-98244819D02*
X55856666Y-98244819D01*
X55856666Y-98244819D02*
X55713809Y-98197200D01*
X55713809Y-98197200D02*
X55618571Y-98101961D01*
X55618571Y-98101961D02*
X55570952Y-98006723D01*
X55570952Y-98006723D02*
X55523333Y-97816247D01*
X55523333Y-97816247D02*
X55523333Y-97673390D01*
X55523333Y-97673390D02*
X55570952Y-97482914D01*
X55570952Y-97482914D02*
X55618571Y-97387676D01*
X55618571Y-97387676D02*
X55713809Y-97292438D01*
X55713809Y-97292438D02*
X55856666Y-97244819D01*
X55856666Y-97244819D02*
X55951904Y-97244819D01*
X55951904Y-97244819D02*
X56094761Y-97292438D01*
X56094761Y-97292438D02*
X56142380Y-97340057D01*
X56570952Y-98244819D02*
X56570952Y-97244819D01*
X56570952Y-97244819D02*
X56951904Y-97244819D01*
X56951904Y-97244819D02*
X57047142Y-97292438D01*
X57047142Y-97292438D02*
X57094761Y-97340057D01*
X57094761Y-97340057D02*
X57142380Y-97435295D01*
X57142380Y-97435295D02*
X57142380Y-97578152D01*
X57142380Y-97578152D02*
X57094761Y-97673390D01*
X57094761Y-97673390D02*
X57047142Y-97721009D01*
X57047142Y-97721009D02*
X56951904Y-97768628D01*
X56951904Y-97768628D02*
X56570952Y-97768628D01*
X57570952Y-97244819D02*
X57570952Y-98054342D01*
X57570952Y-98054342D02*
X57618571Y-98149580D01*
X57618571Y-98149580D02*
X57666190Y-98197200D01*
X57666190Y-98197200D02*
X57761428Y-98244819D01*
X57761428Y-98244819D02*
X57951904Y-98244819D01*
X57951904Y-98244819D02*
X58047142Y-98197200D01*
X58047142Y-98197200D02*
X58094761Y-98149580D01*
X58094761Y-98149580D02*
X58142380Y-98054342D01*
X58142380Y-98054342D02*
X58142380Y-97244819D01*
X59713809Y-97721009D02*
X59856666Y-97768628D01*
X59856666Y-97768628D02*
X59904285Y-97816247D01*
X59904285Y-97816247D02*
X59951904Y-97911485D01*
X59951904Y-97911485D02*
X59951904Y-98054342D01*
X59951904Y-98054342D02*
X59904285Y-98149580D01*
X59904285Y-98149580D02*
X59856666Y-98197200D01*
X59856666Y-98197200D02*
X59761428Y-98244819D01*
X59761428Y-98244819D02*
X59380476Y-98244819D01*
X59380476Y-98244819D02*
X59380476Y-97244819D01*
X59380476Y-97244819D02*
X59713809Y-97244819D01*
X59713809Y-97244819D02*
X59809047Y-97292438D01*
X59809047Y-97292438D02*
X59856666Y-97340057D01*
X59856666Y-97340057D02*
X59904285Y-97435295D01*
X59904285Y-97435295D02*
X59904285Y-97530533D01*
X59904285Y-97530533D02*
X59856666Y-97625771D01*
X59856666Y-97625771D02*
X59809047Y-97673390D01*
X59809047Y-97673390D02*
X59713809Y-97721009D01*
X59713809Y-97721009D02*
X59380476Y-97721009D01*
X60570952Y-97244819D02*
X60761428Y-97244819D01*
X60761428Y-97244819D02*
X60856666Y-97292438D01*
X60856666Y-97292438D02*
X60951904Y-97387676D01*
X60951904Y-97387676D02*
X60999523Y-97578152D01*
X60999523Y-97578152D02*
X60999523Y-97911485D01*
X60999523Y-97911485D02*
X60951904Y-98101961D01*
X60951904Y-98101961D02*
X60856666Y-98197200D01*
X60856666Y-98197200D02*
X60761428Y-98244819D01*
X60761428Y-98244819D02*
X60570952Y-98244819D01*
X60570952Y-98244819D02*
X60475714Y-98197200D01*
X60475714Y-98197200D02*
X60380476Y-98101961D01*
X60380476Y-98101961D02*
X60332857Y-97911485D01*
X60332857Y-97911485D02*
X60332857Y-97578152D01*
X60332857Y-97578152D02*
X60380476Y-97387676D01*
X60380476Y-97387676D02*
X60475714Y-97292438D01*
X60475714Y-97292438D02*
X60570952Y-97244819D01*
X61380476Y-97959104D02*
X61856666Y-97959104D01*
X61285238Y-98244819D02*
X61618571Y-97244819D01*
X61618571Y-97244819D02*
X61951904Y-98244819D01*
X62856666Y-98244819D02*
X62523333Y-97768628D01*
X62285238Y-98244819D02*
X62285238Y-97244819D01*
X62285238Y-97244819D02*
X62666190Y-97244819D01*
X62666190Y-97244819D02*
X62761428Y-97292438D01*
X62761428Y-97292438D02*
X62809047Y-97340057D01*
X62809047Y-97340057D02*
X62856666Y-97435295D01*
X62856666Y-97435295D02*
X62856666Y-97578152D01*
X62856666Y-97578152D02*
X62809047Y-97673390D01*
X62809047Y-97673390D02*
X62761428Y-97721009D01*
X62761428Y-97721009D02*
X62666190Y-97768628D01*
X62666190Y-97768628D02*
X62285238Y-97768628D01*
X63285238Y-98244819D02*
X63285238Y-97244819D01*
X63285238Y-97244819D02*
X63523333Y-97244819D01*
X63523333Y-97244819D02*
X63666190Y-97292438D01*
X63666190Y-97292438D02*
X63761428Y-97387676D01*
X63761428Y-97387676D02*
X63809047Y-97482914D01*
X63809047Y-97482914D02*
X63856666Y-97673390D01*
X63856666Y-97673390D02*
X63856666Y-97816247D01*
X63856666Y-97816247D02*
X63809047Y-98006723D01*
X63809047Y-98006723D02*
X63761428Y-98101961D01*
X63761428Y-98101961D02*
X63666190Y-98197200D01*
X63666190Y-98197200D02*
X63523333Y-98244819D01*
X63523333Y-98244819D02*
X63285238Y-98244819D01*
X70953333Y-55604580D02*
X70905714Y-55652200D01*
X70905714Y-55652200D02*
X70762857Y-55699819D01*
X70762857Y-55699819D02*
X70667619Y-55699819D01*
X70667619Y-55699819D02*
X70524762Y-55652200D01*
X70524762Y-55652200D02*
X70429524Y-55556961D01*
X70429524Y-55556961D02*
X70381905Y-55461723D01*
X70381905Y-55461723D02*
X70334286Y-55271247D01*
X70334286Y-55271247D02*
X70334286Y-55128390D01*
X70334286Y-55128390D02*
X70381905Y-54937914D01*
X70381905Y-54937914D02*
X70429524Y-54842676D01*
X70429524Y-54842676D02*
X70524762Y-54747438D01*
X70524762Y-54747438D02*
X70667619Y-54699819D01*
X70667619Y-54699819D02*
X70762857Y-54699819D01*
X70762857Y-54699819D02*
X70905714Y-54747438D01*
X70905714Y-54747438D02*
X70953333Y-54795057D01*
X71810476Y-54699819D02*
X71620000Y-54699819D01*
X71620000Y-54699819D02*
X71524762Y-54747438D01*
X71524762Y-54747438D02*
X71477143Y-54795057D01*
X71477143Y-54795057D02*
X71381905Y-54937914D01*
X71381905Y-54937914D02*
X71334286Y-55128390D01*
X71334286Y-55128390D02*
X71334286Y-55509342D01*
X71334286Y-55509342D02*
X71381905Y-55604580D01*
X71381905Y-55604580D02*
X71429524Y-55652200D01*
X71429524Y-55652200D02*
X71524762Y-55699819D01*
X71524762Y-55699819D02*
X71715238Y-55699819D01*
X71715238Y-55699819D02*
X71810476Y-55652200D01*
X71810476Y-55652200D02*
X71858095Y-55604580D01*
X71858095Y-55604580D02*
X71905714Y-55509342D01*
X71905714Y-55509342D02*
X71905714Y-55271247D01*
X71905714Y-55271247D02*
X71858095Y-55176009D01*
X71858095Y-55176009D02*
X71810476Y-55128390D01*
X71810476Y-55128390D02*
X71715238Y-55080771D01*
X71715238Y-55080771D02*
X71524762Y-55080771D01*
X71524762Y-55080771D02*
X71429524Y-55128390D01*
X71429524Y-55128390D02*
X71381905Y-55176009D01*
X71381905Y-55176009D02*
X71334286Y-55271247D01*
X107298095Y-71874819D02*
X107298095Y-72684342D01*
X107298095Y-72684342D02*
X107345714Y-72779580D01*
X107345714Y-72779580D02*
X107393333Y-72827200D01*
X107393333Y-72827200D02*
X107488571Y-72874819D01*
X107488571Y-72874819D02*
X107679047Y-72874819D01*
X107679047Y-72874819D02*
X107774285Y-72827200D01*
X107774285Y-72827200D02*
X107821904Y-72779580D01*
X107821904Y-72779580D02*
X107869523Y-72684342D01*
X107869523Y-72684342D02*
X107869523Y-71874819D01*
X108250476Y-71874819D02*
X108869523Y-71874819D01*
X108869523Y-71874819D02*
X108536190Y-72255771D01*
X108536190Y-72255771D02*
X108679047Y-72255771D01*
X108679047Y-72255771D02*
X108774285Y-72303390D01*
X108774285Y-72303390D02*
X108821904Y-72351009D01*
X108821904Y-72351009D02*
X108869523Y-72446247D01*
X108869523Y-72446247D02*
X108869523Y-72684342D01*
X108869523Y-72684342D02*
X108821904Y-72779580D01*
X108821904Y-72779580D02*
X108774285Y-72827200D01*
X108774285Y-72827200D02*
X108679047Y-72874819D01*
X108679047Y-72874819D02*
X108393333Y-72874819D01*
X108393333Y-72874819D02*
X108298095Y-72827200D01*
X108298095Y-72827200D02*
X108250476Y-72779580D01*
X106202857Y-95314819D02*
X106202857Y-94314819D01*
X106202857Y-94314819D02*
X106440952Y-94314819D01*
X106440952Y-94314819D02*
X106583809Y-94362438D01*
X106583809Y-94362438D02*
X106679047Y-94457676D01*
X106679047Y-94457676D02*
X106726666Y-94552914D01*
X106726666Y-94552914D02*
X106774285Y-94743390D01*
X106774285Y-94743390D02*
X106774285Y-94886247D01*
X106774285Y-94886247D02*
X106726666Y-95076723D01*
X106726666Y-95076723D02*
X106679047Y-95171961D01*
X106679047Y-95171961D02*
X106583809Y-95267200D01*
X106583809Y-95267200D02*
X106440952Y-95314819D01*
X106440952Y-95314819D02*
X106202857Y-95314819D01*
X107202857Y-95314819D02*
X107202857Y-94314819D01*
X108155237Y-95314819D02*
X107679047Y-95314819D01*
X107679047Y-95314819D02*
X107679047Y-94314819D01*
X109012380Y-95314819D02*
X108440952Y-95314819D01*
X108726666Y-95314819D02*
X108726666Y-94314819D01*
X108726666Y-94314819D02*
X108631428Y-94457676D01*
X108631428Y-94457676D02*
X108536190Y-94552914D01*
X108536190Y-94552914D02*
X108440952Y-94600533D01*
X109869523Y-94314819D02*
X109679047Y-94314819D01*
X109679047Y-94314819D02*
X109583809Y-94362438D01*
X109583809Y-94362438D02*
X109536190Y-94410057D01*
X109536190Y-94410057D02*
X109440952Y-94552914D01*
X109440952Y-94552914D02*
X109393333Y-94743390D01*
X109393333Y-94743390D02*
X109393333Y-95124342D01*
X109393333Y-95124342D02*
X109440952Y-95219580D01*
X109440952Y-95219580D02*
X109488571Y-95267200D01*
X109488571Y-95267200D02*
X109583809Y-95314819D01*
X109583809Y-95314819D02*
X109774285Y-95314819D01*
X109774285Y-95314819D02*
X109869523Y-95267200D01*
X109869523Y-95267200D02*
X109917142Y-95219580D01*
X109917142Y-95219580D02*
X109964761Y-95124342D01*
X109964761Y-95124342D02*
X109964761Y-94886247D01*
X109964761Y-94886247D02*
X109917142Y-94791009D01*
X109917142Y-94791009D02*
X109869523Y-94743390D01*
X109869523Y-94743390D02*
X109774285Y-94695771D01*
X109774285Y-94695771D02*
X109583809Y-94695771D01*
X109583809Y-94695771D02*
X109488571Y-94743390D01*
X109488571Y-94743390D02*
X109440952Y-94791009D01*
X109440952Y-94791009D02*
X109393333Y-94886247D01*
%TO.C,U7*%
D13*
X74870000Y-82440000D02*
X74870000Y-84090000D01*
X74870000Y-86090000D02*
X74870000Y-87740000D01*
X74870000Y-87740000D02*
X95310000Y-87740000D01*
X95310000Y-82440000D02*
X74870000Y-82440000D01*
X95310000Y-87740000D02*
X95310000Y-82440000D01*
X74810000Y-79950000D02*
X95370000Y-79950000D01*
X95370000Y-90230000D01*
X74810000Y-90230000D01*
X74810000Y-79950000D01*
X74870000Y-84090000D02*
G75*
G02*
X74870000Y-86090000I0J-1000000D01*
G01*
%TO.C,J5*%
X144377500Y-39250000D02*
X153067500Y-39250000D01*
X144377500Y-41610000D02*
X144377500Y-39250000D01*
X144377500Y-49650000D02*
X144377500Y-42210000D01*
X144997500Y-39250000D02*
X144997500Y-49650000D01*
X146097500Y-39250000D02*
X146097500Y-49650000D01*
X151097500Y-39250000D02*
X151097500Y-49650000D01*
X151947500Y-40660000D02*
X152947500Y-40660000D01*
X151947500Y-43160000D02*
X151947500Y-40660000D01*
X151947500Y-45740000D02*
X152947500Y-45740000D01*
X151947500Y-48240000D02*
X151947500Y-45740000D01*
X152947500Y-40660000D02*
X152947500Y-43160000D01*
X152947500Y-43160000D02*
X151947500Y-43160000D01*
X152947500Y-45740000D02*
X152947500Y-48240000D01*
X152947500Y-48240000D02*
X151947500Y-48240000D01*
X153067500Y-39250000D02*
X153067500Y-49650000D01*
X153067500Y-49650000D02*
X144377500Y-49650000D01*
X144377500Y-41910000D02*
X143767500Y-42350000D01*
X143767500Y-41470000D01*
X144377500Y-41910000D01*
G36*
X144377500Y-41910000D02*
G01*
X143767500Y-42350000D01*
X143767500Y-41470000D01*
X144377500Y-41910000D01*
G37*
%TO.C,J4*%
X135780000Y-44450000D02*
X135780000Y-41800000D01*
X138540000Y-41800000D02*
X135780000Y-41800000D01*
X138540000Y-44450000D02*
X135780000Y-44450000D01*
X138540000Y-44450000D02*
X138540000Y-41800000D01*
X138540000Y-45720000D02*
X138540000Y-47100000D01*
X138540000Y-47100000D02*
X137160000Y-47100000D01*
%TO.C,J3*%
X148480000Y-85090000D02*
X148480000Y-79900000D01*
X151240000Y-79900000D02*
X148480000Y-79900000D01*
X151240000Y-85090000D02*
X148480000Y-85090000D01*
X151240000Y-85090000D02*
X151240000Y-79900000D01*
X151240000Y-86360000D02*
X151240000Y-87740000D01*
X151240000Y-87740000D02*
X149860000Y-87740000D01*
%TO.C,C5*%
X69750000Y-44370000D02*
X70087000Y-44370000D01*
X69750000Y-49610000D02*
X69750000Y-44370000D01*
X70087000Y-49610000D02*
X69750000Y-49610000D01*
X72153000Y-44370000D02*
X72490000Y-44370000D01*
X72490000Y-44370000D02*
X72490000Y-49610000D01*
X72490000Y-49610000D02*
X72153000Y-49610000D01*
%TO.C,C4*%
X72290000Y-69770000D02*
X72627000Y-69770000D01*
X72290000Y-75010000D02*
X72290000Y-69770000D01*
X72627000Y-75010000D02*
X72290000Y-75010000D01*
X74693000Y-69770000D02*
X75030000Y-69770000D01*
X75030000Y-69770000D02*
X75030000Y-75010000D01*
X75030000Y-75010000D02*
X74693000Y-75010000D01*
%TO.C,R1*%
X86900000Y-92610000D02*
X86900000Y-92940000D01*
X86900000Y-95350000D02*
X86900000Y-95020000D01*
X93440000Y-92610000D02*
X86900000Y-92610000D01*
X93440000Y-92940000D02*
X93440000Y-92610000D01*
X93440000Y-95020000D02*
X93440000Y-95350000D01*
X93440000Y-95350000D02*
X86900000Y-95350000D01*
%TO.C,U5*%
X74870000Y-57040000D02*
X74870000Y-58690000D01*
X74870000Y-60690000D02*
X74870000Y-62340000D01*
X74870000Y-62340000D02*
X95310000Y-62340000D01*
X95310000Y-57040000D02*
X74870000Y-57040000D01*
X95310000Y-62340000D02*
X95310000Y-57040000D01*
X74810000Y-54550000D02*
X95370000Y-54550000D01*
X95370000Y-64830000D01*
X74810000Y-64830000D01*
X74810000Y-54550000D01*
X74870000Y-58690000D02*
G75*
G02*
X74870000Y-60690000I0J-1000000D01*
G01*
%TO.C,C1*%
X103002200Y-57574400D02*
X103339200Y-57574400D01*
X103002200Y-62814400D02*
X103002200Y-57574400D01*
X103339200Y-62814400D02*
X103002200Y-62814400D01*
X105405200Y-57574400D02*
X105742200Y-57574400D01*
X105742200Y-57574400D02*
X105742200Y-62814400D01*
X105742200Y-62814400D02*
X105405200Y-62814400D01*
%TO.C,C2*%
X123090000Y-81240000D02*
X123427000Y-81240000D01*
X123090000Y-86480000D02*
X123090000Y-81240000D01*
X123427000Y-86480000D02*
X123090000Y-86480000D01*
X125493000Y-81240000D02*
X125830000Y-81240000D01*
X125830000Y-81240000D02*
X125830000Y-86480000D01*
X125830000Y-86480000D02*
X125493000Y-86480000D01*
%TO.C,R3*%
X148130000Y-55230000D02*
X148130000Y-61770000D01*
X148130000Y-61770000D02*
X148460000Y-61770000D01*
X148460000Y-55230000D02*
X148130000Y-55230000D01*
X150540000Y-55230000D02*
X150870000Y-55230000D01*
X150870000Y-55230000D02*
X150870000Y-61770000D01*
X150870000Y-61770000D02*
X150540000Y-61770000D01*
%TO.C,U4*%
X77410000Y-69740000D02*
X77410000Y-71390000D01*
X77410000Y-73390000D02*
X77410000Y-75040000D01*
X77410000Y-75040000D02*
X95310000Y-75040000D01*
X95310000Y-69740000D02*
X77410000Y-69740000D01*
X95310000Y-75040000D02*
X95310000Y-69740000D01*
X77350000Y-67250000D02*
X95370000Y-67250000D01*
X95370000Y-77530000D01*
X77350000Y-77530000D01*
X77350000Y-67250000D01*
X77410000Y-71390000D02*
G75*
G02*
X77410000Y-73390000I0J-1000000D01*
G01*
%TO.C,C3*%
X69750000Y-82470000D02*
X70087000Y-82470000D01*
X69750000Y-87710000D02*
X69750000Y-82470000D01*
X70087000Y-87710000D02*
X69750000Y-87710000D01*
X72153000Y-82470000D02*
X72490000Y-82470000D01*
X72490000Y-82470000D02*
X72490000Y-87710000D01*
X72490000Y-87710000D02*
X72153000Y-87710000D01*
%TO.C,R2*%
X76740000Y-92610000D02*
X83280000Y-92610000D01*
X76740000Y-92940000D02*
X76740000Y-92610000D01*
X76740000Y-95020000D02*
X76740000Y-95350000D01*
X76740000Y-95350000D02*
X83280000Y-95350000D01*
X83280000Y-92610000D02*
X83280000Y-92940000D01*
X83280000Y-95350000D02*
X83280000Y-95020000D01*
%TO.C,C7*%
X152770000Y-69500000D02*
G75*
G02*
X146230000Y-69500000I-3270000J0D01*
G01*
X146230000Y-69500000D02*
G75*
G02*
X152770000Y-69500000I3270000J0D01*
G01*
%TO.C,U1*%
X108122200Y-53774400D02*
X108122200Y-59234400D01*
X108122200Y-61234400D02*
X108122200Y-66694400D01*
X108122200Y-66694400D02*
X143802200Y-66694400D01*
X143802200Y-53774400D02*
X108122200Y-53774400D01*
X143802200Y-66694400D02*
X143802200Y-53774400D01*
X108062200Y-51284400D02*
X143862200Y-51284400D01*
X143862200Y-69184400D01*
X108062200Y-69184400D01*
X108062200Y-51284400D01*
X108122200Y-59234400D02*
G75*
G02*
X108122200Y-61234400I0J-1000000D01*
G01*
%TO.C,J2*%
X35960000Y-42680000D02*
X35960000Y-43680000D01*
X35960000Y-43680000D02*
X36960000Y-43180000D01*
X36960000Y-43180000D02*
X35960000Y-42680000D01*
X37350000Y-37970000D02*
X46470000Y-37970000D01*
X37350000Y-65260000D02*
X38660000Y-65260000D01*
X37350000Y-96650000D02*
X37350000Y-37970000D01*
X38660000Y-39270000D02*
X45160000Y-39270000D01*
X38660000Y-65260000D02*
X38660000Y-39270000D01*
X38660000Y-69360000D02*
X37350000Y-69360000D01*
X38660000Y-95350000D02*
X38660000Y-69360000D01*
X45160000Y-39270000D02*
X45160000Y-95350000D01*
X45160000Y-95350000D02*
X38660000Y-95350000D01*
X46470000Y-37970000D02*
X46470000Y-96650000D01*
X46470000Y-96650000D02*
X37350000Y-96650000D01*
%TO.C,U6*%
X74870000Y-44340000D02*
X74870000Y-45990000D01*
X74870000Y-47990000D02*
X74870000Y-49640000D01*
X74870000Y-49640000D02*
X95310000Y-49640000D01*
X95310000Y-44340000D02*
X74870000Y-44340000D01*
X95310000Y-49640000D02*
X95310000Y-44340000D01*
X74810000Y-41850000D02*
X95370000Y-41850000D01*
X95370000Y-52130000D01*
X74810000Y-52130000D01*
X74810000Y-41850000D01*
X74870000Y-45990000D02*
G75*
G02*
X74870000Y-47990000I0J-1000000D01*
G01*
%TO.C,U2*%
X126765000Y-74420000D02*
X126765000Y-94220000D01*
X126765000Y-94220000D02*
X145015000Y-94220000D01*
X127765000Y-73420000D02*
X126765000Y-74420000D01*
X134890000Y-73420000D02*
X127765000Y-73420000D01*
X145015000Y-73420000D02*
X136890000Y-73420000D01*
X145015000Y-94220000D02*
X145015000Y-73420000D01*
%TO.C,J1*%
X53740000Y-42680000D02*
X53740000Y-43680000D01*
X53740000Y-43680000D02*
X54740000Y-43180000D01*
X54740000Y-43180000D02*
X53740000Y-42680000D01*
X55130000Y-37970000D02*
X64250000Y-37970000D01*
X55130000Y-65260000D02*
X56440000Y-65260000D01*
X55130000Y-96650000D02*
X55130000Y-37970000D01*
X56440000Y-39270000D02*
X62940000Y-39270000D01*
X56440000Y-65260000D02*
X56440000Y-39270000D01*
X56440000Y-69360000D02*
X55130000Y-69360000D01*
X56440000Y-95350000D02*
X56440000Y-69360000D01*
X62940000Y-39270000D02*
X62940000Y-95350000D01*
X62940000Y-95350000D02*
X56440000Y-95350000D01*
X64250000Y-37970000D02*
X64250000Y-96650000D01*
X64250000Y-96650000D02*
X55130000Y-96650000D01*
%TO.C,C6*%
X69750000Y-57070000D02*
X70087000Y-57070000D01*
X69750000Y-62310000D02*
X69750000Y-57070000D01*
X70087000Y-62310000D02*
X69750000Y-62310000D01*
X72153000Y-57070000D02*
X72490000Y-57070000D01*
X72490000Y-57070000D02*
X72490000Y-62310000D01*
X72490000Y-62310000D02*
X72153000Y-62310000D01*
%TO.C,U3*%
X105410000Y-73420000D02*
X105410000Y-93860000D01*
X105410000Y-93860000D02*
X110710000Y-93860000D01*
X107060000Y-73420000D02*
X105410000Y-73420000D01*
X110710000Y-73420000D02*
X109060000Y-73420000D01*
X110710000Y-93860000D02*
X110710000Y-73420000D01*
X102920000Y-73360000D02*
X113200000Y-73360000D01*
X113200000Y-93920000D01*
X102920000Y-93920000D01*
X102920000Y-73360000D01*
X109060000Y-73420000D02*
G75*
G02*
X107060000Y-73420000I-1000000J0D01*
G01*
%TD*%
M02*
