%TF.GenerationSoftware,KiCad,Pcbnew,10.0.3*%
%TF.CreationDate,2026-08-13T09:16:22+02:00*%
%TF.ProjectId,p2000m-cpm-coboard,70323030-306d-42d6-9370-6d2d636f626f,rev?*%
%TF.SameCoordinates,Original*%
%TF.FileFunction,Soldermask,Bot*%
%TF.FilePolarity,Negative*%
%FSLAX46Y46*%
G04 Gerber Fmt 4.6, Leading zero omitted, Abs format (unit mm)*
G04 Created by KiCad (PCBNEW 10.0.3) date 2026-08-13 09:16:22*
%MOMM*%
%LPD*%
G01*
G04 APERTURE LIST*
G04 Aperture macros list*
%AMRoundRect*
0 Rectangle with rounded corners*
0 $1 Rounding radius*
0 $2 $3 $4 $5 $6 $7 $8 $9 X,Y pos of 4 corners*
0 Add a 4 corners polygon primitive as box body*
4,1,4,$2,$3,$4,$5,$6,$7,$8,$9,$2,$3,0*
0 Add four circle primitives for the rounded corners*
1,1,$1+$1,$2,$3*
1,1,$1+$1,$4,$5*
1,1,$1+$1,$6,$7*
1,1,$1+$1,$8,$9*
0 Add four rect primitives between the rounded corners*
20,1,$1+$1,$2,$3,$4,$5,0*
20,1,$1+$1,$4,$5,$6,$7,0*
20,1,$1+$1,$6,$7,$8,$9,0*
20,1,$1+$1,$8,$9,$2,$3,0*%
G04 Aperture macros list end*
%ADD10RoundRect,0.250000X0.550000X-0.550000X0.550000X0.550000X-0.550000X0.550000X-0.550000X-0.550000X0*%
%ADD11C,1.600000*%
%ADD12RoundRect,0.250001X-0.799999X0.799999X-0.799999X-0.799999X0.799999X-0.799999X0.799999X0.799999X0*%
%ADD13C,2.100000*%
%ADD14R,1.700000X1.700000*%
%ADD15C,1.700000*%
%ADD16RoundRect,0.250000X-0.600000X-0.600000X0.600000X-0.600000X0.600000X0.600000X-0.600000X0.600000X0*%
%ADD17R,1.422400X1.422400*%
%ADD18C,1.422400*%
%ADD19RoundRect,0.250000X-0.550000X-0.550000X0.550000X-0.550000X0.550000X0.550000X-0.550000X0.550000X0*%
G04 APERTURE END LIST*
D10*
%TO.C,U7*%
X76200000Y-88900000D03*
D11*
X78740000Y-88900000D03*
X81280000Y-88900000D03*
X83820000Y-88900000D03*
X86360000Y-88900000D03*
X88900000Y-88900000D03*
X91440000Y-88900000D03*
X93980000Y-88900000D03*
X93980000Y-81280000D03*
X91440000Y-81280000D03*
X88900000Y-81280000D03*
X86360000Y-81280000D03*
X83820000Y-81280000D03*
X81280000Y-81280000D03*
X78740000Y-81280000D03*
X76200000Y-81280000D03*
%TD*%
D12*
%TO.C,J5*%
X148547500Y-41910000D03*
D13*
X148547500Y-46990000D03*
%TD*%
D14*
%TO.C,J4*%
X137160000Y-45720000D03*
D15*
X137160000Y-43180000D03*
%TD*%
D14*
%TO.C,J3*%
X149860000Y-86360000D03*
D15*
X149860000Y-83820000D03*
X149860000Y-81280000D03*
%TD*%
D11*
%TO.C,C5*%
X71120000Y-44490000D03*
X71120000Y-49490000D03*
%TD*%
%TO.C,C4*%
X73660000Y-69890000D03*
X73660000Y-74890000D03*
%TD*%
%TO.C,R1*%
X93980000Y-93980000D03*
X86360000Y-93980000D03*
%TD*%
D10*
%TO.C,U5*%
X76200000Y-63500000D03*
D11*
X78740000Y-63500000D03*
X81280000Y-63500000D03*
X83820000Y-63500000D03*
X86360000Y-63500000D03*
X88900000Y-63500000D03*
X91440000Y-63500000D03*
X93980000Y-63500000D03*
X93980000Y-55880000D03*
X91440000Y-55880000D03*
X88900000Y-55880000D03*
X86360000Y-55880000D03*
X83820000Y-55880000D03*
X81280000Y-55880000D03*
X78740000Y-55880000D03*
X76200000Y-55880000D03*
%TD*%
%TO.C,C1*%
X104372200Y-57694400D03*
X104372200Y-62694400D03*
%TD*%
%TO.C,C2*%
X124460000Y-81360000D03*
X124460000Y-86360000D03*
%TD*%
%TO.C,R3*%
X149500000Y-54690000D03*
X149500000Y-62310000D03*
%TD*%
D10*
%TO.C,U4*%
X78740000Y-76200000D03*
D11*
X81280000Y-76200000D03*
X83820000Y-76200000D03*
X86360000Y-76200000D03*
X88900000Y-76200000D03*
X91440000Y-76200000D03*
X93980000Y-76200000D03*
X93980000Y-68580000D03*
X91440000Y-68580000D03*
X88900000Y-68580000D03*
X86360000Y-68580000D03*
X83820000Y-68580000D03*
X81280000Y-68580000D03*
X78740000Y-68580000D03*
%TD*%
%TO.C,C3*%
X71120000Y-82590000D03*
X71120000Y-87590000D03*
%TD*%
%TO.C,R2*%
X76200000Y-93980000D03*
X83820000Y-93980000D03*
%TD*%
%TO.C,C7*%
X148250000Y-69500000D03*
X150750000Y-69500000D03*
%TD*%
D10*
%TO.C,U1*%
X109452200Y-67854400D03*
D11*
X111992200Y-67854400D03*
X114532200Y-67854400D03*
X117072200Y-67854400D03*
X119612200Y-67854400D03*
X122152200Y-67854400D03*
X124692200Y-67854400D03*
X127232200Y-67854400D03*
X129772200Y-67854400D03*
X132312200Y-67854400D03*
X134852200Y-67854400D03*
X137392200Y-67854400D03*
X139932200Y-67854400D03*
X142472200Y-67854400D03*
X142472200Y-52614400D03*
X139932200Y-52614400D03*
X137392200Y-52614400D03*
X134852200Y-52614400D03*
X132312200Y-52614400D03*
X129772200Y-52614400D03*
X127232200Y-52614400D03*
X124692200Y-52614400D03*
X122152200Y-52614400D03*
X119612200Y-52614400D03*
X117072200Y-52614400D03*
X114532200Y-52614400D03*
X111992200Y-52614400D03*
X109452200Y-52614400D03*
%TD*%
D16*
%TO.C,J2*%
X40640000Y-43180000D03*
D15*
X43180000Y-43180000D03*
X40640000Y-45720000D03*
X43180000Y-45720000D03*
X40640000Y-48260000D03*
X43180000Y-48260000D03*
X40640000Y-50800000D03*
X43180000Y-50800000D03*
X40640000Y-53340000D03*
X43180000Y-53340000D03*
X40640000Y-55880000D03*
X43180000Y-55880000D03*
X40640000Y-58420000D03*
X43180000Y-58420000D03*
X40640000Y-60960000D03*
X43180000Y-60960000D03*
X40640000Y-63500000D03*
X43180000Y-63500000D03*
X40640000Y-66040000D03*
X43180000Y-66040000D03*
X40640000Y-68580000D03*
X43180000Y-68580000D03*
X40640000Y-71120000D03*
X43180000Y-71120000D03*
X40640000Y-73660000D03*
X43180000Y-73660000D03*
X40640000Y-76200000D03*
X43180000Y-76200000D03*
X40640000Y-78740000D03*
X43180000Y-78740000D03*
X40640000Y-81280000D03*
X43180000Y-81280000D03*
X40640000Y-83820000D03*
X43180000Y-83820000D03*
X40640000Y-86360000D03*
X43180000Y-86360000D03*
X40640000Y-88900000D03*
X43180000Y-88900000D03*
X40640000Y-91440000D03*
X43180000Y-91440000D03*
%TD*%
D10*
%TO.C,U6*%
X76200000Y-50800000D03*
D11*
X78740000Y-50800000D03*
X81280000Y-50800000D03*
X83820000Y-50800000D03*
X86360000Y-50800000D03*
X88900000Y-50800000D03*
X91440000Y-50800000D03*
X93980000Y-50800000D03*
X93980000Y-43180000D03*
X91440000Y-43180000D03*
X88900000Y-43180000D03*
X86360000Y-43180000D03*
X83820000Y-43180000D03*
X81280000Y-43180000D03*
X78740000Y-43180000D03*
X76200000Y-43180000D03*
%TD*%
D17*
%TO.C,U2*%
X137160000Y-78740000D03*
D18*
X134620000Y-76200000D03*
X134620000Y-78740000D03*
X132080000Y-76200000D03*
X129540000Y-78740000D03*
X132080000Y-78740000D03*
X129540000Y-81280000D03*
X132080000Y-81280000D03*
X129540000Y-83820000D03*
X132080000Y-83820000D03*
X129540000Y-86360000D03*
X132080000Y-86360000D03*
X129540000Y-88900000D03*
X132080000Y-91440000D03*
X132080000Y-88900000D03*
X134620000Y-91440000D03*
X134620000Y-88900000D03*
X137160000Y-91440000D03*
X137160000Y-88900000D03*
X139700000Y-91440000D03*
X142240000Y-88900000D03*
X139700000Y-88900000D03*
X142240000Y-86360000D03*
X139700000Y-86360000D03*
X142240000Y-83820000D03*
X139700000Y-83820000D03*
X142240000Y-81280000D03*
X139700000Y-81280000D03*
X142240000Y-78740000D03*
X139700000Y-76200000D03*
X139700000Y-78740000D03*
X137160000Y-76200000D03*
%TD*%
D16*
%TO.C,J1*%
X58420000Y-43180000D03*
D15*
X60960000Y-43180000D03*
X58420000Y-45720000D03*
X60960000Y-45720000D03*
X58420000Y-48260000D03*
X60960000Y-48260000D03*
X58420000Y-50800000D03*
X60960000Y-50800000D03*
X58420000Y-53340000D03*
X60960000Y-53340000D03*
X58420000Y-55880000D03*
X60960000Y-55880000D03*
X58420000Y-58420000D03*
X60960000Y-58420000D03*
X58420000Y-60960000D03*
X60960000Y-60960000D03*
X58420000Y-63500000D03*
X60960000Y-63500000D03*
X58420000Y-66040000D03*
X60960000Y-66040000D03*
X58420000Y-68580000D03*
X60960000Y-68580000D03*
X58420000Y-71120000D03*
X60960000Y-71120000D03*
X58420000Y-73660000D03*
X60960000Y-73660000D03*
X58420000Y-76200000D03*
X60960000Y-76200000D03*
X58420000Y-78740000D03*
X60960000Y-78740000D03*
X58420000Y-81280000D03*
X60960000Y-81280000D03*
X58420000Y-83820000D03*
X60960000Y-83820000D03*
X58420000Y-86360000D03*
X60960000Y-86360000D03*
X58420000Y-88900000D03*
X60960000Y-88900000D03*
X58420000Y-91440000D03*
X60960000Y-91440000D03*
%TD*%
D11*
%TO.C,C6*%
X71120000Y-57190000D03*
X71120000Y-62190000D03*
%TD*%
D19*
%TO.C,U3*%
X104250000Y-74750000D03*
D11*
X104250000Y-77290000D03*
X104250000Y-79830000D03*
X104250000Y-82370000D03*
X104250000Y-84910000D03*
X104250000Y-87450000D03*
X104250000Y-89990000D03*
X104250000Y-92530000D03*
X111870000Y-92530000D03*
X111870000Y-89990000D03*
X111870000Y-87450000D03*
X111870000Y-84910000D03*
X111870000Y-82370000D03*
X111870000Y-79830000D03*
X111870000Y-77290000D03*
X111870000Y-74750000D03*
%TD*%
M02*
