M48
; DRILL file KiCad 10.0.3 date 2026-08-13T09:16:23
; FORMAT={-:-/ absolute / metric / decimal}
; #@! TF.CreationDate,2026-08-13T09:16:23+02:00
; #@! TF.GenerationSoftware,Kicad,Pcbnew,10.0.3
; #@! TF.FileFunction,Plated,1,2,PTH
FMAT,2
METRIC
; #@! TA.AperFunction,Plated,PTH,ViaDrill
T1C0.300
; #@! TA.AperFunction,Plated,PTH,ComponentDrill
T2C0.800
; #@! TA.AperFunction,Plated,PTH,ComponentDrill
T3C1.000
; #@! TA.AperFunction,Plated,PTH,ComponentDrill
T4C1.100
%
G90
G05
T1
X59.172Y-40.7
X60.003Y-49.227
X62.696Y-75.805
X62.765Y-72.782
X63.108Y-67.024
X63.192Y-80.813
X63.333Y-66.16
X64.166Y-48.703
X64.91Y-68.067
X66.311Y-51.854
X66.398Y-64.057
X66.559Y-48.136
X67.2Y-54.123
X67.277Y-45.773
X67.287Y-50.988
X68.005Y-76.811
X68.228Y-47.992
X68.944Y-91.921
X69.569Y-39.356
X69.569Y-41.555
X69.57Y-77.334
X70.3Y-41.075
X70.75Y-46.833
X72.037Y-47.191
X72.074Y-64.467
X74.764Y-70.768
X74.967Y-79.958
X76.256Y-65.936
X76.424Y-66.785
X76.893Y-74.518
X77.669Y-79.136
X77.696Y-65.893
X78.435Y-49.411
X79.404Y-66.156
X82.147Y-54.582
X82.709Y-56.876
X83.958Y-54.384
X87.32Y-61.77
X89.348Y-79.427
X90.354Y-66.474
X92.677Y-92.57
X92.725Y-74.235
X93.226Y-48.721
X93.83Y-52.987
X93.98Y-47.625
X96.217Y-46.833
X96.217Y-93.069
X98.291Y-62.966
X98.291Y-82.411
X98.457Y-91.553
X99.407Y-61.249
X100.009Y-77.345
X100.107Y-71.075
X100.107Y-83.235
X100.618Y-65.433
X101.388Y-84.161
X101.982Y-79.966
X102.56Y-85.116
X104.25Y-96.52
X105.33Y-54.758
X106.567Y-53.284
X106.88Y-81.381
X107.943Y-44.677
X109.4Y-84.691
X109.5Y-71.75
X110.366Y-53.651
X116.738Y-95.007
X122.601Y-46.009
X123.209Y-57.175
X123.266Y-60.78
X125.531Y-45.594
X125.743Y-84.25
X126.721Y-86.983
X129.5Y-76.0
X132.05Y-77.469
X132.052Y-61.931
X133.331Y-86.423
X133.681Y-55.068
X134.25Y-87.0
X135.0Y-83.75
T2
X71.12Y-44.49
X71.12Y-49.49
X71.12Y-57.19
X71.12Y-62.19
X71.12Y-82.59
X71.12Y-87.59
X73.66Y-69.89
X73.66Y-74.89
X76.2Y-43.18
X76.2Y-50.8
X76.2Y-55.88
X76.2Y-63.5
X76.2Y-81.28
X76.2Y-88.9
X76.2Y-93.98
X78.74Y-43.18
X78.74Y-50.8
X78.74Y-55.88
X78.74Y-63.5
X78.74Y-68.58
X78.74Y-76.2
X78.74Y-81.28
X78.74Y-88.9
X81.28Y-43.18
X81.28Y-50.8
X81.28Y-55.88
X81.28Y-63.5
X81.28Y-68.58
X81.28Y-76.2
X81.28Y-81.28
X81.28Y-88.9
X83.82Y-43.18
X83.82Y-50.8
X83.82Y-55.88
X83.82Y-63.5
X83.82Y-68.58
X83.82Y-76.2
X83.82Y-81.28
X83.82Y-88.9
X83.82Y-93.98
X86.36Y-43.18
X86.36Y-50.8
X86.36Y-55.88
X86.36Y-63.5
X86.36Y-68.58
X86.36Y-76.2
X86.36Y-81.28
X86.36Y-88.9
X86.36Y-93.98
X88.9Y-43.18
X88.9Y-50.8
X88.9Y-55.88
X88.9Y-63.5
X88.9Y-68.58
X88.9Y-76.2
X88.9Y-81.28
X88.9Y-88.9
X91.44Y-43.18
X91.44Y-50.8
X91.44Y-55.88
X91.44Y-63.5
X91.44Y-68.58
X91.44Y-76.2
X91.44Y-81.28
X91.44Y-88.9
X93.98Y-43.18
X93.98Y-50.8
X93.98Y-55.88
X93.98Y-63.5
X93.98Y-68.58
X93.98Y-76.2
X93.98Y-81.28
X93.98Y-88.9
X93.98Y-93.98
X104.25Y-74.75
X104.25Y-77.29
X104.25Y-79.83
X104.25Y-82.37
X104.25Y-84.91
X104.25Y-87.45
X104.25Y-89.99
X104.25Y-92.53
X104.372Y-57.694
X104.372Y-62.694
X109.452Y-52.614
X109.452Y-67.854
X111.87Y-74.75
X111.87Y-77.29
X111.87Y-79.83
X111.87Y-82.37
X111.87Y-84.91
X111.87Y-87.45
X111.87Y-89.99
X111.87Y-92.53
X111.992Y-52.614
X111.992Y-67.854
X114.532Y-52.614
X114.532Y-67.854
X117.072Y-52.614
X117.072Y-67.854
X119.612Y-52.614
X119.612Y-67.854
X122.152Y-52.614
X122.152Y-67.854
X124.46Y-81.36
X124.46Y-86.36
X124.692Y-52.614
X124.692Y-67.854
X127.232Y-52.614
X127.232Y-67.854
X129.54Y-78.74
X129.54Y-81.28
X129.54Y-83.82
X129.54Y-86.36
X129.54Y-88.9
X129.772Y-52.614
X129.772Y-67.854
X132.08Y-76.2
X132.08Y-78.74
X132.08Y-81.28
X132.08Y-83.82
X132.08Y-86.36
X132.08Y-88.9
X132.08Y-91.44
X132.312Y-52.614
X132.312Y-67.854
X134.62Y-76.2
X134.62Y-78.74
X134.62Y-88.9
X134.62Y-91.44
X134.852Y-52.614
X134.852Y-67.854
X137.16Y-76.2
X137.16Y-78.74
X137.16Y-88.9
X137.16Y-91.44
X137.392Y-52.614
X137.392Y-67.854
X139.7Y-76.2
X139.7Y-78.74
X139.7Y-81.28
X139.7Y-83.82
X139.7Y-86.36
X139.7Y-88.9
X139.7Y-91.44
X139.932Y-52.614
X139.932Y-67.854
X142.24Y-78.74
X142.24Y-81.28
X142.24Y-83.82
X142.24Y-86.36
X142.24Y-88.9
X142.472Y-52.614
X142.472Y-67.854
X148.25Y-69.5
X149.5Y-54.69
X149.5Y-62.31
X150.75Y-69.5
T3
X40.64Y-43.18
X40.64Y-45.72
X40.64Y-48.26
X40.64Y-50.8
X40.64Y-53.34
X40.64Y-55.88
X40.64Y-58.42
X40.64Y-60.96
X40.64Y-63.5
X40.64Y-66.04
X40.64Y-68.58
X40.64Y-71.12
X40.64Y-73.66
X40.64Y-76.2
X40.64Y-78.74
X40.64Y-81.28
X40.64Y-83.82
X40.64Y-86.36
X40.64Y-88.9
X40.64Y-91.44
X43.18Y-43.18
X43.18Y-45.72
X43.18Y-48.26
X43.18Y-50.8
X43.18Y-53.34
X43.18Y-55.88
X43.18Y-58.42
X43.18Y-60.96
X43.18Y-63.5
X43.18Y-66.04
X43.18Y-68.58
X43.18Y-71.12
X43.18Y-73.66
X43.18Y-76.2
X43.18Y-78.74
X43.18Y-81.28
X43.18Y-83.82
X43.18Y-86.36
X43.18Y-88.9
X43.18Y-91.44
X58.42Y-43.18
X58.42Y-45.72
X58.42Y-48.26
X58.42Y-50.8
X58.42Y-53.34
X58.42Y-55.88
X58.42Y-58.42
X58.42Y-60.96
X58.42Y-63.5
X58.42Y-66.04
X58.42Y-68.58
X58.42Y-71.12
X58.42Y-73.66
X58.42Y-76.2
X58.42Y-78.74
X58.42Y-81.28
X58.42Y-83.82
X58.42Y-86.36
X58.42Y-88.9
X58.42Y-91.44
X60.96Y-43.18
X60.96Y-45.72
X60.96Y-48.26
X60.96Y-50.8
X60.96Y-53.34
X60.96Y-55.88
X60.96Y-58.42
X60.96Y-60.96
X60.96Y-63.5
X60.96Y-66.04
X60.96Y-68.58
X60.96Y-71.12
X60.96Y-73.66
X60.96Y-76.2
X60.96Y-78.74
X60.96Y-81.28
X60.96Y-83.82
X60.96Y-86.36
X60.96Y-88.9
X60.96Y-91.44
X137.16Y-43.18
X137.16Y-45.72
X149.86Y-81.28
X149.86Y-83.82
X149.86Y-86.36
T4
X148.547Y-41.91
X148.547Y-46.99
M30
